<svg id="Layer_1" data-name="Layer 1" xmlns="http://www.w3.org/2000/svg" viewBox="0 0 29.29 29.29"><defs><style>.cls-1{fill:#1aa456;}</style></defs><path class="cls-1" d="M26.41,26.51H3A2.43,2.43,0,0,1,.5,24.11V8.91A2.43,2.43,0,0,1,3,6.51H26.41a2.43,2.43,0,0,1,2.45,2.4v15.2A2.43,2.43,0,0,1,26.41,26.51ZM3,7.51A1.43,1.43,0,0,0,1.5,8.91v15.2A1.43,1.43,0,0,0,3,25.51H26.41a1.43,1.43,0,0,0,1.45-1.4V8.91a1.43,1.43,0,0,0-1.45-1.4Zm15.64,13.3A4.3,4.3,0,1,1,23,16.51,4.36,4.36,0,0,1,18.59,20.81Zm0-7.6A3.3,3.3,0,1,0,22,16.51,3.36,3.36,0,0,0,18.59,13.21ZM13.7,3.71H3.93v-1H13.7Z"/></svg>