<svg id="Layer_1" data-name="Layer 1" xmlns="http://www.w3.org/2000/svg" viewBox="0 0 34 32"><defs><style>.cls-1{fill:none;}.cls-1,.cls-3{stroke:#1aa456;stroke-linecap:round;stroke-linejoin:round;}.cls-2,.cls-3{fill:#fff;}</style></defs><path class="cls-1" d="M3.28,24.74l4.34-6.56a.19.19,0,0,1,.31,0l4.47,6.76"/><path class="cls-1" d="M6.13,20.38l.44.49a.24.24,0,0,0,.26,0l.78-.27h.11l.1,0,.61.28.11,0,.11,0,.9-.33"/><path class="cls-2" d="M17.53,26.49l-5.11-7.18a.23.23,0,0,0-.33,0l-6,7.34"/><path class="cls-1" d="M17.53,26.49l-5.11-7.18a.23.23,0,0,0-.33,0l-6,7.34"/><path class="cls-1" d="M10.12,21.53l.6.35.09,0a.19.19,0,0,0,.09,0l.58-.31a.17.17,0,0,1,.23,0L12,22a.17.17,0,0,0,.23,0l.44-.3a.17.17,0,0,1,.1,0,.14.14,0,0,1,.09,0l.29.2,0,0h.11l.05,0,.81-.4"/><path class="cls-1" d="M24.94,10.12h5.72a2.54,2.54,0,0,1,2.26,2.72V27.91a2.54,2.54,0,0,1-2.26,2.73H3.26A2.54,2.54,0,0,1,1,27.91V12.84a2.54,2.54,0,0,1,2.26-2.72H9.55"/><path class="cls-1" d="M9.55,10.12V7.52A2.43,2.43,0,0,1,11.83,5H22.66a2.43,2.43,0,0,1,2.28,2.53v2.6"/><path class="cls-1" d="M19.44,7.84h-5A1.52,1.52,0,0,0,13,9.38v.34a1.52,1.52,0,0,0,1.51,1.54h5A1.52,1.52,0,0,0,21,9.72V9.38A1.52,1.52,0,0,0,19.44,7.84Z"/><path class="cls-3" d="M17,1a2.24,2.24,0,0,1,1.61.71,2.51,2.51,0,0,1,.67,1.72V9H14.68V3.43a2.51,2.51,0,0,1,.67-1.72A2.2,2.2,0,0,1,17,1Z"/><path class="cls-1" d="M17,5a1.14,1.14,0,1,0-1.14-1.14A1.14,1.14,0,0,0,17,5Z"/><path class="cls-1" d="M20.38,19.24H29.5"/><path class="cls-1" d="M20.38,22.09H29.5"/><path class="cls-1" d="M17.53,15.82H3.28V26.65H17.53Z"/></svg>