<svg id="Layer_1" data-name="Layer 1" xmlns="http://www.w3.org/2000/svg" viewBox="0 0 37 31.98"><defs><style>.cls-1{fill:#1aa456;}</style></defs><path class="cls-1" d="M36,29.71H1a.5.5,0,0,1-.5-.5V26.93a.46.46,0,0,1,.07-.26l4.56-7.6.86.51L1.5,27.06v1.65h34V27.07l-3.72-6,.84-.53,3.8,6.08a.5.5,0,0,1,.08.27v2.28A.5.5,0,0,1,36,29.71Z"/><rect class="cls-1" x="14.68" y="15.79" width="5.32" height="1"/><path class="cls-1" d="M9.36,22.1a.49.49,0,0,1-.48-.36,11.67,11.67,0,0,0-2.35-4.16C5.38,16.12,4.3,14.73,4.3,12.49a5.06,5.06,0,1,1,10.12,0c0,2.24-1.08,3.63-2.23,5.09a11.67,11.67,0,0,0-2.35,4.16A.49.49,0,0,1,9.36,22.1Zm0-13.67A4,4,0,0,0,5.3,12.49c0,1.89.93,3.09,2,4.48a14.81,14.81,0,0,1,2,3.17,14.81,14.81,0,0,1,2-3.17c1.09-1.39,2-2.59,2-4.48A4,4,0,0,0,9.36,8.43Z"/><path class="cls-1" d="M26.32,27.43a.5.5,0,0,1-.49-.37,20.94,20.94,0,0,0-4.26-7.56c-2-2.57-3.88-5-3.88-8.82a8.63,8.63,0,0,1,17.25,0c0,3.83-1.88,6.25-3.88,8.82a20.94,20.94,0,0,0-4.26,7.56A.5.5,0,0,1,26.32,27.43Zm0-24.38a7.63,7.63,0,0,0-7.63,7.63c0,3.49,1.7,5.67,3.67,8.2a24.79,24.79,0,0,1,4,6.45,24.25,24.25,0,0,1,3.95-6.45c2-2.53,3.67-4.71,3.67-8.2a7.63,7.63,0,0,0-7.62-7.63Z"/><path class="cls-1" d="M26.45,13.75a3.16,3.16,0,0,1-2.23-5.4,3.24,3.24,0,0,1,4.47,0,3.17,3.17,0,0,1,0,4.47A3.14,3.14,0,0,1,26.45,13.75Zm0-5.32a2.16,2.16,0,0,0-1.53.63,2.18,2.18,0,0,0-.63,1.53,2.16,2.16,0,0,0,.63,1.52,2.21,2.21,0,0,0,3.06,0,2.12,2.12,0,0,0,.63-1.52A2.14,2.14,0,0,0,28,9.06,2.18,2.18,0,0,0,26.45,8.43Z"/></svg>