<svg width="28" height="28" viewBox="0 0 28 28" fill="none" xmlns="http://www.w3.org/2000/svg">
    <g clip-path="url(#clip0_808_1710)">
        <path
            d="M11.7783 10.2964C11.7783 8.67407 13.9228 8.67407 13.9228 7.06465C13.9228 5.45523 11.7783 5.43584 11.7783 3.83289"
            stroke="#68B545" stroke-width="0.9" stroke-linecap="round" stroke-linejoin="round" />
        <path d="M13.8325 10.2964C13.8325 8.88732 15.6936 8.88732 15.6936 7.47827" stroke="#68B545" stroke-width="0.9"
            stroke-linecap="round" stroke-linejoin="round" />
        <path d="M15.1399 10.3158C17.2771 10.3428 19.4115 10.4809 21.5346 10.7295" stroke="#68B545" stroke-width="0.9"
            stroke-linecap="round" stroke-linejoin="round" />
        <path
            d="M20.6008 12.7913C19.0102 12.9594 17.046 13.0693 14.8951 13.1016C14.3671 13.1016 13.8326 13.1016 13.2852 13.1016C6.96782 13.1016 1.8418 12.4552 1.8418 11.6861C1.8418 11.3047 3.08466 10.9557 5.09386 10.7036C6.52992 10.5226 8.34593 10.3869 10.3873 10.3223"
            stroke="#68B545" stroke-width="0.9" stroke-linecap="round" stroke-linejoin="round" />
        <path
            d="M19.8924 16.9344C17.2521 17.1929 14.9789 17.2705 13.1758 17.277C11.6131 17.277 10.0503 17.2339 8.48764 17.1477C7.3156 17.0766 6.15001 16.9861 4.98442 16.8633C4.13437 16.7728 3.28432 16.65 2.40852 16.5401C2.09297 16.5014 1.5971 16.3721 1.41035 16.5401C1.27636 16.6639 1.18977 16.8308 1.16563 17.012C1.0773 17.4284 1.09951 17.8608 1.23003 18.2659C1.30203 18.4688 1.4254 18.6493 1.58799 18.7899C1.75057 18.9304 1.94679 19.026 2.15736 19.0674L2.36988 19.1191"
            stroke="#68B545" stroke-width="0.9" stroke-linecap="round" stroke-linejoin="round" />
        <path
            d="M2.4021 19.0997C3.3101 19.1967 4.57229 19.3324 6.07919 19.4488C8.13346 19.6103 10.587 19.8107 13.7103 19.7784C15.346 19.7784 17.4969 19.6814 20.0406 19.4164"
            stroke="#68B545" stroke-width="0.9" stroke-linecap="round" stroke-linejoin="round" />
        <path
            d="M4.334 27.1015L4.12149 27.0628C3.90957 27.0263 3.71078 26.9349 3.54477 26.7978C3.37876 26.6606 3.25127 26.4824 3.17485 26.2807C3.03042 25.8814 2.99701 25.4501 3.07824 25.0332C3.09902 24.8519 3.18081 24.6832 3.31008 24.5549C3.45577 24.4761 3.62437 24.4509 3.78661 24.4838C3.96049 24.4838 4.16012 24.5291 4.31468 24.5485C4.58515 24.5485 4.86205 24.5872 5.13252 24.6389C7.98925 24.9525 10.8626 25.0885 13.736 25.0461"
            stroke="#68B545" stroke-width="0.9" stroke-linecap="round" stroke-linejoin="round" />
        <path
            d="M4.33398 27.1016C5.24843 27.1856 6.51062 27.289 8.01752 27.3666C10.0718 27.4764 12.5575 27.6186 15.6615 27.5088"
            stroke="#68B545" stroke-width="0.9" stroke-linecap="round" stroke-linejoin="round" />
        <path d="M3.79953 24.4838C3.11031 22.7529 2.6408 20.9418 2.4021 19.0933" stroke="#68B545" stroke-width="0.9"
            stroke-linecap="round" stroke-linejoin="round" />
        <path
            d="M2.04134 16.482C1.98737 13.9838 1.80683 11.4899 1.50041 9.01015C1.27225 7.8294 0.979866 6.66206 0.624591 5.51338C0.163873 4.24425 0.163873 2.85269 0.624591 1.58356C0.797816 1.15724 1.10989 0.802438 1.50988 0.577052C1.90987 0.351666 2.37417 0.269006 2.82699 0.34256C4.65588 0.853179 5.0809 3.51615 4.97786 5.10618C4.82529 6.42315 4.76933 7.74959 4.81042 9.07479"
            stroke="#68B545" stroke-width="0.9" stroke-linecap="round" stroke-linejoin="round" />
        <path
            d="M3.41951 3.72294C3.49034 4.4921 3.21989 5.14491 2.80774 5.18369C2.3956 5.22247 2.00276 4.62783 1.93193 3.85867C1.86109 3.08951 2.138 2.43669 2.5759 2.39791C3.0138 2.35913 3.34867 2.95378 3.41951 3.72294Z"
            stroke="#68B545" stroke-width="0.9" stroke-linecap="round" stroke-linejoin="round" />
        <path
            d="M23.7113 23.2622C23.7113 23.6758 21.8437 24.096 19.5061 24.1994C17.1685 24.3028 15.2494 24.0507 15.2301 23.6371C15.2108 23.2234 17.0977 22.8033 19.4353 22.6999C20.4125 22.6459 21.3924 22.6718 22.3654 22.7774"
            stroke="#68B545" stroke-width="0.9" stroke-linecap="round" stroke-linejoin="round" />
        <path
            d="M15.23 23.6371C15.2795 24.7659 15.7738 25.8288 16.6041 26.5918C17.4344 27.3548 18.5326 27.7556 19.6573 27.7059C20.782 27.6562 21.8409 27.1601 22.6011 26.3267C23.3614 25.4934 23.7606 24.391 23.7111 23.2622"
            stroke="#68B545" stroke-width="0.9" stroke-linecap="round" stroke-linejoin="round" />
        <path
            d="M21.5473 22.7063C21.4507 20.3277 21.3026 14.3748 22.1913 12.3647C22.3731 11.9177 22.6422 11.5118 22.9829 11.171C23.3236 10.8302 23.7288 10.5614 24.1747 10.3804C25.1177 10.0474 26.1485 10.0657 27.0791 10.4321C27.2942 10.5703 27.4528 10.7813 27.5264 11.0268C27.5999 11.2723 27.5834 11.5362 27.4799 11.7705C27.3764 12.0049 27.1926 12.1943 26.962 12.3045C26.7314 12.4147 26.4691 12.4383 26.2226 12.3711C26.0321 12.2872 25.827 12.2422 25.619 12.2388C25.411 12.2354 25.2045 12.2736 25.0114 12.3512C24.8184 12.4289 24.6426 12.5444 24.4946 12.6909C24.3465 12.8375 24.229 13.0123 24.149 13.2049C23.505 14.6592 23.5565 20.276 23.7304 23.4819C23.7433 23.5871 23.7433 23.6935 23.7304 23.7987"
            stroke="#68B545" stroke-width="0.9" stroke-linecap="round" stroke-linejoin="round" />
    </g>
    <defs>
        <clipPath id="clip0_808_1710">
            <rect width="28" height="28" fill="white" />
        </clipPath>
    </defs>
</svg>