<svg id="Layer_1" data-name="Layer 1" xmlns="http://www.w3.org/2000/svg" viewBox="0 0 37 37"><path d="M22.31,25.23H14.8a.46.46,0,0,1-.38-.18,8.21,8.21,0,0,1,0-9.57.49.49,0,0,1,.38-.17h3.29V13.4l-5.38.67a.49.49,0,0,1-.56-.43s0,0,0-.06a.51.51,0,0,1,.44-.5l5.93-.74h0l5.93-.74A.5.5,0,0,1,25,12v.06a.49.49,0,0,1-.43.49l-5.52.69v2h3.37a.5.5,0,0,1,.39.18,8.22,8.22,0,0,1-.16,9.57A.5.5,0,0,1,22.31,25.23Zm-7.27-1h7a6.39,6.39,0,0,0,1.21-3.46h-9.4A6.41,6.41,0,0,0,15,24.23Zm4.05-4.46H23.3a6.42,6.42,0,0,0-1.09-3.46H19.09Zm-5.2,0h4.2V16.31H15A6.41,6.41,0,0,0,13.89,19.77Z"/></svg>