<svg id="Layer_1" data-name="Layer 1" xmlns="http://www.w3.org/2000/svg" viewBox="0 0 17 16"><path d="M14.93,15.5H2.07A1.56,1.56,0,0,1,.5,14V3.62A1.55,1.55,0,0,1,2.07,2.09H3.71V0h1V2.09h7.58V0h1V2.09h1.64A1.55,1.55,0,0,1,16.5,3.62V14A1.56,1.56,0,0,1,14.93,15.5ZM2.07,3.09a.56.56,0,0,0-.57.53V14a.56.56,0,0,0,.57.53H14.93A.56.56,0,0,0,15.5,14V3.62a.56.56,0,0,0-.57-.53H13.29V5.17h-1V3.09H4.71V5.17h-1V3.09Zm10.18,8.79H11.18v-1h1.07ZM9,11.88H8v-1H9Zm-3.22,0H4.75v-1H5.82Zm6.43-3.1H11.18v-1h1.07ZM9,8.78H8v-1H9Zm-3.22,0H4.75v-1H5.82Z"/></svg>