<svg id="Layer_1" data-name="Layer 1" xmlns="http://www.w3.org/2000/svg" viewBox="0 0 37 31.98"><path d="M36.42,26.62l-3.8-6.08-.84.53,3.72,6v1.64H1.5V27.06L6,19.58l-.86-.51L.57,26.67a.48.48,0,0,0-.07.26v2.28a.5.5,0,0,0,.5.5H36a.5.5,0,0,0,.46-.54V26.89A.5.5,0,0,0,36.42,26.62Z"/><path d="M8.88,21.74a.5.5,0,0,0,1,0,11.76,11.76,0,0,1,2.35-4.16c1.15-1.46,2.23-2.85,2.23-5.09h0a5.06,5.06,0,0,0-10.12,0c0,2.24,1.08,3.63,2.23,5.09A11.76,11.76,0,0,1,8.88,21.74ZM5.3,12.37A4,4,0,0,1,9.36,8.43h0a4,4,0,0,1,3.94,4.06c0,1.89-.91,3.09-2,4.48a14.74,14.74,0,0,0-2,3.17A14.74,14.74,0,0,0,7.3,17c-1.07-1.39-2-2.59-2-4.48Z"/><path d="M21.57,19.5a21,21,0,0,1,4.26,7.56.5.5,0,0,0,.49.37.49.49,0,0,0,.48-.37,21,21,0,0,1,4.26-7.56c2-2.57,3.88-5,3.88-8.82a8.63,8.63,0,0,0-17.25,0A10.44,10.44,0,0,0,19,15.79H14.68v1H19.6C20.19,17.72,20.87,18.6,21.57,19.5ZM26.32,3.05h0A7.63,7.63,0,0,1,34,10.68c0,3.49-1.67,5.67-3.67,8.2a24.16,24.16,0,0,0-3.95,6.45,24.59,24.59,0,0,0-4-6.45c-2-2.53-3.67-4.71-3.67-8.2A7.64,7.64,0,0,1,26.32,3.05Z"/><path d="M26.45,13.75a3.17,3.17,0,0,0,2.24-5.4,3.24,3.24,0,0,0-4.47,0,3.16,3.16,0,0,0,2.23,5.4ZM24.92,9.06a2.2,2.2,0,0,1,3.08,0,2.19,2.19,0,0,1,0,3,2.21,2.21,0,0,1-3.06,0,2.16,2.16,0,0,1-.63-1.52A2.2,2.2,0,0,1,24.92,9.06Z"/></svg>