<svg id="Layer_1" data-name="Layer 1" xmlns="http://www.w3.org/2000/svg" viewBox="0 0 32 32"><path d="M31.69,7.4a.52.52,0,0,0-.45-.07l-9.72,3.19-4.4-1.47L16.8,10,21,11.38V30.16l-10.4-2.68V23.2h-1v4.32L1.5,30.3V16.36H.5V31a.52.52,0,0,0,.21.41A.52.52,0,0,0,1,31.5a.32.32,0,0,0,.14,0l9-3.09,11.25,2.89a.55.55,0,0,0,.31,0l9.88-3.7a.5.5,0,0,0,.32-.47V7.81A.52.52,0,0,0,31.69,7.4Zm-.75,19.36L22,30.11V11.4l8.92-2.9Z"/><path d="M7.36,20.31a.5.5,0,0,0,1,0,14.14,14.14,0,0,1,3.6-5.67C13.59,12.78,15.18,11,15.18,8A7.34,7.34,0,0,0,.5,8c0,3,1.59,4.78,3.26,6.64A14.14,14.14,0,0,1,7.36,20.31ZM7.84,1.66A6.35,6.35,0,0,1,14.17,8c0,2.67-1.38,4.22-3,6a17.31,17.31,0,0,0-3.34,4.74A17.27,17.27,0,0,0,4.5,14c-1.61-1.81-3-3.36-3-6A6.35,6.35,0,0,1,7.84,1.66Z"/><path d="M5.87,10a2.77,2.77,0,0,0,1.43.78,2.44,2.44,0,0,0,.54,0,2.77,2.77,0,0,0,1.06-.27,2.73,2.73,0,0,0,1.25-1A2.77,2.77,0,0,0,9.81,6a2.84,2.84,0,0,0-3.54-.28A2.73,2.73,0,0,0,5.27,7a2.86,2.86,0,0,0-.16,1.61A2.78,2.78,0,0,0,5.87,10Zm.32-2.68a1.81,1.81,0,0,1,.65-.8,1.86,1.86,0,0,1,1-.3A1.78,1.78,0,0,1,9.62,8a1.68,1.68,0,0,1-.3,1,1.81,1.81,0,0,1-3.24-.68A1.8,1.8,0,0,1,6.19,7.32Z"/></svg>