<svg id="Layer_1" data-name="Layer 1" xmlns="http://www.w3.org/2000/svg" viewBox="0 0 37 37"><defs><style>.cls-1{fill-rule:evenodd;}</style></defs><polygon points="10.91 13.63 9.91 13.63 9.91 11.03 12.51 11.03 12.51 12.03 10.91 12.03 10.91 13.63"/><polygon points="27.27 13.63 26.27 13.63 26.27 12.03 24.68 12.03 24.68 11.03 27.27 11.03 27.27 13.63"/><polygon points="27.27 27.36 24.68 27.36 24.68 26.36 26.27 26.36 26.27 24.76 27.27 24.76 27.27 27.36"/><polygon points="12.51 27.36 9.91 27.36 9.91 24.76 10.91 24.76 10.91 26.36 12.51 26.36 12.51 27.36"/><path class="cls-1" d="M18.4,13.74a.53.53,0,0,1,.39,0L24,16a.51.51,0,0,1,.3.46v5.95a.51.51,0,0,1-.3.46l-5.21,2.23a.44.44,0,0,1-.39,0l-5.21-2.23a.51.51,0,0,1-.3-.46V16.43a.51.51,0,0,1,.3-.46ZM18.09,19l-4.2-1.8v4.86l4.2,1.81Zm1,4.87,4.21-1.81V17.19L19.09,19Zm3.44-7.43-3.94-1.68-3.93,1.68,3.93,1.69Z"/></svg>