<svg id="Layer_1" data-name="Layer 1" xmlns="http://www.w3.org/2000/svg" viewBox="0 0 16 16"><defs><style>.cls-1{fill-rule:evenodd;}</style></defs><path class="cls-1" d="M.5,3A2.5,2.5,0,0,1,3,.5H5.22A1.49,1.49,0,0,1,6.67,1.64L7.26,4a1.51,1.51,0,0,1-1,1.79l-1.11.37A.7.7,0,0,0,4.7,7,5.56,5.56,0,0,0,9.05,11.3a.7.7,0,0,0,.81-.47l.3-.89a1.5,1.5,0,0,1,2.09-.87l2.42,1.21a1.49,1.49,0,0,1,.83,1.34V13A2.5,2.5,0,0,1,13,15.5H11A10.5,10.5,0,0,1,.5,5ZM3,1.5A1.5,1.5,0,0,0,1.5,3V5A9.5,9.5,0,0,0,11,14.5h2A1.5,1.5,0,0,0,14.5,13V11.62a.51.51,0,0,0-.28-.45L11.81,10a.51.51,0,0,0-.7.29l-.3.9a1.71,1.71,0,0,1-2,1.13A6.54,6.54,0,0,1,3.72,7.14,1.71,1.71,0,0,1,4.85,5.19L6,4.82a.5.5,0,0,0,.33-.6L5.7,1.88a.49.49,0,0,0-.48-.38Z"/></svg>