<svg id="Layer_1" data-name="Layer 1" xmlns="http://www.w3.org/2000/svg" viewBox="0 0 16 16"><defs><style>.cls-1{fill-rule:evenodd;}</style></defs><path class="cls-1" d="M16,8A8,8,0,1,1,8,0,8,8,0,0,1,16,8ZM8.29,5.91q-1.17.48-4.67,2c-.38.15-.58.29-.59.44s.27.34.69.47l.17.05a5.63,5.63,0,0,0,1.24.3A1.56,1.56,0,0,0,6,8.86C8.18,7.39,9.31,6.64,9.38,6.63s.12,0,.16,0,0,.12,0,.14A21.45,21.45,0,0,1,7.73,8.6l-.36.34-.18.18c-.38.37-.67.64,0,1.09l.85.57.94.63.27.19a1.52,1.52,0,0,0,1,.41c.21,0,.43-.22.54-.82.27-1.41.79-4.48.91-5.75a1,1,0,0,0,0-.31.31.31,0,0,0-.11-.22.44.44,0,0,0-.31-.09A11.81,11.81,0,0,0,8.29,5.91Z"/></svg>