<svg id="Layer_1" data-name="Layer 1" xmlns="http://www.w3.org/2000/svg" xmlns:xlink="http://www.w3.org/1999/xlink" viewBox="0 0 16 16"><defs><style>.cls-1{fill:none;}.cls-2{clip-path:url(#clip-path);}</style><clipPath id="clip-path"><rect class="cls-1" width="16" height="16"/></clipPath></defs><g class="cls-2"><path d="M5,14.5a9.27,9.27,0,0,0,9.34-9.34c0-.14,0-.28,0-.42A6.62,6.62,0,0,0,16,3a6.47,6.47,0,0,1-1.88.51,3.32,3.32,0,0,0,1.44-1.81,6.58,6.58,0,0,1-2.08.79,3.29,3.29,0,0,0-4-.64A3.26,3.26,0,0,0,8.09,3.43a3.3,3.3,0,0,0-.21,2.1,9.42,9.42,0,0,1-3.75-1,9.33,9.33,0,0,1-3-2.43,3.29,3.29,0,0,0,1,4.38A3.39,3.39,0,0,1,.64,6.07v0a3.3,3.3,0,0,0,.75,2.08A3.24,3.24,0,0,0,3.28,9.33a3.37,3.37,0,0,1-1.48.06A3.28,3.28,0,0,0,3,11a3.35,3.35,0,0,0,1.9.65,6.55,6.55,0,0,1-4.08,1.4A6.79,6.79,0,0,1,0,13,9.34,9.34,0,0,0,5,14.5Z"/></g></svg>