<svg id="Layer_1" data-name="Layer 1" xmlns="http://www.w3.org/2000/svg" viewBox="0 0 28 28"><path d="M24.84,11.71A7.66,7.66,0,0,1,26,9.26h-4.1A15,15,0,0,0,13.75,7,15.27,15.27,0,0,0,5.36,9.28H1.52A7.91,7.91,0,0,1,2.71,11.7a6.12,6.12,0,0,0,9.73,7.42l1.31,1.94,1.32-2a5.92,5.92,0,0,0,2.25,1.77,6.2,6.2,0,0,0,4.69.18,6.08,6.08,0,0,0,2.81-9.35ZM21.6,19.9a4.9,4.9,0,0,1-1.89.3A4.89,4.89,0,0,1,15.82,18a4.24,4.24,0,0,1-.52-1A4.73,4.73,0,0,1,15,15.78a4.8,4.8,0,0,1,.41-2.49,4.82,4.82,0,0,1,2.76-2.53,4.93,4.93,0,0,1,6.3,2.88,4.88,4.88,0,0,1-2.9,6.26ZM11.72,18A4.92,4.92,0,0,1,10,19.61a5,5,0,0,1-2.3.57,4.87,4.87,0,1,1,4.9-4.87,4.07,4.07,0,0,1-.05.49,4.86,4.86,0,0,1-.79,2.25ZM4.54,15.25a3,3,0,1,0,5.18-2.13,3.05,3.05,0,0,0-4.29,0,3,3,0,0,0-.89,2.13Zm12.31,0A3,3,0,0,0,18.72,18,3,3,0,0,0,22,17.38a3.06,3.06,0,0,0,.83-1.54,3,3,0,0,0-.17-1.74,3,3,0,0,0-1.12-1.35,3,3,0,0,0-3.83.37,3,3,0,0,0-.89,2.13Zm-11.26,0a2,2,0,0,1,2-2A2,2,0,0,1,9,16.65a2,2,0,0,1-2.82,0,1.94,1.94,0,0,1-.59-1.4Zm12.3,0a2,2,0,0,1,.58-1.39,2,2,0,0,1,2.78,2.78,2,2,0,0,1-1.39.59,2,2,0,0,1-.76-.15,2.16,2.16,0,0,1-.65-.43A2,2,0,0,1,18,16a2,2,0,0,1-.15-.76ZM13.74,8.07a14.49,14.49,0,0,1,6,1.17,6.24,6.24,0,0,0-2,.37,5.86,5.86,0,0,0-2,1.24,6,6,0,0,0-1.41,1.93,6.47,6.47,0,0,0-.55,2.09,6.12,6.12,0,0,0-6-5.65,15.17,15.17,0,0,1,6-1.15Z"/></svg>