<svg id="Layer_1" data-name="Layer 1" xmlns="http://www.w3.org/2000/svg" viewBox="0 0 28 28"><defs><style>.cls-1{fill-rule:evenodd;}</style></defs><path class="cls-1" d="M26.91,7.07C27.09,6.46,26.91,6,26,6H23.1a1.26,1.26,0,0,0-1.27.83,24.21,24.21,0,0,1-3.59,6c-.68.68-1,.9-1.36.9-.18,0-.46-.22-.46-.84V7.07c0-.74-.21-1.07-.82-1.07H11a.7.7,0,0,0-.75.67c0,.71,1.06.87,1.16,2.85v4.3c0,.95-.17,1.12-.54,1.12-1,0-3.39-3.64-4.82-7.8C5.78,6.33,5.5,6,4.75,6H1.83c-.83,0-1,.39-1,.83,0,.77,1,4.61,4.61,9.69,2.41,3.47,5.81,5.35,8.9,5.35,1.86,0,2.09-.42,2.09-1.14V18.11c0-.84.17-1,.76-1,.44,0,1.18.21,2.91,1.89,2,2,2.31,2.87,3.42,2.87h2.92c.83,0,1.25-.42,1-1.25A12.52,12.52,0,0,0,25,17.2c-.68-.8-1.7-1.67-2-2.11s-.31-.8,0-1.3c0,0,3.55-5,3.92-6.72Z"/></svg>