<svg id="Layer_1" data-name="Layer 1" xmlns="http://www.w3.org/2000/svg" viewBox="0 0 28 28"><path d="M25.64,8.51a2.73,2.73,0,0,0-.77-1.27,3,3,0,0,0-1.34-.75C21.66,6,14.13,6,14.13,6a75.62,75.62,0,0,0-9.39.47,3.2,3.2,0,0,0-1.34.76,2.87,2.87,0,0,0-.77,1.28A28.89,28.89,0,0,0,2.14,14a28.89,28.89,0,0,0,.49,5.49,2.75,2.75,0,0,0,.77,1.27,3.07,3.07,0,0,0,1.34.75c1.91.49,9.39.49,9.39.49a75.68,75.68,0,0,0,9.4-.47,3,3,0,0,0,1.34-.74,2.83,2.83,0,0,0,.77-1.27,28.93,28.93,0,0,0,.5-5.5,26.78,26.78,0,0,0-.5-5.51Zm-13.9,8.91V10.58L18,14Z"/></svg>