<svg id="Layer_1" data-name="Layer 1" xmlns="http://www.w3.org/2000/svg" viewBox="0 0 37 37"><path d="M22.88,24.3H16a2.91,2.91,0,0,1-2.91-2.9,3.29,3.29,0,0,1,.07-.63.48.48,0,0,1-.45,0,2.72,2.72,0,0,1-1.09-1.32,2.77,2.77,0,0,1-.12-1.71,2.73,2.73,0,0,1,.88-1.46,2.69,2.69,0,0,1,1.38-.63,3.87,3.87,0,0,1,1.15-1.84,3.61,3.61,0,0,1,2.36-.88h0a3.61,3.61,0,0,1,3.25,2,.5.5,0,0,1-.17.64,3.6,3.6,0,0,1,2.94,3,2.89,2.89,0,0,1-.39,5.76Zm-3.45-7.81a2.72,2.72,0,0,0-2.9,2.57.51.51,0,0,1-.5.44A1.9,1.9,0,1,0,16,23.3h6.9a1.9,1.9,0,1,0,0-3.8.56.56,0,0,1-.55-.44A2.72,2.72,0,0,0,19.43,16.49Zm-2.18-2.6a2.6,2.6,0,0,0-1.7.64,2.82,2.82,0,0,0-.92,1.64.5.5,0,0,1-.48.42H14A1.66,1.66,0,0,0,13,17a1.71,1.71,0,0,0-.57.93,1.86,1.86,0,0,0,.08,1.12,1.71,1.71,0,0,0,.69.83.49.49,0,0,1,.18.2,2.9,2.9,0,0,1,2.19-1.55,3.7,3.7,0,0,1,3.84-3h.25a.47.47,0,0,1-.07-.12,2.65,2.65,0,0,0-2.36-1.49ZM16,19h0Z"/></svg>