<svg width="26" height="30" viewBox="0 0 26 30" fill="none" xmlns="http://www.w3.org/2000/svg">
<path fill-rule="evenodd" clip-rule="evenodd" d="M7 1.5C6.17157 1.5 5.5 2.17157 5.5 3V23C5.5 23.8284 6.17157 24.5 7 24.5H23C23.8284 24.5 24.5 23.8284 24.5 23V5.26759L18.8486 1.5H7ZM4.5 3C4.5 1.61929 5.61929 0.5 7 0.5H19.1514L25.5 4.73241V23C25.5 24.3807 24.3807 25.5 23 25.5H21.5V27C21.5 28.3807 20.3807 29.5 19 29.5H3C1.61929 29.5 0.5 28.3807 0.5 27V7C0.5 5.61929 1.61929 4.5 3 4.5H4.5V3ZM4.5 5.5H3C2.17157 5.5 1.5 6.17157 1.5 7V27C1.5 27.8284 2.17157 28.5 3 28.5H19C19.8284 28.5 20.5 27.8284 20.5 27V25.5H7C5.61929 25.5 4.5 24.3807 4.5 23V5.5ZM15 8.49475H9V7.49475H15V8.49475ZM20 13.5H9V12.5H20V13.5ZM17 18.5H9V17.5H17V18.5Z" fill="#1AA456"/>
</svg>
