<svg id="Layer_1" data-name="Layer 1" xmlns="http://www.w3.org/2000/svg" viewBox="0 0 29 29"><path d="M14.37,5.88c2.8,0,3.13,0,4.23.06a6,6,0,0,1,1.94.36,3.32,3.32,0,0,1,1.2.78,3.23,3.23,0,0,1,.78,1.21,5.9,5.9,0,0,1,.36,1.94c.05,1.1.06,1.43.06,4.22s0,3.12-.06,4.22a5.9,5.9,0,0,1-.36,1.94,3.36,3.36,0,0,1-.78,1.21,3.41,3.41,0,0,1-1.2.78A5.82,5.82,0,0,1,18.6,23c-1.11.05-1.44.07-4.23.07s-3.12,0-4.22-.07a5.76,5.76,0,0,1-1.94-.35,3.43,3.43,0,0,1-2-2,5.4,5.4,0,0,1-.36-1.94c0-1.1-.06-1.43-.06-4.22s0-3.13.06-4.22a5.35,5.35,0,0,1,.36-1.94A3.23,3.23,0,0,1,7,7.08a3.32,3.32,0,0,1,1.2-.78,6,6,0,0,1,1.94-.36C11.25,5.9,11.58,5.88,14.37,5.88Zm0-1.88c-2.84,0-3.19,0-4.31.06a7.54,7.54,0,0,0-2.53.49A5.06,5.06,0,0,0,5.67,5.76,5.15,5.15,0,0,0,4.46,7.61,7.83,7.83,0,0,0,4,10.14c0,1.12-.06,1.48-.06,4.32s0,3.19.06,4.31a7.83,7.83,0,0,0,.48,2.53,5.19,5.19,0,0,0,1.21,1.86,5.08,5.08,0,0,0,1.85,1.2,7.66,7.66,0,0,0,2.54.49c1.12,0,1.47.06,4.31.06s3.19,0,4.31-.06a7.66,7.66,0,0,0,2.54-.49,5.29,5.29,0,0,0,3.05-3.05,7.66,7.66,0,0,0,.49-2.54c0-1.11.06-1.47.06-4.31s0-3.19-.06-4.31a7.54,7.54,0,0,0-.49-2.53,4.83,4.83,0,0,0-1.2-1.86,5.15,5.15,0,0,0-1.85-1.21,7.32,7.32,0,0,0-2.53-.48C17.57,4,17.21,4,14.37,4Z"/><path d="M14.37,9.09a5.37,5.37,0,1,0,5.38,5.37A5.37,5.37,0,0,0,14.37,9.09Zm0,8.85a3.49,3.49,0,1,1,3.49-3.48A3.48,3.48,0,0,1,14.37,17.94Z"/><path d="M21.21,8.87A1.26,1.26,0,1,1,20,7.62,1.25,1.25,0,0,1,21.21,8.87Z"/></svg>