<svg id="Layer_1" data-name="Layer 1" xmlns="http://www.w3.org/2000/svg" viewBox="0 0 26.32 29.96"><defs><style>.cls-1{fill-rule:evenodd;}</style></defs><path class="cls-1" d="M5.71,5.79V2h1V5.79h12.9V2h1V5.79h3A2.22,2.22,0,0,1,25.82,8V25.3a2.23,2.23,0,0,1-2.23,2.23H2.74A2.22,2.22,0,0,1,.5,25.32V8A2.22,2.22,0,0,1,2.74,5.79Zm0,1h-3A1.25,1.25,0,0,0,1.5,8V25.3a1.23,1.23,0,0,0,1.23,1.23H23.58a1.23,1.23,0,0,0,1.24-1.22h0V8a1.24,1.24,0,0,0-1.24-1.23h-3V10.6h-1V6.79H6.71v3.83h-1Zm3.11,9.52H7.08v-1H8.82Zm5.21,0H12.29v-1H14Zm5.21,0H17.5v-1h1.74ZM8.82,21.5H7.08v-1H8.82Zm5.21,0H12.29v-1H14Zm5.21,0H17.5v-1h1.74Z"/></svg>