<svg id="Layer_1" data-name="Layer 1" xmlns="http://www.w3.org/2000/svg" viewBox="0 0 16 16"><path d="M8,1.44c2.14,0,2.39,0,3.23.05a4.39,4.39,0,0,1,1.49.27,2.45,2.45,0,0,1,.91.6,2.33,2.33,0,0,1,.6.92,4.44,4.44,0,0,1,.28,1.48c0,.85,0,1.1,0,3.23s0,2.39,0,3.24a4.44,4.44,0,0,1-.28,1.48,2.45,2.45,0,0,1-.6.92,2.54,2.54,0,0,1-.91.6,4.66,4.66,0,0,1-1.49.27c-.84,0-1.1.05-3.23.05s-2.39,0-3.23-.05a4.66,4.66,0,0,1-1.49-.27,2.45,2.45,0,0,1-.91-.6,2.33,2.33,0,0,1-.6-.92,4.51,4.51,0,0,1-.28-1.48c0-.85,0-1.1,0-3.24s0-2.39,0-3.23a4.44,4.44,0,0,1,.28-1.48,2.45,2.45,0,0,1,.6-.92,2.54,2.54,0,0,1,.91-.6,4.39,4.39,0,0,1,1.49-.27C5.61,1.45,5.86,1.44,8,1.44ZM8,0C5.83,0,5.56,0,4.7.05A5.61,5.61,0,0,0,2.76.42,4,4,0,0,0,.42,2.76,5.61,5.61,0,0,0,.05,4.7C0,5.56,0,5.83,0,8s0,2.44.05,3.3a5.61,5.61,0,0,0,.37,1.94,4.08,4.08,0,0,0,.92,1.42,3.94,3.94,0,0,0,1.42.92A6.12,6.12,0,0,0,4.7,16C5.55,16,5.82,16,8,16s2.44,0,3.29-.05a6.06,6.06,0,0,0,1.94-.37,3.86,3.86,0,0,0,1.42-.92,3.94,3.94,0,0,0,.92-1.42,5.61,5.61,0,0,0,.37-1.94c0-.85.05-1.12.05-3.3s0-2.44-.05-3.29a5.56,5.56,0,0,0-.37-1.94,3.74,3.74,0,0,0-.91-1.43A4.08,4.08,0,0,0,13.24.42,5.85,5.85,0,0,0,11.3.05C10.44,0,10.17,0,8,0Z"/><path d="M8,3.89A4.11,4.11,0,1,0,12.11,8,4.11,4.11,0,0,0,8,3.89Zm0,6.78A2.67,2.67,0,1,1,10.67,8,2.68,2.68,0,0,1,8,10.67Z"/><path d="M13.23,3.73a1,1,0,1,1-1-1A1,1,0,0,1,13.23,3.73Z"/></svg>