<svg id="Layer_1" data-name="Layer 1" xmlns="http://www.w3.org/2000/svg" viewBox="0 0 37 37"><path d="M19,24.74a7.34,7.34,0,1,1,7.49-7.34A7.42,7.42,0,0,1,19,24.74Zm0-13.68a6.34,6.34,0,1,0,0,12.68h0a6.5,6.5,0,0,0,4.59-1.86,6.18,6.18,0,0,0,1.9-4.48A6.43,6.43,0,0,0,19,11.06Z"/><path d="M24.28,29H13.7c-.75,0-1-.36-1.1-.58A1.05,1.05,0,0,1,13,27.2l2.43-2.33.31.15A7,7,0,0,0,17,25.5l.83.24-1,.92,0,0h4.36a0,0,0,0,0,0,0l-.95-.92L21,25.5A6.93,6.93,0,0,0,22.25,25l.32-.15L25,27.2c.54.52.48,1,.39,1.17S25,29,24.28,29Zm-10.62-1H24.32l0,0-1.92-1.85-.3.13a.93.93,0,0,1,.16.9c-.09.22-.35.58-1.1.58H16.85c-.76,0-1-.36-1.1-.58a.9.9,0,0,1,.16-.9l-.3-.13-1.92,1.85Z"/><path d="M19,21.28a3.88,3.88,0,1,1,4-3.88A3.93,3.93,0,0,1,19,21.28Zm0-7a3.12,3.12,0,1,0,0,6.23h0a3.2,3.2,0,0,0,2.26-.92,3,3,0,0,0,.93-2.2A3.16,3.16,0,0,0,19,14.29Z"/></svg>