<svg width="60" height="368" viewBox="0 0 60 368" fill="none" xmlns="http://www.w3.org/2000/svg">
<path d="M7.26819 255.018L11.6972 250.603" stroke="white" stroke-miterlimit="10"/>
<path d="M10.3695 258.119L6.35962 262.129" stroke="white" stroke-miterlimit="10"/>
<path d="M1.44177 249.192L15.4413 263.191" stroke="white" stroke-miterlimit="10"/>
<path d="M52.8991 255.018L48.4701 250.603" stroke="white" stroke-miterlimit="10"/>
<path d="M49.7979 258.119L53.8077 262.129" stroke="white" stroke-miterlimit="10"/>
<path d="M58.7257 249.192L44.7262 263.191" stroke="white" stroke-miterlimit="10"/>
<path d="M21.2957 257.002L28.6727 264.365" stroke="white" stroke-miterlimit="10"/>
<path d="M36.4688 255.018L32.3053 259.181" stroke="white" stroke-miterlimit="10"/>
<path d="M14.3795 263.917L24.9001 274.438" stroke="white" stroke-miterlimit="10"/>
<path d="M7.28186 271.015L17.5789 281.312" stroke="white" stroke-miterlimit="10"/>
<path d="M41.6104 260.159L31.2574 270.498" stroke="white" stroke-miterlimit="10"/>
<path d="M49.7977 268.347L39.4167 278.727" stroke="white" stroke-miterlimit="10"/>
<path d="M48.8476 287.166L58.7255 277.288L29.8741 248.423L1.00879 277.288L11.4875 287.753" stroke="white" stroke-miterlimit="10"/>
<path d="M49.3783 317.638L53.3742 321.704" stroke="white" stroke-miterlimit="10"/>
<path d="M10.7609 318.029L6.84888 322.179" stroke="white" stroke-miterlimit="10"/>
<path d="M39.7798 289.332L43.6499 285.615" stroke="white" stroke-miterlimit="10"/>
<path d="M12.2695 297.03L8.80457 293.384" stroke="white" stroke-miterlimit="10"/>
<path d="M19.5909 290.492L26.954 297.855" stroke="white" stroke-miterlimit="10"/>
<path d="M13.8903 295.409L21.8541 303.359" stroke="white" stroke-miterlimit="10"/>
<path d="M10.3695 298.917L14.1698 302.717" stroke="white" stroke-miterlimit="10"/>
<path d="M38.4386 305.106L46.9473 296.388" stroke="white" stroke-miterlimit="10"/>
<path d="M31.9 302.395L42.7001 291.316" stroke="white" stroke-miterlimit="10"/>
<path d="M31.7043 292.462L37.9776 286.188" stroke="white" stroke-miterlimit="10"/>
<path d="M40.9814 327.153L33.6184 319.776" stroke="white" stroke-miterlimit="10"/>
<path d="M46.2489 321.173L38.1454 313.07" stroke="white" stroke-miterlimit="10"/>
<path d="M51.39 314.118L45.2285 307.956" stroke="white" stroke-miterlimit="10"/>
<path d="M22.2456 330.297L30.3631 322.179" stroke="white" stroke-miterlimit="10"/>
<path d="M12.9543 320.181L26.6325 306.447" stroke="white" stroke-miterlimit="10"/>
<path d="M6.84888 314.118L13.9045 307.076" stroke="white" stroke-miterlimit="10"/>
<path d="M18.1237 324.429L28.5046 314.048" stroke="white" stroke-miterlimit="10"/>
<path d="M0.999999 308.278L29.8578 337.135L58.7156 308.278L29.8578 279.42L0.999999 308.278Z" stroke="white" stroke-miterlimit="10"/>
<path d="M52.4803 360.405L48.0513 364.834" stroke="white" stroke-miterlimit="10"/>
<path d="M49.3783 357.304L53.3742 353.308" stroke="white" stroke-miterlimit="10"/>
<path d="M58.3062 366.246L44.3066 352.246" stroke="white" stroke-miterlimit="10"/>
<path d="M6.84888 360.405L11.2779 364.834" stroke="white" stroke-miterlimit="10"/>
<path d="M9.95052 357.304L5.94067 353.308" stroke="white" stroke-miterlimit="10"/>
<path d="M1.00879 366.246L15.0223 352.246" stroke="white" stroke-miterlimit="10"/>
<path d="M38.4388 358.435L31.0758 351.058" stroke="white" stroke-miterlimit="10"/>
<path d="M23.2792 360.405L27.4287 356.242" stroke="white" stroke-miterlimit="10"/>
<path d="M45.3686 351.52L34.848 340.999" stroke="white" stroke-miterlimit="10"/>
<path d="M52.466 344.422L42.1549 334.111" stroke="white" stroke-miterlimit="10"/>
<path d="M18.1381 355.278L28.491 344.925" stroke="white" stroke-miterlimit="10"/>
<path d="M9.95068 347.077L20.3316 336.696" stroke="white" stroke-miterlimit="10"/>
<path d="M10.9007 328.271L1.00879 338.149L29.8741 367L58.7255 338.149L48.2608 327.684" stroke="white" stroke-miterlimit="10"/>
<path d="M7.26819 131.313L11.6972 126.884" stroke="white" stroke-miterlimit="10"/>
<path d="M10.3695 134.415L6.35962 138.411" stroke="white" stroke-miterlimit="10"/>
<path d="M1.44177 125.473L15.4413 139.486" stroke="white" stroke-miterlimit="10"/>
<path d="M52.8991 131.313L48.4701 126.884" stroke="white" stroke-miterlimit="10"/>
<path d="M49.7979 134.415L53.8077 138.411" stroke="white" stroke-miterlimit="10"/>
<path d="M58.7257 125.473L44.7262 139.486" stroke="white" stroke-miterlimit="10"/>
<path d="M21.2957 133.283L28.6727 140.66" stroke="white" stroke-miterlimit="10"/>
<path d="M36.4688 131.313L32.3053 135.477" stroke="white" stroke-miterlimit="10"/>
<path d="M14.3795 140.199L24.9001 150.72" stroke="white" stroke-miterlimit="10"/>
<path d="M7.28186 147.31L17.5789 157.608" stroke="white" stroke-miterlimit="10"/>
<path d="M41.6104 136.455L31.2574 146.794" stroke="white" stroke-miterlimit="10"/>
<path d="M49.7977 144.642L39.4167 155.023" stroke="white" stroke-miterlimit="10"/>
<path d="M48.8477 163.462L58.7256 153.57L29.8743 124.719L1.00891 153.57L11.4876 164.035" stroke="white" stroke-miterlimit="10"/>
<path d="M49.3783 193.92L53.3742 198" stroke="white" stroke-miterlimit="10"/>
<path d="M10.7609 194.311L6.84888 198.46" stroke="white" stroke-miterlimit="10"/>
<path d="M39.7798 165.613L43.6499 161.897" stroke="white" stroke-miterlimit="10"/>
<path d="M12.2696 173.312L8.80469 169.679" stroke="white" stroke-miterlimit="10"/>
<path d="M19.5909 166.787L26.954 174.15" stroke="white" stroke-miterlimit="10"/>
<path d="M13.8903 171.691L21.8541 179.655" stroke="white" stroke-miterlimit="10"/>
<path d="M10.3695 175.212L14.1698 179.012" stroke="white" stroke-miterlimit="10"/>
<path d="M38.4386 181.401L46.9473 172.669" stroke="white" stroke-miterlimit="10"/>
<path d="M31.9 178.677L42.7001 167.611" stroke="white" stroke-miterlimit="10"/>
<path d="M31.7043 168.757L37.9776 162.484" stroke="white" stroke-miterlimit="10"/>
<path d="M40.9814 203.434L33.6184 196.071" stroke="white" stroke-miterlimit="10"/>
<path d="M46.2489 197.469L38.1454 189.365" stroke="white" stroke-miterlimit="10"/>
<path d="M51.3906 190.413L45.2291 184.252" stroke="white" stroke-miterlimit="10"/>
<path d="M22.2456 206.592L30.3631 198.461" stroke="white" stroke-miterlimit="10"/>
<path d="M12.9543 196.463L26.6325 182.743" stroke="white" stroke-miterlimit="10"/>
<path d="M6.84888 190.413L13.9045 183.357" stroke="white" stroke-miterlimit="10"/>
<path d="M18.1237 200.724L28.5046 190.343" stroke="white" stroke-miterlimit="10"/>
<path d="M1.0043 184.577L29.8621 213.435L58.7199 184.577L29.8621 155.719L1.0043 184.577Z" stroke="white" stroke-miterlimit="10"/>
<path d="M52.4803 236.701L48.0513 241.13" stroke="white" stroke-miterlimit="10"/>
<path d="M49.3783 233.599L53.3742 229.589" stroke="white" stroke-miterlimit="10"/>
<path d="M58.3062 242.527L44.3066 228.528" stroke="white" stroke-miterlimit="10"/>
<path d="M6.84888 236.701L11.2779 241.13" stroke="white" stroke-miterlimit="10"/>
<path d="M9.95052 233.599L5.94067 229.589" stroke="white" stroke-miterlimit="10"/>
<path d="M1.00891 242.527L15.0224 228.528" stroke="white" stroke-miterlimit="10"/>
<path d="M38.4388 234.717L31.0758 227.354" stroke="white" stroke-miterlimit="10"/>
<path d="M23.2792 236.701L27.4287 232.537" stroke="white" stroke-miterlimit="10"/>
<path d="M45.3686 227.801L34.848 217.294" stroke="white" stroke-miterlimit="10"/>
<path d="M52.466 220.703L42.1549 210.406" stroke="white" stroke-miterlimit="10"/>
<path d="M18.1381 231.559L28.491 221.22" stroke="white" stroke-miterlimit="10"/>
<path d="M9.95068 223.372L20.3316 212.991" stroke="white" stroke-miterlimit="10"/>
<path d="M10.9008 204.552L1.00891 214.444L29.8742 243.296L58.7256 214.444L48.2609 203.966" stroke="white" stroke-miterlimit="10"/>
<path d="M7.26819 7.6084L11.6972 3.17942" stroke="white" stroke-miterlimit="10"/>
<path d="M10.3695 10.6962L6.35962 14.7061" stroke="white" stroke-miterlimit="10"/>
<path d="M1.44177 1.76825L15.4413 15.7678" stroke="white" stroke-miterlimit="10"/>
<path d="M52.8991 7.60828L48.4701 3.1793" stroke="white" stroke-miterlimit="10"/>
<path d="M49.7979 10.6962L53.8077 14.7061" stroke="white" stroke-miterlimit="10"/>
<path d="M58.7257 1.76825L44.7262 15.7678" stroke="white" stroke-miterlimit="10"/>
<path d="M21.2957 9.57848L28.6727 16.9554" stroke="white" stroke-miterlimit="10"/>
<path d="M36.4688 7.60857L32.3053 11.7582" stroke="white" stroke-miterlimit="10"/>
<path d="M14.3795 16.4946L24.9001 27.0151" stroke="white" stroke-miterlimit="10"/>
<path d="M7.28186 23.592L17.5929 33.9031" stroke="white" stroke-miterlimit="10"/>
<path d="M41.6104 12.7361L31.2574 23.0751" stroke="white" stroke-miterlimit="10"/>
<path d="M49.7977 20.9234L39.4167 31.3043" stroke="white" stroke-miterlimit="10"/>
<path d="M48.8477 39.7432L58.7256 29.8654L29.8743 0.999986L1.00891 29.8654L11.4876 40.3301" stroke="white" stroke-miterlimit="10"/>
<path d="M49.3788 70.2152L53.3747 74.281" stroke="white" stroke-miterlimit="10"/>
<path d="M10.7609 70.6063L6.84888 74.7559" stroke="white" stroke-miterlimit="10"/>
<path d="M39.7798 41.9088L43.6499 38.1923" stroke="white" stroke-miterlimit="10"/>
<path d="M12.27 49.6072L8.80505 45.9606" stroke="white" stroke-miterlimit="10"/>
<path d="M19.5909 43.0683L26.954 50.4314" stroke="white" stroke-miterlimit="10"/>
<path d="M13.8903 47.9864L21.8541 55.9502" stroke="white" stroke-miterlimit="10"/>
<path d="M10.3695 51.5073L14.1698 55.2936" stroke="white" stroke-miterlimit="10"/>
<path d="M38.4386 57.6967L46.9473 48.9644" stroke="white" stroke-miterlimit="10"/>
<path d="M31.9 54.9723L42.7001 43.8928" stroke="white" stroke-miterlimit="10"/>
<path d="M31.7043 45.0525L37.9776 38.7653" stroke="white" stroke-miterlimit="10"/>
<path d="M40.9814 79.73L33.6184 72.353" stroke="white" stroke-miterlimit="10"/>
<path d="M46.2489 73.75L38.1454 65.6465" stroke="white" stroke-miterlimit="10"/>
<path d="M51.3906 66.7084L45.2291 60.5468" stroke="white" stroke-miterlimit="10"/>
<path d="M22.2456 82.8735L30.3631 74.756" stroke="white" stroke-miterlimit="10"/>
<path d="M12.9543 72.7581L26.6325 59.0379" stroke="white" stroke-miterlimit="10"/>
<path d="M6.84888 66.7084L13.9045 59.6526" stroke="white" stroke-miterlimit="10"/>
<path d="M18.1237 77.0055L28.5046 66.6246" stroke="white" stroke-miterlimit="10"/>
<path d="M1.00809 60.8484L29.8658 89.7062L58.7236 60.8484L29.8659 31.9906L1.00809 60.8484Z" stroke="white" stroke-miterlimit="10"/>
<path d="M52.4803 112.982L48.0513 117.411" stroke="white" stroke-miterlimit="10"/>
<path d="M49.3788 109.895L53.3747 105.885" stroke="white" stroke-miterlimit="10"/>
<path d="M58.3063 118.823L44.3068 104.823" stroke="white" stroke-miterlimit="10"/>
<path d="M6.84888 112.982L11.2779 117.411" stroke="white" stroke-miterlimit="10"/>
<path d="M9.95089 109.895L5.94104 105.885" stroke="white" stroke-miterlimit="10"/>
<path d="M1.00879 118.823L15.0223 104.823" stroke="white" stroke-miterlimit="10"/>
<path d="M38.4388 111.012L31.0758 103.635" stroke="white" stroke-miterlimit="10"/>
<path d="M23.2795 112.982L27.4291 108.833" stroke="white" stroke-miterlimit="10"/>
<path d="M45.3686 104.096L34.848 93.5757" stroke="white" stroke-miterlimit="10"/>
<path d="M52.4664 96.9988L42.1554 86.7017" stroke="white" stroke-miterlimit="10"/>
<path d="M18.1377 107.855L28.4907 97.5159" stroke="white" stroke-miterlimit="10"/>
<path d="M9.95068 99.6675L20.3316 89.2866" stroke="white" stroke-miterlimit="10"/>
<path d="M10.9007 80.8478L1.00879 90.7258L29.8741 119.591L58.7255 90.7258L48.2608 80.261" stroke="white" stroke-miterlimit="10"/>
</svg>
