<svg width="16" height="16" viewBox="0 0 16 16" fill="none" xmlns="http://www.w3.org/2000/svg">
<path fill-rule="evenodd" clip-rule="evenodd" d="M0.300049 8.00005C0.300049 3.74746 3.74746 0.300049 8.00005 0.300049C12.2526 0.300049 15.7 3.74746 15.7 8.00005C15.7 12.2526 12.2526 15.7 8.00005 15.7C3.74746 15.7 0.300049 12.2526 0.300049 8.00005ZM8.00005 1.70005C4.52065 1.70005 1.70005 4.52065 1.70005 8.00005C1.70005 11.4794 4.52065 14.3 8.00005 14.3C11.4794 14.3 14.3 11.4794 14.3 8.00005C14.3 4.52065 11.4794 1.70005 8.00005 1.70005ZM12.0467 5.93734L7.60054 11.495L4.05192 8.5378L4.94818 7.46229L7.39956 9.50511L10.9534 5.06276L12.0467 5.93734Z" fill="#1AA456"/>
</svg>
