<svg width="1342" height="45" viewBox="0 0 1342 45" fill="none" xmlns="http://www.w3.org/2000/svg">
<path d="M448.284 1.61961L438.063 11.8403" stroke="#EAEAE9" stroke-miterlimit="10"/>
<path d="M444.031 39.1875L447.264 35.954" stroke="#EAEAE9" stroke-miterlimit="10"/>
<path d="M441.766 36.9231L438.839 39.8506" stroke="#EAEAE9" stroke-miterlimit="10"/>
<path d="M448.284 43.4507L438.063 33.2198" stroke="#EAEAE9" stroke-miterlimit="10"/>
<path d="M442.592 16.1239L437.207 21.4995" stroke="#EAEAE9" stroke-miterlimit="10"/>
<path d="M444.031 27.1919L440.991 24.1624" stroke="#EAEAE9" stroke-miterlimit="10"/>
<path d="M437.533 11.0648L429.862 18.7456" stroke="#EAEAE9" stroke-miterlimit="10"/>
<path d="M432.351 5.88329L424.834 13.4111" stroke="#EAEAE9" stroke-miterlimit="10"/>
<path d="M440.277 30.9453L432.729 23.3869" stroke="#EAEAE9" stroke-miterlimit="10"/>
<path d="M434.299 36.9229L426.721 29.344" stroke="#EAEAE9" stroke-miterlimit="10"/>
<path d="M420.56 36.2289L427.782 43.4507L448.845 22.3768L427.782 1.31315L420.131 8.95319" stroke="#EAEAE9" stroke-miterlimit="10"/>
<path d="M276.776 38.8813L273.542 35.6478" stroke="#EAEAE9" stroke-miterlimit="10"/>
<path d="M279.04 36.6169L281.958 39.5444" stroke="#EAEAE9" stroke-miterlimit="10"/>
<path d="M272.512 43.1348L282.733 32.914" stroke="#EAEAE9" stroke-miterlimit="10"/>
<path d="M276.776 5.56679L273.542 8.80029" stroke="#EAEAE9" stroke-miterlimit="10"/>
<path d="M279.04 7.83105L281.958 4.90356" stroke="#EAEAE9" stroke-miterlimit="10"/>
<path d="M272.512 1.31394L282.733 11.5347" stroke="#EAEAE9" stroke-miterlimit="10"/>
<path d="M278.214 28.6401L283.6 23.2544" stroke="#EAEAE9" stroke-miterlimit="10"/>
<path d="M276.776 17.5624L279.816 20.6021" stroke="#EAEAE9" stroke-miterlimit="10"/>
<path d="M283.263 33.6895L290.944 26.0086" stroke="#EAEAE9" stroke-miterlimit="10"/>
<path d="M288.445 38.8711L295.973 31.3535" stroke="#EAEAE9" stroke-miterlimit="10"/>
<path d="M280.519 13.8087L288.078 21.3672" stroke="#EAEAE9" stroke-miterlimit="10"/>
<path d="M286.507 7.8318L294.076 15.4106" stroke="#EAEAE9" stroke-miterlimit="10"/>
<path d="M300.237 8.52478L293.025 1.31315L271.961 22.3768L293.025 43.4507L300.665 35.8004" stroke="#EAEAE9" stroke-miterlimit="10"/>
<path d="M322.483 8.1377L325.452 5.2204" stroke="#EAEAE9" stroke-miterlimit="10"/>
<path d="M322.769 36.3314L325.799 39.1875" stroke="#EAEAE9" stroke-miterlimit="10"/>
<path d="M301.818 15.1455L299.104 12.32" stroke="#EAEAE9" stroke-miterlimit="10"/>
<path d="M307.438 35.2296L304.776 37.7593" stroke="#EAEAE9" stroke-miterlimit="10"/>
<path d="M302.664 29.8843L308.04 24.5087" stroke="#EAEAE9" stroke-miterlimit="10"/>
<path d="M306.255 34.0464L312.069 28.2322" stroke="#EAEAE9" stroke-miterlimit="10"/>
<path d="M308.825 36.6162L311.59 33.8417" stroke="#EAEAE9" stroke-miterlimit="10"/>
<path d="M313.344 16.1245L306.969 9.91252" stroke="#EAEAE9" stroke-miterlimit="10"/>
<path d="M311.355 20.8979L303.266 13.0131" stroke="#EAEAE9" stroke-miterlimit="10"/>
<path d="M304.113 21.041L299.523 16.4611" stroke="#EAEAE9" stroke-miterlimit="10"/>
<path d="M329.43 14.268L324.044 19.6436" stroke="#EAEAE9" stroke-miterlimit="10"/>
<path d="M325.074 10.4222L319.148 16.3384" stroke="#EAEAE9" stroke-miterlimit="10"/>
<path d="M319.923 6.66865L315.425 11.167" stroke="#EAEAE9" stroke-miterlimit="10"/>
<path d="M331.725 27.9463L325.798 22.0199" stroke="#EAEAE9" stroke-miterlimit="10"/>
<path d="M324.34 34.7295L314.323 24.7434" stroke="#EAEAE9" stroke-miterlimit="10"/>
<path d="M319.923 39.1875L314.772 34.0363" stroke="#EAEAE9" stroke-miterlimit="10"/>
<path d="M327.441 30.9561L319.862 23.3772" stroke="#EAEAE9" stroke-miterlimit="10"/>
<path d="M315.664 43.4526L336.732 22.3843L315.664 1.31591L294.596 22.3842L315.664 43.4526Z" stroke="#EAEAE9" stroke-miterlimit="10"/>
<path d="M353.707 5.87294L356.94 9.10645" stroke="#EAEAE9" stroke-miterlimit="10"/>
<path d="M351.452 8.1377L348.525 5.2204" stroke="#EAEAE9" stroke-miterlimit="10"/>
<path d="M357.97 1.61961L347.75 11.8403" stroke="#EAEAE9" stroke-miterlimit="10"/>
<path d="M353.707 39.1875L356.94 35.954" stroke="#EAEAE9" stroke-miterlimit="10"/>
<path d="M351.452 36.9231L348.525 39.8506" stroke="#EAEAE9" stroke-miterlimit="10"/>
<path d="M357.97 43.4507L347.75 33.2198" stroke="#EAEAE9" stroke-miterlimit="10"/>
<path d="M352.268 16.1239L346.883 21.4995" stroke="#EAEAE9" stroke-miterlimit="10"/>
<path d="M353.707 27.1919L350.677 24.1624" stroke="#EAEAE9" stroke-miterlimit="10"/>
<path d="M347.219 11.0648L339.538 18.7456" stroke="#EAEAE9" stroke-miterlimit="10"/>
<path d="M342.037 5.88329L334.52 13.4111" stroke="#EAEAE9" stroke-miterlimit="10"/>
<path d="M349.963 30.9453L342.415 23.3869" stroke="#EAEAE9" stroke-miterlimit="10"/>
<path d="M343.986 36.9229L336.407 29.344" stroke="#EAEAE9" stroke-miterlimit="10"/>
<path d="M330.246 36.2289L337.458 43.4507L358.531 22.3768L337.458 1.31315L329.817 8.95319" stroke="#EAEAE9" stroke-miterlimit="10"/>
<path d="M186.452 38.8813L183.229 35.6478" stroke="#EAEAE9" stroke-miterlimit="10"/>
<path d="M188.717 36.6169L191.644 39.5444" stroke="#EAEAE9" stroke-miterlimit="10"/>
<path d="M182.199 43.1348L192.419 32.914" stroke="#EAEAE9" stroke-miterlimit="10"/>
<path d="M186.452 5.56679L183.229 8.80029" stroke="#EAEAE9" stroke-miterlimit="10"/>
<path d="M188.717 7.83105L191.644 4.90356" stroke="#EAEAE9" stroke-miterlimit="10"/>
<path d="M182.199 1.31394L192.419 11.5347" stroke="#EAEAE9" stroke-miterlimit="10"/>
<path d="M187.9 28.6401L193.276 23.2544" stroke="#EAEAE9" stroke-miterlimit="10"/>
<path d="M186.452 17.5624L189.492 20.6021" stroke="#EAEAE9" stroke-miterlimit="10"/>
<path d="M192.95 33.6895L200.63 26.0086" stroke="#EAEAE9" stroke-miterlimit="10"/>
<path d="M198.131 38.8711L205.649 31.3535" stroke="#EAEAE9" stroke-miterlimit="10"/>
<path d="M190.206 13.8087L197.754 21.3672" stroke="#EAEAE9" stroke-miterlimit="10"/>
<path d="M196.183 7.8318L203.762 15.4106" stroke="#EAEAE9" stroke-miterlimit="10"/>
<path d="M209.923 8.52478L202.711 1.31315L181.637 22.3768L202.711 43.4507L210.351 35.8004" stroke="#EAEAE9" stroke-miterlimit="10"/>
<path d="M232.17 8.1377L235.138 5.2204" stroke="#EAEAE9" stroke-miterlimit="10"/>
<path d="M232.455 36.3314L235.485 39.1875" stroke="#EAEAE9" stroke-miterlimit="10"/>
<path d="M211.504 15.1455L208.791 12.32" stroke="#EAEAE9" stroke-miterlimit="10"/>
<path d="M217.124 35.2296L214.462 37.7593" stroke="#EAEAE9" stroke-miterlimit="10"/>
<path d="M212.351 29.8843L217.726 24.5087" stroke="#EAEAE9" stroke-miterlimit="10"/>
<path d="M215.941 34.0464L221.745 28.2322" stroke="#EAEAE9" stroke-miterlimit="10"/>
<path d="M218.502 36.6162L221.276 33.8417" stroke="#EAEAE9" stroke-miterlimit="10"/>
<path d="M223.02 16.1245L216.655 9.91252" stroke="#EAEAE9" stroke-miterlimit="10"/>
<path d="M221.041 20.8979L212.952 13.0131" stroke="#EAEAE9" stroke-miterlimit="10"/>
<path d="M213.789 21.041L209.209 16.4611" stroke="#EAEAE9" stroke-miterlimit="10"/>
<path d="M239.116 14.268L233.731 19.6436" stroke="#EAEAE9" stroke-miterlimit="10"/>
<path d="M234.751 10.4222L228.834 16.3384" stroke="#EAEAE9" stroke-miterlimit="10"/>
<path d="M229.599 6.66914L225.101 11.1675" stroke="#EAEAE9" stroke-miterlimit="10"/>
<path d="M241.411 27.9463L235.485 22.0199" stroke="#EAEAE9" stroke-miterlimit="10"/>
<path d="M234.026 34.7295L223.999 24.7434" stroke="#EAEAE9" stroke-miterlimit="10"/>
<path d="M229.599 39.1875L224.458 34.0363" stroke="#EAEAE9" stroke-miterlimit="10"/>
<path d="M237.127 30.9561L229.548 23.3772" stroke="#EAEAE9" stroke-miterlimit="10"/>
<path d="M225.336 43.4575L246.404 22.3892L225.336 1.32079L204.267 22.3892L225.336 43.4575Z" stroke="#EAEAE9" stroke-miterlimit="10"/>
<path d="M263.393 5.87294L266.627 9.10645" stroke="#EAEAE9" stroke-miterlimit="10"/>
<path d="M261.129 8.1377L258.211 5.2204" stroke="#EAEAE9" stroke-miterlimit="10"/>
<path d="M267.657 1.61961L257.436 11.8403" stroke="#EAEAE9" stroke-miterlimit="10"/>
<path d="M263.393 39.1875L266.627 35.954" stroke="#EAEAE9" stroke-miterlimit="10"/>
<path d="M261.129 36.9231L258.211 39.8506" stroke="#EAEAE9" stroke-miterlimit="10"/>
<path d="M267.657 43.4507L257.436 33.2198" stroke="#EAEAE9" stroke-miterlimit="10"/>
<path d="M261.955 16.1239L256.569 21.4995" stroke="#EAEAE9" stroke-miterlimit="10"/>
<path d="M263.393 27.1919L260.353 24.1624" stroke="#EAEAE9" stroke-miterlimit="10"/>
<path d="M256.906 11.0648L249.225 18.7456" stroke="#EAEAE9" stroke-miterlimit="10"/>
<path d="M251.724 5.88329L244.196 13.4111" stroke="#EAEAE9" stroke-miterlimit="10"/>
<path d="M259.649 30.9453L252.091 23.3869" stroke="#EAEAE9" stroke-miterlimit="10"/>
<path d="M253.662 36.9229L246.083 29.344" stroke="#EAEAE9" stroke-miterlimit="10"/>
<path d="M239.932 36.2289L247.144 43.4507L268.208 22.3768L247.144 1.31315L239.504 8.95319" stroke="#EAEAE9" stroke-miterlimit="10"/>
<path d="M96.1383 38.8809L92.9048 35.6474" stroke="#EAEAE9" stroke-miterlimit="10"/>
<path d="M98.4028 36.6169L101.32 39.5444" stroke="#EAEAE9" stroke-miterlimit="10"/>
<path d="M91.8747 43.1348L102.106 32.914" stroke="#EAEAE9" stroke-miterlimit="10"/>
<path d="M96.1383 5.56679L92.9048 8.80029" stroke="#EAEAE9" stroke-miterlimit="10"/>
<path d="M98.4028 7.83105L101.32 4.90356" stroke="#EAEAE9" stroke-miterlimit="10"/>
<path d="M91.8747 1.31394L102.106 11.5347" stroke="#EAEAE9" stroke-miterlimit="10"/>
<path d="M97.5767 28.6401L102.963 23.2544" stroke="#EAEAE9" stroke-miterlimit="10"/>
<path d="M96.1383 17.5624L99.178 20.6021" stroke="#EAEAE9" stroke-miterlimit="10"/>
<path d="M102.626 33.6895L110.307 26.0086" stroke="#EAEAE9" stroke-miterlimit="10"/>
<path d="M107.818 38.8711L115.335 31.3535" stroke="#EAEAE9" stroke-miterlimit="10"/>
<path d="M99.8921 13.8087L107.44 21.3672" stroke="#EAEAE9" stroke-miterlimit="10"/>
<path d="M105.869 7.8318L113.448 15.4106" stroke="#EAEAE9" stroke-miterlimit="10"/>
<path d="M119.609 8.52478L112.388 1.31315L91.3239 22.3768L112.388 43.4507L120.028 35.8004" stroke="#EAEAE9" stroke-miterlimit="10"/>
<path d="M141.846 8.1377L144.824 5.2204" stroke="#EAEAE9" stroke-miterlimit="10"/>
<path d="M142.132 36.3314L145.161 39.1875" stroke="#EAEAE9" stroke-miterlimit="10"/>
<path d="M121.18 15.1455L118.467 12.32" stroke="#EAEAE9" stroke-miterlimit="10"/>
<path d="M126.801 35.2296L124.148 37.7593" stroke="#EAEAE9" stroke-miterlimit="10"/>
<path d="M122.037 29.8843L127.413 24.5087" stroke="#EAEAE9" stroke-miterlimit="10"/>
<path d="M125.617 34.0464L131.431 28.2322" stroke="#EAEAE9" stroke-miterlimit="10"/>
<path d="M128.188 36.6162L130.962 33.8417" stroke="#EAEAE9" stroke-miterlimit="10"/>
<path d="M132.707 16.1245L126.331 9.91252" stroke="#EAEAE9" stroke-miterlimit="10"/>
<path d="M130.717 20.8979L122.639 13.0131" stroke="#EAEAE9" stroke-miterlimit="10"/>
<path d="M123.475 21.041L118.895 16.4611" stroke="#EAEAE9" stroke-miterlimit="10"/>
<path d="M148.792 14.268L143.417 19.6436" stroke="#EAEAE9" stroke-miterlimit="10"/>
<path d="M144.437 10.4222L138.521 16.3384" stroke="#EAEAE9" stroke-miterlimit="10"/>
<path d="M139.286 6.66865L134.787 11.167" stroke="#EAEAE9" stroke-miterlimit="10"/>
<path d="M151.098 27.9463L145.161 22.0199" stroke="#EAEAE9" stroke-miterlimit="10"/>
<path d="M143.702 34.7295L133.686 24.7434" stroke="#EAEAE9" stroke-miterlimit="10"/>
<path d="M139.286 39.1875L134.135 34.0363" stroke="#EAEAE9" stroke-miterlimit="10"/>
<path d="M146.814 30.9561L139.235 23.3772" stroke="#EAEAE9" stroke-miterlimit="10"/>
<path d="M135.025 43.4546L156.094 22.3862L135.025 1.31787L113.957 22.3862L135.025 43.4546Z" stroke="#EAEAE9" stroke-miterlimit="10"/>
<path d="M173.079 5.87294L176.313 9.10645" stroke="#EAEAE9" stroke-miterlimit="10"/>
<path d="M170.815 8.1377L167.887 5.2204" stroke="#EAEAE9" stroke-miterlimit="10"/>
<path d="M177.333 1.61961L167.112 11.8403" stroke="#EAEAE9" stroke-miterlimit="10"/>
<path d="M173.079 39.1875L176.313 35.954" stroke="#EAEAE9" stroke-miterlimit="10"/>
<path d="M170.815 36.9231L167.887 39.8506" stroke="#EAEAE9" stroke-miterlimit="10"/>
<path d="M177.333 43.4507L167.112 33.2198" stroke="#EAEAE9" stroke-miterlimit="10"/>
<path d="M171.631 16.1239L166.255 21.4995" stroke="#EAEAE9" stroke-miterlimit="10"/>
<path d="M173.079 27.1919L170.04 24.1624" stroke="#EAEAE9" stroke-miterlimit="10"/>
<path d="M166.582 11.0648L158.911 18.7456" stroke="#EAEAE9" stroke-miterlimit="10"/>
<path d="M161.4 5.88329L153.882 13.4111" stroke="#EAEAE9" stroke-miterlimit="10"/>
<path d="M169.326 30.9453L161.777 23.3869" stroke="#EAEAE9" stroke-miterlimit="10"/>
<path d="M163.348 36.9229L155.77 29.344" stroke="#EAEAE9" stroke-miterlimit="10"/>
<path d="M149.609 36.2289L156.83 43.4507L177.894 22.3768L156.83 1.31315L149.18 8.95319" stroke="#EAEAE9" stroke-miterlimit="10"/>
<path d="M1259.24 38.8809L1256.01 35.6474" stroke="#EAEAE9" stroke-miterlimit="10"/>
<path d="M5.82471 38.8809L2.59122 35.6474" stroke="#EAEAE9" stroke-miterlimit="10"/>
<path d="M1261.5 36.6169L1264.43 39.5444" stroke="#EAEAE9" stroke-miterlimit="10"/>
<path d="M8.07898 36.6169L11.0065 39.5444" stroke="#EAEAE9" stroke-miterlimit="10"/>
<path d="M1254.98 43.1348L1265.2 32.914" stroke="#EAEAE9" stroke-miterlimit="10"/>
<path d="M1.56087 43.1348L11.7816 32.914" stroke="#EAEAE9" stroke-miterlimit="10"/>
<path d="M1259.24 5.56679L1256.01 8.80029" stroke="#EAEAE9" stroke-miterlimit="10"/>
<path d="M5.82459 5.56679L2.5911 8.80029" stroke="#EAEAE9" stroke-miterlimit="10"/>
<path d="M1261.5 7.83105L1264.43 4.90356" stroke="#EAEAE9" stroke-miterlimit="10"/>
<path d="M8.07898 7.83105L11.0065 4.90356" stroke="#EAEAE9" stroke-miterlimit="10"/>
<path d="M1254.98 1.31394L1265.2 11.5347" stroke="#EAEAE9" stroke-miterlimit="10"/>
<path d="M1.56087 1.31394L11.7816 11.5347" stroke="#EAEAE9" stroke-miterlimit="10"/>
<path d="M1260.68 28.6401L1266.07 23.2544" stroke="#EAEAE9" stroke-miterlimit="10"/>
<path d="M7.26294 28.6401L12.6487 23.2544" stroke="#EAEAE9" stroke-miterlimit="10"/>
<path d="M1259.24 17.5624L1262.27 20.6021" stroke="#EAEAE9" stroke-miterlimit="10"/>
<path d="M5.82472 17.5624L8.85425 20.6021" stroke="#EAEAE9" stroke-miterlimit="10"/>
<path d="M1265.73 33.6895L1273.41 26.0086" stroke="#EAEAE9" stroke-miterlimit="10"/>
<path d="M12.3121 33.6895L19.9929 26.0086" stroke="#EAEAE9" stroke-miterlimit="10"/>
<path d="M1270.91 38.8711L1278.44 31.3433" stroke="#EAEAE9" stroke-miterlimit="10"/>
<path d="M17.4938 38.8711L25.0216 31.3433" stroke="#EAEAE9" stroke-miterlimit="10"/>
<path d="M1262.99 13.8087L1270.54 21.3672" stroke="#EAEAE9" stroke-miterlimit="10"/>
<path d="M9.56826 13.8087L17.1165 21.3672" stroke="#EAEAE9" stroke-miterlimit="10"/>
<path d="M1268.97 7.8318L1276.54 15.4106" stroke="#EAEAE9" stroke-miterlimit="10"/>
<path d="M15.5457 7.8318L23.1245 15.4106" stroke="#EAEAE9" stroke-miterlimit="10"/>
<path d="M1282.71 8.52478L1275.49 1.31315L1254.42 22.3768L1275.49 43.4507L1283.13 35.8004" stroke="#EAEAE9" stroke-miterlimit="10"/>
<path d="M29.2855 8.52478L22.074 1.31315L1.00006 22.3768L22.074 43.4507L29.714 35.8004" stroke="#EAEAE9" stroke-miterlimit="10"/>
<path d="M1304.95 8.1377L1307.92 5.2204" stroke="#EAEAE9" stroke-miterlimit="10"/>
<path d="M51.5324 8.1377L54.5007 5.2204" stroke="#EAEAE9" stroke-miterlimit="10"/>
<path d="M1305.24 36.3314L1308.27 39.1875" stroke="#EAEAE9" stroke-miterlimit="10"/>
<path d="M51.8178 36.3314L54.8473 39.1875" stroke="#EAEAE9" stroke-miterlimit="10"/>
<path d="M1284.29 15.1455L1281.57 12.32" stroke="#EAEAE9" stroke-miterlimit="10"/>
<path d="M30.8666 15.1455L28.1533 12.32" stroke="#EAEAE9" stroke-miterlimit="10"/>
<path d="M1289.91 35.2291L1287.24 37.7588" stroke="#EAEAE9" stroke-miterlimit="10"/>
<path d="M36.4869 35.2291L33.8247 37.7588" stroke="#EAEAE9" stroke-miterlimit="10"/>
<path d="M1285.13 29.8843L1290.51 24.5087" stroke="#EAEAE9" stroke-miterlimit="10"/>
<path d="M31.713 29.8843L37.0886 24.5087" stroke="#EAEAE9" stroke-miterlimit="10"/>
<path d="M1288.72 34.0464L1294.54 28.2322" stroke="#EAEAE9" stroke-miterlimit="10"/>
<path d="M35.3036 34.0464L41.1178 28.2322" stroke="#EAEAE9" stroke-miterlimit="10"/>
<path d="M1291.29 36.6162L1294.06 33.8417" stroke="#EAEAE9" stroke-miterlimit="10"/>
<path d="M37.8742 36.6162L40.6384 33.8417" stroke="#EAEAE9" stroke-miterlimit="10"/>
<path d="M1295.81 16.1245L1289.44 9.91252" stroke="#EAEAE9" stroke-miterlimit="10"/>
<path d="M42.3928 16.1245L36.0176 9.91252" stroke="#EAEAE9" stroke-miterlimit="10"/>
<path d="M1293.82 20.8979L1285.73 13.0131" stroke="#EAEAE9" stroke-miterlimit="10"/>
<path d="M40.4038 20.8979L32.315 13.0131" stroke="#EAEAE9" stroke-miterlimit="10"/>
<path d="M1286.58 21.041L1281.99 16.4611" stroke="#EAEAE9" stroke-miterlimit="10"/>
<path d="M33.1616 21.041L28.5715 16.4611" stroke="#EAEAE9" stroke-miterlimit="10"/>
<path d="M1311.9 14.268L1306.51 19.6436" stroke="#EAEAE9" stroke-miterlimit="10"/>
<path d="M58.4788 14.268L53.093 19.6436" stroke="#EAEAE9" stroke-miterlimit="10"/>
<path d="M1307.53 10.4222L1301.62 16.3384" stroke="#EAEAE9" stroke-miterlimit="10"/>
<path d="M54.113 10.4222L48.1969 16.3384" stroke="#EAEAE9" stroke-miterlimit="10"/>
<path d="M1302.39 6.66865L1297.89 11.167" stroke="#EAEAE9" stroke-miterlimit="10"/>
<path d="M48.972 6.66865L44.4737 11.167" stroke="#EAEAE9" stroke-miterlimit="10"/>
<path d="M1314.19 27.9463L1308.27 22.0199" stroke="#EAEAE9" stroke-miterlimit="10"/>
<path d="M60.7738 27.9463L54.8474 22.0199" stroke="#EAEAE9" stroke-miterlimit="10"/>
<path d="M1306.81 34.7295L1296.79 24.7434" stroke="#EAEAE9" stroke-miterlimit="10"/>
<path d="M53.3888 34.7295L43.3721 24.7434" stroke="#EAEAE9" stroke-miterlimit="10"/>
<path d="M1302.39 39.1875L1297.24 34.0363" stroke="#EAEAE9" stroke-miterlimit="10"/>
<path d="M48.972 39.1875L43.8208 34.0363" stroke="#EAEAE9" stroke-miterlimit="10"/>
<path d="M1309.91 30.9561L1302.33 23.3772" stroke="#EAEAE9" stroke-miterlimit="10"/>
<path d="M56.4897 30.9561L48.9109 23.3772" stroke="#EAEAE9" stroke-miterlimit="10"/>
<path d="M1298.11 43.4516L1319.18 22.3833L1298.11 1.31494L1277.05 22.3833L1298.11 43.4516Z" stroke="#EAEAE9" stroke-miterlimit="10"/>
<path d="M44.6939 43.4516L65.7622 22.3833L44.6938 1.31494L23.6255 22.3833L44.6939 43.4516Z" stroke="#EAEAE9" stroke-miterlimit="10"/>
<path d="M1336.18 5.87294L1339.41 9.10645" stroke="#EAEAE9" stroke-miterlimit="10"/>
<path d="M82.7555 5.87294L85.989 9.10645" stroke="#EAEAE9" stroke-miterlimit="10"/>
<path d="M1333.92 8.1377L1330.99 5.2204" stroke="#EAEAE9" stroke-miterlimit="10"/>
<path d="M80.5012 8.1377L77.5737 5.2204" stroke="#EAEAE9" stroke-miterlimit="10"/>
<path d="M1340.44 1.61961L1330.22 11.8403" stroke="#EAEAE9" stroke-miterlimit="10"/>
<path d="M87.0193 1.61961L76.7985 11.8403" stroke="#EAEAE9" stroke-miterlimit="10"/>
<path d="M1336.18 39.1875L1339.41 35.954" stroke="#EAEAE9" stroke-miterlimit="10"/>
<path d="M82.7555 39.1875L85.989 35.954" stroke="#EAEAE9" stroke-miterlimit="10"/>
<path d="M1333.92 36.9226L1330.99 39.8501" stroke="#EAEAE9" stroke-miterlimit="10"/>
<path d="M80.5012 36.9226L77.5737 39.8501" stroke="#EAEAE9" stroke-miterlimit="10"/>
<path d="M1340.44 43.4507L1330.22 33.2198" stroke="#EAEAE9" stroke-miterlimit="10"/>
<path d="M87.0193 43.4507L76.7985 33.2198" stroke="#EAEAE9" stroke-miterlimit="10"/>
<path d="M1334.74 16.1239L1329.35 21.4995" stroke="#EAEAE9" stroke-miterlimit="10"/>
<path d="M81.3173 16.1239L75.9315 21.4995" stroke="#EAEAE9" stroke-miterlimit="10"/>
<path d="M1336.18 27.1914L1333.15 24.1619" stroke="#EAEAE9" stroke-miterlimit="10"/>
<path d="M82.7556 27.1914L79.7261 24.1619" stroke="#EAEAE9" stroke-miterlimit="10"/>
<path d="M1329.69 11.0648L1322.01 18.7456" stroke="#EAEAE9" stroke-miterlimit="10"/>
<path d="M76.2681 11.0648L68.5873 18.7456" stroke="#EAEAE9" stroke-miterlimit="10"/>
<path d="M1324.51 5.88281L1316.99 13.4106" stroke="#EAEAE9" stroke-miterlimit="10"/>
<path d="M71.0863 5.88281L63.5687 13.4106" stroke="#EAEAE9" stroke-miterlimit="10"/>
<path d="M1332.43 30.9453L1324.88 23.3869" stroke="#EAEAE9" stroke-miterlimit="10"/>
<path d="M79.0121 30.9453L71.4639 23.3869" stroke="#EAEAE9" stroke-miterlimit="10"/>
<path d="M1326.45 36.9229L1318.88 29.344" stroke="#EAEAE9" stroke-miterlimit="10"/>
<path d="M73.0347 36.9229L65.4558 29.344" stroke="#EAEAE9" stroke-miterlimit="10"/>
<path d="M1312.71 36.2289L1319.93 43.4507L1341 22.3768L1319.93 1.31315L1312.29 8.95319" stroke="#EAEAE9" stroke-miterlimit="10"/>
<path d="M59.2949 36.2289L66.5065 43.4507L87.5803 22.3768L66.5065 1.31315L58.8664 8.95319" stroke="#EAEAE9" stroke-miterlimit="10"/>
<path d="M367.09 38.8813L363.856 35.6478" stroke="#EAEAE9" stroke-miterlimit="10"/>
<path d="M369.354 36.6169L372.271 39.5444" stroke="#EAEAE9" stroke-miterlimit="10"/>
<path d="M362.826 43.145L373.057 32.9141" stroke="#EAEAE9" stroke-miterlimit="10"/>
<path d="M367.089 5.56679L363.856 8.80029" stroke="#EAEAE9" stroke-miterlimit="10"/>
<path d="M369.354 7.83105L372.271 4.91377" stroke="#EAEAE9" stroke-miterlimit="10"/>
<path d="M362.826 1.31394L373.057 11.5347" stroke="#EAEAE9" stroke-miterlimit="10"/>
<path d="M368.528 28.6401L373.914 23.2544" stroke="#EAEAE9" stroke-miterlimit="10"/>
<path d="M367.089 17.5624L370.129 20.6021" stroke="#EAEAE9" stroke-miterlimit="10"/>
<path d="M373.587 33.6895L381.258 26.0086" stroke="#EAEAE9" stroke-miterlimit="10"/>
<path d="M378.769 38.8711L386.286 31.3535" stroke="#EAEAE9" stroke-miterlimit="10"/>
<path d="M370.843 13.8087L378.391 21.3672" stroke="#EAEAE9" stroke-miterlimit="10"/>
<path d="M376.821 7.8318L384.399 15.4106" stroke="#EAEAE9" stroke-miterlimit="10"/>
<path d="M390.56 8.52522L383.339 1.31359L362.275 22.3773L383.339 43.4409L390.979 35.8009" stroke="#EAEAE9" stroke-miterlimit="10"/>
<path d="M412.807 8.1377L415.776 5.2102" stroke="#EAEAE9" stroke-miterlimit="10"/>
<path d="M413.093 36.3314L416.112 39.1875" stroke="#EAEAE9" stroke-miterlimit="10"/>
<path d="M392.131 15.1455L389.428 12.32" stroke="#EAEAE9" stroke-miterlimit="10"/>
<path d="M397.752 35.2296L395.1 37.7593" stroke="#EAEAE9" stroke-miterlimit="10"/>
<path d="M392.988 29.8843L398.364 24.5087" stroke="#EAEAE9" stroke-miterlimit="10"/>
<path d="M396.568 34.0464L402.383 28.2322" stroke="#EAEAE9" stroke-miterlimit="10"/>
<path d="M399.139 36.6162L401.913 33.8417" stroke="#EAEAE9" stroke-miterlimit="10"/>
<path d="M403.658 16.1245L397.293 9.91252" stroke="#EAEAE9" stroke-miterlimit="10"/>
<path d="M401.669 20.8979L393.59 13.0131" stroke="#EAEAE9" stroke-miterlimit="10"/>
<path d="M394.427 21.041L389.847 16.4611" stroke="#EAEAE9" stroke-miterlimit="10"/>
<path d="M419.744 14.268L414.368 19.6436" stroke="#EAEAE9" stroke-miterlimit="10"/>
<path d="M415.388 10.4222L409.472 16.3384" stroke="#EAEAE9" stroke-miterlimit="10"/>
<path d="M410.237 6.66914L405.739 11.1675" stroke="#EAEAE9" stroke-miterlimit="10"/>
<path d="M422.049 27.9463L416.112 22.0199" stroke="#EAEAE9" stroke-miterlimit="10"/>
<path d="M414.654 34.7295L404.637 24.7434" stroke="#EAEAE9" stroke-miterlimit="10"/>
<path d="M410.237 39.1875L405.086 34.0363" stroke="#EAEAE9" stroke-miterlimit="10"/>
<path d="M417.765 30.9561L410.186 23.3772" stroke="#EAEAE9" stroke-miterlimit="10"/>
<path d="M405.995 43.4555L427.064 22.3872L405.995 1.31884L384.927 22.3872L405.995 43.4555Z" stroke="#EAEAE9" stroke-miterlimit="10"/>
<path d="M444.031 5.87294L447.264 9.10645" stroke="#EAEAE9" stroke-miterlimit="10"/>
<path d="M441.766 8.1377L438.849 5.2102" stroke="#EAEAE9" stroke-miterlimit="10"/>
<path d="M543.984 38.8813L540.75 35.6478" stroke="#EAEAE9" stroke-miterlimit="10"/>
<path d="M546.238 36.6169L549.165 39.5444" stroke="#EAEAE9" stroke-miterlimit="10"/>
<path d="M539.72 43.1348L549.941 32.914" stroke="#EAEAE9" stroke-miterlimit="10"/>
<path d="M543.984 5.56679L540.75 8.80029" stroke="#EAEAE9" stroke-miterlimit="10"/>
<path d="M546.238 7.83105L549.165 4.90356" stroke="#EAEAE9" stroke-miterlimit="10"/>
<path d="M539.72 1.31394L549.941 11.5347" stroke="#EAEAE9" stroke-miterlimit="10"/>
<path d="M545.422 28.6401L550.808 23.2544" stroke="#EAEAE9" stroke-miterlimit="10"/>
<path d="M543.983 17.5624L547.013 20.6021" stroke="#EAEAE9" stroke-miterlimit="10"/>
<path d="M550.471 33.6895L558.152 26.0086" stroke="#EAEAE9" stroke-miterlimit="10"/>
<path d="M555.653 38.8716L563.181 31.3539" stroke="#EAEAE9" stroke-miterlimit="10"/>
<path d="M547.727 13.8092L555.275 21.3677" stroke="#EAEAE9" stroke-miterlimit="10"/>
<path d="M553.704 7.8318L561.283 15.4106" stroke="#EAEAE9" stroke-miterlimit="10"/>
<path d="M567.444 8.52478L560.233 1.31315L539.159 22.3768L560.233 43.4507L567.873 35.8004" stroke="#EAEAE9" stroke-miterlimit="10"/>
<path d="M589.691 8.1377L592.66 5.2204" stroke="#EAEAE9" stroke-miterlimit="10"/>
<path d="M589.977 36.3314L593.006 39.1875" stroke="#EAEAE9" stroke-miterlimit="10"/>
<path d="M569.025 15.1455L566.312 12.32" stroke="#EAEAE9" stroke-miterlimit="10"/>
<path d="M574.646 35.2296L571.983 37.7593" stroke="#EAEAE9" stroke-miterlimit="10"/>
<path d="M569.872 29.8848L575.247 24.5092" stroke="#EAEAE9" stroke-miterlimit="10"/>
<path d="M573.462 34.0464L579.277 28.2322" stroke="#EAEAE9" stroke-miterlimit="10"/>
<path d="M576.033 36.6162L578.797 33.8417" stroke="#EAEAE9" stroke-miterlimit="10"/>
<path d="M580.552 16.1245L574.177 9.91252" stroke="#EAEAE9" stroke-miterlimit="10"/>
<path d="M578.562 20.8979L570.474 13.0131" stroke="#EAEAE9" stroke-miterlimit="10"/>
<path d="M571.32 21.041L566.73 16.4611" stroke="#EAEAE9" stroke-miterlimit="10"/>
<path d="M596.638 14.268L591.252 19.6436" stroke="#EAEAE9" stroke-miterlimit="10"/>
<path d="M592.272 10.4222L586.356 16.3384" stroke="#EAEAE9" stroke-miterlimit="10"/>
<path d="M587.131 6.66914L582.633 11.1675" stroke="#EAEAE9" stroke-miterlimit="10"/>
<path d="M598.933 27.9468L593.006 22.0204" stroke="#EAEAE9" stroke-miterlimit="10"/>
<path d="M591.548 34.7295L581.531 24.7434" stroke="#EAEAE9" stroke-miterlimit="10"/>
<path d="M587.131 39.1875L581.98 34.0363" stroke="#EAEAE9" stroke-miterlimit="10"/>
<path d="M594.648 30.9561L587.07 23.3772" stroke="#EAEAE9" stroke-miterlimit="10"/>
<path d="M582.865 43.4492L603.934 22.3809L582.865 1.31249L561.797 22.3809L582.865 43.4492Z" stroke="#EAEAE9" stroke-miterlimit="10"/>
<path d="M620.914 5.87294L624.148 9.10645" stroke="#EAEAE9" stroke-miterlimit="10"/>
<path d="M618.66 8.1377L615.733 5.2204" stroke="#EAEAE9" stroke-miterlimit="10"/>
<path d="M625.178 1.61961L614.957 11.8403" stroke="#EAEAE9" stroke-miterlimit="10"/>
<path d="M620.914 39.1875L624.148 35.954" stroke="#EAEAE9" stroke-miterlimit="10"/>
<path d="M618.66 36.9231L615.733 39.8506" stroke="#EAEAE9" stroke-miterlimit="10"/>
<path d="M625.178 43.4507L614.958 33.2198" stroke="#EAEAE9" stroke-miterlimit="10"/>
<path d="M619.476 16.1239L614.09 21.4995" stroke="#EAEAE9" stroke-miterlimit="10"/>
<path d="M620.914 27.1919L617.885 24.1624" stroke="#EAEAE9" stroke-miterlimit="10"/>
<path d="M614.427 11.0648L606.746 18.7456" stroke="#EAEAE9" stroke-miterlimit="10"/>
<path d="M609.245 5.88329L601.728 13.4111" stroke="#EAEAE9" stroke-miterlimit="10"/>
<path d="M617.171 30.9453L609.623 23.3869" stroke="#EAEAE9" stroke-miterlimit="10"/>
<path d="M611.193 36.9229L603.615 29.344" stroke="#EAEAE9" stroke-miterlimit="10"/>
<path d="M597.454 36.2284L604.665 43.4502L625.739 22.3763L604.665 1.31266L597.025 8.9527" stroke="#EAEAE9" stroke-miterlimit="10"/>
<path d="M453.66 38.8813L450.426 35.6478" stroke="#EAEAE9" stroke-miterlimit="10"/>
<path d="M455.924 36.6169L458.852 39.5444" stroke="#EAEAE9" stroke-miterlimit="10"/>
<path d="M449.406 43.1348L459.627 32.914" stroke="#EAEAE9" stroke-miterlimit="10"/>
<path d="M453.66 5.56679L450.426 8.80029" stroke="#EAEAE9" stroke-miterlimit="10"/>
<path d="M455.924 7.83105L458.852 4.90356" stroke="#EAEAE9" stroke-miterlimit="10"/>
<path d="M449.406 1.31394L459.627 11.5347" stroke="#EAEAE9" stroke-miterlimit="10"/>
<path d="M455.108 28.6401L460.484 23.2544" stroke="#EAEAE9" stroke-miterlimit="10"/>
<path d="M453.66 17.5624L456.699 20.6021" stroke="#EAEAE9" stroke-miterlimit="10"/>
<path d="M460.157 33.6895L467.828 26.0086" stroke="#EAEAE9" stroke-miterlimit="10"/>
<path d="M465.339 38.8711L472.857 31.3535" stroke="#EAEAE9" stroke-miterlimit="10"/>
<path d="M457.413 13.8087L464.962 21.3672" stroke="#EAEAE9" stroke-miterlimit="10"/>
<path d="M463.391 7.8318L470.969 15.4106" stroke="#EAEAE9" stroke-miterlimit="10"/>
<path d="M477.131 8.52478L469.909 1.31315L448.845 22.3768L469.909 43.4507L477.559 35.8004" stroke="#EAEAE9" stroke-miterlimit="10"/>
<path d="M499.377 8.1377L502.346 5.2204" stroke="#EAEAE9" stroke-miterlimit="10"/>
<path d="M499.663 36.3314L502.682 39.1875" stroke="#EAEAE9" stroke-miterlimit="10"/>
<path d="M478.712 15.1455L475.998 12.32" stroke="#EAEAE9" stroke-miterlimit="10"/>
<path d="M484.332 35.2296L481.67 37.7593" stroke="#EAEAE9" stroke-miterlimit="10"/>
<path d="M479.558 29.8848L484.934 24.5092" stroke="#EAEAE9" stroke-miterlimit="10"/>
<path d="M483.139 34.0464L488.953 28.2322" stroke="#EAEAE9" stroke-miterlimit="10"/>
<path d="M485.709 36.6162L488.484 33.8417" stroke="#EAEAE9" stroke-miterlimit="10"/>
<path d="M490.228 16.1245L483.863 9.91252" stroke="#EAEAE9" stroke-miterlimit="10"/>
<path d="M488.249 20.8979L480.16 13.0131" stroke="#EAEAE9" stroke-miterlimit="10"/>
<path d="M480.996 21.041L476.417 16.4611" stroke="#EAEAE9" stroke-miterlimit="10"/>
<path d="M506.324 14.268L500.938 19.6436" stroke="#EAEAE9" stroke-miterlimit="10"/>
<path d="M501.958 10.4222L496.042 16.3384" stroke="#EAEAE9" stroke-miterlimit="10"/>
<path d="M496.807 6.66914L492.309 11.1675" stroke="#EAEAE9" stroke-miterlimit="10"/>
<path d="M508.619 27.9468L502.682 22.0204" stroke="#EAEAE9" stroke-miterlimit="10"/>
<path d="M501.234 34.7295L491.207 24.7434" stroke="#EAEAE9" stroke-miterlimit="10"/>
<path d="M496.807 39.1875L491.656 34.0363" stroke="#EAEAE9" stroke-miterlimit="10"/>
<path d="M504.335 30.9561L496.756 23.3772" stroke="#EAEAE9" stroke-miterlimit="10"/>
<path d="M492.527 43.4536L513.595 22.3853L492.527 1.31689L471.459 22.3852L492.527 43.4536Z" stroke="#EAEAE9" stroke-miterlimit="10"/>
<path d="M530.601 5.87294L533.834 9.10645" stroke="#EAEAE9" stroke-miterlimit="10"/>
<path d="M528.336 8.1377L525.419 5.2204" stroke="#EAEAE9" stroke-miterlimit="10"/>
<path d="M534.865 1.61961L524.634 11.8403" stroke="#EAEAE9" stroke-miterlimit="10"/>
<path d="M530.601 39.1875L533.834 35.954" stroke="#EAEAE9" stroke-miterlimit="10"/>
<path d="M528.336 36.9231L525.419 39.8506" stroke="#EAEAE9" stroke-miterlimit="10"/>
<path d="M534.865 43.4507L524.634 33.2198" stroke="#EAEAE9" stroke-miterlimit="10"/>
<path d="M529.162 16.1239L523.777 21.4995" stroke="#EAEAE9" stroke-miterlimit="10"/>
<path d="M530.601 27.1919L527.561 24.1624" stroke="#EAEAE9" stroke-miterlimit="10"/>
<path d="M524.113 11.0648L516.432 18.7456" stroke="#EAEAE9" stroke-miterlimit="10"/>
<path d="M518.932 5.88329L511.404 13.4111" stroke="#EAEAE9" stroke-miterlimit="10"/>
<path d="M526.857 30.9453L519.299 23.3869" stroke="#EAEAE9" stroke-miterlimit="10"/>
<path d="M520.87 36.9229L513.291 29.344" stroke="#EAEAE9" stroke-miterlimit="10"/>
<path d="M507.13 36.2289L514.352 43.4507L535.415 22.3768L514.352 1.31315L506.712 8.95319" stroke="#EAEAE9" stroke-miterlimit="10"/>
<path d="M1073.02 1.61912L1062.8 11.8398" stroke="#EAEAE9" stroke-miterlimit="10"/>
<path d="M1068.77 39.187L1072 35.9535" stroke="#EAEAE9" stroke-miterlimit="10"/>
<path d="M1066.51 36.9226L1063.58 39.8501" stroke="#EAEAE9" stroke-miterlimit="10"/>
<path d="M1073.02 43.4512L1062.8 33.2202" stroke="#EAEAE9" stroke-miterlimit="10"/>
<path d="M1067.33 16.1244L1061.95 21.5" stroke="#EAEAE9" stroke-miterlimit="10"/>
<path d="M1068.77 27.1914L1065.73 24.1619" stroke="#EAEAE9" stroke-miterlimit="10"/>
<path d="M1062.27 11.0643L1054.6 18.7451" stroke="#EAEAE9" stroke-miterlimit="10"/>
<path d="M1057.09 5.88281L1049.57 13.4106" stroke="#EAEAE9" stroke-miterlimit="10"/>
<path d="M1065.02 30.9453L1057.47 23.3869" stroke="#EAEAE9" stroke-miterlimit="10"/>
<path d="M1059.04 36.9229L1051.46 29.344" stroke="#EAEAE9" stroke-miterlimit="10"/>
<path d="M1045.3 36.2293L1052.52 43.4512L1073.58 22.3773L1052.52 1.31363L1044.87 8.95368" stroke="#EAEAE9" stroke-miterlimit="10"/>
<path d="M901.515 38.8813L898.281 35.6478" stroke="#EAEAE9" stroke-miterlimit="10"/>
<path d="M903.779 36.6165L906.697 39.5439" stroke="#EAEAE9" stroke-miterlimit="10"/>
<path d="M897.251 43.1348L907.472 32.914" stroke="#EAEAE9" stroke-miterlimit="10"/>
<path d="M901.515 5.56679L898.281 8.80029" stroke="#EAEAE9" stroke-miterlimit="10"/>
<path d="M903.779 7.83154L906.697 4.90405" stroke="#EAEAE9" stroke-miterlimit="10"/>
<path d="M897.251 1.31346L907.472 11.5342" stroke="#EAEAE9" stroke-miterlimit="10"/>
<path d="M902.953 28.6396L908.339 23.2539" stroke="#EAEAE9" stroke-miterlimit="10"/>
<path d="M901.515 17.5624L904.555 20.6021" stroke="#EAEAE9" stroke-miterlimit="10"/>
<path d="M908.002 33.689L915.683 26.0081" stroke="#EAEAE9" stroke-miterlimit="10"/>
<path d="M913.184 38.8711L920.712 31.3535" stroke="#EAEAE9" stroke-miterlimit="10"/>
<path d="M905.258 13.8083L912.817 21.3667" stroke="#EAEAE9" stroke-miterlimit="10"/>
<path d="M911.246 7.83131L918.815 15.4102" stroke="#EAEAE9" stroke-miterlimit="10"/>
<path d="M924.976 8.52526L917.764 1.31364L896.7 22.3773L917.764 43.4512L925.404 35.8009" stroke="#EAEAE9" stroke-miterlimit="10"/>
<path d="M947.222 8.1377L950.191 5.2204" stroke="#EAEAE9" stroke-miterlimit="10"/>
<path d="M947.508 36.3309L950.538 39.187" stroke="#EAEAE9" stroke-miterlimit="10"/>
<path d="M926.557 15.145L923.843 12.3195" stroke="#EAEAE9" stroke-miterlimit="10"/>
<path d="M932.177 35.2291L929.515 37.7588" stroke="#EAEAE9" stroke-miterlimit="10"/>
<path d="M927.403 29.8843L932.779 24.5087" stroke="#EAEAE9" stroke-miterlimit="10"/>
<path d="M930.994 34.0464L936.808 28.2322" stroke="#EAEAE9" stroke-miterlimit="10"/>
<path d="M933.564 36.6167L936.329 33.8422" stroke="#EAEAE9" stroke-miterlimit="10"/>
<path d="M938.083 16.124L931.708 9.91203" stroke="#EAEAE9" stroke-miterlimit="10"/>
<path d="M936.094 20.8979L928.005 13.0131" stroke="#EAEAE9" stroke-miterlimit="10"/>
<path d="M928.852 21.041L924.262 16.4611" stroke="#EAEAE9" stroke-miterlimit="10"/>
<path d="M954.169 14.268L948.783 19.6436" stroke="#EAEAE9" stroke-miterlimit="10"/>
<path d="M949.813 10.4222L943.887 16.3384" stroke="#EAEAE9" stroke-miterlimit="10"/>
<path d="M944.662 6.66865L940.164 11.167" stroke="#EAEAE9" stroke-miterlimit="10"/>
<path d="M956.464 27.9463L950.538 22.0199" stroke="#EAEAE9" stroke-miterlimit="10"/>
<path d="M949.079 34.7295L939.062 24.7434" stroke="#EAEAE9" stroke-miterlimit="10"/>
<path d="M944.662 39.187L939.511 34.0358" stroke="#EAEAE9" stroke-miterlimit="10"/>
<path d="M952.18 30.9556L944.601 23.3767" stroke="#EAEAE9" stroke-miterlimit="10"/>
<path d="M940.403 43.4526L961.471 22.3843L940.403 1.31591L919.335 22.3842L940.403 43.4526Z" stroke="#EAEAE9" stroke-miterlimit="10"/>
<path d="M978.446 5.87294L981.679 9.10645" stroke="#EAEAE9" stroke-miterlimit="10"/>
<path d="M976.191 8.1377L973.264 5.2204" stroke="#EAEAE9" stroke-miterlimit="10"/>
<path d="M982.709 1.61912L972.489 11.8398" stroke="#EAEAE9" stroke-miterlimit="10"/>
<path d="M978.446 39.187L981.679 35.9535" stroke="#EAEAE9" stroke-miterlimit="10"/>
<path d="M976.191 36.9226L973.264 39.8501" stroke="#EAEAE9" stroke-miterlimit="10"/>
<path d="M982.709 43.4512L972.489 33.2202" stroke="#EAEAE9" stroke-miterlimit="10"/>
<path d="M977.007 16.1244L971.622 21.5" stroke="#EAEAE9" stroke-miterlimit="10"/>
<path d="M978.446 27.1914L975.416 24.1619" stroke="#EAEAE9" stroke-miterlimit="10"/>
<path d="M971.958 11.0643L964.278 18.7451" stroke="#EAEAE9" stroke-miterlimit="10"/>
<path d="M966.777 5.88281L959.259 13.4106" stroke="#EAEAE9" stroke-miterlimit="10"/>
<path d="M974.702 30.9453L967.154 23.3869" stroke="#EAEAE9" stroke-miterlimit="10"/>
<path d="M968.725 36.9229L961.146 29.344" stroke="#EAEAE9" stroke-miterlimit="10"/>
<path d="M954.985 36.2293L962.197 43.4512L983.271 22.3773L962.197 1.31363L954.557 8.95368" stroke="#EAEAE9" stroke-miterlimit="10"/>
<path d="M811.191 38.8813L807.968 35.6478" stroke="#EAEAE9" stroke-miterlimit="10"/>
<path d="M813.456 36.6165L816.383 39.5439" stroke="#EAEAE9" stroke-miterlimit="10"/>
<path d="M806.938 43.1348L817.158 32.914" stroke="#EAEAE9" stroke-miterlimit="10"/>
<path d="M811.191 5.56679L807.968 8.80029" stroke="#EAEAE9" stroke-miterlimit="10"/>
<path d="M813.456 7.83154L816.383 4.90405" stroke="#EAEAE9" stroke-miterlimit="10"/>
<path d="M806.938 1.31346L817.158 11.5342" stroke="#EAEAE9" stroke-miterlimit="10"/>
<path d="M812.64 28.6396L818.015 23.2539" stroke="#EAEAE9" stroke-miterlimit="10"/>
<path d="M811.191 17.5624L814.231 20.6021" stroke="#EAEAE9" stroke-miterlimit="10"/>
<path d="M817.689 33.689L825.369 26.0081" stroke="#EAEAE9" stroke-miterlimit="10"/>
<path d="M822.87 38.8711L830.388 31.3535" stroke="#EAEAE9" stroke-miterlimit="10"/>
<path d="M814.945 13.8083L822.493 21.3667" stroke="#EAEAE9" stroke-miterlimit="10"/>
<path d="M820.922 7.83131L828.501 15.4102" stroke="#EAEAE9" stroke-miterlimit="10"/>
<path d="M834.662 8.52526L827.45 1.31364L806.376 22.3773L827.45 43.4512L835.09 35.8009" stroke="#EAEAE9" stroke-miterlimit="10"/>
<path d="M856.909 8.1377L859.877 5.2204" stroke="#EAEAE9" stroke-miterlimit="10"/>
<path d="M857.195 36.3309L860.224 39.187" stroke="#EAEAE9" stroke-miterlimit="10"/>
<path d="M836.243 15.145L833.53 12.3195" stroke="#EAEAE9" stroke-miterlimit="10"/>
<path d="M841.863 35.2291L839.201 37.7588" stroke="#EAEAE9" stroke-miterlimit="10"/>
<path d="M837.09 29.8843L842.465 24.5087" stroke="#EAEAE9" stroke-miterlimit="10"/>
<path d="M840.68 34.0464L846.484 28.2322" stroke="#EAEAE9" stroke-miterlimit="10"/>
<path d="M843.241 36.6167L846.015 33.8422" stroke="#EAEAE9" stroke-miterlimit="10"/>
<path d="M847.759 16.124L841.394 9.91203" stroke="#EAEAE9" stroke-miterlimit="10"/>
<path d="M845.78 20.8979L837.691 13.0131" stroke="#EAEAE9" stroke-miterlimit="10"/>
<path d="M838.528 21.041L833.948 16.4611" stroke="#EAEAE9" stroke-miterlimit="10"/>
<path d="M863.855 14.268L858.47 19.6436" stroke="#EAEAE9" stroke-miterlimit="10"/>
<path d="M859.49 10.4222L853.573 16.3384" stroke="#EAEAE9" stroke-miterlimit="10"/>
<path d="M854.338 6.66865L849.84 11.167" stroke="#EAEAE9" stroke-miterlimit="10"/>
<path d="M866.15 27.9463L860.224 22.0199" stroke="#EAEAE9" stroke-miterlimit="10"/>
<path d="M858.765 34.7295L848.738 24.7434" stroke="#EAEAE9" stroke-miterlimit="10"/>
<path d="M854.338 39.187L849.197 34.0358" stroke="#EAEAE9" stroke-miterlimit="10"/>
<path d="M861.866 30.9556L854.287 23.3767" stroke="#EAEAE9" stroke-miterlimit="10"/>
<path d="M850.075 43.457L871.143 22.3887L850.075 1.32031L829.007 22.3887L850.075 43.457Z" stroke="#EAEAE9" stroke-miterlimit="10"/>
<path d="M888.132 5.87294L891.366 9.10645" stroke="#EAEAE9" stroke-miterlimit="10"/>
<path d="M885.868 8.1377L882.95 5.2204" stroke="#EAEAE9" stroke-miterlimit="10"/>
<path d="M892.396 1.61912L882.175 11.8398" stroke="#EAEAE9" stroke-miterlimit="10"/>
<path d="M888.132 39.187L891.366 35.9535" stroke="#EAEAE9" stroke-miterlimit="10"/>
<path d="M885.868 36.9226L882.95 39.8501" stroke="#EAEAE9" stroke-miterlimit="10"/>
<path d="M892.396 43.4512L882.175 33.2202" stroke="#EAEAE9" stroke-miterlimit="10"/>
<path d="M886.694 16.1244L881.308 21.5" stroke="#EAEAE9" stroke-miterlimit="10"/>
<path d="M888.132 27.1914L885.092 24.1619" stroke="#EAEAE9" stroke-miterlimit="10"/>
<path d="M881.645 11.0643L873.964 18.7451" stroke="#EAEAE9" stroke-miterlimit="10"/>
<path d="M876.463 5.88281L868.935 13.4106" stroke="#EAEAE9" stroke-miterlimit="10"/>
<path d="M884.388 30.9448L876.83 23.3864" stroke="#EAEAE9" stroke-miterlimit="10"/>
<path d="M878.401 36.9229L870.822 29.344" stroke="#EAEAE9" stroke-miterlimit="10"/>
<path d="M864.671 36.2293L871.883 43.4512L892.947 22.3773L871.883 1.31363L864.243 8.95368" stroke="#EAEAE9" stroke-miterlimit="10"/>
<path d="M720.877 38.8813L717.644 35.6478" stroke="#EAEAE9" stroke-miterlimit="10"/>
<path d="M723.142 36.6165L726.059 39.5439" stroke="#EAEAE9" stroke-miterlimit="10"/>
<path d="M716.614 43.1348L726.845 32.914" stroke="#EAEAE9" stroke-miterlimit="10"/>
<path d="M720.877 5.56679L717.644 8.80029" stroke="#EAEAE9" stroke-miterlimit="10"/>
<path d="M723.142 7.83154L726.059 4.90405" stroke="#EAEAE9" stroke-miterlimit="10"/>
<path d="M716.614 1.31346L726.844 11.5342" stroke="#EAEAE9" stroke-miterlimit="10"/>
<path d="M722.316 28.6396L727.701 23.2539" stroke="#EAEAE9" stroke-miterlimit="10"/>
<path d="M720.877 17.5624L723.917 20.6021" stroke="#EAEAE9" stroke-miterlimit="10"/>
<path d="M727.365 33.689L735.046 26.0081" stroke="#EAEAE9" stroke-miterlimit="10"/>
<path d="M732.557 38.8711L740.074 31.3535" stroke="#EAEAE9" stroke-miterlimit="10"/>
<path d="M724.631 13.8083L732.179 21.3667" stroke="#EAEAE9" stroke-miterlimit="10"/>
<path d="M730.608 7.83131L738.187 15.4102" stroke="#EAEAE9" stroke-miterlimit="10"/>
<path d="M744.348 8.52526L737.127 1.31364L716.063 22.3773L737.127 43.4512L744.767 35.8009" stroke="#EAEAE9" stroke-miterlimit="10"/>
<path d="M766.585 8.1377L769.563 5.2204" stroke="#EAEAE9" stroke-miterlimit="10"/>
<path d="M766.871 36.3309L769.9 39.187" stroke="#EAEAE9" stroke-miterlimit="10"/>
<path d="M745.919 15.145L743.206 12.3195" stroke="#EAEAE9" stroke-miterlimit="10"/>
<path d="M751.54 35.2291L748.887 37.7588" stroke="#EAEAE9" stroke-miterlimit="10"/>
<path d="M746.776 29.8843L752.152 24.5087" stroke="#EAEAE9" stroke-miterlimit="10"/>
<path d="M750.356 34.0464L756.17 28.2322" stroke="#EAEAE9" stroke-miterlimit="10"/>
<path d="M752.927 36.6167L755.701 33.8422" stroke="#EAEAE9" stroke-miterlimit="10"/>
<path d="M757.446 16.124L751.07 9.91203" stroke="#EAEAE9" stroke-miterlimit="10"/>
<path d="M755.456 20.8979L747.378 13.0131" stroke="#EAEAE9" stroke-miterlimit="10"/>
<path d="M748.214 21.041L743.634 16.4611" stroke="#EAEAE9" stroke-miterlimit="10"/>
<path d="M773.531 14.268L768.156 19.6436" stroke="#EAEAE9" stroke-miterlimit="10"/>
<path d="M769.176 10.4222L763.26 16.3384" stroke="#EAEAE9" stroke-miterlimit="10"/>
<path d="M764.025 6.66865L759.526 11.167" stroke="#EAEAE9" stroke-miterlimit="10"/>
<path d="M775.837 27.9463L769.9 22.0199" stroke="#EAEAE9" stroke-miterlimit="10"/>
<path d="M768.441 34.7295L758.425 24.7434" stroke="#EAEAE9" stroke-miterlimit="10"/>
<path d="M764.025 39.187L758.874 34.0358" stroke="#EAEAE9" stroke-miterlimit="10"/>
<path d="M771.553 30.9556L763.974 23.3767" stroke="#EAEAE9" stroke-miterlimit="10"/>
<path d="M759.764 43.4541L780.833 22.3857L759.764 1.31738L738.696 22.3857L759.764 43.4541Z" stroke="#EAEAE9" stroke-miterlimit="10"/>
<path d="M797.818 5.87294L801.052 9.10645" stroke="#EAEAE9" stroke-miterlimit="10"/>
<path d="M795.554 8.1377L792.626 5.2204" stroke="#EAEAE9" stroke-miterlimit="10"/>
<path d="M802.072 1.61912L791.851 11.8398" stroke="#EAEAE9" stroke-miterlimit="10"/>
<path d="M797.818 39.187L801.052 35.9535" stroke="#EAEAE9" stroke-miterlimit="10"/>
<path d="M795.554 36.9226L792.626 39.8501" stroke="#EAEAE9" stroke-miterlimit="10"/>
<path d="M802.072 43.4512L791.851 33.2202" stroke="#EAEAE9" stroke-miterlimit="10"/>
<path d="M796.37 16.1244L790.994 21.5" stroke="#EAEAE9" stroke-miterlimit="10"/>
<path d="M797.818 27.1914L794.779 24.1619" stroke="#EAEAE9" stroke-miterlimit="10"/>
<path d="M791.321 11.0643L783.65 18.7451" stroke="#EAEAE9" stroke-miterlimit="10"/>
<path d="M786.139 5.88281L778.621 13.4106" stroke="#EAEAE9" stroke-miterlimit="10"/>
<path d="M794.065 30.9448L786.516 23.3864" stroke="#EAEAE9" stroke-miterlimit="10"/>
<path d="M788.087 36.9229L780.509 29.344" stroke="#EAEAE9" stroke-miterlimit="10"/>
<path d="M774.348 36.2293L781.569 43.4512L802.633 22.3773L781.569 1.31363L773.919 8.95368" stroke="#EAEAE9" stroke-miterlimit="10"/>
<path d="M630.564 38.8813L627.33 35.6478" stroke="#EAEAE9" stroke-miterlimit="10"/>
<path d="M632.818 36.6165L635.745 39.5439" stroke="#EAEAE9" stroke-miterlimit="10"/>
<path d="M626.3 43.1348L636.521 32.914" stroke="#EAEAE9" stroke-miterlimit="10"/>
<path d="M630.564 5.56679L627.33 8.80029" stroke="#EAEAE9" stroke-miterlimit="10"/>
<path d="M632.818 7.83154L635.745 4.90405" stroke="#EAEAE9" stroke-miterlimit="10"/>
<path d="M626.3 1.31346L636.521 11.5342" stroke="#EAEAE9" stroke-miterlimit="10"/>
<path d="M632.002 28.6396L637.388 23.2539" stroke="#EAEAE9" stroke-miterlimit="10"/>
<path d="M630.564 17.5624L633.593 20.6021" stroke="#EAEAE9" stroke-miterlimit="10"/>
<path d="M637.051 33.689L644.732 26.0081" stroke="#EAEAE9" stroke-miterlimit="10"/>
<path d="M642.233 38.8711L649.761 31.3433" stroke="#EAEAE9" stroke-miterlimit="10"/>
<path d="M634.307 13.8083L641.855 21.3667" stroke="#EAEAE9" stroke-miterlimit="10"/>
<path d="M640.285 7.83131L647.863 15.4102" stroke="#EAEAE9" stroke-miterlimit="10"/>
<path d="M654.024 8.52526L646.813 1.31364L625.739 22.3773L646.813 43.4512L654.453 35.8009" stroke="#EAEAE9" stroke-miterlimit="10"/>
<path d="M676.271 8.1377L679.24 5.2204" stroke="#EAEAE9" stroke-miterlimit="10"/>
<path d="M676.557 36.3309L679.586 39.187" stroke="#EAEAE9" stroke-miterlimit="10"/>
<path d="M655.605 15.145L652.892 12.3195" stroke="#EAEAE9" stroke-miterlimit="10"/>
<path d="M661.226 35.2291L658.564 37.7588" stroke="#EAEAE9" stroke-miterlimit="10"/>
<path d="M656.452 29.8843L661.828 24.5087" stroke="#EAEAE9" stroke-miterlimit="10"/>
<path d="M660.043 34.0464L665.857 28.2322" stroke="#EAEAE9" stroke-miterlimit="10"/>
<path d="M662.613 36.6167L665.377 33.8422" stroke="#EAEAE9" stroke-miterlimit="10"/>
<path d="M667.132 16.124L660.757 9.91203" stroke="#EAEAE9" stroke-miterlimit="10"/>
<path d="M665.143 20.8979L657.054 13.0131" stroke="#EAEAE9" stroke-miterlimit="10"/>
<path d="M657.901 21.041L653.31 16.4611" stroke="#EAEAE9" stroke-miterlimit="10"/>
<path d="M683.218 14.268L677.832 19.6436" stroke="#EAEAE9" stroke-miterlimit="10"/>
<path d="M678.852 10.4222L672.936 16.3384" stroke="#EAEAE9" stroke-miterlimit="10"/>
<path d="M673.711 6.66865L669.213 11.167" stroke="#EAEAE9" stroke-miterlimit="10"/>
<path d="M685.513 27.9463L679.586 22.0199" stroke="#EAEAE9" stroke-miterlimit="10"/>
<path d="M678.128 34.7295L668.111 24.7434" stroke="#EAEAE9" stroke-miterlimit="10"/>
<path d="M673.711 39.187L668.56 34.0358" stroke="#EAEAE9" stroke-miterlimit="10"/>
<path d="M681.229 30.9556L673.65 23.3767" stroke="#EAEAE9" stroke-miterlimit="10"/>
<path d="M669.433 43.4512L690.501 22.3828L669.433 1.31445L648.364 22.3828L669.433 43.4512Z" stroke="#EAEAE9" stroke-miterlimit="10"/>
<path d="M707.495 5.87294L710.728 9.10645" stroke="#EAEAE9" stroke-miterlimit="10"/>
<path d="M705.24 8.1377L702.313 5.2204" stroke="#EAEAE9" stroke-miterlimit="10"/>
<path d="M711.758 1.61912L701.537 11.8398" stroke="#EAEAE9" stroke-miterlimit="10"/>
<path d="M707.495 39.187L710.728 35.9535" stroke="#EAEAE9" stroke-miterlimit="10"/>
<path d="M705.24 36.9226L702.313 39.8501" stroke="#EAEAE9" stroke-miterlimit="10"/>
<path d="M711.758 43.4512L701.537 33.2202" stroke="#EAEAE9" stroke-miterlimit="10"/>
<path d="M706.056 16.1244L700.671 21.5" stroke="#EAEAE9" stroke-miterlimit="10"/>
<path d="M707.495 27.1914L704.465 24.1619" stroke="#EAEAE9" stroke-miterlimit="10"/>
<path d="M701.007 11.0643L693.326 18.7451" stroke="#EAEAE9" stroke-miterlimit="10"/>
<path d="M695.825 5.88281L688.308 13.4106" stroke="#EAEAE9" stroke-miterlimit="10"/>
<path d="M703.751 30.9453L696.203 23.3869" stroke="#EAEAE9" stroke-miterlimit="10"/>
<path d="M697.774 36.9229L690.195 29.344" stroke="#EAEAE9" stroke-miterlimit="10"/>
<path d="M684.034 36.2293L691.245 43.4512L712.319 22.3773L691.246 1.31363L683.605 8.95368" stroke="#EAEAE9" stroke-miterlimit="10"/>
<path d="M991.828 38.8813L988.595 35.6478" stroke="#EAEAE9" stroke-miterlimit="10"/>
<path d="M994.093 36.6165L997.01 39.5439" stroke="#EAEAE9" stroke-miterlimit="10"/>
<path d="M987.565 43.1445L997.796 32.9136" stroke="#EAEAE9" stroke-miterlimit="10"/>
<path d="M991.828 5.56679L988.595 8.80029" stroke="#EAEAE9" stroke-miterlimit="10"/>
<path d="M994.093 7.83154L997.01 4.91425" stroke="#EAEAE9" stroke-miterlimit="10"/>
<path d="M987.565 1.31346L997.796 11.5342" stroke="#EAEAE9" stroke-miterlimit="10"/>
<path d="M993.267 28.6396L998.652 23.2539" stroke="#EAEAE9" stroke-miterlimit="10"/>
<path d="M991.829 17.5624L994.868 20.6021" stroke="#EAEAE9" stroke-miterlimit="10"/>
<path d="M998.326 33.689L1006 26.0081" stroke="#EAEAE9" stroke-miterlimit="10"/>
<path d="M1003.51 38.8711L1011.03 31.3535" stroke="#EAEAE9" stroke-miterlimit="10"/>
<path d="M995.582 13.8083L1003.13 21.3667" stroke="#EAEAE9" stroke-miterlimit="10"/>
<path d="M1001.56 7.83131L1009.14 15.4102" stroke="#EAEAE9" stroke-miterlimit="10"/>
<path d="M1015.3 8.52473L1008.08 1.3131L987.014 22.3768L1008.08 43.4404L1015.72 35.8004" stroke="#EAEAE9" stroke-miterlimit="10"/>
<path d="M1037.55 8.1377L1040.51 5.2102" stroke="#EAEAE9" stroke-miterlimit="10"/>
<path d="M1037.83 36.3309L1040.85 39.187" stroke="#EAEAE9" stroke-miterlimit="10"/>
<path d="M1016.87 15.145L1014.17 12.3195" stroke="#EAEAE9" stroke-miterlimit="10"/>
<path d="M1022.49 35.2291L1019.84 37.7588" stroke="#EAEAE9" stroke-miterlimit="10"/>
<path d="M1017.73 29.8843L1023.1 24.5087" stroke="#EAEAE9" stroke-miterlimit="10"/>
<path d="M1021.31 34.0464L1027.12 28.2322" stroke="#EAEAE9" stroke-miterlimit="10"/>
<path d="M1023.88 36.6167L1026.65 33.8422" stroke="#EAEAE9" stroke-miterlimit="10"/>
<path d="M1028.4 16.124L1022.03 9.91203" stroke="#EAEAE9" stroke-miterlimit="10"/>
<path d="M1026.41 20.8979L1018.33 13.0131" stroke="#EAEAE9" stroke-miterlimit="10"/>
<path d="M1019.17 21.041L1014.59 16.4611" stroke="#EAEAE9" stroke-miterlimit="10"/>
<path d="M1044.48 14.268L1039.11 19.6436" stroke="#EAEAE9" stroke-miterlimit="10"/>
<path d="M1040.13 10.4222L1034.21 16.3384" stroke="#EAEAE9" stroke-miterlimit="10"/>
<path d="M1034.98 6.66865L1030.48 11.167" stroke="#EAEAE9" stroke-miterlimit="10"/>
<path d="M1046.79 27.9463L1040.85 22.0199" stroke="#EAEAE9" stroke-miterlimit="10"/>
<path d="M1039.39 34.7295L1029.38 24.7434" stroke="#EAEAE9" stroke-miterlimit="10"/>
<path d="M1034.98 39.187L1029.82 34.0358" stroke="#EAEAE9" stroke-miterlimit="10"/>
<path d="M1042.5 30.9556L1034.92 23.3767" stroke="#EAEAE9" stroke-miterlimit="10"/>
<path d="M1030.73 43.4555L1051.8 22.3872L1030.73 1.31884L1009.67 22.3872L1030.73 43.4555Z" stroke="#EAEAE9" stroke-miterlimit="10"/>
<path d="M1068.77 5.87294L1072 9.10645" stroke="#EAEAE9" stroke-miterlimit="10"/>
<path d="M1066.51 8.1377L1063.59 5.2102" stroke="#EAEAE9" stroke-miterlimit="10"/>
<path d="M1168.72 38.8813L1165.49 35.6478" stroke="#EAEAE9" stroke-miterlimit="10"/>
<path d="M1170.98 36.6169L1173.9 39.5444" stroke="#EAEAE9" stroke-miterlimit="10"/>
<path d="M1164.46 43.1348L1174.68 32.914" stroke="#EAEAE9" stroke-miterlimit="10"/>
<path d="M1168.72 5.56679L1165.49 8.80029" stroke="#EAEAE9" stroke-miterlimit="10"/>
<path d="M1170.98 7.83154L1173.9 4.90405" stroke="#EAEAE9" stroke-miterlimit="10"/>
<path d="M1164.46 1.31394L1174.68 11.5347" stroke="#EAEAE9" stroke-miterlimit="10"/>
<path d="M1170.16 28.6401L1175.55 23.2544" stroke="#EAEAE9" stroke-miterlimit="10"/>
<path d="M1168.72 17.5624L1171.75 20.6021" stroke="#EAEAE9" stroke-miterlimit="10"/>
<path d="M1175.21 33.689L1182.89 26.0081" stroke="#EAEAE9" stroke-miterlimit="10"/>
<path d="M1180.39 38.8711L1187.92 31.3535" stroke="#EAEAE9" stroke-miterlimit="10"/>
<path d="M1172.47 13.8083L1180.01 21.3667" stroke="#EAEAE9" stroke-miterlimit="10"/>
<path d="M1178.44 7.83131L1186.02 15.4102" stroke="#EAEAE9" stroke-miterlimit="10"/>
<path d="M1192.18 8.52526L1184.97 1.31364L1163.9 22.3773L1184.97 43.4512L1192.61 35.8009" stroke="#EAEAE9" stroke-miterlimit="10"/>
<path d="M1214.43 8.1377L1217.4 5.2204" stroke="#EAEAE9" stroke-miterlimit="10"/>
<path d="M1214.72 36.3309L1217.75 39.187" stroke="#EAEAE9" stroke-miterlimit="10"/>
<path d="M1193.76 15.145L1191.05 12.3195" stroke="#EAEAE9" stroke-miterlimit="10"/>
<path d="M1199.38 35.2291L1196.72 37.7588" stroke="#EAEAE9" stroke-miterlimit="10"/>
<path d="M1194.61 29.8843L1199.99 24.5087" stroke="#EAEAE9" stroke-miterlimit="10"/>
<path d="M1198.2 34.0464L1204.02 28.2322" stroke="#EAEAE9" stroke-miterlimit="10"/>
<path d="M1200.77 36.6167L1203.54 33.8422" stroke="#EAEAE9" stroke-miterlimit="10"/>
<path d="M1205.29 16.124L1198.92 9.91203" stroke="#EAEAE9" stroke-miterlimit="10"/>
<path d="M1203.3 20.8979L1195.21 13.0131" stroke="#EAEAE9" stroke-miterlimit="10"/>
<path d="M1196.06 21.041L1191.47 16.4611" stroke="#EAEAE9" stroke-miterlimit="10"/>
<path d="M1221.38 14.2685L1215.99 19.644" stroke="#EAEAE9" stroke-miterlimit="10"/>
<path d="M1217.01 10.4227L1211.09 16.3389" stroke="#EAEAE9" stroke-miterlimit="10"/>
<path d="M1211.87 6.66865L1207.37 11.167" stroke="#EAEAE9" stroke-miterlimit="10"/>
<path d="M1223.67 27.9463L1217.75 22.0199" stroke="#EAEAE9" stroke-miterlimit="10"/>
<path d="M1216.29 34.7295L1206.27 24.7434" stroke="#EAEAE9" stroke-miterlimit="10"/>
<path d="M1211.87 39.187L1206.72 34.0358" stroke="#EAEAE9" stroke-miterlimit="10"/>
<path d="M1219.39 30.9556L1211.81 23.3767" stroke="#EAEAE9" stroke-miterlimit="10"/>
<path d="M1207.6 43.4487L1228.67 22.3804L1207.6 1.31201L1186.54 22.3804L1207.6 43.4487Z" stroke="#EAEAE9" stroke-miterlimit="10"/>
<path d="M1245.65 5.87294L1248.89 9.10645" stroke="#EAEAE9" stroke-miterlimit="10"/>
<path d="M1243.4 8.1377L1240.47 5.2204" stroke="#EAEAE9" stroke-miterlimit="10"/>
<path d="M1249.92 1.61912L1239.7 11.8398" stroke="#EAEAE9" stroke-miterlimit="10"/>
<path d="M1245.65 39.187L1248.89 35.9535" stroke="#EAEAE9" stroke-miterlimit="10"/>
<path d="M1243.4 36.9226L1240.47 39.8501" stroke="#EAEAE9" stroke-miterlimit="10"/>
<path d="M1249.92 43.4512L1239.7 33.2202" stroke="#EAEAE9" stroke-miterlimit="10"/>
<path d="M1244.21 16.1244L1238.83 21.5" stroke="#EAEAE9" stroke-miterlimit="10"/>
<path d="M1245.65 27.1914L1242.62 24.1619" stroke="#EAEAE9" stroke-miterlimit="10"/>
<path d="M1239.17 11.0648L1231.49 18.7456" stroke="#EAEAE9" stroke-miterlimit="10"/>
<path d="M1233.98 5.88281L1226.47 13.4106" stroke="#EAEAE9" stroke-miterlimit="10"/>
<path d="M1241.91 30.9453L1234.36 23.3869" stroke="#EAEAE9" stroke-miterlimit="10"/>
<path d="M1235.93 36.9229L1228.35 29.344" stroke="#EAEAE9" stroke-miterlimit="10"/>
<path d="M1222.19 36.2284L1229.4 43.4502L1250.48 22.3763L1229.4 1.31266L1221.76 8.9527" stroke="#EAEAE9" stroke-miterlimit="10"/>
<path d="M1078.4 38.8813L1075.17 35.6478" stroke="#EAEAE9" stroke-miterlimit="10"/>
<path d="M1080.66 36.6165L1083.59 39.5439" stroke="#EAEAE9" stroke-miterlimit="10"/>
<path d="M1074.15 43.1348L1084.37 32.914" stroke="#EAEAE9" stroke-miterlimit="10"/>
<path d="M1078.4 5.56679L1075.17 8.80029" stroke="#EAEAE9" stroke-miterlimit="10"/>
<path d="M1080.66 7.83154L1083.59 4.90405" stroke="#EAEAE9" stroke-miterlimit="10"/>
<path d="M1074.15 1.31346L1084.37 11.5342" stroke="#EAEAE9" stroke-miterlimit="10"/>
<path d="M1079.85 28.6396L1085.22 23.2539" stroke="#EAEAE9" stroke-miterlimit="10"/>
<path d="M1078.4 17.5624L1081.44 20.6021" stroke="#EAEAE9" stroke-miterlimit="10"/>
<path d="M1084.9 33.689L1092.57 26.0081" stroke="#EAEAE9" stroke-miterlimit="10"/>
<path d="M1090.08 38.8711L1097.6 31.3535" stroke="#EAEAE9" stroke-miterlimit="10"/>
<path d="M1082.15 13.8083L1089.7 21.3667" stroke="#EAEAE9" stroke-miterlimit="10"/>
<path d="M1088.13 7.83131L1095.71 15.4102" stroke="#EAEAE9" stroke-miterlimit="10"/>
<path d="M1101.87 8.52526L1094.65 1.31364L1073.58 22.3773L1094.65 43.4512L1102.3 35.8009" stroke="#EAEAE9" stroke-miterlimit="10"/>
<path d="M1124.12 8.1377L1127.08 5.2204" stroke="#EAEAE9" stroke-miterlimit="10"/>
<path d="M1124.4 36.3309L1127.42 39.187" stroke="#EAEAE9" stroke-miterlimit="10"/>
<path d="M1103.45 15.145L1100.74 12.3195" stroke="#EAEAE9" stroke-miterlimit="10"/>
<path d="M1109.07 35.2291L1106.41 37.7588" stroke="#EAEAE9" stroke-miterlimit="10"/>
<path d="M1104.3 29.8843L1109.67 24.5087" stroke="#EAEAE9" stroke-miterlimit="10"/>
<path d="M1107.88 34.0464L1113.69 28.2322" stroke="#EAEAE9" stroke-miterlimit="10"/>
<path d="M1110.45 36.6167L1113.22 33.8422" stroke="#EAEAE9" stroke-miterlimit="10"/>
<path d="M1114.97 16.124L1108.6 9.91203" stroke="#EAEAE9" stroke-miterlimit="10"/>
<path d="M1112.99 20.8979L1104.9 13.0131" stroke="#EAEAE9" stroke-miterlimit="10"/>
<path d="M1105.74 21.041L1101.16 16.4611" stroke="#EAEAE9" stroke-miterlimit="10"/>
<path d="M1131.06 14.2685L1125.68 19.644" stroke="#EAEAE9" stroke-miterlimit="10"/>
<path d="M1126.7 10.4227L1120.78 16.3389" stroke="#EAEAE9" stroke-miterlimit="10"/>
<path d="M1121.55 6.66865L1117.05 11.167" stroke="#EAEAE9" stroke-miterlimit="10"/>
<path d="M1133.36 27.9463L1127.42 22.0199" stroke="#EAEAE9" stroke-miterlimit="10"/>
<path d="M1125.97 34.7295L1115.95 24.7434" stroke="#EAEAE9" stroke-miterlimit="10"/>
<path d="M1121.55 39.187L1116.39 34.0358" stroke="#EAEAE9" stroke-miterlimit="10"/>
<path d="M1129.07 30.9556L1121.49 23.3767" stroke="#EAEAE9" stroke-miterlimit="10"/>
<path d="M1117.27 43.4531L1138.33 22.3848L1117.27 1.3164L1096.2 22.3847L1117.27 43.4531Z" stroke="#EAEAE9" stroke-miterlimit="10"/>
<path d="M1155.34 5.87294L1158.57 9.10645" stroke="#EAEAE9" stroke-miterlimit="10"/>
<path d="M1153.08 8.1377L1150.16 5.2204" stroke="#EAEAE9" stroke-miterlimit="10"/>
<path d="M1159.6 1.61912L1149.37 11.8398" stroke="#EAEAE9" stroke-miterlimit="10"/>
<path d="M1155.34 39.187L1158.57 35.9535" stroke="#EAEAE9" stroke-miterlimit="10"/>
<path d="M1153.08 36.9226L1150.16 39.8501" stroke="#EAEAE9" stroke-miterlimit="10"/>
<path d="M1159.6 43.4512L1149.37 33.2202" stroke="#EAEAE9" stroke-miterlimit="10"/>
<path d="M1153.9 16.1244L1148.52 21.5" stroke="#EAEAE9" stroke-miterlimit="10"/>
<path d="M1155.34 27.1914L1152.3 24.1619" stroke="#EAEAE9" stroke-miterlimit="10"/>
<path d="M1148.85 11.0643L1141.17 18.7451" stroke="#EAEAE9" stroke-miterlimit="10"/>
<path d="M1143.67 5.88281L1136.14 13.4106" stroke="#EAEAE9" stroke-miterlimit="10"/>
<path d="M1151.6 30.9453L1144.04 23.3869" stroke="#EAEAE9" stroke-miterlimit="10"/>
<path d="M1145.61 36.9229L1138.03 29.344" stroke="#EAEAE9" stroke-miterlimit="10"/>
<path d="M1131.87 36.2293L1139.09 43.4512L1160.15 22.3773L1139.09 1.31363L1131.45 8.95368" stroke="#EAEAE9" stroke-miterlimit="10"/>
</svg>
