<svg width="162" height="165" viewBox="0 0 162 165" fill="none" xmlns="http://www.w3.org/2000/svg">
<path d="M1.138 22.8564C1.90772 23.7924 2.42337 24.4751 2.331 25.833C2.331 26.5158 2.12322 27.3673 2.08474 28.2726C2.03086 28.3109 2.21562 28.4337 2.30798 28.5257L2.63891 28.8249C2.74509 28.9074 2.84304 28.9999 2.9314 29.1011V29.1702L2.72356 29.5537C2.57569 29.8395 2.45958 30.1405 2.37723 30.4513C2.06479 31.4428 1.93441 32.4823 1.99238 33.52C2.01946 33.9906 2.0734 34.4593 2.15398 34.9239C2.22326 35.3688 2.3079 35.737 2.41566 36.2587C2.26942 36.4658 2.3695 36.6116 2.33871 36.7957V38.33C2.33871 39.0128 2.29257 39.4885 2.28487 39.8644C2.27316 40.0124 2.27316 40.1612 2.28487 40.3093C2.17711 40.4397 2.05391 40.5625 1.95385 40.6929C2.11549 40.831 2.2233 40.9921 2.39264 40.9154C2.38895 40.9485 2.38895 40.982 2.39264 41.0151C2.39264 41.0765 2.39262 41.1532 2.46959 41.1992C2.56691 41.2522 2.67458 41.2836 2.7852 41.2913C3.15477 41.3093 3.52149 41.2186 3.8397 41.0304C4.1091 41.1685 3.7935 41.2606 3.91666 41.3833C4.55712 41.3336 5.20048 41.3336 5.84094 41.3833C6.13575 41.5642 6.48146 41.645 6.82619 41.6135L6.88003 41.4831C7.33904 41.5459 7.79397 41.6356 8.24244 41.7516C8.92522 41.9123 9.59232 42.1331 10.236 42.4113C10.7197 42.6358 11.1641 42.9362 11.5521 43.3012C12.4912 42.2426 13.6612 43.1094 14.7388 42.7412C16.0165 42.5187 17.5406 41.8973 18.5412 42.35C19.2326 42.5905 19.966 42.688 20.6965 42.6366C21.4271 42.5852 22.1394 42.3858 22.79 42.0508H22.9208L23.1826 42.9177C23.5136 42.465 23.1132 42.396 23.0132 41.9741C23.782 41.559 24.5249 41.0979 25.2377 40.5932H26.9003L26.2537 39.9564C26.4627 39.8295 26.6785 39.7143 26.9003 39.6112C26.6386 37.9541 26.3999 36.0286 24.1523 35.5222C23.8073 35.4583 23.4563 35.4326 23.1055 35.4455C22.5846 35.1758 22.0502 34.9326 21.5046 34.7167C21.4122 34.7858 21.2967 34.8395 21.189 34.9085L19.842 33.566C19.8177 33.4341 19.8177 33.2989 19.842 33.1671L19.6495 33.3358L17.6868 31.3796C16.7022 29.8536 15.5508 28.441 14.2538 27.1679C13.9998 26.9224 13.5766 27.0605 13.2687 26.9761L13.0146 26.7229L12.8376 26.1169C12.5297 25.81 11.9986 25.4494 11.9063 25.1886C11.3626 24.0736 10.5732 23.0955 9.59714 22.3271C8.63294 21.4988 7.71309 20.6204 6.84151 19.6957C6.31906 19.1225 5.76674 18.577 5.1867 18.0617L4.30151 17.2178L3.80889 16.7345L3.55491 16.466C3.50873 16.466 3.46252 16.3509 3.42403 16.3433L3.31626 16.42C2.22327 16.9186 1.09175 19.0974 0.58374 20.7544C0.613842 21.0979 0.667916 21.4388 0.745444 21.7747C0.745444 22.5879 0.837783 22.5956 1.00712 22.8411" fill="#E9E9E9"/>
<path d="M158.059 26.5377V26.4993C158.298 26.1848 158.529 25.8626 158.767 25.5557L159.014 25.2489C159.175 25.0417 159.329 24.85 159.46 24.6658C159.761 24.3009 159.969 23.8695 160.068 23.4077C160.315 21.8734 159.629 20.3391 158.967 19.0732C158.737 18.7127 158.306 19.173 158.075 18.8201L157.975 18.3828C157.928 18.2831 157.882 18.3828 157.836 18.3291L157.674 18.4825V18.4365L156.966 19.15C156.127 19.15 153.695 21.8273 152.271 22.6175C151.255 23.1469 150.216 24.2516 148.8 24.873C147.476 25.2028 145.605 27.1744 144.066 28.7088L143.789 29.5603C143.342 30.1894 142.103 30.9412 142.049 31.2097C141.392 32.3236 140.618 33.3651 139.74 34.3167C138.97 35.245 138.201 36.0965 137.67 36.8253C136.538 38.2829 135.222 39.6791 134.044 40.991L133.929 41.1061C133.929 41.1521 133.829 41.1981 133.929 41.1905H134.298H135.068C135.568 41.1905 136.084 41.1905 136.607 41.1905H136.815L136.677 41.3746C137.055 41.3431 137.429 41.2711 137.793 41.1598H138.355C138.841 41.2891 139.358 41.2373 139.809 41.014C140.04 41.1291 139.709 41.1981 139.809 41.3055C140.435 41.2636 141.062 41.2636 141.687 41.3055C141.78 41.4129 141.995 41.4896 142.55 41.5127L142.65 41.4053C143.057 41.4644 143.461 41.549 143.858 41.6584C144.943 41.9345 145.941 42.478 146.76 43.2388C148.153 42.2798 149.277 43.1544 150.608 42.8092C152.148 42.602 153.587 41.973 154.596 42.4256C155.285 42.664 156.015 42.7604 156.743 42.7089C157.471 42.6575 158.18 42.4593 158.829 42.1264H158.96L159.121 41.9883L160.969 41.037L160.684 40.6381L160.738 40.5921L160.491 40.3773C160.006 39.7063 159.394 39.1357 158.69 38.6972L158.475 38.5514C158.238 38.0521 158.147 37.4964 158.213 36.9481C158.213 36.8253 158.213 36.6796 158.275 36.5338L159.137 35.4828C158.944 35.3831 158.721 35.291 158.513 35.1989C158.914 33.5589 158.657 31.8277 157.797 30.3735C157.515 29.977 157.339 29.5146 157.288 29.0308C157.237 28.5471 157.312 28.0583 157.505 27.6117C157.651 27.3432 157.844 27.0287 158.129 26.5914L157.736 27.1131L157.828 26.952C157.921 26.8215 158.013 26.7065 158.105 26.5684" fill="#E9E9E9"/>
<path d="M0.637346 62.2957L0.698889 62.5105C0.752535 62.7027 0.775972 62.902 0.768231 63.1013C0.815579 63.1129 0.861859 63.1283 0.906727 63.1473L0.991384 63.1856C0.929807 64.4975 0.822085 66.9677 0.837479 66.5228L0.914432 66.5995L1.06834 66.7453L3.43141 69.1081L5.61737 70.7422C7.52626 72.4913 10.0971 75.6903 10.8206 76.235C14.4229 79.4111 17.748 82.7022 20.9116 85.8552L25.7146 90.6576C27.6927 92.6139 29.6247 94.4934 31.4182 96.1582L38.7613 103.27L38.6766 91.187L38.6227 85.3335L38.5534 80.5081L38.438 76.0509L38.3148 73.5346C38.4216 73.4259 38.5348 73.3235 38.6535 73.2278C38.5537 72.3929 38.389 71.567 38.1609 70.7575C38.1198 70.2052 38.0813 69.6451 38.0454 69.0774C38.1938 67.5597 38.074 66.0277 37.6914 64.5512C37.8453 63.6613 37.9761 64.7353 38.1224 64.3978L38.0762 63.692C39.123 64.5895 40.3853 65.7633 41.6169 67.0368C42.3274 67.9751 43.1152 68.8527 43.9722 69.6605V69.4917C46.0273 71.6858 47.9747 73.9259 49.2294 75.5829L48.6982 79.4187C48.5058 80.7536 48.2903 81.9273 48.0671 82.8633C49.1293 86.6991 48.2518 91.4248 48.629 95.8129L49.0754 103.945C49.1369 105.295 49.1831 106.615 49.1831 107.85C49.1831 108.463 49.1831 109.062 49.1831 109.629L49.1293 110.504L49.06 111.524L48.9369 113.688C49.7066 114.516 50.4763 115.337 51.246 116.143C51.831 116.764 52.3852 117.347 52.9624 117.922C54.0862 119.048 55.2023 120.111 56.3107 121.114C57.8501 122.525 59.3895 123.807 60.929 125.003L61.2984 125.372C61.4908 125.494 61.6602 125.594 61.8373 125.717L62.784 126.446C65.0008 128.126 67.156 129.645 69.2419 131.141L69.7345 131.632V131.739C69.7345 131.739 69.773 131.693 69.7961 131.678L74.0295 135.897V134.708C74.2604 134.884 74.4991 135.053 74.73 135.237C74.9994 134.017 75.3611 132.736 74.0295 130.228V96.2963C74.0912 95.5786 74.2148 94.8677 74.3989 94.1712L74.0295 94.0331V87.4279L72.0667 85.4716C71.5048 84.7889 70.8814 84.0601 70.2349 83.3236C68.8725 81.7893 67.3484 80.1092 65.7474 78.4214L55.9335 68.2566C54.7482 67.0521 53.4782 66.7222 52.2928 65.5408L50.915 63.5462C49.7219 62.3418 47.8361 60.585 47.3435 59.9175C46.6969 58.9893 45.8888 57.9766 44.9651 56.9026C44.4802 56.3503 44.0338 55.8516 43.4257 55.2225L41.4706 53.1589L36.3444 53.0975H35.7131L32.3495 49.8984C32.3495 50.9725 32.3957 52.0311 32.4265 53.0822H31.6567C28.5779 53.0822 25.6684 53.0438 23.2361 52.8827C20.8038 52.7216 18.2022 52.6986 15.539 52.6525L11.4903 52.5528L6.47174 52.315L4.79382 52.1922C4.14726 52.4838 3.47762 52.8443 2.78488 53.2433L2.26143 53.5578L1.99205 53.7189L1.86116 53.7956C1.86116 53.7956 1.86116 53.8493 1.86116 53.88C1.98193 54.2015 2.04447 54.5417 2.04589 54.885C2.06699 55.3969 2.05161 55.9096 1.99975 56.4193C1.99975 56.5881 1.94589 56.7722 1.9228 56.9563H1.88428C1.88428 56.9563 1.59951 57.1711 1.43017 57.3322C1.16046 57.5939 0.927417 57.8906 0.737413 58.2144C0.404276 58.8048 0.212026 59.4637 0.175537 60.14C0.149567 60.7133 0.222393 61.2867 0.390985 61.8354L0.637346 62.2957Z" fill="#E9E9E9"/>
<path d="M102.448 72.3067C101.232 73.4958 100.908 74.7616 99.6999 75.9584L97.6987 77.3316C96.4825 78.5207 94.7122 80.4003 94.0425 80.9066C92.8746 81.7331 91.7542 82.6244 90.6866 83.5763C90.0862 84.0877 89.4704 84.6401 88.8393 85.2334L86.5301 87.4274L86.4763 96.7561C86.4763 99.6406 86.4224 102.387 86.2761 104.689C85.9529 109.675 86.1761 114.876 85.7066 120.661L85.6142 121.428L85.5449 122.548L85.4372 125.003C85.3833 126.721 85.3601 128.586 85.3447 130.511V142.479L88.9778 138.873L91.7719 135.544C93.0188 134.224 94.5814 132.79 96.0053 131.485C97.4293 130.181 98.707 129.023 99.0842 128.54L101.078 126.361L102.794 124.527C103.949 123.315 105.101 122.131 106.25 120.975L113.539 113.718V109.215C113.539 108.018 113.493 106.852 113.439 105.717C113.308 100.438 113.27 95.1988 113.224 90.0511L113.147 82.3795L113.085 78.6128L112.993 75.4981L114.917 73.3961L115.464 73.3117C115.965 72.6844 116.405 72.0114 116.78 71.3018C117.134 70.9028 117.503 70.4732 117.865 70.0513C119.041 69.1114 120.028 67.9583 120.775 66.6528C121.591 66.0544 120.967 66.8676 121.375 66.6528C122.337 65.5557 123.376 64.4357 124.454 63.3693C124.454 63.868 124.454 64.3973 124.454 64.9036C124.292 66.0958 124.225 67.2989 124.254 68.5016L124.385 68.3405C124.315 70.6036 124.169 72.8744 123.984 74.754L123.707 77.4083C123.607 78.3826 123.492 79.3032 123.384 80.1701C123.276 81.037 123.145 81.8425 123.015 82.579L122.822 83.6223L122.776 83.8601L122.722 84.19L122.622 84.8421C123.098 87.6439 123.278 90.4876 123.161 93.3269C123.161 96.3955 122.999 99.7941 123.161 102.41L123.238 104.19L130.396 96.4185C132.285 94.3316 134.292 92.3542 136.408 90.4961L138.717 88.4708C139.379 87.8801 140.01 87.2817 140.633 86.691C141.857 85.5019 143.004 84.3358 144.074 83.1774C145.775 81.3362 147.284 79.541 148.692 77.8073L149.069 77.416C149.192 77.2319 149.293 77.0631 149.408 76.8867C149.523 76.7102 149.654 76.5798 149.77 76.4187C151.378 74.3244 152.849 72.2837 154.249 70.2814L159.745 64.7962C159.684 64.6783 159.607 64.5697 159.514 64.474C158.583 63.5458 158.991 62.3413 159.376 61.275C159.584 60.8808 159.646 60.4258 159.55 59.9905C159.455 59.5552 159.207 59.1678 158.852 58.8968C158.198 58.5209 158.991 55.061 159.622 54.4319C159.622 54.4319 159.622 54.3859 159.622 54.3705H130.75L130.265 54.3168C130.265 52.6675 130.219 51.0257 130.196 49.4224C128.595 51.0718 127.017 52.7211 125.439 54.3705H121.467L119.751 56.089C118.981 56.7181 118.158 57.4162 117.334 58.1373C115.795 59.5028 114.14 61.0065 112.47 62.5868L102.448 72.3067Z" fill="#E9E9E9"/>
<path d="M123.353 16.5118C123.576 18.0078 124.2 19.7952 123.745 20.969C123.261 22.6135 123.37 24.3751 124.053 25.9479V26.1013C124.1 26.1703 124.146 26.224 124.192 26.2854L124.346 26.623L123.391 26.9682C123.838 27.2674 123.961 26.8685 124.384 26.7227C124.754 27.4899 125.154 28.1956 125.577 28.8938V30.8347L126.255 30.1596C126.37 30.382 126.47 30.6122 126.563 30.8347C128.225 30.5355 130.157 30.2516 130.665 27.6126C130.729 27.2119 130.755 26.806 130.742 26.4005C130.904 26.0246 131.065 25.6333 131.227 25.2114L133.698 22.7488C133.913 22.6392 134.149 22.5789 134.391 22.5724L134.16 22.2885L136.084 20.3706C136.654 20.0789 137.198 19.7374 137.708 19.3503C138.347 18.8747 138.986 18.33 139.617 17.816L141.557 16.0822C141.98 15.6909 141.618 15.1002 141.972 14.7627L142.927 14.4251C143.335 14.0492 143.781 13.4508 144.135 13.2974C145.639 12.5467 146.999 11.5393 148.153 10.3208C149.348 9.08403 150.618 7.92091 151.955 6.83792C152.933 6.07076 153.664 5.40333 154.465 4.66685C155.445 3.75642 156.472 2.89855 157.544 2.09686C158.013 1.76699 158.452 1.42944 158.86 1.10723L159.152 0.85407C159.26 0.769682 159.368 0.68529 159.345 0.669947C159.366 0.610324 159.382 0.548619 159.391 0.485825C159.391 0.27102 159.252 0.155949 159.083 0.0332031C158.144 0.294037 157.189 0.562545 156.189 0.754335C155.419 1.0612 154.572 1.3604 153.726 1.65959C152.186 2.05851 150.401 1.61356 149.669 1.85138C147.991 2.18126 146.768 2.34236 145.698 2.51881C144.628 2.69525 143.604 3.0328 143.042 3.0328C142.445 3.14138 141.858 3.3005 141.287 3.50844C140.648 3.66954 139.748 3.73858 138.863 3.85366H138.586H138.447C138.409 3.85366 138.378 3.94572 138.332 3.98408C138.147 4.28328 138.139 4.12217 138.062 4.13751C137.908 4.08858 137.759 4.02699 137.616 3.95339C137.253 3.75276 136.908 3.52179 136.584 3.26295C136.138 2.90415 135.667 2.57607 135.176 2.28099C134.927 2.167 134.669 2.0721 134.406 1.99713C134.208 1.94841 134.008 1.91 133.806 1.88206C133.447 1.84712 133.086 1.84712 132.728 1.88206C131.583 2.04127 130.488 2.45557 129.526 3.09417C129.117 3.3581 128.731 3.65579 128.371 3.98408L128.01 3.82297L127.879 4.03011C127.879 4.03011 127.833 4.13751 127.817 4.18354L127.733 4.34465C127.733 4.40602 127.671 4.34465 127.617 4.28327L127.471 4.17587C127.355 4.08381 127.317 4.07614 127.302 4.09915C127.178 3.99942 127.048 3.86133 126.986 3.90736L126.455 3.94572C126.445 3.98266 126.433 4.01863 126.416 4.05312C125.816 4.42136 125.554 4.75123 125.777 5.15016C125.262 4.91234 125.323 4.82028 125.008 4.63616C124.908 4.63182 124.81 4.61376 124.715 4.58247C124.669 4.58247 124.584 4.50575 124.569 4.58247V4.92769C124.569 5.27291 124.569 5.61045 124.569 5.94033C124.454 6.08609 124.361 6.37762 124.377 7.10642L124.507 7.18314C124.454 7.73549 124.384 8.28018 124.284 8.82486C124.2 9.25447 124.107 9.68408 124 10.106L123.822 10.7428C123.771 10.9099 123.709 11.0739 123.638 11.2337C123.415 11.7852 123.115 12.3019 122.745 12.7681C123.807 13.8651 122.937 15.246 123.307 16.5041" fill="#E9E9E9"/>
<path d="M85.6445 42.9934C85.8677 45.6555 86.4989 48.8238 86.0448 50.9105C85.5584 53.8498 85.6604 56.856 86.345 59.7559C86.345 59.8479 86.345 59.94 86.345 60.032L86.4759 60.3466C86.7299 61.3823 87.0301 62.3642 87.3379 63.3308L86.3373 63.9062C86.7144 64.098 86.9915 63.8065 87.3841 63.4843C87.5457 63.9906 87.7074 64.4892 87.8613 65.0186V68.4708L88.631 67.7036C88.6926 67.9645 88.7619 68.2253 88.8234 68.4708C90.3629 67.9568 92.2025 67.4812 92.8183 63.4919L102.247 54.0866C102.563 53.8664 102.911 53.6957 103.279 53.5802L103.063 53.2657L106.488 49.8595C106.796 49.6524 107.112 49.4299 107.427 49.1921C108.197 48.6244 108.967 47.9876 109.737 47.2972C110.506 46.6067 111.43 45.7629 112.3 44.9957L112.461 39.9708C112.461 39.1039 111.799 38.5286 111.815 37.6693L112.254 36.4496C112.204 35.5826 112.222 34.7131 112.307 33.8489C113.47 30.5961 112.769 24.3591 113.254 20.5387C113.577 17.9917 113.354 15.3297 113.824 12.3838C114.017 11.5429 114.12 10.684 114.132 9.82145C114.186 8.65537 114.193 7.37421 114.193 6.07004L113.108 4.18282L112.577 3.22387L112.508 3.1088C112.477 3.10133 112.446 3.10133 112.415 3.1088C112.346 3.11673 112.276 3.11673 112.207 3.1088C112.049 3.1241 111.889 3.1241 111.73 3.1088C111.519 3.10205 111.311 3.06057 111.114 2.98605C111.037 2.894 111.037 2.70987 110.899 2.69453L110.506 2.61014L109.675 2.41068C109.235 2.24889 108.822 2.02124 108.451 1.73558C108.095 1.40003 107.638 1.18989 107.15 1.1372C106.477 1.03654 105.789 1.12693 105.164 1.39803C104.44 1.75622 103.748 2.17453 103.094 2.6485C102.918 2.74293 102.753 2.85611 102.601 2.98605L102.54 3.04743C102.472 3.06967 102.399 3.06967 102.332 3.04743C101.812 2.93965 101.298 2.80392 100.793 2.64083L100.354 2.52575L100.169 2.46438L99.4609 2.15752C98.2832 1.57579 97.025 1.17243 95.7278 0.960753C94.3672 0.758065 92.9773 0.997471 91.7638 1.64353L91.6791 1.68955L91.4251 1.80462C91.4251 1.86599 91.1711 1.69722 91.1326 1.73558H90.8555C90.486 1.73558 90.0858 1.67421 89.6932 1.62051C88.8471 1.49329 88.0092 1.31653 87.184 1.09117C86.6605 1.85833 85.8062 1.19089 86.0756 2.78659L86.1217 6.05469L86.168 9.24608L86.2295 11.7777C86.2911 13.312 86.3681 14.8003 86.4913 16.2733L86.1526 16.5955C86.3296 17.2245 86.4528 17.8306 86.6606 17.9687C86.6606 18.2986 86.7222 18.6284 86.7607 18.943C86.5707 19.7267 86.6979 20.5534 87.1147 21.2445C86.9608 21.9579 86.83 21.4976 86.6837 21.9042C86.815 23.045 86.8741 24.1929 86.8607 25.3411C86.6771 25.9812 86.6094 26.6488 86.6606 27.3127H86.7991C86.5836 30.9413 85.8755 34.5163 85.0288 36.3575C86.091 38.3061 85.2135 40.7457 85.583 42.9858" fill="#E9E9E9"/>
<path d="M28.431 109.66H28.8004C28.8004 109.614 28.6465 109.469 28.5849 109.377L27.5151 108.157L25.3984 105.725C24.6286 104.873 23.8589 104.022 22.9506 103.232L23.1739 103.071C22.873 102.844 22.5342 102.673 22.1732 102.564L21.7191 102.196C21.6031 101.964 21.4314 101.764 21.2192 101.614C21.0071 101.464 20.761 101.369 20.5029 101.337C20.3874 101.015 20.68 101.16 20.6723 100.953C20.1425 100.554 19.648 100.11 19.1944 99.626C19.1944 99.4342 19.0636 99.1887 18.6403 98.7745L18.5094 98.8205C18.2306 98.4548 17.9735 98.0732 17.7397 97.6774C17.0201 96.5774 16.533 95.3427 16.308 94.0488C14.8378 94.0488 14.5684 92.5912 13.4908 92.0311C12.3747 91.264 10.7738 90.4968 10.335 89.4381C9.61523 88.0382 8.38362 86.9672 6.89442 86.4462L6.80206 86.3541H6.61734C6.41721 86.2851 6.21707 86.2161 6.01694 86.1624C6.01694 86.1624 6.09391 86.1624 6.11701 86.124C6.1401 86.0856 6.17084 86.0703 6.16314 86.055H6.26321L5.93228 86.147H5.87835C5.2164 85.9629 4.55449 85.8171 3.90793 85.6637L2.6533 84.4209C2.50705 84.6894 2.3839 84.9656 2.26844 85.2264L1.95283 85.119C0.975296 86.4846 -0.210014 88.0266 1.13698 90.0749C1.36313 90.3823 1.62113 90.6652 1.9067 90.9187C2.09913 91.4711 2.32997 92.0465 2.60707 92.6449C2.52512 92.9297 2.42493 93.209 2.30696 93.4811C2.17855 93.7614 2.0805 94.0546 2.01447 94.3556C1.88398 94.5489 1.72571 94.7221 1.54486 94.8696L1.9144 94.9463C1.84836 95.7753 1.9451 96.6092 2.19919 97.4013C2.15961 97.991 2.22476 98.5832 2.39162 99.1504C2.48399 99.5033 2.59937 99.8562 2.69943 100.201C2.79713 100.546 2.87173 100.898 2.92268 101.252L3.19976 102.365C3.15662 102.387 3.11549 102.413 3.07668 102.441V103.025C3.09219 103.249 3.09219 103.475 3.07668 103.7C3.07668 104.252 3.84634 104.068 3.60773 104.467C3.36912 104.866 3.06124 105.05 2.83802 105.326C2.6148 105.602 2.42234 106.208 2.22221 106.507C1.82863 107.049 1.60622 107.696 1.58338 108.364C1.58483 108.693 1.67235 109.015 1.83736 109.3C1.92972 109.43 2.04525 109.599 2.19919 109.645H2.67641C3.89564 109.66 5.11124 109.78 6.30943 110.006C7.60255 110.374 9.18812 110.251 10.8815 110.773C12.3285 111.433 15.0149 111.133 17.2163 111.049L17.9398 110.635C18.7095 110.489 20.195 110.773 20.4105 110.635C21.6896 110.299 22.9999 110.096 24.3207 110.029C25.5985 109.929 26.8146 109.852 27.7382 109.707L28.431 109.66Z" fill="#E9E9E9"/>
<path d="M160.644 87.4113C160.806 87.0718 160.915 86.7096 160.967 86.3373C160.987 85.9537 160.94 85.5697 160.829 85.2019C160.683 84.78 160.198 85.2019 160.059 84.78C160.052 84.4877 160.014 84.197 159.944 83.9131C159.642 84.2279 159.318 84.5202 158.974 84.7876C158.08 85.1368 157.264 85.6582 156.572 86.322C155.662 87.1641 154.687 87.9337 153.655 88.6234C152.47 89.2679 151.4 90.4877 149.914 91.2548C149.083 91.6283 148.335 92.1629 147.713 92.8275C146.943 93.541 146.174 94.4155 145.589 94.9755L145.365 95.7427C145.11 96.0498 144.803 96.3095 144.457 96.5099C144.127 96.7161 143.833 96.9753 143.587 97.277C142.642 98.5717 141.577 99.7762 140.408 100.875C139.369 101.833 138.395 102.858 137.491 103.944C135.567 106.245 133.158 108.547 131.541 110.426C132.311 110.372 133.081 110.296 133.912 110.204L133.358 110.549C134.001 110.424 134.634 110.252 135.251 110.035L136.067 109.912C136.337 110.066 136.983 109.989 138.099 109.544C138.23 109.697 137.737 109.835 137.73 109.981C138.493 109.857 139.265 109.793 140.039 109.789C140.039 109.912 140.27 109.997 140.94 109.974L141.124 109.843C141.565 109.882 142.003 109.953 142.433 110.058C143.585 110.32 144.66 110.845 145.573 111.592C146.34 111.16 147.219 110.965 148.098 111.032C148.892 111.139 149.697 111.139 150.492 111.032C151.862 110.794 153.47 110.158 154.548 110.595C156.044 111.07 157.668 110.947 159.074 110.25H159.228L159.351 110.15H159.39L160.252 109.728L160.159 109.881C160.159 109.881 160.159 109.881 160.105 109.943C160.105 109.943 160.105 109.943 160.105 109.989L160.159 109.92L160.367 109.705H160.305L160.398 109.575L160.89 108.915L160.613 109.145C160.744 108.744 160.744 108.311 160.613 107.91C160.459 107.465 160.195 107.066 159.844 106.751L159.774 106.69C159.58 106.231 159.337 105.794 159.051 105.386L159.236 103.614V103.545C158.912 103.399 158.551 103.261 158.189 103.123C158.341 102.373 158.536 101.633 158.774 100.906C159.005 99.7856 160.59 97.5072 160.367 95.0906C160.435 94.8279 160.525 94.5713 160.636 94.3235L160.275 94.5536C160.211 94.2395 160.113 93.9333 159.982 93.6407C159.765 93.1691 159.61 92.6714 159.52 92.1601C159.621 91.3929 159.705 90.6794 159.844 89.9506C160.016 89.1457 160.274 88.3614 160.613 87.6108" fill="#E9E9E9"/>
<path d="M75.7921 156.09C75.1752 155.777 74.5311 155.52 73.8678 155.323L56.1644 137.678C55.8778 137.308 55.6446 136.9 55.4716 136.466L55.1406 136.665L50.9072 132.446C50.2606 131.571 49.5141 130.635 48.6751 129.676C47.6283 128.464 46.4583 127.206 45.2652 125.933L41.4705 121.966H40.1005C39.5494 121.971 39.0039 122.078 38.4917 122.281C38.0416 122.485 37.5544 122.594 37.0601 122.603L35.5206 122.166C34.438 122.223 33.3526 122.205 32.2725 122.112C28.2238 120.961 20.4651 121.66 15.7082 121.169C14.9385 121.092 14.1149 121.046 13.299 121.015L12.0675 120.977C11.6365 120.977 11.2978 120.977 10.7205 120.977C8.61919 120.977 6.45632 120.977 3.91627 120.869C3.35438 120.823 2.76165 120.793 2.13819 120.77H1.17604C0.883554 120.77 0.406373 120.639 0.544921 121.077C0.622669 122.277 0.863423 123.462 1.2607 124.598L1.86881 126.577L2.03042 127.198L2.10746 127.521V127.605C2.10746 127.605 2.19209 127.605 2.26137 127.666L2.48461 127.743C2.43073 127.743 2.38455 127.743 2.48461 127.743C2.43843 127.828 2.38451 127.889 2.1536 128.203C1.92268 128.518 1.71489 128.848 1.51477 129.178C1.12679 129.832 0.794617 130.517 0.521807 131.226C0.372161 131.984 0.330673 132.758 0.398627 133.528C0.370292 134.121 0.427388 134.715 0.568035 135.292C0.762392 135.885 1.03961 136.448 1.39159 136.964C1.71487 137.455 2.11508 137.985 2.31521 138.307C2.38536 138.457 2.47328 138.599 2.57698 138.729C2.74655 138.905 2.86835 139.122 2.93101 139.358C2.93205 139.48 2.89727 139.6 2.83095 139.703L2.48461 140.332C2.36146 140.578 2.26136 140.808 2.1613 141.099C1.60699 142.838 1.53252 144.693 1.94576 146.47L2.09976 147.436C2.10637 147.559 2.10637 147.682 2.09976 147.804C2.10637 147.842 2.10637 147.881 2.09976 147.919C2.09578 147.937 2.09578 147.955 2.09976 147.973C2.06453 148.124 2.01286 148.271 1.94576 148.41C1.8226 148.71 1.65334 149.124 1.53788 149.515C1.41828 149.903 1.32308 150.297 1.253 150.697L1.08368 151.686C0.9405 152.488 0.888895 153.304 0.929778 154.118C0.951447 154.924 1.16511 155.713 1.5532 156.42C1.59891 156.505 1.6504 156.587 1.7072 156.665L1.78415 156.788C1.66869 156.849 2.06126 156.665 1.51477 156.926V156.987V157.056C1.56095 157.263 1.59945 157.486 1.63024 157.708C1.68353 158.144 1.70922 158.582 1.7072 159.02C1.7072 159.734 1.7072 160.179 1.7072 160.639L1.76103 161.283C1.76103 161.329 1.76108 161.406 1.80726 161.421L2.0151 161.475C2.15705 161.511 2.30092 161.54 2.44609 161.56C3.60066 161.736 5.04768 161.383 6.64099 161.214C7.03354 161.176 7.41073 161.13 7.81867 161.107C7.96932 161.086 8.12223 161.086 8.27287 161.107C8.39211 161.116 8.51046 161.134 8.62691 161.161L9.07331 161.253C9.25034 161.253 9.42744 161.322 9.61987 161.345C9.9859 161.409 10.3566 161.442 10.7282 161.444C11.4653 161.469 12.2007 161.36 12.8988 161.122C13.5378 160.885 14.1536 160.59 14.7384 160.24C15.3542 159.926 15.8776 159.527 16.1162 159.412L16.2778 159.335C16.3875 159.327 16.4973 159.351 16.5934 159.404C16.6842 159.437 16.7718 159.478 16.8551 159.527C16.8551 159.672 16.8552 159.818 16.9167 159.979C17.4888 160.333 18.1385 160.544 18.8102 160.593C19.0917 160.717 19.3795 160.828 19.6723 160.923L20.0725 161.038C20.4341 161.227 20.82 161.367 21.2194 161.452C21.6179 161.558 22.0362 161.566 22.4384 161.475C22.8406 161.384 23.2148 161.197 23.5285 160.93C24.1443 160.716 24.2059 160.7 24.2983 160.754C24.3906 160.808 24.3983 160.854 24.6677 160.754C25.1937 160.213 25.7654 159.717 26.3764 159.273C26.7535 159.005 27.1992 158.848 27.6619 158.821L27.9313 158.936C28.0871 159.003 28.2388 159.08 28.3854 159.166C28.7162 159.389 29.0607 159.592 29.4169 159.772L29.5169 159.657C29.7654 159.789 30.0225 159.905 30.2866 160.002C31.2239 160.328 32.2111 160.489 33.2038 160.478C34.1275 160.478 35.028 160.386 35.7131 160.386C35.8576 160.385 36.002 160.398 36.1442 160.424C36.4059 160.424 36.352 160.47 36.4598 160.509C36.5675 160.547 36.6445 160.662 36.9216 160.838C37.5669 161.26 38.2497 161.622 38.9613 161.92C39.5771 162.196 39.9927 162.434 40.5008 162.687C41.2705 162.534 42.0402 162.519 43.0716 162.365C43.6503 162.285 44.2149 162.124 44.7495 161.889C45.0385 161.763 45.3144 161.609 45.5731 161.429L45.7656 161.291L45.8348 161.245L45.7656 161.299L45.9888 161.153C46.3814 160.954 46.9741 160.977 48.1055 161.153C48.4211 161.23 48.7752 161.329 49.1523 161.452C49.5295 161.575 50.1914 161.836 50.6917 161.997C51.2237 162.175 51.7734 162.296 52.3312 162.357C52.8667 162.442 53.4146 162.327 53.8707 162.035C54.294 161.774 54.902 161.521 55.2561 161.268C55.598 161.073 55.9591 160.914 56.3337 160.792C56.5315 160.752 56.7324 160.729 56.9341 160.723L57.1111 160.915C57.3361 161.156 57.5954 161.363 57.8808 161.529C58.4048 161.8 58.9841 161.947 59.5742 161.958C60.0692 161.971 60.563 161.903 61.0367 161.759L61.8064 161.544C61.9911 161.498 62.1451 161.475 62.2374 161.46H62.3144H62.3528L62.5068 161.567C62.6464 161.674 62.7929 161.771 62.9455 161.859C65.9474 163.033 67.6408 161.744 68.6799 161.161C68.7362 161.153 68.7931 161.153 68.8493 161.161L69.1418 161.023C68.5876 161.398 68.6799 161.337 69.1418 161.023L69.3265 160.93H69.4342C70.2214 160.757 71.0225 160.654 71.828 160.624C72.1821 160.624 72.5362 160.624 72.898 160.624H73.0442C73.2443 160.624 73.4521 160.624 73.6523 160.67H73.8062L74.1064 160.47V160.393L74.0294 160.094C74.0294 160.033 74.0295 159.979 73.9833 159.91L74.2295 159.749H74.168H73.9525C73.956 159.708 73.956 159.667 73.9525 159.626V157.785L75.438 156.788H75.3918L75.2148 156.673L75.0301 156.55C78.7093 154.072 73.4907 157.586 75.7998 156.044" fill="#E9E9E9"/>
<path d="M161.892 163.179L161.607 162.151C161.423 161.453 161.246 160.74 161.084 159.919C161.015 159.512 160.945 159.075 160.907 158.645V158.331C160.907 158.269 160.961 158.254 160.845 158.154L160.245 157.725C160.304 157.631 160.368 157.542 160.437 157.456C160.817 156.979 161.105 156.435 161.284 155.853C161.597 154.752 161.619 153.589 161.346 152.477L161.161 151.649L160.984 150.989C160.859 150.493 160.707 150.004 160.53 149.524C160.437 149.294 160.322 149.01 160.245 148.849L160.037 148.434C159.899 148.171 159.826 147.88 159.822 147.583C159.831 147.304 159.878 147.028 159.96 146.762L160.245 145.849C160.683 144.492 160.749 143.044 160.437 141.653C160.258 140.921 159.953 140.226 159.537 139.597C159.486 139.528 159.44 139.456 159.398 139.382C159.398 139.382 159.398 139.382 159.352 139.321L159.275 139.144C159.183 138.983 159.214 138.469 159.621 137.717C159.96 137.127 160.307 136.589 160.576 136.045C160.661 135.922 160.745 135.792 160.822 135.661C160.881 135.461 160.917 135.255 160.93 135.048C160.955 134.962 160.976 134.875 160.992 134.787C161.037 133.769 160.768 132.763 160.222 131.902C159.75 131.124 159.164 130.42 158.482 129.815C158.382 129.716 158.267 129.631 158.151 129.532L158.036 129.371C157.028 128.043 157.266 127.345 157.736 126.486L159.198 126.793L158.937 126.517H159.198L158.236 125.512C158.786 124.633 159.116 123.636 159.198 122.604H155.434L155.28 122.451C155.231 122.492 155.168 122.513 155.103 122.512L155.196 122.604H154.541L154.588 122.543C154.495 122.435 154.541 122.458 154.48 122.604H154.087C154.119 122.539 154.158 122.477 154.203 122.42H154.403H154.495L154.318 122.374H154.257H154.218L153.664 122.198L153.502 122.136H153.456L153.179 122.643H137.154C136.69 122.579 136.238 122.455 135.807 122.274L135.714 122.643H129.695C129.341 122.589 128.987 122.535 128.602 122.489C126.408 122.228 124.053 122.106 121.105 122.029L116.102 126.747C115.332 127.514 115.332 128.473 114.563 129.217L113.185 129.984C112.465 130.783 111.694 131.534 110.876 132.232C107.189 134.265 102.209 140.218 98.5063 143.225C96.0355 145.228 93.888 147.713 90.9323 149.969C90.1199 150.533 89.3483 151.153 88.6231 151.825L88.0151 152.385L87.1685 153.214L85.3904 154.978V160.417V164.123L88.8003 162.719C89.0874 162.591 89.3901 162.5 89.7008 162.45C90.0311 162.254 90.3931 162.117 90.7707 162.044C91.0761 162.064 91.3744 162.145 91.6482 162.282C92.1528 162.558 92.6873 162.777 93.2414 162.934C94.1585 163.218 95.1325 163.268 96.074 163.08C96.9746 162.85 97.849 162.529 98.6833 162.121L99.7379 161.614C100.046 161.461 100.384 161.315 100.423 161.3C100.461 161.284 100.877 161.192 101.069 161.123L101.654 160.924C101.887 160.832 102.126 160.76 102.37 160.709C102.64 160.709 102.578 160.663 102.901 160.862L103.379 161.2C103.571 161.338 103.763 161.453 103.948 161.561C104.347 161.803 104.767 162.008 105.203 162.174C105.766 162.396 106.367 162.508 106.973 162.504C107.435 162.496 107.89 162.386 108.305 162.182C108.765 161.95 109.157 161.604 109.444 161.177C109.52 161.058 109.605 160.946 109.698 160.839C109.867 160.916 110.037 160.993 110.198 161.054C111.649 161.688 113.254 161.887 114.817 161.63C115.938 161.342 117.074 161.112 118.219 160.939C118.668 160.913 119.119 160.952 119.558 161.054C120.274 161.231 121.007 161.329 121.744 161.346C122.499 161.349 123.249 161.222 123.961 160.97C124.312 160.843 124.654 160.691 124.984 160.517L125.823 160.088C126.462 159.727 126.963 159.389 127.101 159.32C127.24 159.251 127.101 159.32 127.17 159.32C127.291 159.341 127.406 159.385 127.509 159.451C127.763 159.574 128.44 160.088 128.987 160.356C129.556 160.669 130.154 160.926 130.773 161.123L131.258 161.254C131.381 161.407 131.496 161.568 131.635 161.714C132.303 161.8 132.981 161.748 133.628 161.561C133.741 161.522 133.846 161.462 133.936 161.384C134.364 161.276 134.767 161.086 135.122 160.824L135.383 160.571C135.706 160.381 136.015 160.168 136.307 159.934C136.764 159.588 137.149 159.155 137.438 158.661C138.162 158.53 137.785 158.822 138.162 158.852C138.402 158.753 138.663 158.715 138.922 158.743C139.18 158.772 139.427 158.865 139.64 159.014C140.272 159.407 140.967 159.69 141.695 159.85C141.849 159.932 142.011 159.996 142.18 160.042C142.933 160.24 143.72 160.276 144.489 160.149V160.003L145.259 159.942C145.973 159.799 146.706 159.773 147.429 159.865C147.706 159.949 148.638 160.556 149.492 160.855C150.287 161.174 151.105 161.43 151.94 161.622C152.725 161.786 153.524 161.881 154.326 161.906H154.919C155.119 161.906 155.28 161.852 155.527 162.028C155.973 162.251 156.412 162.412 156.866 162.635C158.611 162.724 160.322 163.146 161.908 163.877C161.93 163.797 161.961 163.72 162 163.647C162 163.578 161.923 163.333 161.892 163.187" fill="#E9E9E9"/>
<path d="M154.857 122.564C154.925 122.576 154.994 122.576 155.062 122.564L154.994 122.496C154.941 122.496 154.91 122.557 154.857 122.564Z" fill="#E9E9E9"/>
<path d="M48.4974 19.5644C48.7206 22.1804 49.3441 25.3104 48.8899 27.3664C48.4019 30.2675 48.5066 33.2369 49.1978 36.0967V36.3652L49.3364 36.6797C49.7367 38.2984 50.2446 39.8021 50.7219 41.2827V44.6889L64.9538 58.8736C65.2087 59.2353 65.423 59.6238 65.5928 60.0321L65.7621 59.6792L69.1565 63.0623C70.8539 65.2731 72.6786 67.3838 74.6215 69.3837L74.7985 64.1057C74.7985 63.1314 74.1366 61.5664 74.152 60.7455C74.3108 60.4972 74.4572 60.2411 74.5907 59.9784C74.538 59.0502 74.5535 58.1195 74.6369 57.1936C75.2219 55.8357 75.3373 52.5906 75.4066 50.4349C75.3641 48.1746 75.4385 45.9136 75.6298 43.6609C75.9531 41.1446 75.7299 38.5209 76.1994 35.6057C76.7998 33.1431 76.4611 29.2076 76.5304 25.786L76.1455 24.4205C76.0301 23.1163 76.4919 21.0527 76.3611 20.5847C76.1045 18.2464 76.0016 15.8939 76.0532 13.5422V10.2587C76.0532 8.86249 76.0531 7.48927 75.93 6.25415L75.8222 3.04742V1.5131C75.8222 1.45173 75.8222 1.35966 75.8222 1.33665H75.7145C75.6378 1.32997 75.5626 1.31188 75.4913 1.28295C75.335 1.23449 75.1852 1.16753 75.0449 1.0835C73.9596 1.4594 72.8435 1.7816 71.7736 2.05778C71.2425 2.1882 70.7114 2.31094 70.2342 2.403C69.98 2.44987 69.7227 2.47807 69.4645 2.48739C69.2568 2.49926 69.0486 2.49926 68.8409 2.48739C68.7927 2.4969 68.743 2.4969 68.6947 2.48739C68.6409 2.48739 68.6408 2.48739 68.6331 2.48739C68.4661 2.38747 68.2879 2.30764 68.102 2.24957C67.6549 2.08903 67.1936 1.97088 66.7242 1.89668C65.6866 1.69749 64.6127 1.8179 63.6454 2.2419C63.338 2.39645 63.0553 2.59551 62.8064 2.83262L62.6524 2.99372C62.6213 3.02847 62.5834 3.05658 62.5411 3.07636C62.4987 3.09614 62.4529 3.10718 62.4061 3.1088C62.1793 3.12821 61.9509 3.11267 61.7288 3.06276L61.5364 3.01673L61.3748 2.61782C61.1746 2.61782 60.8821 2.55644 60.505 2.53343C60.246 2.52218 59.9868 2.548 59.7353 2.61014C59.6214 2.63755 59.5175 2.69599 59.4351 2.77891C59.335 2.77891 59.2503 2.77892 59.1503 2.81727C58.7196 2.91478 58.3201 3.11782 57.988 3.40799C57.8243 3.51156 57.6742 3.63528 57.5415 3.77622C57.4645 3.77622 57.403 3.82225 57.2721 3.84526C57.0075 3.87142 56.7482 3.93604 56.5024 4.03705C55.7327 3.6995 56.1868 3.66115 55.7327 3.39264C55.0599 3.34448 54.3928 3.23665 53.7392 3.07044C53.4082 2.99372 53.2465 2.72521 52.8771 2.71754C52.694 2.70735 52.5104 2.72024 52.3306 2.7559C51.5725 2.75421 50.8308 2.97573 50.1985 3.39264L50.2755 3.51539H50.2216C50.0985 3.51539 50.1523 3.65348 50.1215 3.7302V3.99869C50.0292 4.68914 49.9137 5.39493 49.7905 6.09305C49.5442 7.50462 49.2517 8.92386 48.9746 10.2357C48.9053 10.5502 48.8361 10.9031 48.7668 11.164L48.5513 11.8851C48.4212 12.2963 48.2644 12.6987 48.0818 13.0895C49.144 15.0151 48.2742 17.424 48.6437 19.6488" fill="#E9E9E9"/>
<path d="M10.7974 7.29873L10.6358 7.7667C10.8667 7.70533 11.0283 7.67464 11.1669 7.64395L11.3286 7.79739L10.8514 9.21663C10.9315 9.18951 10.9996 9.13522 11.0438 9.0632C11.0513 9.03297 11.0513 9.00138 11.0438 8.97115C11.0475 8.95086 11.0475 8.93006 11.0438 8.90977V8.75634C11.0422 8.73592 11.0422 8.7154 11.0438 8.69497C11.0608 8.63501 11.0814 8.57609 11.1053 8.51851C11.189 8.37651 11.3019 8.25366 11.4363 8.15795C11.4547 8.25112 11.4913 8.33977 11.5441 8.41879C11.6626 8.55171 11.794 8.6725 11.9366 8.77936C12.2301 9.01862 12.5387 9.23898 12.8603 9.43912C13.0111 9.53369 13.1679 9.61825 13.3298 9.69227C13.9456 10.2293 14.569 10.7433 15.2079 11.2266L15.1002 11.5872C15.4696 11.7176 15.8006 11.8633 16.0007 11.7713C16.1546 11.8787 16.3009 11.9861 16.4625 12.0781C16.5543 12.3023 16.7183 12.4896 16.9288 12.6104C17.1393 12.7313 17.3842 12.7789 17.6248 12.7456C17.7941 13.1368 17.5171 13.0448 17.5786 13.3056C18.1206 13.6699 18.6213 14.0917 19.0718 14.5637C19.1861 14.9156 19.4032 15.2255 19.6954 15.4536L19.7954 15.3769C20.9729 16.7462 21.7691 18.3995 22.1046 20.1717C23.644 20.1717 23.9749 21.775 25.1218 22.3964C26.3302 23.2863 28.0236 24.0919 28.5239 25.2349C29.337 26.7248 30.6505 27.8819 32.2339 28.503L32.3494 28.6104H32.5726C32.6721 28.6567 32.7751 28.6952 32.8805 28.7255L32.4341 29.7075C32.9959 29.5924 32.742 29.2011 32.9806 28.7639C33.7503 29.04 34.597 29.2548 35.3821 29.462L36.7445 30.8199V29.8686C36.9908 29.9453 37.2217 30.0297 37.4526 30.1217C38.407 28.7408 39.5771 27.1835 38.0838 24.9818C37.8565 24.6541 37.5988 24.3485 37.3141 24.0688C37.1602 23.6699 36.9831 23.248 36.7752 22.8184V19.1207C36.8296 19.0385 36.8915 18.9614 36.96 18.8905H36.7752V15.2695C36.8368 14.9703 36.8985 14.6635 36.937 14.3336C37.037 13.5664 37.0909 12.7302 37.1294 11.9017L37.2371 9.15526C37.2371 8.80237 36.9754 8.65661 36.7752 8.48783V7.52888C36.8214 7.41381 36.8676 7.29874 36.9061 7.18366C36.9061 6.83077 36.7983 6.4165 36.7752 6.04826V5.91784C36.7667 5.84906 36.7667 5.7795 36.7752 5.71072C36.836 5.41519 36.8695 5.11474 36.8753 4.81313V4.58299C36.827 4.54344 36.7724 4.51231 36.7137 4.49093L36.352 4.30682C35.844 4.05365 35.2358 3.7698 34.5816 3.53966C33.0139 3.28884 31.4142 3.3148 29.8555 3.61636C29.4305 3.69625 29.017 3.82765 28.624 4.00762L27.9698 4.25311C27.8081 4.32982 27.8235 4.31449 27.7465 4.30682C27.5387 4.30682 27.2231 4.16105 26.8613 3.65473C26.4251 2.93502 25.8302 2.32375 25.1218 1.86724L25.0679 1.82888L24.8524 1.6908L24.7754 1.64477L24.6138 1.5527C24.2932 1.3913 23.9548 1.26772 23.6055 1.18447C23.1424 1.07111 22.6655 1.02461 22.1892 1.04639C21.4528 1.09193 20.7243 1.22323 20.0186 1.43763C19.7482 1.66028 19.4912 1.89851 19.2489 2.1511C18.8225 2.36845 18.3767 2.54566 17.9173 2.68043C17.6479 2.74947 17.4401 2.79551 17.3939 2.90291C17.1722 3.22931 16.87 3.49347 16.5164 3.67007C15.6606 2.57165 14.699 1.55929 13.6454 0.647461L13.1528 2.14342L12.6062 1.68313L12.3908 2.32754C12.0429 2.26599 11.689 2.24539 11.3363 2.26617C10.8191 2.27689 10.304 2.33337 9.79685 2.43494L6.09448 3.14073L8.77307 5.51125C9.44272 6.10963 10.097 6.71569 10.7436 7.32175" fill="#E9E9E9"/>
<path d="M31.8176 30.2431V30.5227H31.8631C31.8524 30.4248 31.8524 30.326 31.8631 30.228C31.8631 30.228 31.8631 30.228 31.8631 30.228" fill="#E9E9E9"/>
</svg>
