<svg width="256" height="256" viewBox="0 0 256 256" fill="none" xmlns="http://www.w3.org/2000/svg">
<path d="M115.204 0H83.9426V66.4695L115.204 97.7595V0Z" fill="url(#paint0_linear_1114_13252)"/>
<path d="M59.2725 0H17.4751L59.2725 41.7974V0Z" fill="url(#paint1_linear_1114_13252)"/>
<path d="M0 17.3862V59.2998H41.9135L0 17.3862Z" fill="url(#paint2_linear_1114_13252)"/>
<path d="M59.2711 123.387H83.9432V186.519L115.204 217.809V132.618L66.4985 83.9121H0V102.576L59.2711 161.847V123.387Z" fill="url(#paint3_linear_1114_13252)"/>
<path d="M86.3823 223.85L86.3533 223.821L55.1213 255.053H86.3823H117.614L86.3823 223.821V223.85Z" fill="url(#paint4_linear_1114_13252)"/>
<path d="M0 137.439V179.382H41.9135L0 137.439Z" fill="url(#paint5_linear_1114_13252)"/>
<path d="M0 203.965V255.051H15.4128L66.4985 203.965H0Z" fill="url(#paint6_linear_1114_13252)"/>
<path d="M195.78 0V41.7974L237.577 0H195.78Z" fill="url(#paint7_linear_1114_13252)"/>
<path d="M171.138 0H139.848V97.7595L171.138 66.4695V0Z" fill="url(#paint8_linear_1114_13252)"/>
<path d="M213.137 59.2998H255.051V17.3862L213.137 59.2998Z" fill="url(#paint9_linear_1114_13252)"/>
<path d="M139.848 132.618V217.809L171.138 186.519V123.387H195.781V161.847L255.052 102.576V83.9121H188.554L139.848 132.618Z" fill="url(#paint10_linear_1114_13252)"/>
<path d="M168.7 223.85V223.821V223.85L168.671 223.821L137.439 255.053H168.7H199.932L168.7 223.821V223.85Z" fill="url(#paint11_linear_1114_13252)"/>
<path d="M255.051 179.382V137.439L213.137 179.382H255.051Z" fill="url(#paint12_linear_1114_13252)"/>
<path d="M239.668 255.051H255.052V203.965H188.553L239.668 255.051Z" fill="url(#paint13_linear_1114_13252)"/>
<defs>
<linearGradient id="paint0_linear_1114_13252" x1="-38.7792" y1="273.715" x2="127.22" y2="3.91853" gradientUnits="userSpaceOnUse">
<stop stop-color="#B1E373"/>
<stop offset="1" stop-color="#67B444"/>
</linearGradient>
<linearGradient id="paint1_linear_1114_13252" x1="-95.6682" y1="238.71" x2="70.3604" y2="-31.0578" gradientUnits="userSpaceOnUse">
<stop stop-color="#B1E373"/>
<stop offset="1" stop-color="#67B444"/>
</linearGradient>
<linearGradient id="paint2_linear_1114_13252" x1="-100.517" y1="235.72" x2="65.5117" y2="-34.0478" gradientUnits="userSpaceOnUse">
<stop stop-color="#B1E373"/>
<stop offset="1" stop-color="#67B444"/>
</linearGradient>
<linearGradient id="paint3_linear_1114_13252" x1="-23.7142" y1="282.972" x2="142.314" y2="13.2048" gradientUnits="userSpaceOnUse">
<stop stop-color="#B1E373"/>
<stop offset="1" stop-color="#67B444"/>
</linearGradient>
<linearGradient id="paint4_linear_1114_13252" x1="43.6851" y1="324.454" x2="209.685" y2="54.6864" gradientUnits="userSpaceOnUse">
<stop stop-color="#B1E373"/>
<stop offset="1" stop-color="#67B444"/>
</linearGradient>
<linearGradient id="paint5_linear_1114_13252" x1="-46.906" y1="268.694" x2="119.094" y2="-1.07305" gradientUnits="userSpaceOnUse">
<stop stop-color="#B1E373"/>
<stop offset="1" stop-color="#67B444"/>
</linearGradient>
<linearGradient id="paint6_linear_1114_13252" x1="-17.6768" y1="286.689" x2="148.352" y2="16.9219" gradientUnits="userSpaceOnUse">
<stop stop-color="#B1E373"/>
<stop offset="1" stop-color="#67B444"/>
</linearGradient>
<linearGradient id="paint7_linear_1114_13252" x1="312.435" y1="244.08" x2="197.928" y2="-22.7854" gradientUnits="userSpaceOnUse">
<stop stop-color="#1488CC"/>
<stop offset="1" stop-color="#0C4DC1"/>
</linearGradient>
<linearGradient id="paint8_linear_1114_13252" x1="250.611" y1="270.609" x2="136.133" y2="3.71533" gradientUnits="userSpaceOnUse">
<stop stop-color="#1488CC"/>
<stop offset="1" stop-color="#0C4DC1"/>
</linearGradient>
<linearGradient id="paint9_linear_1114_13252" x1="320.824" y1="240.48" x2="206.345" y2="-26.385" gradientUnits="userSpaceOnUse">
<stop stop-color="#1488CC"/>
<stop offset="1" stop-color="#0C4DC1"/>
</linearGradient>
<linearGradient id="paint10_linear_1114_13252" x1="249.102" y1="271.246" x2="134.623" y2="4.38089" gradientUnits="userSpaceOnUse">
<stop stop-color="#1488CC"/>
<stop offset="1" stop-color="#0C4DC1"/>
</linearGradient>
<linearGradient id="paint11_linear_1114_13252" x1="187.044" y1="297.866" x2="72.5658" y2="31.0012" gradientUnits="userSpaceOnUse">
<stop stop-color="#1488CC"/>
<stop offset="1" stop-color="#0C4DC1"/>
</linearGradient>
<linearGradient id="paint12_linear_1114_13252" x1="277.314" y1="259.145" x2="162.835" y2="-7.72003" gradientUnits="userSpaceOnUse">
<stop stop-color="#1488CC"/>
<stop offset="1" stop-color="#0C4DC1"/>
</linearGradient>
<linearGradient id="paint13_linear_1114_13252" x1="250.437" y1="270.667" x2="135.958" y2="3.80209" gradientUnits="userSpaceOnUse">
<stop stop-color="#1488CC"/>
<stop offset="1" stop-color="#0C4DC1"/>
</linearGradient>
</defs>
</svg>
