<svg width="1607" height="338" viewBox="0 0 1607 338" fill="none" xmlns="http://www.w3.org/2000/svg">
<g clip-path="url(#clip0_28_66)">
<path d="M1091.33 105.25H1091.12V232.916H1183.48V206.193H1120.93V182.436H1169.12L1179.57 149.782H1120.93V129.007H1187.37L1197.78 105.25H1119.83H1091.33Z" fill="#0C71B8"/>
<path d="M681.368 166.078L657.279 105.25H616.128L569.833 221.905L597.768 233.058L664.528 205.042L675.607 233.168L703.526 222.126L692.115 193.274L681.368 166.078ZM612.82 195.182L636.656 135.238L653.67 178.004L612.82 195.182Z" fill="#0C71B8"/>
<path d="M519.185 132.509L473.017 174.501L426.832 132.509V105.25H397.045V232.916H426.832V167.797L473.017 209.79L519.185 167.797V232.916H548.972V105.25H519.185V132.509Z" fill="#0C71B8"/>
<path d="M811.121 155.714H754.506V105.25H724.719V232.916H754.506V182.436H811.121V232.916H840.908V105.25H811.121V155.714Z" fill="#0C71B8"/>
<path d="M1566.13 164.185L1603.33 122.555L1583.13 106.954L1540.62 155.714H1517.12V105.25H1484.34V232.916H1517.12V182.436H1540.29L1571.99 232.916H1607L1566.13 164.185Z" fill="#0C71B8"/>
<path d="M1024.9 162.954L1066 116.813L1046.35 98.2616L999.403 149.782H983.892V105.25H951.114V149.782H932.311L885.921 98.8926L866.263 116.86L907.589 163.396L864.269 232.916H898.282L927.594 186.112L928.117 187.248L932.374 182.436H942.9H951.114V232.916H983.892V182.436H990.081H999.91L1004.17 187.184L1033.99 232.916H1068L1024.46 163.301L1024.9 162.954Z" fill="#0C71B8"/>
<path d="M1277.62 105.25H1219.21V232.916H1249V206.193H1277.62C1284.03 206.28 1290.4 205.088 1296.35 202.688C1302.3 200.288 1307.71 196.728 1312.26 192.217C1316.81 187.706 1320.41 182.335 1322.85 176.419C1325.28 170.502 1326.51 164.16 1326.46 157.764V155.193C1326.46 127.981 1304.93 105.25 1277.62 105.25ZM1296.61 161.203C1296.61 172.056 1288.13 182.452 1277.24 182.452H1248.94V129.007H1277.24C1288.13 129.007 1296.61 140.917 1296.61 151.77V161.203Z" fill="#0C71B8"/>
<path d="M1450.77 116.671C1440.72 110.187 1422.82 105.628 1407.23 105.628C1391.64 105.628 1373.75 110.156 1363.7 116.671C1351.04 124.874 1345.59 152.685 1345.82 169.816C1346.04 186.948 1351.18 210.579 1361.93 220.107L1362.5 221.037C1373.72 226.984 1392.98 234.209 1407.21 234.209C1421.44 234.209 1440.73 229.65 1451.94 220.122L1452.54 219.649C1463.1 210.184 1468.64 187.39 1468.64 169.706C1468.65 153.789 1463.81 125.252 1450.77 116.671ZM1430.43 200.625C1425.48 204.884 1418.32 206.761 1407.23 206.761C1396.13 206.761 1388.99 204.884 1384.04 200.625C1380.07 197.233 1377.14 184.408 1376.92 169.438C1376.7 154.467 1380.08 139.718 1382.24 138.219C1388.3 134.465 1396.95 132.493 1407.23 132.493C1417.5 132.493 1426.22 134.465 1432.22 138.219C1434.32 139.529 1437.55 153.616 1437.55 169.627C1437.55 184.077 1434.56 197.107 1430.43 200.625Z" fill="#0C71B8"/>
<path d="M1.8202 47.0091C3.40293 48.9336 4.46325 50.3376 4.27332 53.1297C4.27332 54.5337 3.84607 56.2847 3.76693 58.1461C3.65614 58.225 4.03606 58.4774 4.22599 58.6667L4.90646 59.2819C5.12479 59.4515 5.32621 59.6417 5.50791 59.8498V59.9918L5.08053 60.7805C4.77646 61.3681 4.53772 61.987 4.36838 62.6262C3.72591 64.665 3.45783 66.8025 3.57701 68.9361C3.63271 69.9039 3.74362 70.8677 3.90933 71.8229C4.05177 72.7379 4.22582 73.4951 4.4474 74.5678C4.14668 74.9937 4.35248 75.2934 4.28917 75.672V78.827C4.28917 80.2309 4.19429 81.209 4.17846 81.9819C4.15437 82.2864 4.15437 82.5924 4.17846 82.8969C3.95688 83.1651 3.70355 83.4175 3.4978 83.6856C3.83017 83.9696 4.05186 84.3009 4.40007 84.1431C4.39249 84.2113 4.39249 84.28 4.40007 84.3482C4.40007 84.4744 4.40003 84.6321 4.5583 84.7268C4.7584 84.8357 4.97982 84.9003 5.20728 84.9161C5.9672 84.9532 6.72128 84.7667 7.37562 84.3797C7.92958 84.6637 7.28062 84.853 7.53385 85.1054C8.85081 85.0032 10.1737 85.0032 11.4907 85.1054C12.0969 85.4773 12.8078 85.6433 13.5166 85.5786L13.6274 85.3104C14.5712 85.4397 15.5067 85.624 16.4288 85.8626C17.8328 86.1931 19.2045 86.6471 20.5281 87.2192C21.5228 87.6807 22.4365 88.2986 23.2345 89.0491C25.1654 86.8722 27.5712 88.6547 29.787 87.8975C32.4144 87.44 35.5483 86.1623 37.6059 87.093C39.0276 87.5876 40.5356 87.7882 42.0378 87.6824C43.5399 87.5766 45.0047 87.1667 46.3426 86.4778H46.6115L47.1498 88.2604C47.8304 87.3296 47.0072 87.1876 46.8014 86.32C48.3824 85.4666 49.9099 84.5184 51.3756 83.4806H54.7943L53.4649 82.1713C53.8945 81.9103 54.3383 81.6733 54.7943 81.4614C54.2562 78.054 53.7655 74.0945 49.1439 73.0534C48.4344 72.922 47.7125 72.869 46.9914 72.8956C45.9201 72.341 44.8214 71.8409 43.6993 71.397C43.5094 71.539 43.272 71.6494 43.0504 71.7914L40.2806 69.0308C40.2306 68.7596 40.2306 68.4817 40.2806 68.2105L39.8849 68.5575L35.849 64.535C33.8244 61.397 31.4568 58.4925 28.7899 55.8746C28.2676 55.3698 27.3972 55.6537 26.7641 55.4802L26.2417 54.9596L25.8777 53.7134C25.2446 53.0824 24.1526 52.341 23.9627 51.8047C22.8447 49.512 21.2215 47.5006 19.2145 45.9206C17.2318 44.2173 15.3403 42.4113 13.5481 40.5098C12.4738 39.331 11.3381 38.2095 10.1454 37.1498L8.32522 35.4146L7.31225 34.4208L6.79001 33.8686C6.69505 33.8686 6.60002 33.632 6.52088 33.6162L6.29927 33.774C4.05179 34.7993 1.72509 39.2794 0.680481 42.6868C0.742379 43.393 0.85357 44.094 1.01299 44.7848C1.01299 46.457 1.20286 46.4727 1.55106 46.9775" fill="#0FA74E"/>
<path d="M324.493 54.581V54.5021C324.983 53.8554 325.458 53.1928 325.949 52.5618L326.455 51.9308C326.788 51.5049 327.104 51.1105 327.373 50.7319C327.992 49.9816 328.42 49.0944 328.624 48.1449C329.13 44.9899 327.721 41.8349 326.36 39.2321C325.885 38.4907 324.999 39.4372 324.524 38.7115L324.319 37.8123C324.224 37.6073 324.129 37.8123 324.034 37.7019L323.701 38.0174V37.9228L322.245 39.3898C320.52 39.3898 315.519 44.8952 312.591 46.5201C310.501 47.6085 308.365 49.8801 305.452 51.1579C302.73 51.8362 298.884 55.8903 295.719 59.0453L295.149 60.7963C294.231 62.0898 291.683 63.6358 291.572 64.1879C290.219 66.4784 288.628 68.6199 286.824 70.5767C285.241 72.4855 283.658 74.2365 282.566 75.7351C280.239 78.7323 277.533 81.6033 275.111 84.3008L274.874 84.5375C274.874 84.6321 274.668 84.7268 274.874 84.711H275.634H277.216C278.245 84.711 279.306 84.711 280.382 84.711H280.809L280.524 85.0896C281.303 85.025 282.072 84.8769 282.819 84.6479H283.975C284.975 84.9139 286.039 84.8073 286.966 84.3482C287.441 84.5848 286.76 84.7268 286.966 84.9476C288.252 84.8613 289.542 84.8613 290.828 84.9476C291.018 85.1685 291.461 85.3262 292.601 85.3735L292.806 85.1527C293.645 85.2744 294.475 85.4482 295.291 85.6733C297.522 86.241 299.574 87.3585 301.258 88.9229C304.123 86.951 306.434 88.7494 309.172 88.0395C312.337 87.6136 315.297 86.32 317.37 87.2508C318.788 87.7409 320.29 87.9391 321.786 87.8334C323.283 87.7276 324.742 87.3201 326.076 86.6355H326.344L326.677 86.3516L330.475 84.3955L329.89 83.5752L330.001 83.4806L329.494 83.0388C328.496 81.6592 327.238 80.4859 325.791 79.5842L325.347 79.2844C324.861 78.2577 324.674 77.1151 324.809 75.9875C324.809 75.7351 324.809 75.4354 324.936 75.1356L326.709 72.9745C326.313 72.7694 325.854 72.5801 325.427 72.3908C326.251 69.0185 325.723 65.4588 323.955 62.4684C323.373 61.6531 323.012 60.7022 322.907 59.7075C322.802 58.7128 322.955 57.7078 323.353 56.7895C323.654 56.2374 324.05 55.5906 324.635 54.6914L323.828 55.7641L324.018 55.4328C324.208 55.1647 324.398 54.928 324.588 54.6441" fill="#0591C2"/>
<path d="M0.791322 128.108L0.917871 128.549C1.02818 128.944 1.07637 129.354 1.06046 129.764C1.15782 129.788 1.25298 129.82 1.34524 129.859L1.51932 129.938C1.3927 132.635 1.17119 137.715 1.20285 136.8L1.36108 136.957L1.67755 137.257L6.53666 142.116L11.0316 145.476C14.9568 149.072 20.2431 155.651 21.7309 156.771C29.1381 163.301 35.9755 170.069 42.4805 176.552L52.3568 186.427C56.4244 190.45 60.3972 194.315 64.0849 197.738L79.1843 212.361L79.0102 187.516L78.8993 175.48L78.7569 165.557L78.5195 156.392L78.2662 151.218C78.4859 150.994 78.7186 150.784 78.9627 150.587C78.7575 148.87 78.4188 147.172 77.9497 145.507C77.8653 144.372 77.7861 143.22 77.7123 142.053C78.0174 138.932 77.7711 135.782 76.9843 132.745C77.3008 130.916 77.5698 133.124 77.8705 132.43L77.7757 130.979C79.9282 132.824 82.5238 135.238 85.0562 137.856C86.5172 139.786 88.1371 141.591 89.8993 143.252V142.904C94.1252 147.416 98.1296 152.022 100.709 155.43L99.6173 163.317C99.2216 166.062 98.7785 168.476 98.3195 170.4C100.504 178.287 98.6994 188.005 99.4749 197.028L100.393 213.749C100.519 216.526 100.614 219.239 100.614 221.779C100.614 223.041 100.614 224.271 100.614 225.439L100.504 227.237L100.361 229.335L100.108 233.783C101.691 235.487 103.274 237.175 104.856 238.831C106.059 240.109 107.199 241.308 108.386 242.491C110.697 244.805 112.991 246.992 115.271 249.053C118.436 251.956 121.602 254.59 124.767 257.051L125.527 257.809C125.922 258.061 126.271 258.266 126.635 258.518L128.581 260.017C133.14 263.472 137.571 266.595 141.861 269.671L142.874 270.681V270.902C142.874 270.902 142.953 270.807 143 270.775L151.705 279.452V277.007C152.18 277.369 152.671 277.716 153.146 278.095C153.7 275.587 154.443 272.952 151.705 267.794V198.022C151.832 196.546 152.086 195.084 152.465 193.652L151.705 193.368V179.786L147.669 175.764C146.514 174.36 145.232 172.861 143.902 171.347C141.101 168.192 137.967 164.737 134.675 161.266L114.495 140.365C112.058 137.888 109.446 137.21 107.009 134.78L104.176 130.679C101.722 128.202 97.8446 124.59 96.8317 123.217C95.5022 121.309 93.8404 119.226 91.9411 117.018C90.9439 115.882 90.026 114.857 88.7756 113.563L84.7554 109.32L74.2145 109.194H72.9165L66 102.615C66 104.824 66.0949 107.001 66.1582 109.162H64.5755C58.2445 109.162 52.2619 109.083 47.2604 108.752C42.259 108.421 36.9093 108.373 31.4331 108.279L23.1079 108.074L12.7884 107.585L9.33814 107.332C8.00864 107.932 6.63168 108.673 5.20722 109.493L4.13087 110.14L3.57695 110.471L3.30782 110.629C3.30782 110.629 3.30782 110.74 3.30782 110.803C3.55615 111.464 3.68475 112.163 3.68766 112.869C3.73106 113.922 3.69943 114.976 3.5928 116.024C3.5928 116.371 3.48204 116.75 3.43456 117.128H3.35535C3.35535 117.128 2.76979 117.57 2.42159 117.901C1.86698 118.439 1.38779 119.05 0.997085 119.715C0.312067 120.929 -0.0832499 122.284 -0.158281 123.675C-0.211682 124.854 -0.0619322 126.033 0.284738 127.161L0.791322 128.108Z" fill="#0FA74E"/>
<path d="M210.14 148.694C207.639 151.139 206.974 153.742 204.49 156.203L200.374 159.026C197.874 161.471 194.233 165.336 192.856 166.377C190.455 168.077 188.151 169.91 185.956 171.867C184.721 172.919 183.455 174.055 182.157 175.274L177.409 179.786L177.298 198.968C177.298 204.9 177.187 210.547 176.887 215.279C176.222 225.533 176.681 236.229 175.715 248.123L175.526 249.7L175.383 252.003L175.162 257.051C175.051 260.585 175.003 264.418 174.971 268.378V292.986L182.442 285.572L188.187 278.726C190.751 276.013 193.964 273.063 196.892 270.381C199.821 267.699 202.448 265.317 203.223 264.324L207.323 259.843L210.852 256.073C213.226 253.581 215.595 251.146 217.959 248.77L232.947 233.847V224.587C232.947 222.126 232.852 219.728 232.741 217.393C232.472 206.54 232.393 195.766 232.298 185.181L232.14 169.406L232.013 161.661L231.823 155.256L235.78 150.934L236.904 150.76C237.934 149.47 238.84 148.087 239.611 146.627C240.339 145.807 241.098 144.924 241.842 144.056C244.261 142.123 246.291 139.752 247.825 137.068C249.503 135.837 248.221 137.509 249.059 137.068C251.038 134.812 253.175 132.509 255.39 130.316C255.39 131.341 255.39 132.43 255.39 133.471C255.057 135.923 254.92 138.396 254.979 140.869L255.248 140.538C255.106 145.192 254.805 149.861 254.425 153.726L253.855 159.184C253.649 161.188 253.412 163.08 253.19 164.863C252.969 166.646 252.7 168.302 252.431 169.816L252.035 171.962L251.94 172.451L251.829 173.129L251.623 174.47C252.602 180.231 252.973 186.079 252.731 191.917C252.731 198.227 252.399 205.215 252.731 210.594L252.89 214.254L267.609 198.274C271.493 193.983 275.62 189.917 279.97 186.096L284.719 181.931C286.08 180.717 287.378 179.486 288.66 178.272C291.176 175.827 293.534 173.429 295.734 171.047C299.232 167.261 302.334 163.57 305.231 160.004L306.006 159.2C306.259 158.821 306.465 158.474 306.703 158.111C306.94 157.749 307.209 157.48 307.447 157.149C310.755 152.843 313.777 148.647 316.658 144.529L327.959 133.25C327.833 133.008 327.674 132.785 327.484 132.588C325.569 130.679 326.408 128.202 327.199 126.01C327.628 125.199 327.755 124.263 327.558 123.368C327.361 122.473 326.853 121.677 326.123 121.119C324.777 120.346 326.408 113.232 327.706 111.938C327.706 111.938 327.706 111.844 327.706 111.812H268.337L267.34 111.702C267.34 108.31 267.245 104.934 267.198 101.637C263.905 105.029 260.661 108.421 257.416 111.812H249.249L245.72 115.346C244.137 116.639 242.444 118.075 240.75 119.558C237.585 122.366 234.182 125.457 230.747 128.707L210.14 148.694Z" fill="#0591C2"/>
<path d="M253.127 33.9633C253.586 37.0394 254.868 40.7149 253.934 43.1285C252.939 46.51 253.163 50.1323 254.567 53.3664V53.6819C254.662 53.8238 254.757 53.9343 254.852 54.0605L255.169 54.7546L253.206 55.4644C254.124 56.0796 254.377 55.2594 255.248 54.9596C256.008 56.5371 256.831 57.9884 257.701 59.4239V63.415L259.094 62.0268C259.331 62.4842 259.537 62.9575 259.727 63.415C263.146 62.7997 267.118 62.216 268.163 56.7895C268.295 55.9656 268.348 55.131 268.321 54.2971C268.654 53.5241 268.986 52.7196 269.319 51.852L274.399 46.7882C274.841 46.5628 275.328 46.4389 275.824 46.4254L275.349 45.8418L279.306 41.8981C280.479 41.2982 281.596 40.5961 282.645 39.8C283.959 38.822 285.272 37.7019 286.57 36.645L290.559 33.0799C291.429 32.2754 290.685 31.0607 291.413 30.3666L293.376 29.6725C294.215 28.8996 295.133 27.6691 295.861 27.3536C298.952 25.8101 301.749 23.7385 304.123 21.233C306.581 18.6898 309.192 16.2981 311.942 14.0712C313.952 12.4937 315.455 11.1213 317.101 9.60692C319.116 7.73483 321.229 5.9708 323.432 4.32233C324.398 3.64401 325.3 2.94993 326.139 2.28738L326.74 1.76681C326.962 1.59329 327.183 1.41975 327.136 1.3882C327.18 1.2656 327.212 1.13872 327.231 1.0096C327.231 0.567903 326.946 0.331286 326.598 0.0788879C324.667 0.615233 322.704 1.16736 320.647 1.56173C319.064 2.19272 317.323 2.80795 315.582 3.42317C312.416 4.24347 308.744 3.32853 307.241 3.81755C303.79 4.49586 301.274 4.82713 299.074 5.18995C296.874 5.55277 294.769 6.24686 293.614 6.24686C292.385 6.47013 291.178 6.79732 290.005 7.2249C288.691 7.55617 286.839 7.69814 285.019 7.93476H284.449H284.165C284.085 7.93476 284.022 8.12408 283.927 8.20295C283.547 8.81817 283.532 8.4869 283.373 8.51845C283.057 8.41783 282.75 8.29119 282.455 8.13984C281.709 7.72729 281 7.25235 280.334 6.72011C279.416 5.98232 278.448 5.3077 277.438 4.70093C276.926 4.46655 276.397 4.27142 275.855 4.11725C275.448 4.01706 275.036 3.93809 274.621 3.88063C273.884 3.80879 273.142 3.80879 272.405 3.88063C270.05 4.20802 267.8 5.05992 265.821 6.37306C264.979 6.91578 264.185 7.52789 263.446 8.20295L262.703 7.87167L262.433 8.2976C262.433 8.2976 262.339 8.51844 262.307 8.61309L262.133 8.94437C262.133 9.07057 262.006 8.94437 261.895 8.81817L261.595 8.59733C261.357 8.40803 261.278 8.39224 261.246 8.43957C260.993 8.23449 260.724 7.95055 260.598 8.0452L259.505 8.12407C259.486 8.20003 259.46 8.27398 259.426 8.34492C258.192 9.10212 257.654 9.78042 258.113 10.6007C257.052 10.1117 257.179 9.9224 256.53 9.5438C256.325 9.53488 256.123 9.49773 255.928 9.43339C255.833 9.43339 255.659 9.27564 255.628 9.43339V10.1433C255.628 10.8531 255.628 11.5472 255.628 12.2255C255.39 12.5252 255.2 13.1247 255.232 14.6233L255.501 14.7811C255.39 15.9169 255.248 17.0369 255.042 18.1569C254.868 19.0403 254.678 19.9237 254.457 20.7913L254.093 22.1006C253.986 22.4443 253.859 22.7814 253.713 23.1102C253.255 24.2441 252.637 25.3067 251.877 26.2652C254.061 28.521 252.272 31.3604 253.032 33.9475" fill="#35B4E7"/>
<path d="M175.589 88.4181C176.048 93.892 177.346 100.407 176.412 104.698C175.412 110.742 175.621 116.923 177.029 122.886C177.029 123.075 177.029 123.265 177.029 123.454L177.298 124.101C177.82 126.23 178.438 128.25 179.071 130.237L177.013 131.42C177.789 131.815 178.359 131.215 179.166 130.553C179.498 131.594 179.83 132.619 180.147 133.708V140.806L181.73 139.229C181.856 139.765 181.999 140.302 182.125 140.806C185.291 139.749 189.074 138.771 190.34 130.569L209.728 111.229C210.378 110.776 211.093 110.425 211.849 110.187L211.406 109.541L218.449 102.537C219.082 102.111 219.731 101.653 220.38 101.164C221.963 99.9968 223.546 98.6875 225.128 97.2678C226.711 95.848 228.61 94.1128 230.399 92.5353L230.731 82.2028C230.731 80.4202 229.37 79.2371 229.402 77.4703L230.304 74.9621C230.202 73.1794 230.239 71.3915 230.415 69.6145C232.805 62.9259 231.364 50.1009 232.361 42.2451C233.026 37.0078 232.567 31.534 233.533 25.4764C233.931 23.7475 234.143 21.9813 234.166 20.2076C234.277 17.8098 234.293 15.1754 234.293 12.4937L232.061 8.61308L230.969 6.64123L230.826 6.40461C230.764 6.38924 230.699 6.38924 230.636 6.40461C230.494 6.42091 230.351 6.42091 230.209 6.40461C229.883 6.43607 229.554 6.43607 229.228 6.40461C228.795 6.39072 228.367 6.30543 227.962 6.15221C227.803 5.96291 227.803 5.58431 227.518 5.55276L226.711 5.37923L225.002 4.96909C224.097 4.6364 223.248 4.16829 222.485 3.5809C221.752 2.89092 220.813 2.45882 219.81 2.35046C218.426 2.14348 217.01 2.32936 215.727 2.8868C214.238 3.62334 212.814 4.48349 211.469 5.45811C211.108 5.65229 210.768 5.88502 210.456 6.15221L210.33 6.27841C210.191 6.32414 210.041 6.32414 209.903 6.27841C208.833 6.05678 207.776 5.77768 206.737 5.44235L205.835 5.20571L205.455 5.07951L203.999 4.44852C201.577 3.25233 198.99 2.42291 196.323 1.98765C193.525 1.57087 190.667 2.06315 188.172 3.39161L187.998 3.48625L187.475 3.72287C187.475 3.84907 186.953 3.50203 186.874 3.5809H186.304C185.544 3.5809 184.721 3.45471 183.914 3.34429C182.174 3.08268 180.451 2.71923 178.754 2.25582C177.678 3.8333 175.921 2.46088 176.475 5.74205L176.57 12.4622L176.665 19.0245L176.792 24.2302C176.918 27.3852 177.077 30.4455 177.33 33.4743L176.633 34.1368C176.997 35.4303 177.251 36.6766 177.678 36.9605C177.678 37.6388 177.805 38.3172 177.884 38.9639C177.493 40.5755 177.755 42.2755 178.612 43.6964C178.295 45.1634 178.026 44.2169 177.726 45.053C177.995 47.3988 178.117 49.7592 178.09 52.1201C177.712 53.4365 177.573 54.8093 177.678 56.1743H177.963C177.52 63.6358 176.064 70.9869 174.323 74.7728C176.507 78.7797 174.702 83.7961 175.462 88.4023" fill="#35B4E7"/>
<path d="M57.944 225.502H58.7037C58.7037 225.407 58.3871 225.107 58.2604 224.918L56.0606 222.41L51.7081 217.409C50.1253 215.658 48.5425 213.907 46.6749 212.282L47.1339 211.951C46.5153 211.485 45.8186 211.133 45.0763 210.91L44.1425 210.153C43.9041 209.676 43.551 209.265 43.1147 208.956C42.6784 208.648 42.1723 208.452 41.6417 208.386C41.4043 207.723 42.0059 208.023 41.99 207.597C40.9006 206.776 39.8839 205.863 38.9511 204.868C38.9511 204.474 38.6821 203.969 37.8116 203.117L37.5425 203.212C36.9691 202.46 36.4407 201.675 35.9597 200.861C34.4801 198.599 33.4784 196.06 33.0159 193.4C29.9928 193.4 29.4388 190.403 27.223 189.251C24.928 187.673 21.636 186.096 20.7338 183.919C19.2537 181.04 16.7212 178.838 13.659 177.767L13.4691 177.578H13.0893C12.6778 177.436 12.2662 177.294 11.8547 177.183C11.8547 177.183 12.013 177.183 12.0604 177.104C12.1079 177.025 12.1711 176.994 12.1553 176.962H12.3611L11.6806 177.152H11.5697C10.2086 176.773 8.8475 176.473 7.518 176.158L4.93813 173.602C4.63741 174.154 4.38417 174.722 4.14676 175.259L3.49779 175.038C1.48771 177.846 -0.949602 181.017 1.82019 185.228C2.28521 185.861 2.81571 186.442 3.40292 186.964C3.79861 188.099 4.27329 189.283 4.84308 190.513C4.67456 191.099 4.46854 191.673 4.22598 192.232C3.96193 192.809 3.7603 193.412 3.62453 194.031C3.3562 194.428 3.03076 194.784 2.65889 195.088L3.41877 195.245C3.28297 196.95 3.48188 198.665 4.00437 200.293C3.92299 201.506 4.05694 202.724 4.40006 203.89C4.58998 204.616 4.82724 205.341 5.033 206.051C5.23389 206.761 5.38729 207.483 5.49205 208.212L6.06181 210.5C5.9731 210.545 5.88853 210.598 5.80871 210.657V211.856C5.84062 212.319 5.84062 212.782 5.80871 213.245C5.80871 214.38 7.39136 214.002 6.90071 214.822C6.41006 215.642 5.77697 216.021 5.31797 216.589C4.85898 217.157 4.46322 218.403 4.05171 219.018C3.24239 220.132 2.78505 221.461 2.73811 222.836C2.74107 223.512 2.92105 224.175 3.26034 224.76C3.45027 225.028 3.68782 225.375 4.00437 225.47H4.98566C7.49272 225.5 9.99231 225.748 12.4561 226.211C15.1151 226.969 18.3755 226.716 21.8575 227.789C24.833 229.146 30.357 228.53 34.8836 228.357L36.3713 227.505C37.954 227.205 41.0086 227.789 41.4518 227.505C44.0818 226.815 46.7763 226.398 49.4922 226.259C52.1195 226.054 54.6202 225.896 56.5195 225.596L57.944 225.502Z" fill="#088743"/>
<path d="M329.811 179.755C330.144 179.056 330.368 178.312 330.475 177.546C330.515 176.757 330.418 175.968 330.191 175.211C329.89 174.344 328.893 175.211 328.608 174.344C328.594 173.743 328.514 173.145 328.37 172.561C327.751 173.209 327.084 173.81 326.376 174.359C324.538 175.077 322.86 176.15 321.438 177.514C319.566 179.246 317.56 180.829 315.439 182.247C313.002 183.572 310.802 186.08 307.747 187.658C306.038 188.426 304.499 189.525 303.221 190.892C301.638 192.359 300.055 194.157 298.852 195.309L298.393 196.886C297.869 197.517 297.237 198.051 296.526 198.463C295.846 198.888 295.242 199.421 294.737 200.041C292.792 202.703 290.604 205.18 288.2 207.439C286.064 209.409 284.06 211.517 282.202 213.749C278.245 218.482 273.291 223.214 269.967 227.079C271.55 226.969 273.133 226.811 274.842 226.622L273.703 227.331C275.025 227.075 276.326 226.721 277.596 226.275L279.274 226.022C279.828 226.338 281.157 226.18 283.452 225.265C283.721 225.58 282.708 225.864 282.693 226.164C284.263 225.909 285.85 225.777 287.441 225.77C287.441 226.022 287.916 226.196 289.293 226.148L289.673 225.88C290.579 225.959 291.479 226.107 292.363 226.322C294.732 226.86 296.943 227.94 298.821 229.477C300.398 228.587 302.205 228.186 304.012 228.325C305.645 228.546 307.301 228.546 308.934 228.325C311.752 227.836 315.06 226.527 317.275 227.426C320.352 228.404 323.69 228.149 326.582 226.716H326.899L327.152 226.511H327.231L329.003 225.644L328.814 225.959C328.814 225.959 328.813 225.959 328.703 226.085C328.703 226.085 328.703 226.085 328.703 226.18L328.814 226.038L329.241 225.596H329.114L329.304 225.328L330.317 223.971L329.747 224.445C330.016 223.619 330.016 222.73 329.747 221.905C329.431 220.99 328.886 220.17 328.165 219.523L328.022 219.397C327.622 218.453 327.124 217.554 326.534 216.715L326.914 213.071V212.929C326.249 212.629 325.506 212.345 324.762 212.061C325.075 210.52 325.477 208.998 325.965 207.502C326.439 205.199 329.7 200.514 329.241 195.545C329.381 195.005 329.566 194.477 329.795 193.968L329.051 194.441C328.921 193.795 328.719 193.165 328.45 192.564C328.003 191.594 327.683 190.571 327.5 189.519C327.706 187.942 327.88 186.475 328.165 184.976C328.52 183.321 329.05 181.708 329.747 180.165" fill="#0471B8"/>
<path d="M155.33 320.971C154.061 320.327 152.737 319.799 151.373 319.394L114.97 283.111C114.381 282.351 113.901 281.512 113.546 280.619L112.865 281.029L104.16 272.353C102.83 270.555 101.295 268.63 99.5701 266.658C97.4175 264.166 95.0117 261.579 92.5585 258.96L84.7555 250.805H81.9384C80.8051 250.815 79.6834 251.034 78.6303 251.451C77.7047 251.87 76.7028 252.096 75.6864 252.114L72.521 251.215C70.2947 251.332 68.063 251.295 65.8419 251.104C57.5167 248.738 41.5626 250.174 31.7813 249.164C30.1986 249.006 28.5051 248.912 26.8274 248.848L24.295 248.77C23.4087 248.77 22.7123 248.77 21.5252 248.77C17.2044 248.77 12.7569 248.77 7.5339 248.549C6.3785 248.454 5.1597 248.391 3.87768 248.344H1.89926C1.29782 248.344 0.316613 248.075 0.601505 248.975C0.761374 251.443 1.25643 253.879 2.07334 256.215L3.32377 260.285L3.65608 261.563L3.81451 262.225V262.399C3.81451 262.399 3.98853 262.399 4.13098 262.525L4.59003 262.683C4.47924 262.683 4.38428 262.683 4.59003 262.683C4.49507 262.856 4.38419 262.983 3.90937 263.629C3.43455 264.276 3.00728 264.955 2.59577 265.633C1.79799 266.977 1.11495 268.386 0.553977 269.845C0.246263 271.402 0.160953 272.996 0.300685 274.577C0.242421 275.797 0.359825 277.019 0.649034 278.205C1.04868 279.425 1.61871 280.583 2.34248 281.644C3.00723 282.654 3.83017 283.742 4.24168 284.405C4.38594 284.714 4.56672 285.006 4.77995 285.273C5.12865 285.635 5.3791 286.08 5.50795 286.566C5.51007 286.818 5.43856 287.064 5.30219 287.276L4.59003 288.57C4.33679 289.074 4.13097 289.548 3.92521 290.147C2.78541 293.721 2.63228 297.536 3.482 301.189L3.79866 303.177C3.81227 303.429 3.81227 303.682 3.79866 303.934C3.81225 304.013 3.81225 304.093 3.79866 304.171C3.79049 304.207 3.79049 304.245 3.79866 304.281C3.72623 304.592 3.61997 304.893 3.482 305.18C3.22876 305.796 2.88071 306.647 2.6433 307.452C2.39737 308.249 2.2016 309.06 2.0575 309.881L1.70934 311.916C1.41492 313.566 1.30881 315.243 1.39287 316.917C1.43743 318.573 1.87677 320.196 2.67479 321.649C2.7688 321.825 2.87467 321.993 2.99145 322.154L3.14969 322.407C2.91228 322.533 3.71951 322.154 2.59577 322.691V322.817V322.959C2.69073 323.385 2.76991 323.842 2.83322 324.3C2.94279 325.195 2.99562 326.095 2.99145 326.997C2.99145 328.464 2.99145 329.379 2.99145 330.326L3.10216 331.651C3.10216 331.745 3.10225 331.903 3.19722 331.935L3.62459 332.045C3.91647 332.12 4.2123 332.178 4.51082 332.219C6.88492 332.581 9.86039 331.856 13.1367 331.509C13.9438 331.43 14.7194 331.335 15.5583 331.288C15.8681 331.245 16.1825 331.245 16.4922 331.288C16.7374 331.306 16.9808 331.343 17.2202 331.398L18.1382 331.588C18.5022 331.588 18.8663 331.73 19.262 331.777C20.0147 331.908 20.777 331.977 21.5411 331.982C23.0568 332.032 24.569 331.808 26.0043 331.319C27.3183 330.831 28.5845 330.224 29.7871 329.505C31.0533 328.858 32.1296 328.038 32.6202 327.802L32.9525 327.644C33.1781 327.627 33.4038 327.676 33.6015 327.786C33.7882 327.853 33.9683 327.938 34.1396 328.038C34.1396 328.338 34.1397 328.638 34.2663 328.969C35.4427 329.697 36.7787 330.13 38.1598 330.231C38.7387 330.487 39.3304 330.713 39.9325 330.909L40.7555 331.146C41.499 331.536 42.2924 331.822 43.1138 331.998C43.9332 332.215 44.7934 332.231 45.6204 332.044C46.4475 331.858 47.2168 331.473 47.862 330.925C49.1282 330.483 49.2548 330.452 49.4447 330.562C49.6347 330.673 49.6505 330.767 50.2044 330.562C51.2861 329.449 52.4616 328.43 53.718 327.518C54.4933 326.965 55.4097 326.642 56.3613 326.587L56.9152 326.824C57.2357 326.963 57.5475 327.121 57.849 327.297C58.5292 327.756 59.2377 328.172 59.97 328.543L60.1757 328.306C60.6866 328.578 61.2154 328.816 61.7585 329.016C63.6858 329.687 65.7156 330.018 67.7569 329.994C69.6562 329.994 71.508 329.805 72.9166 329.805C73.2139 329.804 73.5107 329.831 73.8031 329.884C74.3412 329.884 74.2305 329.979 74.452 330.057C74.6736 330.136 74.8319 330.373 75.4016 330.736C76.7286 331.603 78.1326 332.348 79.5959 332.96C80.8621 333.528 81.7168 334.017 82.7614 334.537C84.3441 334.222 85.9268 334.19 88.0477 333.875C89.2376 333.709 90.3987 333.38 91.498 332.897C92.0923 332.638 92.6596 332.321 93.1916 331.95L93.5873 331.666L93.7297 331.572L93.5873 331.682L94.0463 331.382C94.8535 330.972 96.0722 331.02 98.3989 331.382C99.0478 331.54 99.7758 331.745 100.551 331.998C101.327 332.25 102.688 332.786 103.717 333.118C104.811 333.484 105.941 333.733 107.088 333.859C108.189 334.033 109.316 333.797 110.254 333.197C111.124 332.66 112.374 332.14 113.102 331.619C113.805 331.218 114.548 330.89 115.318 330.641C115.725 330.558 116.138 330.511 116.553 330.499L116.917 330.893C117.379 331.389 117.913 331.815 118.5 332.155C119.577 332.712 120.768 333.014 121.981 333.039C122.999 333.064 124.015 332.925 124.989 332.629L126.571 332.187C126.951 332.092 127.268 332.045 127.458 332.013H127.616H127.695L128.012 332.234C128.299 332.454 128.6 332.654 128.914 332.834C135.087 335.247 138.569 332.597 140.705 331.398C140.821 331.383 140.938 331.383 141.054 331.398L141.655 331.114C140.515 331.887 140.705 331.761 141.655 331.114L142.035 330.925H142.256C143.875 330.568 145.522 330.357 147.179 330.294C147.907 330.294 148.635 330.294 149.379 330.294H149.679C150.091 330.294 150.518 330.294 150.93 330.389H151.246L151.864 329.979V329.821L151.705 329.206C151.705 329.079 151.705 328.969 151.61 328.827L152.117 328.496H151.99H151.547C151.554 328.412 151.554 328.327 151.547 328.243V324.457L154.602 322.407H154.507L154.143 322.17L153.763 321.918C161.328 316.822 150.597 324.047 155.346 320.876" fill="#088743"/>
<path d="M332.375 335.547L331.789 333.433C331.409 331.998 331.045 330.531 330.713 328.843C330.57 328.007 330.428 327.107 330.349 326.224V325.577C330.349 325.451 330.46 325.42 330.222 325.215L328.988 324.331C329.108 324.139 329.24 323.955 329.383 323.779C330.165 322.798 330.755 321.68 331.124 320.482C331.768 318.218 331.812 315.827 331.251 313.541L330.871 311.837L330.507 310.481C330.25 309.461 329.938 308.455 329.573 307.468C329.383 306.995 329.146 306.411 328.988 306.08L328.56 305.228C328.277 304.687 328.125 304.087 328.117 303.477C328.137 302.904 328.233 302.337 328.402 301.789L328.988 299.912C329.888 297.122 330.025 294.143 329.383 291.283C329.014 289.778 328.387 288.348 327.531 287.055C327.427 286.914 327.332 286.767 327.247 286.613C327.247 286.613 327.247 286.613 327.152 286.487L326.993 286.124C326.803 285.793 326.867 284.736 327.706 283.19C328.402 281.976 329.114 280.871 329.668 279.751C329.842 279.499 330.016 279.231 330.175 278.963C330.296 278.552 330.37 278.128 330.396 277.701C330.448 277.524 330.49 277.345 330.523 277.164C330.616 275.072 330.064 273.002 328.94 271.233C327.971 269.632 326.765 268.185 325.363 266.942C325.157 266.737 324.92 266.564 324.683 266.359L324.445 266.027C322.372 263.298 322.862 261.863 323.828 260.096L326.835 260.727L326.297 260.159H326.835L324.857 258.092C325.987 256.286 326.666 254.236 326.835 252.114H319.096L318.779 251.798C318.677 251.882 318.547 251.927 318.415 251.925L318.605 252.114H317.259L317.355 251.988C317.165 251.767 317.26 251.814 317.133 252.114H316.326C316.391 251.979 316.47 251.852 316.563 251.735H316.975H317.165L316.801 251.641H316.674H316.595L315.455 251.278L315.123 251.152H315.028L314.458 252.193H281.506C280.553 252.061 279.622 251.807 278.736 251.435L278.546 252.193H266.169C265.441 252.082 264.713 251.972 263.921 251.877C259.411 251.341 254.567 251.088 248.505 250.931L238.218 260.632C236.635 262.21 236.635 264.182 235.052 265.712L232.219 267.289C230.739 268.932 229.153 270.476 227.471 271.911C219.89 276.092 209.649 288.333 202.036 294.517C196.956 298.634 192.54 303.745 186.462 308.383C184.792 309.543 183.205 310.818 181.714 312.2L180.464 313.352L178.723 315.055L175.066 318.684V329.868V337.487L182.078 334.601C182.669 334.337 183.291 334.151 183.93 334.048C184.609 333.645 185.353 333.362 186.13 333.212C186.758 333.255 187.371 333.421 187.934 333.701C188.972 334.27 190.071 334.72 191.21 335.042C193.096 335.627 195.099 335.73 197.035 335.342C198.887 334.87 200.685 334.21 202.4 333.37L204.569 332.329C205.202 332.013 205.898 331.714 205.977 331.682C206.056 331.651 206.911 331.461 207.307 331.319L208.51 330.909C208.987 330.721 209.479 330.573 209.982 330.468C210.536 330.468 210.409 330.373 211.074 330.783L212.055 331.477C212.451 331.761 212.846 331.998 213.226 332.219C214.046 332.717 214.909 333.14 215.806 333.481C216.965 333.937 218.201 334.167 219.446 334.159C220.397 334.142 221.332 333.916 222.185 333.496C223.131 333.02 223.938 332.308 224.527 331.43C224.684 331.186 224.858 330.954 225.049 330.736C225.397 330.893 225.746 331.051 226.078 331.177C229.062 332.48 232.361 332.891 235.574 332.361C237.881 331.769 240.216 331.296 242.57 330.941C243.495 330.887 244.422 330.967 245.324 331.177C246.796 331.541 248.303 331.742 249.819 331.777C251.372 331.783 252.914 331.522 254.377 331.004C255.1 330.742 255.803 330.431 256.482 330.073L258.208 329.19C259.521 328.448 260.55 327.754 260.835 327.612C261.12 327.47 260.835 327.612 260.977 327.612C261.225 327.654 261.462 327.746 261.674 327.88C262.196 328.133 263.589 329.19 264.713 329.742C265.882 330.386 267.112 330.914 268.385 331.319L269.382 331.588C269.635 331.903 269.872 332.234 270.157 332.534C271.531 332.711 272.926 332.603 274.257 332.219C274.489 332.138 274.703 332.015 274.89 331.856C275.769 331.633 276.597 331.242 277.327 330.704L277.865 330.184C278.529 329.793 279.163 329.355 279.765 328.874C280.705 328.162 281.495 327.272 282.091 326.256C283.579 325.987 282.803 326.587 283.579 326.65C284.072 326.445 284.61 326.368 285.141 326.426C285.672 326.484 286.18 326.675 286.618 326.981C287.918 327.79 289.347 328.372 290.844 328.701C291.16 328.869 291.495 329.002 291.841 329.095C293.39 329.503 295.008 329.578 296.589 329.316V329.016L298.172 328.89C299.641 328.596 301.149 328.543 302.635 328.732C303.205 328.906 305.12 330.152 306.877 330.767C308.511 331.423 310.193 331.95 311.91 332.345C313.525 332.683 315.167 332.878 316.816 332.928H318.035C318.447 332.928 318.779 332.818 319.285 333.181C320.203 333.638 321.106 333.97 322.039 334.427C325.627 334.612 329.146 335.479 332.406 336.983C332.452 336.818 332.515 336.659 332.596 336.509C332.596 336.367 332.438 335.863 332.375 335.563" fill="#0471B8"/>
<path d="M317.908 252.035C318.05 252.059 318.194 252.059 318.336 252.035L318.193 251.893C318.083 251.893 318.019 252.019 317.908 252.035Z" fill="#0471B8"/>
<path d="M99.2058 40.2417C99.6648 45.6209 100.947 52.057 100.013 56.2847C99.0094 62.2501 99.2248 68.3561 100.646 74.2365V74.7886L100.931 75.4354C101.754 78.7639 102.799 81.8558 103.78 84.9003V91.9043L133.045 121.072C133.569 121.816 134.009 122.615 134.359 123.454L134.707 122.728L141.687 129.685C145.177 134.231 148.929 138.571 152.924 142.684L153.288 131.831C153.288 129.827 151.927 126.609 151.959 124.921C152.285 124.41 152.586 123.884 152.861 123.344C152.752 121.435 152.784 119.521 152.956 117.617C154.159 114.825 154.396 108.152 154.538 103.72C154.451 99.0718 154.604 94.4226 154.997 89.7905C155.662 84.6164 155.203 79.2214 156.169 73.2269C157.403 68.1632 156.707 60.0707 156.849 53.0351L156.058 50.2272C155.82 47.5454 156.77 43.302 156.501 42.3397C155.973 37.5315 155.762 32.6941 155.868 27.8584V21.1068C155.868 18.2357 155.868 15.412 155.615 12.8723L155.393 6.27841V3.12344C155.393 2.99724 155.393 2.80792 155.393 2.7606H155.172C155.014 2.74687 154.859 2.70966 154.713 2.65019C154.391 2.55053 154.083 2.41284 153.795 2.24005C151.563 3.01302 149.268 3.67555 147.068 4.24344C145.976 4.51161 144.884 4.76401 143.903 4.9533C143.38 5.04968 142.851 5.10767 142.32 5.12683C141.893 5.15125 141.465 5.15125 141.038 5.12683C140.938 5.14638 140.836 5.14638 140.737 5.12683C140.626 5.12683 140.626 5.12683 140.61 5.12683C140.267 4.92136 139.9 4.75721 139.518 4.63781C138.599 4.3077 137.65 4.06476 136.685 3.91218C134.551 3.50258 132.343 3.75018 130.354 4.62205C129.722 4.93983 129.141 5.34916 128.629 5.83672L128.312 6.16798C128.248 6.23944 128.17 6.29725 128.083 6.33791C127.996 6.37858 127.902 6.40128 127.806 6.40461C127.34 6.44453 126.87 6.41259 126.413 6.30994L126.017 6.2153L125.685 5.39502C125.274 5.39502 124.672 5.26882 123.897 5.2215C123.364 5.19836 122.831 5.25147 122.314 5.37923C122.08 5.4356 121.866 5.55576 121.697 5.72628C121.491 5.72628 121.317 5.72629 121.111 5.80516C120.225 6.00567 119.404 6.42316 118.721 7.01983C118.384 7.23281 118.076 7.4872 117.803 7.77702C117.645 7.77702 117.518 7.87166 117.249 7.91899C116.705 7.97277 116.172 8.10564 115.666 8.31336C114.084 7.61926 115.017 7.54039 114.084 6.98828C112.7 6.88924 111.328 6.66752 109.984 6.32573C109.304 6.16799 108.971 5.61585 108.212 5.60008C107.835 5.57913 107.458 5.60564 107.088 5.67896C105.529 5.67549 104.004 6.13098 102.704 6.98828L102.862 7.24068H102.751C102.498 7.24068 102.609 7.52462 102.546 7.68237V8.23448C102.356 9.65422 102.118 11.1055 101.865 12.541C101.358 15.4436 100.757 18.3619 100.187 21.0594C100.045 21.7062 99.9024 22.4319 99.7599 22.9682L99.3167 24.451C99.0493 25.2966 98.7268 26.1239 98.3513 26.9277C100.535 30.8872 98.7469 35.8405 99.5067 40.4152" fill="#74B743"/>
<path d="M21.6834 15.0177L21.3511 15.9799C21.8259 15.8537 22.1582 15.7906 22.4431 15.7275L22.7756 16.0431L21.7943 18.9614C21.9592 18.9056 22.0992 18.794 22.19 18.6459C22.2054 18.5837 22.2054 18.5188 22.19 18.4566C22.1978 18.4149 22.1978 18.3721 22.19 18.3304V18.0149C22.1867 17.9729 22.1867 17.9307 22.19 17.8887C22.2251 17.7654 22.2673 17.6443 22.3166 17.5259C22.4887 17.2339 22.7207 16.9813 22.9972 16.7845C23.0349 16.976 23.1103 17.1583 23.2188 17.3208C23.4625 17.5941 23.7327 17.8425 24.0259 18.0622C24.6294 18.5542 25.2639 19.0074 25.9253 19.4189C26.2353 19.6133 26.5578 19.7872 26.8907 19.9394C28.1569 21.0437 29.4388 22.1006 30.7525 23.0944L30.5311 23.8358C31.2908 24.104 31.9712 24.4037 32.3828 24.2144C32.6993 24.4353 33 24.6561 33.3324 24.8454C33.5211 25.3063 33.8584 25.6915 34.2912 25.94C34.724 26.1885 35.2276 26.2863 35.7223 26.2178C36.0705 27.0224 35.5008 26.8331 35.6274 27.3694C36.7419 28.1184 37.7713 28.9859 38.6979 29.9565C38.9328 30.6801 39.3793 31.3173 39.98 31.7864L40.1857 31.6286C42.6069 34.4442 44.2442 37.8439 44.9339 41.4879C48.0994 41.4879 48.7799 44.7849 51.1381 46.0626C53.623 47.8925 57.1051 49.5489 58.1339 51.8993C59.8058 54.963 62.5066 57.3421 65.7626 58.6194L66.0001 58.8402H66.4591C66.6637 58.9354 66.8754 59.0145 67.0923 59.0769L66.1741 61.0961C67.3295 60.8594 66.8074 60.0549 67.298 59.1557C68.8808 59.7236 70.6218 60.1653 72.2362 60.5912L75.0376 63.3834V61.4273C75.5441 61.5851 76.0188 61.7586 76.4936 61.9479C78.4562 59.1084 80.8621 55.9061 77.7916 51.3787C77.3242 50.705 76.7942 50.0765 76.2088 49.5015C75.8923 48.6812 75.5281 47.8136 75.1008 46.9302V39.3267C75.2127 39.1578 75.3398 38.9993 75.4806 38.8535H75.1008V31.4078C75.2274 30.7925 75.3542 30.1615 75.4333 29.4832C75.6391 27.9057 75.7499 26.1863 75.829 24.4826L76.0504 18.8352C76.0504 18.1096 75.5123 17.8098 75.1008 17.4628V15.4909C75.1958 15.2543 75.2908 15.0177 75.3699 14.7811C75.3699 14.0554 75.1483 13.2036 75.1008 12.4464V12.1782C75.0833 12.0368 75.0833 11.8937 75.1008 11.7523C75.2257 11.1446 75.2946 10.5268 75.3066 9.90662V9.43339C75.2073 9.35206 75.095 9.28804 74.9743 9.24408L74.2304 8.8655C73.1858 8.34492 71.9354 7.76126 70.59 7.28801C67.3665 6.77226 64.077 6.82564 60.872 7.44574C59.9981 7.61 59.1477 7.88019 58.3397 8.25028L56.9944 8.75506C56.662 8.91281 56.6936 8.88127 56.5353 8.8655C56.108 8.8655 55.459 8.56576 54.7151 7.52462C53.8182 6.04472 52.5949 4.78778 51.1381 3.84908L51.0274 3.7702L50.5842 3.48626L50.426 3.39162L50.0937 3.2023C49.4344 2.8704 48.7385 2.6163 48.0202 2.44512C47.0681 2.21201 46.0874 2.1164 45.108 2.16118C43.5938 2.25482 42.0958 2.52482 40.6446 2.96569C40.0887 3.4235 39.5603 3.91337 39.0619 4.43276C38.1851 4.8797 37.2685 5.24408 36.3238 5.52121C35.7698 5.66318 35.3426 5.75785 35.2476 5.97869C34.7916 6.64985 34.1703 7.19303 33.4433 7.55618C31.6834 5.29752 29.7062 3.21584 27.5397 1.34088L26.5267 4.41697L25.4028 3.4705L24.9598 4.79558C24.2445 4.66901 23.5167 4.62666 22.7915 4.66938C21.7281 4.69143 20.6688 4.80757 19.626 5.01643L12.0129 6.46771L17.5208 11.3421C18.8978 12.5726 20.2432 13.8188 21.5727 15.065" fill="#74B743"/>
<path d="M64.9081 62.2003V62.7839H65.0029C64.9807 62.5795 64.9807 62.3732 65.0029 62.1687C65.0029 62.1687 65.0029 62.1687 65.0029 62.1687" fill="white"/>
</g>
<defs>
<clipPath id="clip0_28_66">
<rect width="1607" height="337.503" fill="white"/>
</clipPath>
</defs>
</svg>
