<svg width="133" height="28" viewBox="0 0 133 28" fill="none" xmlns="http://www.w3.org/2000/svg">
<path d="M90.3132 8.7338H90.2988V19.3237H97.9461V17.1079H92.7615V15.1367H96.7508L97.6149 12.4316H92.7615V10.705H98.263L99.1271 8.7338H92.6751H90.3132Z" fill="#147E40"/>
<path d="M56.3828 13.7842L54.381 8.7338H50.9678L47.137 18.4173L49.4556 19.3381L54.9715 17.0216L55.9076 19.3525L58.2119 18.446L57.2758 16.0432L56.3828 13.7842ZM50.7086 16.2014L52.6816 11.223L54.1218 14.777L50.7086 16.2014Z" fill="#147E40"/>
<path d="M42.9606 10.9928L39.1297 14.4748L35.3133 10.9928V8.7338H32.8506V19.3237H35.3133V13.928L39.1297 17.4101L42.9606 13.928V19.3237H45.4233V8.7338H42.9606V10.9928Z" fill="#147E40"/>
<path d="M67.1264 12.9208H62.4315V8.7338H59.9688V19.3237H62.4315V15.1367H67.1264V19.3237H69.5891V8.7338H67.1264V12.9208Z" fill="#147E40"/>
<path d="M129.615 13.6259L132.697 10.1726L131.027 8.87768L127.498 12.9208H125.554V8.7338H122.847V19.3237H125.554V15.1367H127.484L130.105 19.3237H133L129.615 13.6259Z" fill="#147E40"/>
<path d="M84.8118 13.5252L88.225 9.69783L86.5976 8.15826L82.7092 12.4316H81.4274V8.7338H78.7055V12.4316H77.1501L73.3049 8.20143L71.6919 9.69783L75.1051 13.5539L71.519 19.3237H74.3418L76.7613 15.4388L76.8045 15.5396L77.1645 15.1367H78.0286H78.7055V19.3237H81.4274V15.1367H81.9315H82.7524L83.098 15.5252L85.5607 19.3237H88.3835L84.783 13.5539L84.8118 13.5252Z" fill="#147E40"/>
<path d="M105.781 8.7338H100.942V19.3381H103.405V17.1223H105.781C106.312 17.1281 106.839 17.0278 107.331 16.8274C107.823 16.627 108.27 16.3304 108.645 15.9552C109.021 15.5799 109.318 15.1335 109.518 14.6421C109.719 14.1507 109.819 13.6242 109.813 13.0935V12.8777C109.821 12.341 109.723 11.8082 109.524 11.3095C109.326 10.8108 109.031 10.356 108.656 9.97123C108.282 9.58642 107.835 9.27909 107.342 9.06677C106.848 8.85444 106.318 8.7413 105.781 8.7338ZM107.351 13.3813C107.363 13.825 107.204 14.2565 106.906 14.5861C106.608 14.9156 106.195 15.1179 105.752 15.151H103.405V10.705H105.781C106.235 10.7687 106.649 10.9979 106.945 11.3485C107.24 11.6991 107.395 12.1464 107.379 12.6043L107.351 13.3813Z" fill="#147E40"/>
<path d="M120.067 9.68346C118.96 9.0915 117.723 8.78177 116.467 8.78177C115.211 8.78177 113.974 9.0915 112.866 9.68346C111.815 10.3741 111.426 12.6763 111.426 14.1007C111.362 15.6041 111.831 17.0818 112.751 18.2734V18.3453C113.894 18.9659 115.155 19.3386 116.452 19.4389C117.793 19.4472 119.102 19.0234 120.182 18.2302C121.116 17.0561 121.591 15.584 121.522 14.0863C121.623 12.7626 121.147 10.4029 120.067 9.68346ZM118.382 16.6475C117.798 16.9861 117.135 17.1644 116.46 17.1644C115.784 17.1644 115.121 16.9861 114.537 16.6475C114.079 15.8652 113.873 14.961 113.946 14.0576C113.883 13.1755 114.036 12.2913 114.393 11.482C115.034 11.1605 115.742 10.9931 116.46 10.9931C117.177 10.9931 117.885 11.1605 118.526 11.482C118.884 12.3013 119.037 13.1949 118.973 14.0863C119.059 14.9815 118.852 15.8804 118.382 16.6475Z" fill="#147E40"/>
<path d="M0.129883 3.91366C0.19794 3.97804 0.251208 4.05641 0.286017 4.14335C0.320825 4.23029 0.336346 4.32375 0.331505 4.41726C0.331505 4.53237 0.331505 4.67627 0.331505 4.83454C0.32339 4.88699 0.32339 4.94035 0.331505 4.99279C0.296188 5.16365 0.296188 5.33994 0.331505 5.5108C0.331505 5.59713 0.331505 5.68344 0.331505 5.75538V5.9856C0.331505 5.9856 0.331505 5.9856 0.331505 6.07193V6.33096C0.331505 6.44606 0.331505 6.5324 0.331505 6.60434V6.67627V6.74819C0.391448 6.77297 0.458792 6.77297 0.518734 6.74819H0.835573C0.835573 6.74819 0.907574 6.74819 1.00839 6.74819H1.23882C1.35221 6.77105 1.46313 6.80479 1.57005 6.84892C1.65348 6.89134 1.73096 6.94458 1.80048 7.00722C1.9589 6.82017 2.16051 7.00721 2.34773 6.90649C2.53495 6.80577 2.82299 6.7626 2.98141 6.90649C3.21697 7.00169 3.48035 7.00169 3.71591 6.90649V7.05038C3.71591 6.97844 3.71591 6.96403 3.71591 6.89209C3.84875 6.82921 3.9743 6.75201 4.09034 6.66186H4.37837L4.26316 6.54678H4.37837C4.37837 6.27339 4.29196 5.94244 3.90311 5.85611H3.7303L3.45667 5.72662L3.22623 5.4964C3.21943 5.4729 3.21943 5.44797 3.22623 5.42447L2.895 5.09352C2.72831 4.83053 2.53001 4.58893 2.30453 4.3741C2.30453 4.3741 2.18932 4.3741 2.13171 4.3741V4.25901C2.13171 4.25901 1.9877 4.14388 1.9733 4.10071C1.8846 3.90899 1.75127 3.74125 1.58444 3.61151C1.42045 3.47392 1.26645 3.32487 1.1236 3.16547L0.835573 2.89209L0.691547 2.74819L0.605141 2.66187C0.377207 2.85717 0.216066 3.11879 0.144277 3.41009C0.137339 3.46744 0.137339 3.5254 0.144277 3.58275C0.144277 3.72663 0.144277 3.72664 0.144277 3.76981" fill="#1AA456"/>
<path d="M26.8306 4.5324C26.8725 4.48231 26.911 4.42941 26.9458 4.3741V4.27337C27.0004 4.21134 27.0399 4.13745 27.061 4.05755C27.0679 3.79578 27.0032 3.5371 26.8738 3.30937C26.8738 3.30937 26.7586 3.30937 26.7154 3.30937V3.2374L26.5858 3.35253C26.4417 3.35253 26.0385 3.81297 25.7937 3.94246C25.6082 4.08834 25.4106 4.21829 25.2032 4.33094C24.8896 4.4907 24.6145 4.7165 24.3967 4.99279V5.13669C24.3103 5.23741 24.1087 5.36691 24.0942 5.41007C23.9883 5.60361 23.8575 5.78256 23.7054 5.94244C23.5758 6.10071 23.4462 6.24462 23.3598 6.37412C23.2734 6.50362 22.9421 6.86332 22.7405 7.07914H23.2301C23.2922 7.08885 23.3553 7.08885 23.4174 7.07914H23.5038C23.5881 7.10565 23.6786 7.10565 23.763 7.07914H24.0799C24.0799 7.07914 24.0798 7.07914 24.2239 7.07914C24.2902 7.06427 24.3591 7.06427 24.4255 7.07914C24.6109 7.12635 24.7833 7.21488 24.9296 7.33812C25.16 7.17985 25.3472 7.33812 25.5776 7.33812C25.8081 7.33812 26.0817 7.19424 26.2545 7.33812C26.4853 7.43248 26.7439 7.43248 26.9746 7.33812L27.2771 7.17987V7.1079C27.1896 6.99371 27.0823 6.89625 26.9602 6.82016C26.9271 6.73204 26.9271 6.63489 26.9602 6.54678L27.1186 6.37412H27.0034C27.04 6.23666 27.0487 6.09323 27.0289 5.95236C27.0091 5.8115 26.9613 5.67605 26.8882 5.55397C26.8478 5.48133 26.8267 5.39962 26.8267 5.31654C26.8267 5.23347 26.8478 5.15176 26.8882 5.07912C26.9232 5.01937 26.9617 4.96172 27.0034 4.90647L26.9314 4.99279" fill="#1E87B0"/>
<path d="M0.043457 10.6331C0.0486006 10.6665 0.0486006 10.7004 0.043457 10.7338C0.043457 10.9496 0.043457 11.3813 0.043457 11.2949L0.446703 11.6978L0.821139 11.9856C1.15238 12.2734 1.58444 12.8201 1.71406 12.9208C2.31893 13.4532 2.89498 14.0144 3.42784 14.5612L4.24875 15.3813L5.21366 16.3166L6.4666 17.5252V12.8921V12.4604C6.4739 12.3214 6.4739 12.1822 6.4666 12.0432C6.4666 11.9425 6.4666 11.8561 6.4666 11.7554C6.51333 11.4985 6.51333 11.2353 6.4666 10.9784C6.4666 10.8345 6.4666 10.9784 6.4666 10.9784V10.8633L7.07149 11.4388C7.19225 11.595 7.32207 11.7439 7.46032 11.8849C7.80596 12.259 8.13722 12.6331 8.35324 12.9208L8.26682 13.5683C8.26682 13.7986 8.19483 14 8.15162 14.1583C8.245 14.893 8.2787 15.634 8.25242 16.3741L8.32444 17.8129C8.32444 18.0431 8.32444 18.2734 8.32444 18.4748V19.482L8.71329 19.8993L9.00132 20.2014L9.57738 20.7482C9.83661 20.9784 10.0958 21.2086 10.3551 21.41H10.4271H10.5135L10.6719 21.5395L11.7664 22.3453L11.8528 22.4173L12.5729 23.1367V22.9209L12.6881 23.0216C12.7319 22.8778 12.7442 22.7264 12.7243 22.5774C12.7044 22.4285 12.6528 22.2856 12.5729 22.1583V16.4029C12.5649 16.2831 12.5649 16.1629 12.5729 16.0432V14.9209L12.2417 14.5899L11.9249 14.2158L11.1616 13.3813L9.49097 11.6547C9.28934 11.4388 9.07333 11.3957 8.87171 11.1799L8.64127 10.8489C8.43965 10.6331 8.10841 10.3453 8.03641 10.2302C7.9644 10.1151 7.77716 9.89925 7.61874 9.7122C7.46032 9.52515 7.46033 9.52518 7.37392 9.42446L7.02827 9.06474H6.04896L5.4873 8.51797C5.4873 8.70503 5.4873 8.87769 5.4873 9.06474H5.35769C4.83923 9.06474 4.33517 9.06474 3.91752 9.06474C3.49987 9.06474 3.0678 9.06474 2.62135 9.06474H1.93008H1.06597H0.792352L0.446703 9.2374H0.360296C0.370245 9.29452 0.370245 9.35293 0.360296 9.41005C0.366732 9.49627 0.366732 9.58283 0.360296 9.66904C0.360296 9.66904 0.360296 9.66905 0.360296 9.76977H0.27389C0.227506 9.81624 0.188634 9.86966 0.158673 9.92806C0.103779 10.0307 0.0695205 10.1431 0.0578508 10.259C0.0427564 10.3543 0.0427564 10.4514 0.0578508 10.5468L0.043457 10.6331Z" fill="#1AA456"/>
<path d="M17.3686 12.3453C17.167 12.5468 17.1094 12.7626 16.9078 12.964L16.5621 13.2086C16.3605 13.4101 16.0581 13.7266 15.9429 13.8129C15.7391 13.9512 15.5465 14.1051 15.3668 14.2734L15.05 14.5468L14.6611 14.9209V16.518C14.6611 17.0072 14.6611 17.482 14.6611 17.8705C14.6611 18.7194 14.6611 19.6115 14.5603 20.59V21.3381C14.5603 21.6259 14.5603 21.9424 14.5603 22.2734V24.3166L15.1796 23.6978L15.6548 23.1367C15.8709 22.9065 16.1445 22.6619 16.3749 22.446C16.6053 22.2302 16.8358 22.0288 16.9078 21.9424L17.2534 21.5684L17.5414 21.2518L18.1319 20.6475L19.3705 19.4101V18.6475C19.3705 18.4461 19.3705 18.2446 19.3705 18.0432C19.3705 17.1511 19.3705 16.2446 19.3705 15.3669V12.8921L19.7017 12.5324H19.7881C19.8766 12.4255 19.9538 12.3098 20.0185 12.187L20.2058 11.9856C20.4012 11.8181 20.5668 11.6186 20.6954 11.3957C20.8394 11.295 20.6954 11.3957 20.7963 11.3957L21.3147 10.8345V11.036C21.3034 11.2421 21.3034 11.4486 21.3147 11.6547C21.3147 12.0432 21.3147 12.4317 21.2427 12.7482V13.1942C21.2427 13.3669 21.2427 13.5252 21.2427 13.669C21.2427 13.8129 21.2427 13.9568 21.1707 14.0863V14.259V14.4604C21.2438 14.9364 21.2727 15.418 21.2571 15.8993C21.2571 16.4173 21.2571 17.0072 21.2571 17.4532V17.7554L22.4812 16.4317C22.796 16.0705 23.1378 15.7338 23.5038 15.4244L23.8926 15.0791L24.2095 14.7626C24.4255 14.5611 24.6127 14.3597 24.7999 14.1727C24.9872 13.9856 25.3472 13.554 25.5776 13.2518L25.6496 13.1798V13.0935V13.0072L26.4129 11.9712L27.349 11.036C27.1906 10.8777 27.2626 10.6763 27.349 10.4892C27.3823 10.4222 27.3919 10.3459 27.3762 10.2727C27.3605 10.1995 27.3205 10.1338 27.2626 10.0863C27.1474 10.0144 27.2626 9.42446 27.3922 9.32374H22.1068V8.48923L21.2859 9.33814H20.609L20.321 9.62589L19.9177 9.9856C19.6441 10.2158 19.3705 10.4748 19.0824 10.7338L17.3686 12.3453Z" fill="#1E87B0"/>
<path d="M20.926 2.82015C20.9806 3.07142 20.9806 3.33146 20.926 3.58274C20.8219 3.85616 20.8219 4.15823 20.926 4.43165H20.7676C20.7676 4.43165 20.854 4.43165 20.9404 4.43165C20.9989 4.56082 21.0663 4.68583 21.142 4.80577V5.28057L21.2572 5.16548V5.28057C21.5453 5.28057 21.8765 5.17984 21.9629 4.7338C21.9696 4.66682 21.9696 4.59937 21.9629 4.53238V4.31652L22.395 3.89929H22.5102L22.8414 3.56834C22.9388 3.52124 23.0306 3.46332 23.1151 3.39568L23.4319 3.1223L23.7631 2.83451C23.8351 2.76257 23.7631 2.66189 23.8352 2.60433H24.008C24.0677 2.53444 24.1354 2.47166 24.2096 2.41727C24.4655 2.28818 24.6951 2.11249 24.8865 1.89927C25.0922 1.69165 25.3085 1.49474 25.5345 1.30933C25.6877 1.19552 25.8321 1.0705 25.9666 0.935262C26.0962 0.820154 26.2546 0.676243 26.4851 0.503581L26.7155 0.330926C26.7155 0.330926 26.7155 0.330929 26.7155 0.244598C26.5567 0.302876 26.3927 0.346224 26.2258 0.37409L25.8082 0.532386C25.549 0.532386 25.2465 0.532386 25.1169 0.532386L24.44 0.647474C24.2672 0.647474 24.08 0.733802 23.9936 0.733802C23.8905 0.753985 23.7893 0.782862 23.6911 0.820129C23.5903 0.820129 23.4319 0.820129 23.2735 0.820129L23.0863 0.705041C23.0131 0.6428 22.9361 0.585143 22.8558 0.532386H22.7262H22.4382C22.2489 0.563411 22.0677 0.631874 21.9053 0.733802L21.7037 0.892098H21.6173C21.5165 0.892098 21.4733 1.00717 21.5021 1.07911C21.5309 1.15105 21.4301 1.07911 21.3724 0.992784H21.3004V0.964023C21.2845 1.03023 21.2845 1.09928 21.3004 1.16548C21.3075 1.25647 21.3075 1.34783 21.3004 1.43882C21.307 1.51062 21.307 1.58289 21.3004 1.65469V1.76977C21.3067 1.79821 21.3067 1.82766 21.3004 1.8561C21.2586 1.94573 21.2105 2.03227 21.1564 2.11508C21.3293 2.30213 21.1564 2.53235 21.2428 2.74818" fill="#40ACD6"/>
<path d="M14.5173 7.33813C14.5727 7.78726 14.5727 8.24151 14.5173 8.69065C14.4202 9.18957 14.4202 9.70254 14.5173 10.2015C14.5567 10.3717 14.6048 10.5397 14.6613 10.705L14.4885 10.8058C14.4885 10.8058 14.6037 10.8058 14.6613 10.7338L14.7477 10.9928V11.5827L14.8773 11.4533V11.5827C15.1366 11.4964 15.4534 11.4101 15.5542 10.7338L17.1528 9.13669C17.2041 9.09673 17.2629 9.06738 17.3256 9.05036L17.9017 8.46043L18.0745 8.34534L18.4633 8.02879L18.8954 7.62591V6.777C18.8954 6.61872 18.7802 6.53239 18.7802 6.37412L18.8666 6.17266C18.852 6.02434 18.852 5.87494 18.8666 5.72662C18.9878 4.97514 19.0409 4.21427 19.025 3.45326C19.025 3.0216 19.025 2.57556 19.1258 2.01441C19.1396 1.86605 19.1396 1.71673 19.1258 1.56837C19.1258 1.36693 19.1258 1.1511 19.1258 0.935273L18.953 0.604322L18.8522 0.44607H18.6074H18.5354H18.3914L18.1897 0.330937C18.1283 0.269644 18.046 0.233678 17.9593 0.230207C17.852 0.192927 17.7353 0.192927 17.628 0.230207C17.5002 0.288215 17.3794 0.360662 17.268 0.44607C17.2444 0.439978 17.2196 0.439978 17.196 0.44607L16.9368 0.374101H16.8216C16.6228 0.272865 16.4087 0.204842 16.1879 0.172685C15.9557 0.128185 15.7154 0.169049 15.511 0.287774H15.4102H15.2086C15.0669 0.272831 14.927 0.243916 14.7909 0.201446C14.6901 0.330943 14.5461 0.201464 14.5893 0.489234V2.02877V2.79136C14.5893 2.89208 14.5893 3.00719 14.6757 3.02158C14.7621 3.03597 14.6757 3.13668 14.6757 3.19423C14.6492 3.25556 14.6355 3.32168 14.6355 3.38849C14.6355 3.45531 14.6492 3.52143 14.6757 3.58275C14.6757 3.71225 14.6757 3.58273 14.6037 3.69784C14.5317 3.81295 14.6037 4.08633 14.6037 4.28777C14.5795 4.39675 14.5795 4.50974 14.6037 4.61872C14.5816 5.14895 14.4797 5.6728 14.3013 6.17266C14.4885 6.5036 14.3013 6.92086 14.4021 7.29496" fill="#40ACD6"/>
<path d="M4.76709 18.7194L4.59428 18.518L4.23423 18.1007L3.81657 17.669L3.64376 17.5827H3.57175C3.55399 17.543 3.52594 17.5087 3.4905 17.4834C3.45506 17.4581 3.4135 17.4428 3.37012 17.4389C3.37012 17.4389 3.37012 17.4388 3.37012 17.3669C3.27712 17.2979 3.19038 17.2209 3.1109 17.1367C3.1109 17.1367 3.11088 17.0648 3.02447 16.9928L2.89486 16.7914C2.77558 16.6073 2.6925 16.4022 2.65004 16.187C2.40521 16.187 2.362 15.9281 2.17478 15.8417C1.98756 15.7554 1.71393 15.5827 1.64192 15.3957C1.51292 15.1584 1.3036 14.9748 1.05145 14.8777H0.950646L0.619391 14.7913L0.403374 14.5755V14.7194C0.230554 14.9496 0.0289209 15.223 0.259348 15.5683C0.290207 15.6261 0.334713 15.6755 0.38898 15.7122C0.38898 15.813 0.460969 15.8993 0.504175 16.0144V16.1583C0.496117 16.2059 0.496117 16.2545 0.504175 16.3022L0.432184 16.3885C0.40303 16.5261 0.40303 16.6682 0.432184 16.8058C0.411615 16.9054 0.411615 17.0082 0.432184 17.1079V17.2806C0.440331 17.3427 0.440331 17.4055 0.432184 17.4676V17.6547V17.8561C0.432184 17.9568 0.561795 17.8561 0.51859 17.9856L0.38898 18.1295C0.38898 18.2014 0.316969 18.2878 0.273764 18.3309C0.216383 18.4274 0.181885 18.5357 0.172941 18.6475C0.159978 18.7043 0.159978 18.7633 0.172941 18.8202H0.259348C0.465454 18.8039 0.672527 18.8039 0.878633 18.8202C1.09466 18.8921 1.36828 18.8201 1.65632 18.9496C2.00827 19.018 2.3701 19.018 2.72205 18.9496L2.85166 18.8777C2.99078 18.8703 3.13021 18.8703 3.26932 18.8777C3.48518 18.8172 3.70767 18.7833 3.93179 18.777H4.52226L4.76709 18.7194Z" fill="#147E40"/>
<path d="M27.2772 14.9209C27.2919 14.8594 27.2919 14.7953 27.2772 14.7338C27.2841 14.6716 27.2841 14.6089 27.2772 14.5468C27.2772 14.4748 27.1764 14.5468 27.1476 14.4748C27.1519 14.427 27.1519 14.3788 27.1476 14.3309L26.9891 14.4748C26.8374 14.5373 26.7001 14.6303 26.5859 14.7482C26.3987 14.8921 26.2259 15.0504 26.0819 15.1367C25.9378 15.223 25.693 15.4532 25.4482 15.5827C25.3096 15.6473 25.183 15.7349 25.0737 15.8417L24.7137 16.2158V16.3453C24.6669 16.3954 24.6137 16.4389 24.5553 16.4748L24.4113 16.5899C24.256 16.8186 24.0721 17.0266 23.864 17.2086C23.6768 17.3957 23.4895 17.5827 23.3743 17.7266C23.0431 18.1151 22.6398 18.518 22.3662 18.8345H22.7695H22.6686L22.9999 18.7482H23.1295C23.1295 18.7482 23.2879 18.7482 23.4751 18.7482C23.6624 18.7482 23.4751 18.7482 23.4751 18.8201C23.6044 18.8069 23.7347 18.8069 23.864 18.8201C23.864 18.8201 23.864 18.8201 24.0224 18.8201H24.2528C24.4479 18.8647 24.6302 18.9533 24.7857 19.0791C24.9159 19.0019 25.0668 18.9667 25.2177 18.9784C25.3518 18.9928 25.487 18.9928 25.621 18.9784C25.8514 18.9784 26.1251 18.8201 26.3123 18.8921C26.433 18.9431 26.5628 18.9694 26.6939 18.9694C26.825 18.9694 26.9548 18.9431 27.0756 18.8921L27.2196 18.8201L27.306 18.705C27.3281 18.6348 27.3281 18.5594 27.306 18.4892C27.2802 18.4123 27.2356 18.3431 27.1764 18.2878C27.1764 18.2158 27.1764 18.1439 27.0612 18.0575V17.7554H26.8883C26.9084 17.6274 26.9422 17.502 26.9891 17.3813C27.1382 17.0699 27.2262 16.7329 27.2484 16.3885C27.243 16.3455 27.243 16.302 27.2484 16.259H27.1764V16.1151C27.1389 16.0319 27.11 15.9451 27.09 15.8561C27.09 15.7266 27.09 15.5971 27.09 15.482C27.1223 15.3445 27.1657 15.2097 27.2196 15.0791" fill="#0471B8"/>
<path d="M12.8321 26.6331C12.7331 26.5753 12.6264 26.5317 12.5152 26.5036L9.49088 23.482C9.44413 23.42 9.40541 23.3523 9.37566 23.2806L8.65558 22.5612C8.55477 22.4173 8.42516 22.259 8.28114 22.0863L7.70506 21.4532L7.05699 20.777H6.82656C6.73622 20.7591 6.64328 20.7591 6.55294 20.777C6.47187 20.7901 6.38917 20.7901 6.30809 20.777L6.04887 20.7051C5.86199 20.721 5.67409 20.721 5.48721 20.7051C4.55488 20.5989 3.61725 20.546 2.67888 20.5468H2.26122H1.82919C1.46915 20.5468 1.09468 20.5468 0.662632 20.5468H0.201789C0.201789 20.5468 0.0577689 20.5468 0.0865723 20.5468C0.10748 20.7476 0.150954 20.9455 0.216182 21.1367L0.317005 21.482V21.5827H0.389018L0.273801 21.7554C0.215086 21.8677 0.162208 21.983 0.115382 22.1007C0.0938962 22.2293 0.0938962 22.3606 0.115382 22.4892C0.101749 22.5895 0.101749 22.6911 0.115382 22.7914C0.148725 22.894 0.197257 22.991 0.259386 23.0791L0.417805 23.3094C0.417805 23.3094 0.417805 23.3957 0.417805 23.4101V23.5252V23.6403C0.333637 23.9415 0.333637 24.26 0.417805 24.5612V24.7338C0.417805 24.7338 0.417805 24.7338 0.417805 24.8058C0.361859 24.9344 0.323119 25.0699 0.302589 25.2087V25.3669C0.282295 25.5053 0.282295 25.6458 0.302589 25.7842C0.300155 25.9204 0.335023 26.0548 0.403411 26.1727C0.410405 26.2059 0.410405 26.2402 0.403411 26.2734C0.409566 26.35 0.409566 26.427 0.403411 26.5036V26.8921H0.518628C0.757961 26.9179 0.999379 26.9179 1.23871 26.8921H1.56995H1.64196H1.92999C2.05385 26.9139 2.18056 26.9139 2.30442 26.8921L2.60687 26.7482L2.8517 26.6043H2.96691C3.0664 26.6689 3.18005 26.7084 3.29815 26.7194H3.44217H3.64379C3.71087 26.7361 3.78091 26.737 3.84838 26.722C3.91586 26.707 3.97894 26.6766 4.03265 26.6331C4.14786 26.6331 4.14785 26.6331 4.16226 26.6331C4.17666 26.6331 4.16226 26.6331 4.23427 26.6331L4.5223 26.3885C4.58657 26.3457 4.66116 26.3208 4.73832 26.3166H4.82472L4.99756 26.4173H5.12717C5.28919 26.4452 5.4548 26.4452 5.61682 26.4173H6.17848C6.17848 26.4173 6.17849 26.4173 6.2505 26.4173L6.61054 26.5899L6.86978 26.7194H7.30182L7.58987 26.6331C7.63625 26.6094 7.67974 26.5804 7.71948 26.5468H7.84909C7.84909 26.5468 8.02191 26.5468 8.20913 26.5468H8.38194L8.65558 26.6475C8.7463 26.6609 8.8385 26.6609 8.92921 26.6475C9.01716 26.682 9.11491 26.682 9.20285 26.6475L9.43328 26.5324H9.5917H9.7069C9.74273 26.5745 9.78687 26.6088 9.83653 26.6331C9.92627 26.6797 10.024 26.709 10.1246 26.7194C10.2103 26.7345 10.298 26.7345 10.3838 26.7194H10.499H10.5998C10.7583 26.79 10.9329 26.8166 11.1053 26.7963C11.2776 26.7761 11.4413 26.7097 11.5791 26.6043H11.7087H12.112H12.4576V26.518V26.1871L12.7025 26.0144L12.8321 25.9281" fill="#147E40"/>
<path d="M27.4931 27.8417V27.6691L27.4067 27.2949C27.4067 27.223 27.4067 27.1511 27.4067 27.0791H27.3203C27.3823 26.9961 27.4308 26.9038 27.4643 26.8057C27.5075 26.6163 27.5075 26.4196 27.4643 26.2302V26.0863V25.9712C27.4469 25.8879 27.4229 25.8061 27.3923 25.7266C27.3885 25.6883 27.3885 25.6498 27.3923 25.6115V25.5395C27.3787 25.4925 27.3787 25.4427 27.3923 25.3957C27.3845 25.3481 27.3845 25.2994 27.3923 25.2518V25.0935C27.4533 24.8576 27.4533 24.61 27.3923 24.3741C27.3606 24.2504 27.307 24.1335 27.2339 24.0288C27.2339 24.0288 27.2339 23.9136 27.2339 23.7841L27.4067 23.4964V23.4244C27.4085 23.3909 27.4085 23.3573 27.4067 23.3238C27.4152 23.1512 27.3699 22.9803 27.2771 22.8345C27.1967 22.6989 27.0945 22.5774 26.9746 22.4748C26.9129 22.4083 26.8786 22.3209 26.8786 22.2302C26.8786 22.1395 26.9129 22.0521 26.9746 21.9856H27.2194L27.0466 21.8129C27.1466 21.668 27.2063 21.4992 27.2194 21.3237H26.5714H26.4418H26.3554V21.4101H23.6334H23.403H22.3805H22.1933C21.8188 21.4101 21.43 21.4101 20.9259 21.3381L20.0762 22.1439C19.9322 22.259 19.9322 22.4317 19.8026 22.5612L19.5721 22.6907C19.4493 22.8316 19.3144 22.9616 19.1689 23.0791C18.4289 23.6574 17.7266 24.2822 17.0662 24.9497C16.6486 25.295 16.2741 25.7122 15.7845 26.1007C15.6425 26.1962 15.5077 26.302 15.3812 26.4173L15.2804 26.518L15.1364 26.6475L14.834 26.9496V28.518L15.41 28.2734C15.4621 28.2606 15.5164 28.2606 15.5685 28.2734L15.7413 28.2014C15.7933 28.1886 15.8477 28.1886 15.8997 28.2014C15.9851 28.2524 16.0772 28.2911 16.1733 28.3166C16.3287 28.3602 16.4932 28.3602 16.6486 28.3166C16.8018 28.2771 16.9512 28.2242 17.095 28.1583L17.2679 28.0719H17.3975H17.4983H17.5991H17.7287H17.8151H17.8871H17.9879C18.0551 28.1188 18.1276 28.1575 18.204 28.1871C18.3033 28.2115 18.4071 28.2115 18.5064 28.1871C18.5821 28.2054 18.6611 28.2054 18.7368 28.1871C18.8088 28.1409 18.8722 28.0824 18.9241 28.0144H19.0105C19.2597 28.1219 19.5343 28.1568 19.8026 28.1151C19.9919 28.0641 20.1843 28.0257 20.3786 28H20.6091C20.7333 28.0163 20.8592 28.0163 20.9835 28C21.1113 27.9957 21.2377 27.9714 21.358 27.928L21.5308 27.8561L21.6748 27.7842C21.7432 27.7354 21.8155 27.692 21.8908 27.6547H21.9628L22.2077 27.813L22.5101 27.9424H22.5965V28.0144C22.7097 28.0449 22.8289 28.0449 22.9421 28.0144L23.1438 27.928L23.3022 27.813C23.3765 27.7523 23.4399 27.6793 23.4894 27.5971C23.619 27.5971 23.4894 27.5971 23.619 27.5971C23.6567 27.577 23.6987 27.5664 23.7414 27.5664C23.7842 27.5664 23.8262 27.577 23.8638 27.5971C23.9694 27.6657 24.0865 27.7144 24.2095 27.741H24.2959C24.4243 27.7662 24.5564 27.7662 24.6847 27.741H24.8144C24.9383 27.7203 25.0648 27.7203 25.1888 27.741L25.5344 27.9137C25.6693 27.9699 25.8091 28.0133 25.9521 28.0432H26.3554H26.4562C26.4934 28.03 26.5341 28.03 26.5714 28.0432L26.7874 28.1439C27.087 28.1575 27.3808 28.2309 27.6515 28.3597C27.6515 28.3597 27.6515 28.3597 27.6515 28.2734" fill="#0471B8"/>
<path d="M8.19493 3.3381C8.2502 3.78243 8.2502 4.23189 8.19493 4.67622C8.10592 5.15171 8.10592 5.63957 8.19493 6.11507C8.25648 6.37834 8.3334 6.63779 8.42534 6.89206V7.46759L10.8448 9.88489C10.8448 9.88489 10.8448 10.0144 10.96 10.0863L11.5361 10.6618C11.8216 11.0395 12.1294 11.3999 12.4578 11.741V10.8345C12.4337 10.6459 12.4001 10.4586 12.357 10.2734V10.1295C12.3407 9.97161 12.3407 9.81252 12.357 9.65467C12.4456 9.27765 12.4843 8.89064 12.4722 8.50356C12.4722 8.0863 12.4722 7.66905 12.4722 7.3525C12.4722 7.03596 12.4722 6.4748 12.573 5.91365C12.6257 5.35854 12.6257 4.7997 12.573 4.24458V4.01436C12.573 3.78415 12.573 3.43883 12.573 3.3525C12.5517 2.95471 12.5517 2.55603 12.573 2.15823V1.59711C12.573 1.3525 12.573 1.12227 12.573 0.906443V0.0719299H12.4866C12.3086 0.142489 12.1257 0.200184 11.9393 0.244585H11.6657H11.4065H11.3057H11.0753C10.9068 0.189644 10.7252 0.189644 10.5568 0.244585L10.4128 0.345315H10.2255V0.273346H9.93751C9.86721 0.289579 9.80257 0.324372 9.75031 0.374076H9.66388H9.53427C9.40465 0.374076 9.53428 0.374095 9.40466 0.258987C9.28993 0.273902 9.17374 0.273902 9.05901 0.258987L8.91501 0.187019H8.82858C8.69459 0.183893 8.5632 0.224309 8.45415 0.302151C8.45415 0.417259 8.45415 0.532367 8.45415 0.661863L8.32454 1.36689V1.52518V1.64027C8.30079 1.71413 8.27192 1.78624 8.23813 1.85609C8.42535 2.18702 8.23812 2.58993 8.33893 2.96403" fill="#1AA456"/>
<path d="M1.7716 1.25182V1.33814H1.85801L1.78599 1.58272C1.78599 1.58272 1.78599 1.58274 1.78599 1.5108V1.58272L1.94441 1.68345C1.97237 1.69333 2.00289 1.69333 2.03084 1.68345L2.34766 1.95684C2.34766 1.95684 2.46288 1.95684 2.49168 1.95684H2.57809C2.59724 1.99321 2.62638 2.02335 2.6621 2.04374C2.69782 2.06413 2.73862 2.07391 2.77971 2.07193C2.77971 2.07193 2.77971 2.07192 2.77971 2.15825C2.87302 2.2215 2.95986 2.29383 3.03895 2.37412C3.03895 2.37412 3.03894 2.46043 3.13975 2.53237C3.34205 2.76687 3.48088 3.04923 3.543 3.35252C3.80223 3.35252 3.85985 3.62592 4.04707 3.72664C4.23429 3.82736 4.55113 4.0144 4.63754 4.21584C4.77689 4.46764 5.00159 4.66152 5.27122 4.76261H5.35763L5.28561 4.93527C5.37202 4.93527 5.28561 4.84891 5.37202 4.77697L5.78968 4.8921L6.02009 5.12232V4.96403H6.13531C6.29373 4.71942 6.49535 4.46045 6.25052 4.08635C6.21035 4.02697 6.16184 3.97365 6.1065 3.92805L6.02009 3.71224V3.07914V2.46044C6.02009 2.46044 6.02009 2.34531 6.02009 2.30215C6.02009 2.25898 6.02009 2.01441 6.02009 1.88491V1.41007C6.02009 1.41007 6.02009 1.32376 6.02009 1.29498V1.13668C6.02009 1.13668 6.02009 0.992822 6.02009 0.935268C6.02719 0.887569 6.02719 0.839074 6.02009 0.791375L5.71767 0.647481C5.45125 0.596555 5.17759 0.596555 4.91118 0.647481L4.70956 0.719406H4.59434C4.59434 0.719406 4.50792 0.719425 4.45031 0.604317C4.37379 0.481951 4.27035 0.378628 4.14787 0.302171H3.97506C3.89886 0.288419 3.82082 0.288419 3.74462 0.302171C3.62034 0.285891 3.49447 0.285891 3.37019 0.302171L3.24058 0.431663L3.01014 0.51799H2.92374C2.88097 0.572139 2.82691 0.616324 2.76532 0.647481C2.62492 0.454631 2.46036 0.280573 2.27567 0.129517L2.20365 0.388499L2.10283 0.302171V0.41726H1.91562H1.65638L1.02271 0.532393L1.48357 0.949627L1.8148 1.25182" fill="#1AA456"/>
</svg>
