<svg width="33" height="5" viewBox="0 0 33 5" fill="none" xmlns="http://www.w3.org/2000/svg">
<path d="M7.65286 2.28518L6.82956 0.694275H5.8949L7.19944 3.21984L7.18354 3.25564C7.15172 3.32325 7.11991 3.367 7.08411 3.39087C7.04831 3.41473 6.99263 3.42666 6.91706 3.42666H6.42785V4.24996H6.97275C7.2432 4.24996 7.44604 4.1903 7.58127 4.067C7.70854 3.95564 7.85172 3.73689 8.02274 3.40677L9.40684 0.694275H8.48012L7.65683 2.28518H7.65286Z" fill="#2A2A29"/>
<path d="M13.9688 0.698242H12.2108V4.25392H13.1017V2.97722H13.9688C14.3745 2.97722 14.6926 2.86983 14.9114 2.65506C15.1301 2.44029 15.2375 2.16188 15.2375 1.83574C15.2375 1.50961 15.1262 1.23915 14.9114 1.0204C14.6926 0.805628 14.3784 0.698242 13.9688 0.698242ZM14.3466 1.83574C14.3466 1.93517 14.3148 2.00677 14.2432 2.06245C14.1676 2.12211 14.0602 2.15392 13.925 2.15392H13.1057V1.51756H13.925C14.0642 1.51756 14.1756 1.54938 14.2472 1.60904C14.3148 1.66472 14.3466 1.73631 14.3466 1.83574Z" fill="#2A2A29"/>
<path d="M19.4177 0.630646C18.8847 0.630646 18.4392 0.809623 18.0932 1.1636C17.7472 1.51758 17.5762 1.95906 17.5762 2.47212C17.5762 2.98519 17.7512 3.42667 18.0932 3.78065C18.4392 4.13462 18.8847 4.31758 19.4177 4.31758C19.9506 4.31758 20.4 4.1386 20.7421 3.78065C21.0841 3.42667 21.2591 2.98519 21.2591 2.47212C21.2591 1.95906 21.0841 1.5136 20.7421 1.1636C20.3961 0.809623 19.9506 0.630646 19.4177 0.630646ZM20.3682 2.47212C20.3682 2.76246 20.2807 2.99712 20.0938 3.19996C19.9108 3.39883 19.6921 3.49428 19.4177 3.49428C19.1432 3.49428 18.9205 3.39883 18.7415 3.19996C18.5586 3.0011 18.4671 2.76246 18.4671 2.47212C18.4671 2.18178 18.5546 1.94315 18.7415 1.74428C18.9245 1.5494 19.1432 1.45394 19.4177 1.45394C19.6921 1.45394 19.9148 1.5494 20.0978 1.74428C20.2807 1.94315 20.3722 2.18178 20.3722 2.47212H20.3682Z" fill="#2A2A29"/>
<path d="M25.5624 0.698253H23.8044V4.25393H24.6954V2.97723H25.5624C25.9681 2.97723 26.2863 2.86984 26.501 2.65507C26.7198 2.4403 26.8272 2.16587 26.8272 1.83575C26.8272 1.50564 26.7158 1.23518 26.501 1.02041C26.2863 0.805638 25.9681 0.694275 25.5624 0.694275V0.698253ZM25.9402 1.83575C25.9402 1.93519 25.9084 2.00678 25.8368 2.06643C25.7613 2.12609 25.6539 2.15791 25.5186 2.15791H24.6993V1.52155H25.5186C25.6618 1.52155 25.7692 1.55337 25.8408 1.61303C25.9084 1.66871 25.9402 1.7403 25.9402 1.83973V1.83575Z" fill="#2A2A29"/>
<path d="M29.6353 0.698242V1.51756H30.721V4.25392H31.6159V1.51756H32.6938V0.698242H29.6353Z" fill="#2A2A29"/>
<path d="M2.42655 2.44824L3.56802 0.698242H2.54189L1.63507 2.1062H1.11405V0.698242H0.250977V4.25392H1.11405V2.84597H1.63507L1.65098 2.86585L2.54189 4.25392H3.56802L2.41065 2.47608L2.42655 2.44824Z" fill="#2A2A29"/>
</svg>
