<svg width="244" height="247" viewBox="0 0 244 247" fill="none" xmlns="http://www.w3.org/2000/svg">
<path d="M2.01582 34.2285C3.17018 35.6321 3.94351 36.6561 3.80499 38.6925C3.80499 39.7165 3.49337 40.9936 3.43566 42.3512C3.35485 42.4088 3.63194 42.5928 3.77047 42.7309L4.26676 43.1796C4.426 43.3033 4.5729 43.442 4.70542 43.5938V43.6973L4.39372 44.2726C4.17195 44.7011 3.99782 45.1525 3.87432 45.6187C3.40574 47.1057 3.21021 48.6647 3.29714 50.2209C3.33776 50.9267 3.41865 51.6297 3.53951 52.3263C3.6434 52.9936 3.77034 53.5459 3.93195 54.3282C3.71262 54.6389 3.86272 54.8575 3.81654 55.1336V57.4347C3.81654 58.4586 3.74734 59.172 3.7358 59.7357C3.71823 59.9578 3.71823 60.181 3.7358 60.403C3.57419 60.5986 3.38943 60.7827 3.23936 60.9783C3.48178 61.1854 3.64347 61.427 3.89743 61.312C3.8919 61.3617 3.8919 61.4118 3.89743 61.4615C3.89743 61.5536 3.8974 61.6686 4.01284 61.7377C4.15878 61.8171 4.32026 61.8642 4.48616 61.8757C5.04041 61.9028 5.59039 61.7668 6.06763 61.4845C6.47166 61.6916 5.99834 61.8297 6.18304 62.0138C7.14355 61.9392 8.10842 61.9392 9.06894 62.0138C9.51107 62.285 10.0295 62.4061 10.5466 62.3589L10.6273 62.1634C11.3157 62.2576 11.998 62.3921 12.6705 62.566C13.6945 62.8071 14.695 63.1383 15.6603 63.5555C16.3858 63.8921 17.0522 64.3427 17.6342 64.8901C19.0425 63.3024 20.7972 64.6025 22.4133 64.0502C24.3295 63.7166 26.6152 62.7846 28.1159 63.4635C29.1528 63.8242 30.2527 63.9705 31.3483 63.8933C32.4439 63.8162 33.5122 63.5172 34.488 63.0148H34.6841L35.0767 64.3149C35.5731 63.636 34.9727 63.5325 34.8226 62.8997C35.9757 62.2773 37.0898 61.5857 38.1587 60.8288H40.6522L39.6826 59.8738C39.9959 59.6835 40.3196 59.5106 40.6522 59.3561C40.2597 56.8709 39.9018 53.9831 36.5311 53.2237C36.0136 53.1279 35.4871 53.0893 34.9611 53.1087C34.1798 52.7042 33.3785 52.3394 32.5601 52.0157C32.4216 52.1192 32.2484 52.1998 32.0868 52.3033L30.0667 50.2899C30.0302 50.0921 30.0302 49.8894 30.0667 49.6916L29.7781 49.9447L26.8345 47.0109C25.3579 44.7223 23.6311 42.6039 21.686 40.6945C21.3051 40.3263 20.6703 40.5334 20.2085 40.4068L19.8275 40.0272L19.562 39.1182C19.1003 38.658 18.3038 38.1173 18.1653 37.7261C17.3499 36.054 16.1661 34.587 14.7022 33.4346C13.2562 32.1923 11.8766 30.8751 10.5695 29.4883C9.78599 28.6286 8.95766 27.8105 8.08776 27.0377L6.76022 25.7721L6.02141 25.0473L5.64052 24.6446C5.57126 24.6446 5.50195 24.472 5.44423 24.4605L5.2826 24.5755C3.64341 25.3234 1.94645 28.5909 1.18457 31.076C1.22972 31.5911 1.31081 32.1024 1.42708 32.6062C1.42708 33.8258 1.56557 33.8373 1.81952 34.2055" fill="white" fill-opacity="0.15"/>
<path d="M237.355 39.7494V39.6919C237.712 39.2202 238.059 38.737 238.416 38.2768L238.786 37.8166C239.028 37.5059 239.259 37.2183 239.455 36.9422C239.906 36.3949 240.219 35.7479 240.367 35.0553C240.737 32.7542 239.709 30.4532 238.717 28.5548C238.37 28.014 237.724 28.7044 237.378 28.1751L237.228 27.5193C237.158 27.3697 237.089 27.5193 237.02 27.4388L236.777 27.6689V27.5999L235.715 28.6698C234.457 28.6698 230.809 32.6852 228.674 33.8702C227.15 34.6641 225.592 36.3209 223.468 37.2528C221.482 37.7475 218.677 40.7044 216.368 43.0055L215.953 44.2825C215.283 45.226 213.425 46.3535 213.344 46.7562C212.357 48.4267 211.197 49.9887 209.881 51.4158C208.726 52.808 207.572 54.0851 206.776 55.1781C205.079 57.3641 203.105 59.458 201.338 61.4254L201.165 61.598C201.165 61.6671 201.015 61.7361 201.165 61.7246H201.719H202.874C203.624 61.7246 204.398 61.7246 205.182 61.7246H205.494L205.286 62.0007C205.854 61.9536 206.415 61.8456 206.96 61.6785H207.803C208.533 61.8725 209.308 61.7948 209.985 61.4599C210.331 61.6325 209.834 61.7361 209.985 61.8972C210.922 61.8342 211.863 61.8342 212.801 61.8972C212.94 62.0582 213.263 62.1733 214.094 62.2078L214.244 62.0467C214.856 62.1355 215.461 62.2623 216.056 62.4264C217.683 62.8405 219.18 63.6555 220.408 64.7965C222.498 63.3583 224.183 64.6699 226.18 64.1522C228.489 63.8416 230.648 62.8981 232.16 63.5769C233.194 63.9344 234.289 64.079 235.381 64.0019C236.472 63.9247 237.536 63.6275 238.509 63.1282H238.705L238.948 62.9211L241.718 61.4945L241.291 60.8962L241.372 60.8272L241.002 60.505C240.274 59.4988 239.357 58.6431 238.301 57.9854L237.978 57.7668C237.623 57.0179 237.487 56.1845 237.585 55.3622C237.585 55.1781 237.585 54.9595 237.678 54.7409L238.971 53.1646C238.682 53.0151 238.347 52.877 238.036 52.7389C238.637 50.2793 238.251 47.6831 236.962 45.5021C236.538 44.9074 236.275 44.2139 236.198 43.4884C236.121 42.763 236.233 42.03 236.523 41.3602C236.743 40.9575 237.031 40.4858 237.458 39.83L236.87 40.6123L237.008 40.3707C237.147 40.1751 237.285 40.0026 237.424 39.7955" fill="white" fill-opacity="0.15"/>
<path d="M1.26473 93.3769L1.35703 93.6991C1.43748 93.9872 1.47263 94.2861 1.46102 94.585C1.53203 94.6024 1.60144 94.6255 1.66873 94.654L1.79569 94.7116C1.70334 96.679 1.54179 100.384 1.56487 99.7164L1.68028 99.8314L1.9111 100.05L5.45506 103.594L8.73341 106.044C11.5962 108.667 15.4518 113.465 16.5369 114.282C21.9393 119.045 26.9261 123.981 31.6705 128.71L38.8737 135.912C41.8404 138.846 44.7379 141.665 47.4276 144.161L58.4402 154.827L58.3133 136.706L58.2324 127.927L58.1285 120.691L57.9553 114.006L57.7706 110.232C57.9309 110.069 58.1005 109.916 58.2786 109.772C58.1289 108.52 57.8819 107.281 57.5398 106.067C57.4782 105.239 57.4205 104.399 57.3666 103.548C57.5892 101.271 57.4095 98.9739 56.8357 96.7595C57.0665 95.4249 57.2627 97.0356 57.482 96.5294L57.4128 95.4709C58.9828 96.817 60.8759 98.5773 62.7229 100.487C63.7884 101.894 64.9699 103.211 66.2551 104.422V104.169C69.3373 107.459 72.2579 110.819 74.1395 113.304L73.3429 119.057C73.0543 121.059 72.7312 122.819 72.3964 124.223C73.9894 129.975 72.6734 137.063 73.2391 143.644L73.9085 155.839C74.0009 157.864 74.0702 159.843 74.0702 161.695C74.0702 162.616 74.0702 163.513 74.0702 164.365L73.9894 165.676L73.8856 167.206L73.7008 170.451C74.8552 171.694 76.0096 172.925 77.1639 174.133C78.0412 175.065 78.8724 175.939 79.7381 176.802C81.4235 178.489 83.0973 180.085 84.7596 181.588C87.0683 183.705 89.377 185.626 91.6857 187.421L92.2398 187.974C92.5284 188.158 92.7824 188.307 93.0479 188.491L94.4678 189.584C97.7923 192.104 101.025 194.382 104.153 196.626L104.892 197.362V197.523C104.892 197.523 104.949 197.454 104.984 197.431L111.333 203.759V201.975C111.679 202.24 112.037 202.493 112.383 202.769C112.787 200.94 113.33 199.019 111.333 195.256V144.368C111.425 143.292 111.611 142.226 111.887 141.181L111.333 140.974V131.068L108.389 128.134C107.547 127.11 106.612 126.017 105.642 124.913C103.599 122.612 101.313 120.092 98.912 117.561L84.1939 102.317C82.4162 100.51 80.5115 100.015 78.7338 98.2437L76.6675 95.2523C74.8782 93.446 72.05 90.8112 71.3112 89.8103C70.3416 88.4181 69.1295 86.8995 67.7443 85.2887C67.0171 84.4603 66.3475 83.7125 65.4356 82.769L62.5035 79.6741L54.8155 79.5821H53.8689L48.8243 74.7844C48.8243 76.3951 48.8936 77.9828 48.9397 79.5591H47.7854C43.1679 79.5591 38.8045 79.5015 35.1567 79.2599C31.509 79.0183 27.6072 78.9838 23.6131 78.9148L17.5412 78.7652L10.0147 78.4085L7.4983 78.2245C6.52864 78.6617 5.52436 79.2024 4.48544 79.8007L3.70041 80.2724L3.29642 80.514L3.10012 80.6291C3.10012 80.6291 3.10012 80.7096 3.10012 80.7556C3.28124 81.2377 3.37504 81.748 3.37716 82.2628C3.40881 83.0305 3.38574 83.7995 3.30797 84.5639C3.30797 84.817 3.22719 85.0931 3.19256 85.3692H3.13479C3.13479 85.3692 2.70771 85.6914 2.45375 85.933C2.04925 86.3254 1.69976 86.7705 1.4148 87.2561C0.915188 88.1415 0.626866 89.1296 0.572142 90.1439C0.533195 91.0037 0.642414 91.8637 0.895256 92.6866L1.26473 93.3769Z" fill="white" fill-opacity="0.15"/>
<path d="M153.953 108.39C152.129 110.174 151.644 112.072 149.832 113.867L146.83 115.926C145.006 117.71 142.351 120.528 141.347 121.288C139.595 122.527 137.915 123.864 136.314 125.292C135.414 126.059 134.49 126.887 133.544 127.777L130.08 131.067L130 145.058C130 149.384 129.919 153.503 129.7 156.954C129.215 164.433 129.55 172.233 128.845 180.908L128.707 182.059L128.603 183.739L128.441 187.42C128.361 189.997 128.326 192.793 128.303 195.681V213.629L133.751 208.222L137.942 203.229C139.812 201.25 142.155 199.098 144.291 197.142C146.426 195.186 148.343 193.449 148.908 192.724L151.898 189.457L154.472 186.707C156.204 184.889 157.931 183.113 159.655 181.38L170.587 170.496V163.742C170.587 161.947 170.518 160.199 170.437 158.496C170.241 150.58 170.183 142.722 170.114 135.002L169.998 123.497L169.906 117.848L169.767 113.177L172.653 110.024L173.473 109.898C174.224 108.957 174.885 107.947 175.447 106.883C175.978 106.285 176.532 105.641 177.074 105.008C178.838 103.598 180.319 101.869 181.438 99.9109C182.662 99.0135 181.727 100.233 182.338 99.9109C183.781 98.2657 185.34 96.5859 186.956 94.9866C186.956 95.7345 186.956 96.5284 186.956 97.2877C186.713 99.0756 186.613 100.88 186.656 102.684L186.852 102.442C186.748 105.836 186.529 109.242 186.252 112.061L185.836 116.041C185.686 117.503 185.513 118.883 185.351 120.183C185.19 121.483 184.993 122.691 184.797 123.796L184.509 125.361L184.439 125.717L184.359 126.212L184.208 127.19C184.922 131.392 185.193 135.657 185.016 139.915C185.016 144.517 184.774 149.614 185.016 153.537L185.132 156.206L195.867 144.551C198.7 141.422 201.71 138.456 204.883 135.669L208.346 132.632C209.339 131.746 210.285 130.849 211.221 129.963C213.056 128.179 214.776 126.431 216.38 124.693C218.932 121.932 221.194 119.24 223.307 116.64L223.872 116.053C224.057 115.777 224.207 115.524 224.38 115.259C224.553 114.994 224.75 114.799 224.923 114.557C227.335 111.416 229.54 108.356 231.641 105.353L239.883 97.1266C239.792 96.9497 239.675 96.787 239.537 96.6434C238.14 95.2513 238.752 93.4449 239.329 91.8457C239.642 91.2545 239.735 90.5721 239.591 89.9194C239.447 89.2666 239.076 88.6855 238.544 88.2791C237.563 87.7153 238.752 82.5264 239.698 81.583C239.698 81.583 239.698 81.5139 239.698 81.4909H196.399L195.671 81.4104C195.671 78.9368 195.602 76.4746 195.567 74.07C193.166 76.5437 190.8 79.0173 188.433 81.4909H182.477L179.903 84.0681C178.748 85.0116 177.513 86.0585 176.278 87.14C173.969 89.188 171.487 91.443 168.983 93.8131L153.953 108.39Z" fill="white" fill-opacity="0.15"/>
<path d="M185.304 24.7134C185.639 26.9569 186.574 29.6377 185.893 31.398C185.167 33.8643 185.33 36.5062 186.355 38.8649V39.095C186.424 39.1986 186.494 39.2791 186.563 39.3712L186.794 39.8774L185.362 40.3951C186.032 40.8438 186.216 40.2456 186.851 40.027C187.405 41.1775 188.006 42.236 188.641 43.283V46.1938L189.656 45.1813C189.83 45.515 189.98 45.8602 190.118 46.1938C192.612 45.7451 195.509 45.3194 196.271 41.3616C196.367 40.7606 196.406 40.152 196.386 39.5437C196.629 38.98 196.871 38.3932 197.114 37.7604L200.819 34.0672C201.141 33.9028 201.496 33.8124 201.858 33.8026L201.512 33.3769L204.398 30.5006C205.253 30.0631 206.068 29.551 206.833 28.9704C207.791 28.257 208.749 27.4402 209.696 26.6693L212.605 24.0691C213.24 23.4823 212.697 22.5964 213.228 22.0902L214.66 21.584C215.272 21.0202 215.941 20.1228 216.472 19.8927C218.727 18.7669 220.766 17.256 222.498 15.4286C224.291 13.5738 226.195 11.8294 228.2 10.2052C229.666 9.05469 230.763 8.05372 231.964 6.94921C233.433 5.58382 234.975 4.29723 236.581 3.09493C237.285 2.6002 237.943 2.09398 238.555 1.61075L238.994 1.23108C239.155 1.10452 239.317 0.977953 239.282 0.954942C239.315 0.865524 239.338 0.772984 239.352 0.678809C239.352 0.35666 239.144 0.184085 238.89 0C237.481 0.39118 236.05 0.793869 234.549 1.0815C233.395 1.54171 232.125 1.99043 230.856 2.43914C228.547 3.03741 225.869 2.37011 224.772 2.72677C222.256 3.2215 220.42 3.4631 218.815 3.72773C217.211 3.99235 215.676 4.49858 214.833 4.49858C213.937 4.66142 213.056 4.90005 212.201 5.2119C211.243 5.45351 209.892 5.55706 208.565 5.72964H208.149H207.942C207.884 5.72964 207.838 5.86772 207.768 5.92524C207.491 6.37395 207.48 6.13234 207.364 6.15535C207.134 6.08196 206.91 5.9896 206.695 5.87921C206.151 5.57832 205.633 5.23193 205.148 4.84374C204.478 4.30564 203.772 3.81361 203.035 3.37106C202.662 3.20012 202.276 3.0578 201.881 2.94536C201.584 2.87229 201.284 2.81469 200.981 2.77278C200.443 2.72039 199.902 2.72039 199.365 2.77278C197.647 3.01156 196.006 3.63289 194.562 4.59062C193.949 4.98645 193.37 5.43289 192.831 5.92524L192.288 5.68362L192.092 5.99427C192.092 5.99427 192.023 6.15534 192 6.22437L191.873 6.46599C191.873 6.55804 191.78 6.46599 191.7 6.37395L191.48 6.21288C191.307 6.07481 191.249 6.0633 191.226 6.09782C191.042 5.94825 190.845 5.74115 190.753 5.81018L189.957 5.86771C189.942 5.92311 189.923 5.97705 189.899 6.02879C188.998 6.58104 188.606 7.07576 188.941 7.67404C188.167 7.31737 188.26 7.17931 187.786 6.90318C187.637 6.89667 187.489 6.86958 187.348 6.82266C187.278 6.82266 187.151 6.7076 187.128 6.82266V7.34039C187.128 7.85813 187.128 8.36435 187.128 8.85908C186.955 9.07768 186.817 9.51489 186.84 10.6079L187.036 10.723C186.955 11.5513 186.851 12.3682 186.701 13.1851C186.574 13.8294 186.436 14.4737 186.274 15.1065L186.009 16.0614C185.931 16.3121 185.838 16.558 185.732 16.7978C185.398 17.6248 184.947 18.3997 184.393 19.0988C185.986 20.7441 184.681 22.815 185.235 24.7019" fill="white" fill-opacity="0.15"/>
<path d="M128.753 64.4289C129.087 68.4212 130.034 73.1729 129.353 76.3024C128.623 80.7105 128.776 85.219 129.803 89.568C129.803 89.706 129.803 89.8441 129.803 89.9822L129.999 90.4539C130.38 92.0071 130.83 93.4798 131.292 94.9295L129.791 95.7924C130.357 96.08 130.773 95.6428 131.361 95.1596C131.604 95.9189 131.846 96.6668 132.077 97.4606V102.638L133.231 101.487C133.324 101.879 133.428 102.27 133.52 102.638C135.829 101.867 138.588 101.154 139.511 95.1711L153.652 81.0656C154.126 80.7355 154.648 80.4794 155.199 80.3062L154.876 79.8345L160.013 74.7261C160.474 74.4155 160.948 74.0818 161.421 73.7252C162.575 72.8738 163.73 71.9188 164.884 70.8834C166.038 69.8479 167.424 68.5823 168.728 67.4318L168.971 59.8958C168.971 58.5957 167.978 57.7328 168.001 56.4442L168.659 54.6149C168.584 53.3146 168.611 52.0106 168.74 50.7146C170.483 45.8363 169.432 36.4825 170.159 30.7529C170.644 26.9331 170.309 22.9408 171.014 18.5227C171.304 17.2617 171.459 15.9736 171.475 14.68C171.556 12.9312 171.568 11.0098 171.568 9.05387L169.94 6.22356L169.144 4.7854L169.04 4.61283C168.994 4.60162 168.947 4.60162 168.901 4.61283C168.798 4.62471 168.693 4.62471 168.59 4.61283C168.351 4.63577 168.112 4.63577 167.874 4.61283C167.558 4.6027 167.246 4.54049 166.95 4.42874C166.835 4.29067 166.835 4.01454 166.627 3.99153L166.038 3.86497L164.792 3.56584C164.132 3.32319 163.513 2.98178 162.956 2.55337C162.422 2.05013 161.737 1.73498 161.005 1.65595C159.996 1.505 158.963 1.64056 158.027 2.04713C156.941 2.58432 155.902 3.21166 154.922 3.9225C154.658 4.06412 154.41 4.23386 154.183 4.42874L154.091 4.52078C153.99 4.55413 153.88 4.55413 153.779 4.52078C152.999 4.35913 152.228 4.15558 151.47 3.911L150.812 3.73841L150.535 3.64637L149.473 3.18616C147.707 2.31372 145.82 1.70879 143.875 1.39134C141.834 1.08736 139.75 1.4464 137.93 2.41531L137.803 2.48434L137.422 2.65691C137.422 2.74895 137.041 2.49584 136.983 2.55337H136.568C136.013 2.55337 135.413 2.46133 134.824 2.38079C133.556 2.18999 132.299 1.92491 131.061 1.58692C130.276 2.73746 128.995 1.73648 129.399 4.12959L129.468 9.03086L129.538 13.8171L129.63 17.6138C129.722 19.9149 129.838 22.1469 130.022 24.3559L129.514 24.8391C129.78 25.7826 129.965 26.6915 130.276 26.8986C130.276 27.3933 130.369 27.8881 130.426 28.3598C130.142 29.5352 130.332 30.775 130.957 31.8114C130.727 32.8814 130.53 32.191 130.311 32.8008C130.508 34.5117 130.596 36.2332 130.576 37.9552C130.301 38.9152 130.199 39.9165 130.276 40.912H130.484C130.161 46.354 129.099 51.7155 127.829 54.4768C129.422 57.3992 128.106 61.0578 128.66 64.4174" fill="white" fill-opacity="0.15"/>
<path d="M42.9473 164.411H43.5014C43.5014 164.342 43.2705 164.123 43.1782 163.985L41.5737 162.156L38.3992 158.509C37.2449 157.232 36.0905 155.955 34.7283 154.77L35.0631 154.528C34.6119 154.188 34.1037 153.931 33.5624 153.769L32.8814 153.216C32.7074 152.868 32.4499 152.569 32.1317 152.344C31.8135 152.119 31.4444 151.976 31.0574 151.928C30.8842 151.445 31.323 151.663 31.3114 151.353C30.5169 150.754 29.7753 150.088 29.095 149.362C29.095 149.074 28.8988 148.706 28.2639 148.085L28.0676 148.154C27.6495 147.606 27.264 147.033 26.9133 146.44C25.8341 144.79 25.1036 142.938 24.7662 140.998C22.5613 140.998 22.1573 138.812 20.5412 137.972C18.8674 136.821 16.4663 135.671 15.8083 134.083C14.7288 131.984 12.8818 130.377 10.6484 129.596L10.5099 129.458H10.2328C9.93269 129.354 9.63252 129.251 9.33239 129.17C9.33239 129.17 9.44783 129.17 9.48246 129.113C9.51709 129.055 9.56319 129.032 9.55165 129.009H9.70172L9.20542 129.147H9.12454C8.13179 128.871 7.13911 128.653 6.16945 128.422L4.28784 126.559C4.06851 126.961 3.88381 127.375 3.71066 127.767L3.23733 127.606C1.77129 129.654 -0.00634682 131.966 2.01378 135.038C2.35294 135.499 2.73986 135.923 3.16814 136.304C3.45673 137.132 3.80294 137.995 4.21851 138.892C4.0956 139.32 3.94535 139.738 3.76843 140.146C3.57585 140.567 3.42879 141.006 3.32977 141.458C3.13407 141.748 2.89671 142.008 2.62549 142.229L3.1797 142.344C3.08066 143.587 3.22573 144.838 3.60681 146.026C3.54745 146.91 3.64514 147.798 3.8954 148.649C4.03392 149.178 4.20696 149.707 4.35703 150.225C4.50355 150.742 4.61543 151.269 4.69184 151.801L5.10739 153.47C5.04269 153.503 4.981 153.541 4.92279 153.585V154.459C4.94606 154.796 4.94606 155.134 4.92279 155.471C4.92279 156.3 6.07709 156.024 5.71923 156.622C5.36138 157.22 4.89964 157.496 4.56487 157.911C4.23011 158.325 3.94146 159.234 3.64133 159.682C3.05106 160.495 2.7175 161.464 2.68326 162.467C2.68543 162.96 2.81669 163.443 3.06415 163.87C3.20267 164.066 3.37593 164.319 3.60681 164.388H4.3225C6.15101 164.41 7.97408 164.591 9.77105 164.929C11.7104 165.481 14.0883 165.297 16.6279 166.079C18.7981 167.069 22.8269 166.62 26.1284 166.494L27.2134 165.872C28.3678 165.654 30.5956 166.079 30.9189 165.872C32.837 165.369 34.8022 165.065 36.7831 164.963C38.6993 164.814 40.5232 164.699 41.9084 164.48L42.9473 164.411Z" fill="white" fill-opacity="0.15"/>
<path d="M241.231 131.043C241.474 130.534 241.638 129.991 241.716 129.432C241.745 128.857 241.675 128.281 241.508 127.73C241.289 127.097 240.562 127.73 240.354 127.097C240.344 126.659 240.286 126.223 240.181 125.797C239.729 126.269 239.243 126.707 238.726 127.108C237.386 127.632 236.162 128.414 235.125 129.409C233.759 130.672 232.297 131.827 230.75 132.861C228.972 133.827 227.367 135.657 225.14 136.807C223.893 137.368 222.771 138.169 221.838 139.166C220.684 140.236 219.529 141.548 218.652 142.387L218.317 143.538C217.935 143.998 217.474 144.388 216.955 144.688C216.46 144.998 216.019 145.387 215.651 145.839C214.232 147.781 212.636 149.587 210.883 151.235C209.325 152.671 207.863 154.209 206.508 155.837C203.622 159.289 200.009 162.74 197.585 165.559C198.739 165.479 199.894 165.364 201.14 165.225L200.309 165.743C201.273 165.556 202.223 165.298 203.149 164.972L204.373 164.788C204.777 165.018 205.746 164.903 207.42 164.236C207.616 164.466 206.878 164.673 206.866 164.892C208.011 164.706 209.169 164.609 210.329 164.604C210.329 164.788 210.676 164.915 211.68 164.88L211.957 164.685C212.618 164.743 213.274 164.85 213.919 165.007C215.647 165.4 217.259 166.187 218.629 167.308C219.779 166.659 221.097 166.367 222.415 166.468C223.607 166.629 224.814 166.629 226.005 166.468C228.06 166.111 230.473 165.156 232.089 165.812C234.333 166.525 236.767 166.34 238.876 165.294H239.107L239.292 165.145H239.35L240.643 164.512L240.504 164.742C240.504 164.742 240.504 164.742 240.423 164.834C240.423 164.834 240.423 164.834 240.423 164.903L240.504 164.8L240.816 164.478H240.723L240.862 164.282L241.601 163.293L241.185 163.638C241.381 163.036 241.381 162.387 241.185 161.785C240.954 161.118 240.557 160.52 240.031 160.048L239.927 159.956C239.635 159.268 239.272 158.612 238.842 158L239.119 155.342V155.239C238.634 155.02 238.091 154.813 237.549 154.606C237.778 153.482 238.07 152.372 238.426 151.281C238.773 149.601 241.151 146.184 240.816 142.56C240.918 142.166 241.053 141.781 241.22 141.409L240.677 141.755C240.582 141.283 240.435 140.824 240.239 140.385C239.913 139.678 239.68 138.932 239.546 138.165C239.696 137.014 239.823 135.944 240.031 134.851C240.29 133.644 240.677 132.468 241.185 131.342" fill="white" fill-opacity="0.15"/>
<path d="M113.977 234.042C113.051 233.573 112.085 233.188 111.091 232.892L84.5403 206.429C84.1105 205.875 83.7608 205.263 83.5014 204.612L83.005 204.911L76.656 198.583C75.6863 197.271 74.5667 195.868 73.3084 194.429C71.7385 192.612 69.9838 190.725 68.1946 188.815L62.5035 182.867H60.4489C59.6223 182.874 58.8042 183.034 58.0361 183.338C57.3611 183.644 56.6304 183.808 55.8891 183.821L53.5803 183.166C51.9566 183.252 50.3289 183.225 48.709 183.085C42.637 181.359 31.0011 182.406 23.8671 181.67C22.7128 181.555 21.4776 181.486 20.254 181.44L18.407 181.382C17.7606 181.382 17.2527 181.382 16.3869 181.382C13.2355 181.382 9.99178 181.382 6.18239 181.221C5.33971 181.152 4.45079 181.106 3.51576 181.072H2.07281C1.63415 181.072 0.918509 180.876 1.12629 181.532C1.24289 183.333 1.60396 185.109 2.19977 186.813L3.11176 189.781L3.35413 190.713L3.46968 191.196V191.323C3.46968 191.323 3.5966 191.323 3.70049 191.415L4.0353 191.53C3.9545 191.53 3.88524 191.53 4.0353 191.53C3.96604 191.657 3.88517 191.749 3.53887 192.22C3.19256 192.692 2.88093 193.187 2.5808 193.682C1.99894 194.662 1.50077 195.69 1.09163 196.753C0.8672 197.89 0.80498 199.052 0.906892 200.205C0.864398 201.095 0.950025 201.986 1.16096 202.851C1.45244 203.741 1.86819 204.585 2.39606 205.359C2.88089 206.096 3.4811 206.89 3.78124 207.373C3.88645 207.599 4.0183 207.811 4.17382 208.006C4.42814 208.27 4.61081 208.595 4.70478 208.949C4.70633 209.133 4.65417 209.312 4.55471 209.467L4.0353 210.41C3.85061 210.778 3.70049 211.124 3.55042 211.561C2.71911 214.168 2.60743 216.95 3.22717 219.614L3.45812 221.064C3.46805 221.248 3.46805 221.432 3.45812 221.616C3.46803 221.674 3.46803 221.732 3.45812 221.789C3.45216 221.815 3.45216 221.843 3.45812 221.87C3.40529 222.096 3.3278 222.316 3.22717 222.525C3.04247 222.974 2.78862 223.595 2.61546 224.182C2.4361 224.763 2.29331 225.355 2.18821 225.954L1.93429 227.438C1.71955 228.641 1.64216 229.865 1.70347 231.085C1.73597 232.293 2.0564 233.477 2.63843 234.537C2.70699 234.665 2.78421 234.788 2.86939 234.905L2.9848 235.089C2.81164 235.181 3.40039 234.905 2.5808 235.296V235.388V235.492C2.65006 235.802 2.70781 236.136 2.75398 236.47C2.8339 237.122 2.87243 237.78 2.86939 238.437C2.86939 239.507 2.86939 240.174 2.86939 240.865L2.95013 241.831C2.95013 241.9 2.9502 242.015 3.01946 242.038L3.33116 242.119C3.54405 242.173 3.75981 242.216 3.97753 242.245C5.70907 242.51 7.87921 241.981 10.2687 241.728C10.8575 241.67 11.4231 241.601 12.0349 241.567C12.2609 241.535 12.4902 241.535 12.7161 241.567C12.8949 241.58 13.0724 241.607 13.2471 241.647L13.9165 241.785C14.1821 241.785 14.4476 241.889 14.7362 241.923C15.2852 242.019 15.8411 242.069 16.3985 242.073C17.5039 242.109 18.6068 241.946 19.6537 241.59C20.612 241.234 21.5356 240.791 22.4126 240.267C23.3361 239.795 24.1211 239.197 24.479 239.024L24.7213 238.909C24.8859 238.896 25.0505 238.932 25.1947 239.012C25.3308 239.062 25.4622 239.123 25.5871 239.197C25.5871 239.415 25.5872 239.634 25.6795 239.875C26.5375 240.406 27.5119 240.722 28.5192 240.796C28.9414 240.983 29.373 241.148 29.8121 241.29L30.4124 241.463C30.9546 241.747 31.5333 241.956 32.1324 242.084C32.73 242.243 33.3574 242.255 33.9606 242.118C34.5638 241.982 35.1249 241.702 35.5955 241.302C36.5189 240.98 36.6113 240.957 36.7498 241.037C36.8883 241.118 36.8999 241.187 37.3039 241.037C38.0928 240.225 38.9501 239.483 39.8665 238.817C40.432 238.414 41.1004 238.178 41.7944 238.138L42.1984 238.311C42.4321 238.412 42.6595 238.527 42.8794 238.656C43.3755 238.991 43.8922 239.294 44.4263 239.565L44.5764 239.392C44.949 239.591 45.3347 239.764 45.7308 239.91C47.1365 240.399 48.6169 240.641 50.1057 240.623C51.4909 240.623 52.8415 240.485 53.8689 240.485C54.0857 240.484 54.3022 240.504 54.5154 240.543C54.9079 240.543 54.8272 240.612 54.9888 240.669C55.1504 240.727 55.2658 240.899 55.6814 241.164C56.6491 241.797 57.6731 242.34 58.7404 242.786C59.6639 243.2 60.2873 243.557 61.0492 243.937C62.2035 243.707 63.3578 243.684 64.9047 243.453C65.7725 243.333 66.6193 243.093 67.4211 242.74C67.8546 242.551 68.2684 242.32 68.6563 242.05L68.9449 241.843L69.0488 241.774L68.9449 241.854L69.2797 241.636C69.8685 241.336 70.7573 241.371 72.4542 241.636C72.9275 241.751 73.4585 241.9 74.0241 242.084C74.5898 242.268 75.5825 242.66 76.3329 242.901C77.1307 243.169 77.955 243.35 78.7917 243.442C79.5946 243.569 80.4164 243.397 81.1004 242.959C81.7353 242.568 82.6471 242.188 83.1781 241.808C83.6908 241.516 84.2324 241.277 84.7943 241.095C85.0909 241.035 85.3921 241 85.6947 240.991L85.9602 241.279C86.2975 241.641 86.6865 241.951 87.1145 242.199C87.9003 242.605 88.7692 242.826 89.6541 242.844C90.3965 242.862 91.1371 242.761 91.8474 242.545L93.0017 242.222C93.2788 242.153 93.5097 242.119 93.6483 242.096H93.7637H93.8213L94.0523 242.257C94.2616 242.417 94.4813 242.563 94.7102 242.694C99.2122 244.454 101.752 242.522 103.31 241.647C103.395 241.636 103.48 241.636 103.564 241.647L104.003 241.44C103.172 242.004 103.31 241.912 104.003 241.44L104.28 241.302H104.441C105.622 241.042 106.823 240.888 108.032 240.842C108.563 240.842 109.094 240.842 109.636 240.842H109.855C110.156 240.842 110.467 240.842 110.767 240.911H110.998L111.448 240.612V240.497L111.333 240.048C111.333 239.956 111.333 239.875 111.264 239.772L111.633 239.53H111.541H111.218C111.223 239.469 111.223 239.407 111.218 239.346V236.585L113.445 235.089H113.376L113.111 234.917L112.834 234.732C118.352 231.016 110.525 236.286 113.988 233.973" fill="white" fill-opacity="0.15"/>
<path d="M243.103 244.674L242.676 243.133C242.399 242.086 242.133 241.016 241.891 239.785C241.787 239.175 241.683 238.519 241.625 237.875V237.403C241.625 237.311 241.706 237.288 241.533 237.138L240.633 236.494C240.72 236.354 240.817 236.22 240.921 236.091C241.491 235.376 241.922 234.56 242.191 233.687C242.661 232.036 242.693 230.291 242.283 228.624L242.006 227.382L241.741 226.392C241.553 225.648 241.326 224.915 241.06 224.195C240.921 223.85 240.748 223.424 240.633 223.182L240.321 222.561C240.114 222.167 240.004 221.729 239.998 221.284C240.012 220.866 240.082 220.452 240.206 220.053L240.633 218.684C241.289 216.649 241.389 214.476 240.921 212.39C240.652 211.293 240.195 210.25 239.571 209.307C239.494 209.204 239.425 209.097 239.363 208.985C239.363 208.985 239.363 208.985 239.294 208.893L239.178 208.628C239.04 208.387 239.086 207.616 239.698 206.488C240.205 205.602 240.725 204.797 241.129 203.98C241.256 203.796 241.383 203.6 241.498 203.405C241.587 203.105 241.641 202.796 241.66 202.484C241.698 202.356 241.728 202.225 241.752 202.093C241.82 200.567 241.418 199.058 240.598 197.767C239.891 196.599 239.011 195.544 237.989 194.638C237.839 194.488 237.666 194.362 237.493 194.212L237.32 193.97C235.807 191.98 236.165 190.933 236.869 189.644L239.063 190.105L238.67 189.69H239.063L237.62 188.183C238.444 186.866 238.939 185.371 239.063 183.823H233.418L233.187 183.593C233.112 183.654 233.018 183.687 232.921 183.685L233.06 183.823H232.079L232.148 183.731C232.01 183.57 232.079 183.604 231.986 183.823H231.398C231.445 183.725 231.503 183.632 231.571 183.547H231.871H232.01L231.744 183.478H231.652H231.594L230.763 183.213L230.52 183.121H230.451L230.036 183.88H206.002C205.307 183.784 204.628 183.599 203.982 183.328L203.843 183.88H194.816C194.285 183.8 193.754 183.719 193.177 183.65C189.887 183.259 186.355 183.075 181.933 182.96L174.43 190.036C173.276 191.186 173.276 192.624 172.121 193.74L170.055 194.891C168.976 196.089 167.819 197.215 166.592 198.262C161.063 201.311 153.594 210.239 148.041 214.749C144.336 217.752 141.115 221.48 136.682 224.862C135.464 225.708 134.307 226.639 133.219 227.646L132.308 228.486L131.038 229.729L128.371 232.375V240.532V246.089L133.485 243.984C133.916 243.792 134.37 243.656 134.835 243.581C135.331 243.287 135.874 243.081 136.44 242.972C136.898 243.002 137.345 243.124 137.756 243.328C138.513 243.743 139.314 244.071 140.146 244.306C141.521 244.732 142.982 244.808 144.394 244.525C145.744 244.181 147.056 243.699 148.307 243.087L149.888 242.327C150.35 242.097 150.858 241.879 150.916 241.855C150.974 241.832 151.597 241.694 151.885 241.591L152.763 241.292C153.111 241.154 153.47 241.047 153.836 240.97C154.24 240.97 154.148 240.901 154.633 241.2L155.348 241.706C155.637 241.913 155.926 242.086 156.203 242.247C156.8 242.61 157.43 242.918 158.084 243.167C158.929 243.5 159.831 243.668 160.739 243.662C161.433 243.65 162.115 243.485 162.736 243.179C163.427 242.831 164.015 242.312 164.445 241.671C164.559 241.494 164.687 241.324 164.826 241.165C165.08 241.28 165.334 241.395 165.576 241.487C167.752 242.437 170.158 242.737 172.502 242.35C174.184 241.919 175.887 241.573 177.605 241.315C178.279 241.276 178.955 241.334 179.613 241.487C180.687 241.752 181.786 241.899 182.892 241.925C184.024 241.929 185.149 241.739 186.216 241.361C186.743 241.17 187.256 240.943 187.751 240.682L189.01 240.038C189.968 239.497 190.718 238.991 190.926 238.887C191.134 238.784 190.926 238.887 191.03 238.887C191.211 238.918 191.383 238.984 191.538 239.083C191.919 239.267 192.934 240.038 193.754 240.44C194.607 240.91 195.504 241.295 196.432 241.591L197.159 241.786C197.344 242.017 197.517 242.258 197.725 242.477C198.727 242.606 199.745 242.527 200.715 242.247C200.884 242.188 201.041 242.099 201.177 241.982C201.818 241.82 202.422 241.534 202.954 241.142L203.347 240.762C203.831 240.477 204.294 240.158 204.732 239.808C205.418 239.288 205.994 238.639 206.429 237.898C207.514 237.702 206.948 238.139 207.514 238.185C207.874 238.036 208.266 237.98 208.653 238.022C209.041 238.064 209.411 238.203 209.73 238.427C210.678 239.017 211.721 239.441 212.813 239.681C213.043 239.804 213.287 239.9 213.54 239.969C214.67 240.266 215.85 240.321 217.003 240.13V239.911L218.157 239.819C219.229 239.605 220.328 239.566 221.413 239.704C221.828 239.831 223.225 240.739 224.506 241.188C225.698 241.666 226.925 242.051 228.177 242.339C229.355 242.585 230.553 242.728 231.756 242.764H232.644C232.945 242.764 233.187 242.684 233.556 242.949C234.226 243.282 234.884 243.524 235.565 243.857C238.182 243.992 240.748 244.625 243.126 245.721C243.159 245.601 243.206 245.486 243.265 245.376C243.265 245.273 243.149 244.904 243.103 244.686" fill="white" fill-opacity="0.15"/>
<path d="M232.552 183.763C232.654 183.78 232.758 183.78 232.859 183.763L232.757 183.661C232.677 183.661 232.632 183.752 232.552 183.763Z" fill="white" fill-opacity="0.15"/>
<path d="M73.0417 29.2917C73.3765 33.215 74.3115 37.9092 73.6305 40.9926C72.8985 45.3434 73.0556 49.7968 74.0922 54.0856V54.4883L74.3001 54.96C74.9003 57.3876 75.6621 59.6427 76.3778 61.8632V66.9716L97.7219 88.2449C98.1042 88.7873 98.4255 89.3699 98.6802 89.9822L98.9341 89.4529L104.025 94.5268C106.57 97.8424 109.307 101.008 112.221 104.007L112.486 96.0915C112.486 94.6303 111.494 92.2832 111.517 91.0522C111.755 90.6797 111.974 90.2957 112.175 89.9016C112.096 88.5097 112.119 87.1138 112.244 85.7252C113.121 83.6888 113.294 78.822 113.398 75.589C113.334 72.1992 113.446 68.8083 113.733 65.4299C114.218 61.6561 113.883 57.7213 114.587 53.3493C115.488 49.6561 114.98 43.7539 115.084 38.6225L114.506 36.5746C114.333 34.6186 115.026 31.5237 114.83 30.8219C114.445 27.3151 114.291 23.7869 114.368 20.26V15.3357C114.368 13.2418 114.368 11.1823 114.183 9.32997L114.022 4.52076V2.2197C114.022 2.12766 114.022 1.98958 114.022 1.95507H113.86C113.745 1.94506 113.632 1.91792 113.525 1.87454C113.291 1.80186 113.066 1.70143 112.856 1.57541C111.228 2.13917 109.554 2.62238 107.95 3.03657C107.153 3.23216 106.357 3.41624 105.641 3.55431C105.26 3.62459 104.874 3.66689 104.487 3.68086C104.175 3.69867 103.863 3.69867 103.552 3.68086C103.479 3.69513 103.405 3.69513 103.332 3.68086C103.251 3.68086 103.251 3.68086 103.24 3.68086C102.989 3.53101 102.722 3.41129 102.443 3.3242C101.773 3.08344 101.081 2.90625 100.377 2.79497C98.8208 2.49623 97.2103 2.67681 95.7596 3.3127C95.2986 3.54447 94.8746 3.84302 94.5014 4.19862L94.2704 4.44022C94.2237 4.49234 94.1669 4.5345 94.1034 4.56416C94.04 4.59382 93.9712 4.61038 93.9011 4.61281C93.5609 4.64192 93.2183 4.61862 92.8852 4.54376L92.5967 4.47473L92.3543 3.87647C92.0541 3.87647 91.6155 3.78443 91.0499 3.74991C90.6615 3.73304 90.2728 3.77177 89.8955 3.86495C89.7248 3.90606 89.5689 3.99371 89.4453 4.11807C89.2952 4.11807 89.1682 4.11808 89.0182 4.1756C88.3723 4.32184 87.7731 4.62634 87.2751 5.06152C87.0295 5.21685 86.8045 5.40239 86.6055 5.61377C86.49 5.61377 86.3977 5.68279 86.2015 5.71731C85.8046 5.75654 85.4157 5.85344 85.0471 6.00494C83.8927 5.49871 84.5738 5.44119 83.8927 5.0385C82.8837 4.96627 81.8832 4.80456 80.903 4.55528C80.4066 4.44023 80.1642 4.03753 79.6101 4.02603C79.3356 4.01075 79.0602 4.03008 78.7905 4.08356C77.6536 4.08103 76.5412 4.41324 75.5929 5.0385L75.7084 5.22259H75.6276C75.4429 5.22259 75.5237 5.42968 75.4775 5.54474V5.94741C75.339 6.98289 75.1658 8.04139 74.9811 9.08837C74.6117 11.2053 74.173 13.3338 73.7574 15.3012C73.6535 15.7729 73.5497 16.3022 73.4459 16.6934L73.1226 17.7749C72.9275 18.3916 72.6923 18.995 72.4185 19.5812C74.0115 22.469 72.707 26.0817 73.2611 29.4182" fill="white" fill-opacity="0.15"/>
<path d="M16.5019 10.8962L16.2595 11.598C16.6058 11.506 16.8481 11.4599 17.0559 11.4139L17.2984 11.644L16.5827 13.7725C16.703 13.7318 16.8051 13.6504 16.8713 13.5424C16.8826 13.4971 16.8826 13.4497 16.8713 13.4043C16.877 13.3739 16.877 13.3427 16.8713 13.3123V13.0822C16.8689 13.0516 16.8689 13.0208 16.8713 12.9902C16.8969 12.9002 16.9277 12.8119 16.9636 12.7255C17.0892 12.5126 17.2584 12.3283 17.4601 12.1848C17.4876 12.3245 17.5425 12.4574 17.6217 12.576C17.7994 12.7753 17.9965 12.9564 18.2103 13.1167C18.6505 13.4755 19.1132 13.806 19.5956 14.1062C19.8217 14.248 20.0569 14.3748 20.2997 14.4858C21.2232 15.2912 22.1582 16.0621 23.1163 16.7869L22.9548 17.3276C23.5089 17.5232 24.0052 17.7418 24.3053 17.6038C24.5362 17.7648 24.7555 17.9259 24.9979 18.064C25.1356 18.4001 25.3816 18.681 25.6973 18.8623C26.0129 19.0436 26.3802 19.1149 26.741 19.0649C26.995 19.6517 26.5795 19.5137 26.6718 19.9048C27.4847 20.4511 28.2355 21.0838 28.9112 21.7917C29.0826 22.3195 29.4082 22.7842 29.8463 23.1263L29.9964 23.0113C31.7623 25.0648 32.9564 27.5444 33.4595 30.2021C35.7682 30.2021 36.2645 32.6067 37.9845 33.5386C39.7968 34.8732 42.3365 36.0813 43.0868 37.7956C44.3062 40.0301 46.276 41.7653 48.6508 42.6968L48.8239 42.8579H49.1588C49.3079 42.9273 49.4623 42.985 49.6205 43.0305L48.9509 44.5032C49.7936 44.3306 49.4128 43.7438 49.7706 43.088C50.925 43.5022 52.1948 43.8244 53.3722 44.135L55.4154 46.1714V44.7448C55.7848 44.8598 56.1311 44.9864 56.4774 45.1245C57.9088 43.0535 59.6635 40.7179 57.424 37.4159C57.0831 36.9245 56.6966 36.4661 56.2697 36.0468C56.0388 35.4485 55.7732 34.8157 55.4615 34.1714V28.6259C55.5431 28.5026 55.6358 28.3871 55.7386 28.2807H55.4615V22.8502C55.5539 22.4015 55.6463 21.9413 55.704 21.4465C55.8541 20.296 55.9349 19.0419 55.9926 17.7994L56.1541 13.6805C56.1541 13.1512 55.7617 12.9326 55.4615 12.6795V11.2413C55.5308 11.0688 55.6001 10.8962 55.6578 10.7236C55.6578 10.1944 55.4962 9.57306 55.4615 9.02081V8.82522C55.4487 8.72206 55.4487 8.61774 55.4615 8.51459C55.5526 8.07138 55.6028 7.62078 55.6116 7.16845V6.82331C55.5392 6.76399 55.4573 6.7173 55.3692 6.68523L54.8267 6.40912C54.0648 6.02944 53.1528 5.60374 52.1716 5.25859C49.8205 4.88243 47.4214 4.92136 45.0838 5.37363C44.4465 5.49343 43.8262 5.69049 43.2369 5.96041L42.2557 6.32857C42.0133 6.44362 42.0363 6.42062 41.9209 6.40912C41.6092 6.40912 41.1359 6.19051 40.5934 5.43116C39.9392 4.3518 39.047 3.43506 37.9845 2.75042L37.9037 2.69289L37.5805 2.4858L37.4651 2.41677L37.2227 2.2787C36.7419 2.03663 36.2343 1.8513 35.7104 1.72645C35.016 1.55643 34.3008 1.4867 33.5864 1.51936C32.4821 1.58766 31.3895 1.78458 30.3311 2.10613C29.9257 2.44003 29.5402 2.79731 29.1767 3.17613C28.5373 3.5021 27.8687 3.76786 27.1797 3.96998C26.7757 4.07353 26.4641 4.14257 26.3948 4.30364C26.0622 4.79315 25.6091 5.18931 25.0788 5.45417C23.7953 3.80683 22.3532 2.28857 20.7731 0.921082L20.0343 3.16461L19.2146 2.4743L18.8915 3.44075C18.3697 3.34844 17.8389 3.31754 17.31 3.3487C16.5344 3.36479 15.7618 3.44949 15.0013 3.60182L9.44873 4.66031L13.4659 8.21544C14.4702 9.11285 15.4514 10.0218 16.4211 10.9307" fill="white" fill-opacity="0.15"/>
<path d="M48.0269 45.3069V45.7262H48.095C48.079 45.5793 48.079 45.4311 48.095 45.2842C48.095 45.2842 48.095 45.2842 48.095 45.2842" fill="white" fill-opacity="0.15"/>
</svg>
