<svg width="270" height="279" viewBox="0 0 270 279" fill="none" xmlns="http://www.w3.org/2000/svg">
<path d="M1.63037 37.8371C2.29296 38.4639 2.81157 39.2269 3.15046 40.0734C3.48935 40.9198 3.64046 41.8297 3.59333 42.7401C3.59333 43.8608 3.59333 45.2617 3.59333 46.8027C3.51432 47.3133 3.51432 47.8328 3.59333 48.3434C3.24949 50.0068 3.24949 51.7232 3.59333 53.3866C3.59333 54.2271 3.59333 55.0674 3.59333 55.7678V58.0092C3.59333 58.0092 3.59333 58.0092 3.59333 58.8497V61.3715C3.59333 62.4921 3.59333 63.3327 3.59333 64.0331V64.7334V65.4336C4.17692 65.6749 4.83256 65.6749 5.41615 65.4336H8.50083C8.50083 65.4336 9.20183 65.4336 10.1833 65.4336H12.4268C13.5307 65.6562 14.6106 65.9847 15.6516 66.4143C16.4639 66.8273 17.2182 67.3456 17.895 67.9554C19.4373 66.1343 21.4002 67.9553 23.2229 66.9747C25.0457 65.9942 27.8499 65.5739 29.3923 66.9747C31.6856 67.9016 34.2499 67.9016 36.5432 66.9747V68.3757C36.5432 67.6752 36.5432 67.5349 36.5432 66.8345C37.8365 66.2224 39.0589 65.4708 40.1887 64.5931H42.9929L41.8711 63.4726H42.9929C42.9929 60.8111 42.1516 57.589 38.3658 56.7485H36.6834L34.0193 55.4878L31.7759 53.2464C31.7096 53.0176 31.7096 52.7749 31.7759 52.5461L28.551 49.3241C26.9282 46.7637 24.9975 44.4114 22.8023 42.3199C22.8023 42.3199 21.6807 42.3199 21.1198 42.3199V41.1994C21.1198 41.1994 19.7177 40.0785 19.5775 39.6583C18.714 37.7916 17.4159 36.1586 15.7917 34.8955C14.1951 33.5559 12.6958 32.1048 11.305 30.5529L8.50083 27.8913L7.09863 26.4904L6.25739 25.6499C4.03828 27.5513 2.46943 30.0985 1.77051 32.9345C1.70296 33.4928 1.70296 34.0572 1.77051 34.6155C1.77051 36.0163 1.77051 36.0164 1.77051 36.4366" fill="#888D8A" fill-opacity="0.1"/>
<path d="M261.584 43.8628C261.993 43.3751 262.368 42.8601 262.706 42.3216V41.3409C263.238 40.737 263.622 40.0177 263.828 39.2398C263.895 36.6912 263.265 34.1727 262.005 31.9556C262.005 31.9556 260.883 31.9556 260.463 31.9556V31.2549L259.201 32.3758C257.799 32.3758 253.873 36.8585 251.489 38.1193C249.683 39.5395 247.76 40.8046 245.74 41.9014C242.688 43.4568 240.009 45.6552 237.889 48.3451V49.746C237.047 50.7266 235.084 51.9874 234.944 52.4076C233.912 54.2919 232.639 56.0341 231.158 57.5907C229.896 59.1316 228.634 60.5327 227.793 61.7934C226.952 63.0542 223.727 66.5561 221.764 68.6574H226.531C227.135 68.7519 227.75 68.7519 228.354 68.6574H229.195C230.017 68.9155 230.898 68.9155 231.719 68.6574H234.804C234.804 68.6574 234.804 68.6574 236.206 68.6574C236.852 68.5126 237.523 68.5126 238.169 68.6574C239.974 69.117 241.652 69.9789 243.076 71.1788C245.32 69.6379 247.142 71.1788 249.386 71.1788C251.629 71.1788 254.293 69.778 255.976 71.1788C258.222 72.0974 260.74 72.0974 262.987 71.1788L265.931 69.6381V68.9374C265.08 67.8256 264.035 66.8768 262.846 66.136C262.524 65.2781 262.524 64.3323 262.846 63.4744L264.389 61.7934H263.267C263.623 60.4551 263.708 59.0587 263.515 57.6873C263.322 56.3159 262.857 54.9972 262.145 53.8086C261.752 53.1014 261.546 52.3058 261.546 51.4971C261.546 50.6883 261.752 49.8927 262.145 49.1856C262.486 48.6038 262.861 48.0426 263.267 47.5046L262.566 48.3451" fill="#888D8A" fill-opacity="0.1"/>
<path d="M0.790039 103.259C0.840116 103.584 0.840116 103.915 0.790039 104.24C0.790039 106.341 0.790039 110.544 0.790039 109.703L4.71596 113.625L8.3614 116.427C11.5863 119.229 15.7928 124.552 17.0547 125.533C22.9436 130.716 28.5519 136.179 33.7398 141.502L41.732 149.487L51.1262 158.592L63.3246 170.359V125.253V121.05C63.3956 119.697 63.3956 118.341 63.3246 116.988C63.3246 116.007 63.3246 115.166 63.3246 114.186C63.7795 111.685 63.7795 109.122 63.3246 106.621C63.3246 105.22 63.3246 106.621 63.3246 106.621V105.501L69.2137 111.104C70.3893 112.624 71.6533 114.074 72.9992 115.447C76.3643 119.089 79.5894 122.731 81.6925 125.533L80.8511 131.836C80.8511 134.078 80.1502 136.039 79.7296 137.58C80.6387 144.733 80.9668 151.947 80.711 159.153L81.4121 173.161C81.4121 175.402 81.4121 177.644 81.4121 179.605V189.411L85.1979 193.473L88.0021 196.415L93.6105 201.738C96.1343 203.979 98.6582 206.221 101.182 208.182H101.883H102.724L104.267 209.442L114.923 217.287L115.764 217.988L122.775 224.992V222.891L123.896 223.871C124.322 222.471 124.442 220.997 124.248 219.547C124.055 218.097 123.552 216.706 122.775 215.466V159.433C122.696 158.267 122.696 157.097 122.775 155.931V145.004L119.55 141.782L116.465 138.14L109.034 130.015L92.7692 113.205C90.8062 111.104 88.7032 110.684 86.7402 108.583L84.4967 105.36C82.5338 103.259 79.3089 100.458 78.6079 99.337C77.9068 98.2163 76.0839 96.1148 74.5416 94.2937C72.9993 92.4727 72.9993 92.4729 72.158 91.4923L68.7928 87.9902H59.2585L53.7902 82.667C53.7902 84.4881 53.7902 86.1692 53.7902 87.9902H52.5284C47.4807 87.9902 42.5733 87.9902 38.5072 87.9902C34.441 87.9902 30.2345 87.9902 25.8879 87.9902H19.1578H10.745H8.08113L4.71596 89.6712H3.87472C3.97159 90.2273 3.97159 90.7959 3.87472 91.3521C3.93739 92.1914 3.93739 93.0342 3.87472 93.8735C3.87472 93.8735 3.87472 93.8736 3.87472 94.8542H3.03349C2.5819 95.3066 2.20346 95.8267 1.91176 96.3953C1.37732 97.395 1.04379 98.4893 0.930174 99.617C0.783217 100.545 0.783217 101.491 0.930174 102.419L0.790039 103.259Z" fill="#888D8A" fill-opacity="0.1"/>
<path d="M169.464 119.925C167.501 121.886 166.941 123.987 164.978 125.949L161.613 128.33C159.65 130.291 156.705 133.373 155.583 134.213C153.6 135.559 151.725 137.058 149.975 138.696L146.89 141.358L143.104 145V160.549C143.104 165.312 143.104 169.935 143.104 173.717C143.104 181.982 143.105 190.667 142.123 200.193V207.477C142.123 210.279 142.123 213.361 142.123 216.583V236.475L148.152 230.451L152.779 224.988C154.882 222.746 157.546 220.365 159.79 218.264C162.033 216.162 164.276 214.201 164.978 213.361L168.343 209.719L171.147 206.637L176.896 200.753L188.954 188.706V181.282C188.954 179.321 188.954 177.359 188.954 175.398C188.954 166.713 188.954 157.888 188.954 149.343V125.248L192.179 121.746H193.02C193.882 120.706 194.634 119.579 195.263 118.384L197.086 116.423C198.989 114.792 200.601 112.85 201.853 110.68C203.256 109.699 201.854 110.68 202.835 110.68L207.883 105.216V107.177C207.773 109.184 207.773 111.195 207.883 113.201C207.883 116.983 207.883 120.766 207.182 123.847V128.19C207.182 129.871 207.182 131.412 207.182 132.813C207.182 134.213 207.182 135.614 206.48 136.875V138.556V140.517C207.192 145.151 207.474 149.84 207.322 154.526C207.322 159.569 207.322 165.312 207.322 169.655V172.597L219.24 159.709C222.304 156.193 225.632 152.914 229.195 149.903L232.981 146.541L236.065 143.459C238.169 141.498 239.991 139.537 241.814 137.716C243.637 135.894 247.142 131.692 249.385 128.75L250.087 128.05V127.209V126.369L257.518 116.283L266.632 107.177C265.089 105.637 265.79 103.675 266.632 101.854C266.956 101.202 267.049 100.459 266.896 99.7462C266.744 99.0338 266.354 98.3944 265.79 97.9319C264.669 97.2315 265.79 91.4881 267.052 90.5075H215.594V82.3828L207.602 90.6477H201.012L198.208 93.4491L194.282 96.9512C191.618 99.1925 188.954 101.714 186.15 104.236L169.464 119.925Z" fill="#888D8A" fill-opacity="0.1"/>
<path d="M204.098 27.1942C204.63 29.6406 204.63 32.1723 204.098 34.6186C203.085 37.2806 203.085 40.2215 204.098 42.8835H202.556C202.556 42.8835 203.397 42.8835 204.239 42.8835C204.809 44.1411 205.464 45.3582 206.202 46.5258V51.1484L207.323 50.0279V51.1484C210.128 51.1484 213.353 50.1677 214.194 45.8252C214.258 45.173 214.258 44.5163 214.194 43.8642V41.7626L218.4 37.7005H219.522L222.747 34.4784C223.695 34.0199 224.589 33.456 225.411 32.7975L228.496 30.1359L231.72 27.334C232.421 26.6336 231.72 25.6534 232.421 25.0931H234.104C234.686 24.4126 235.345 23.8014 236.067 23.2719C238.558 22.0151 240.793 20.3046 242.657 18.2287C244.66 16.2073 246.766 14.2903 248.966 12.4852C250.457 11.3771 251.863 10.16 253.173 8.84331C254.435 7.72264 255.977 6.32155 258.221 4.64054L260.464 2.95961C260.464 2.95961 260.464 2.95964 260.464 2.11914C258.918 2.68652 257.321 3.10855 255.697 3.37984L251.631 4.92098C249.107 4.92098 246.162 4.92098 244.9 4.92098L238.31 6.04146C236.628 6.04146 234.805 6.88193 233.964 6.88193C232.96 7.07844 231.975 7.35958 231.019 7.7224C230.038 7.7224 228.496 7.7224 226.953 7.7224L225.13 6.60192C224.418 5.99596 223.669 5.43462 222.887 4.92098H221.625H218.821C216.978 5.22304 215.214 5.88958 213.633 6.88193L211.67 8.42307H210.829C209.847 8.42307 209.426 9.54338 209.707 10.2438C209.987 10.9442 209.006 10.2438 208.445 9.40333H207.744V9.12332C207.589 9.7679 207.589 10.4401 207.744 11.0847C207.813 11.9706 207.813 12.86 207.744 13.7459C207.807 14.4449 207.807 15.1485 207.744 15.8475V16.968C207.805 17.2448 207.805 17.5316 207.744 17.8084C207.337 18.6811 206.869 19.5236 206.342 20.3298C208.025 22.1509 206.342 24.3923 207.183 26.4935" fill="#888D8A" fill-opacity="0.1"/>
<path d="M141.703 71.1767C142.243 75.5494 142.243 79.9719 141.703 84.3446C140.758 89.202 140.758 94.1962 141.703 99.0536C142.087 100.711 142.555 102.347 143.105 103.956L141.423 104.937C141.423 104.937 142.545 104.937 143.105 104.237L143.947 106.758V112.502L145.209 111.241V112.502C147.733 111.661 150.817 110.821 151.799 104.237L167.362 88.6872C167.862 88.2981 168.434 88.0124 169.045 87.8467L174.653 82.1032L176.336 80.9827L180.121 77.9009L184.328 73.9785V65.7137C184.328 64.1727 183.206 63.3323 183.206 61.7913L184.047 59.83C183.905 58.3859 183.905 56.9314 184.047 55.4874C185.228 48.1712 185.744 40.7635 185.59 33.3544C185.59 29.1519 185.59 24.8093 186.571 19.346C186.705 17.9016 186.705 16.4479 186.571 15.0035C186.571 13.0423 186.571 10.941 186.571 8.83975L184.889 5.61767L183.907 4.07696H181.524H180.822H179.42L177.457 2.95605C176.859 2.35931 176.059 2.00915 175.214 1.97536C174.17 1.61241 173.033 1.61241 171.989 1.97536C170.744 2.54011 169.568 3.24544 168.484 4.07696C168.254 4.01765 168.013 4.01765 167.783 4.07696L165.259 3.37628H164.137C162.202 2.39066 160.118 1.7284 157.968 1.41533C155.708 0.982085 153.367 1.37994 151.378 2.53581H150.396H148.434C147.054 2.39033 145.692 2.10883 144.367 1.69535C143.386 2.9561 141.984 1.69552 142.404 4.49719V19.4858V26.9102C142.404 27.8908 142.404 29.0115 143.246 29.1516C144.087 29.2917 143.246 30.2722 143.246 30.8326C142.987 31.4296 142.854 32.0733 142.854 32.7238C142.854 33.3743 142.987 34.0181 143.246 34.6151C143.246 35.8758 143.246 34.6149 142.545 35.7356C141.844 36.8562 142.545 39.5179 142.545 41.479C142.309 42.5401 142.309 43.6401 142.545 44.7011C142.33 49.8633 141.337 54.9634 139.6 59.83C141.423 63.0519 139.6 67.1143 140.582 70.7565" fill="#888D8A" fill-opacity="0.1"/>
<path d="M46.7798 181.983L45.0973 180.022L41.592 175.959L37.5257 171.757L35.8432 170.916H35.1421C34.9692 170.529 34.6962 170.196 34.3512 169.949C34.0061 169.703 33.6015 169.554 33.1792 169.516C33.1792 169.516 33.1792 169.515 33.1792 168.815C32.2737 168.143 31.4292 167.393 30.6555 166.574C30.6555 166.574 30.6553 165.873 29.814 165.173L28.5521 163.212C27.3909 161.42 26.5819 159.423 26.1686 157.328C23.7849 157.328 23.3643 154.807 21.5415 153.966C19.7188 153.126 17.0548 151.445 16.3537 149.624C15.0978 147.314 13.0599 145.526 10.605 144.581H9.62361L6.39857 143.74L4.29547 141.639V143.04C2.61292 145.281 0.649867 147.942 2.89326 151.304C3.1937 151.867 3.627 152.348 4.15534 152.705C4.15534 153.686 4.85621 154.526 5.27685 155.647V157.048C5.1984 157.512 5.1984 157.985 5.27685 158.449L4.57596 159.289C4.29212 160.629 4.29212 162.013 4.57596 163.352C4.37571 164.322 4.37571 165.323 4.57596 166.294V167.974C4.65528 168.579 4.65528 169.191 4.57596 169.796V171.617V173.578C4.57596 174.558 5.83783 173.578 5.4172 174.838L4.15534 176.239C4.15534 176.94 3.45425 177.78 3.03361 178.201C2.47496 179.14 2.1391 180.194 2.05202 181.283C1.92581 181.836 1.92581 182.41 2.05202 182.963H2.89326C4.89987 182.806 6.9159 182.806 8.9225 182.963C11.0257 183.664 13.6896 182.963 16.4939 184.224C19.9204 184.889 23.4431 184.889 26.8697 184.224L28.1315 183.524C29.4859 183.451 30.8434 183.451 32.1978 183.524C34.2994 182.934 36.4654 182.605 38.6474 182.543H44.3962L46.7798 181.983Z" fill="#888D8A" fill-opacity="0.1"/>
<path d="M265.932 145C266.075 144.402 266.075 143.778 265.932 143.179C265.999 142.574 265.999 141.963 265.932 141.358C265.932 140.658 264.95 141.358 264.67 140.658C264.711 140.192 264.711 139.723 264.67 139.257L263.127 140.658C261.649 141.266 260.313 142.172 259.201 143.319C257.378 144.72 255.696 146.261 254.294 147.101C252.892 147.942 250.508 150.183 248.125 151.444C246.776 152.073 245.543 152.925 244.479 153.965L240.974 157.608V158.868C240.519 159.356 240 159.78 239.431 160.129L238.029 161.25C236.518 163.476 234.727 165.501 232.701 167.274C230.878 169.095 229.056 170.916 227.934 172.316C224.709 176.099 220.783 180.021 218.119 183.103H222.045H221.063L224.289 182.262H225.55C225.55 182.262 227.093 182.262 228.916 182.262C230.738 182.262 228.916 182.262 228.916 182.963C230.174 182.834 231.443 182.834 232.701 182.963C232.701 182.963 232.701 182.963 234.243 182.963H236.487C238.386 183.397 240.161 184.259 241.675 185.484C242.942 184.732 244.411 184.389 245.881 184.504C247.186 184.644 248.502 184.644 249.807 184.504C252.05 184.504 254.715 182.963 256.537 183.663C257.713 184.16 258.976 184.416 260.253 184.416C261.53 184.416 262.793 184.16 263.969 183.663L265.371 182.963L266.212 181.842C266.427 181.158 266.427 180.425 266.212 179.741C265.96 178.993 265.527 178.319 264.95 177.78C264.95 177.079 264.95 176.379 263.828 175.538V172.597H262.146C262.341 171.351 262.67 170.13 263.127 168.954C264.578 165.923 265.435 162.642 265.651 159.289C265.598 158.87 265.598 158.447 265.651 158.028H264.95V156.627C264.585 155.817 264.303 154.972 264.109 154.106C264.109 152.845 264.109 151.584 264.109 150.463C264.424 149.124 264.846 147.813 265.371 146.541" fill="#888D8A" fill-opacity="0.1"/>
<path d="M125.299 259.029C124.335 258.466 123.296 258.042 122.214 257.768L92.7695 228.35C92.3143 227.746 91.9374 227.088 91.6477 226.389L84.6371 219.385C83.6556 217.984 82.3938 216.443 80.9917 214.762L75.3831 208.598L69.0736 202.014H66.8301C65.9506 201.841 65.0458 201.841 64.1663 202.014C63.3769 202.143 62.5718 202.143 61.7825 202.014L59.2588 201.314C57.4393 201.47 55.6099 201.47 53.7905 201.314C44.7135 200.28 35.5849 199.766 26.4491 199.773H22.3829H18.1767C14.6714 199.773 11.0257 199.773 6.81931 199.773H2.33263C2.33263 199.773 0.930484 199.773 1.21091 199.773C1.41446 201.729 1.83771 203.655 2.47277 205.517L3.45436 208.879V209.859H4.15546L3.03374 211.54C2.46209 212.634 1.94728 213.756 1.49139 214.902C1.28221 216.154 1.28221 217.432 1.49139 218.684C1.35867 219.661 1.35867 220.65 1.49139 221.626C1.81601 222.625 2.28851 223.569 2.89339 224.428L4.43573 226.669C4.43573 226.669 4.43573 227.51 4.43573 227.65V228.77V229.891C3.61628 232.824 3.61628 235.924 4.43573 238.856V240.537C4.43573 240.537 4.43573 240.538 4.43573 241.238C3.89105 242.491 3.51388 243.809 3.31401 245.16V246.701C3.11643 248.048 3.11643 249.417 3.31401 250.764C3.29031 252.09 3.62978 253.398 4.29559 254.546C4.36368 254.869 4.36368 255.203 4.29559 255.526C4.35551 256.272 4.35551 257.022 4.29559 257.768V261.55H5.41732C7.74742 261.801 10.0978 261.801 12.4279 261.55H15.6527H16.3539H19.1581C20.364 261.762 21.5976 261.762 22.8035 261.55L25.748 260.149L28.1316 258.749H29.2533C30.222 259.377 31.3284 259.761 32.4782 259.869H33.8804H35.8433C36.4964 260.031 37.1782 260.04 37.8352 259.894C38.4921 259.748 39.1063 259.452 39.6291 259.029C40.7508 259.029 40.7508 259.029 40.891 259.029C41.0312 259.029 40.891 259.029 41.5921 259.029L44.3963 256.647C45.0221 256.23 45.7483 255.988 46.4994 255.947H47.3406L49.0233 256.927H50.2852C51.8626 257.199 53.4749 257.199 55.0523 256.927H60.5206C60.5206 256.927 60.5207 256.927 61.2217 256.927L64.727 258.608L67.251 259.869H71.4571L74.2616 259.029C74.7132 258.798 75.1366 258.516 75.5234 258.188H76.7853C76.7853 258.188 78.4678 258.188 80.2906 258.188H81.9731L84.6371 259.169C85.5203 259.299 86.418 259.299 87.3012 259.169C88.1574 259.505 89.1091 259.505 89.9653 259.169L92.2087 258.048H93.7511H94.8726C95.2214 258.458 95.6511 258.792 96.1346 259.029C97.0084 259.482 97.9596 259.767 98.9388 259.869C99.7737 260.016 100.628 260.016 101.463 259.869H102.584H103.566C105.109 260.556 106.809 260.815 108.487 260.618C110.165 260.42 111.759 259.775 113.1 258.749H114.362H118.288H121.653V257.908V254.686L124.037 253.005L125.299 252.165" fill="#888D8A" fill-opacity="0.1"/>
<path d="M268.034 270.799V269.118L267.193 265.475C267.193 264.775 267.193 264.075 267.193 263.374H266.352C266.955 262.566 267.428 261.667 267.754 260.713C268.175 258.868 268.175 256.954 267.754 255.109V253.708V252.588C267.585 251.776 267.351 250.98 267.053 250.206C267.016 249.834 267.016 249.459 267.053 249.086V248.385C266.921 247.928 266.921 247.442 267.053 246.985C266.977 246.521 266.977 246.048 267.053 245.584V244.043C267.647 241.746 267.647 239.336 267.053 237.038C266.745 235.834 266.222 234.696 265.511 233.677C265.511 233.677 265.511 232.556 265.511 231.295L267.193 228.494V227.793C267.211 227.466 267.211 227.139 267.193 226.813C267.276 225.133 266.835 223.469 265.931 222.05C265.148 220.729 264.154 219.546 262.987 218.548C262.386 217.9 262.052 217.049 262.052 216.166C262.052 215.283 262.386 214.432 262.987 213.785H265.37L263.688 212.104C264.661 210.693 265.242 209.049 265.37 207.341H259.061H257.799H256.958V208.181H230.458H228.214H218.259H216.436C212.791 208.181 209.005 208.181 204.098 207.481L195.825 215.326C194.423 216.446 194.423 218.127 193.161 219.388L190.918 220.649C189.722 222.022 188.408 223.287 186.992 224.431C179.788 230.061 172.95 236.143 166.521 242.642C162.454 246.004 158.809 250.066 154.042 253.849C152.659 254.778 151.347 255.808 150.116 256.931L149.134 257.911L147.732 259.172L144.788 262.114V277.383L150.396 275.001C150.903 274.877 151.432 274.877 151.939 275.001L153.621 274.301C154.128 274.176 154.657 274.176 155.163 274.301C155.995 274.797 156.891 275.174 157.827 275.422C159.341 275.846 160.941 275.846 162.455 275.422C163.946 275.038 165.401 274.522 166.801 273.881L168.484 273.04H169.746H170.727H171.709H172.97H173.812H174.513H175.494C176.148 273.496 176.854 273.873 177.597 274.161C178.565 274.398 179.575 274.398 180.542 274.161C181.279 274.339 182.048 274.339 182.785 274.161C183.486 273.711 184.103 273.142 184.608 272.48H185.449C187.876 273.526 190.549 273.866 193.161 273.46C195.004 272.964 196.877 272.59 198.769 272.34H201.013C202.223 272.498 203.448 272.498 204.658 272.34C205.903 272.298 207.133 272.061 208.304 271.639L209.986 270.939L211.389 270.239C212.055 269.763 212.758 269.341 213.492 268.978H214.193L216.576 270.519L219.521 271.779H220.362V272.48C221.464 272.777 222.625 272.777 223.727 272.48L225.69 271.639L227.233 270.519C227.956 269.928 228.573 269.217 229.055 268.417C230.317 268.417 229.055 268.417 230.317 268.417C230.684 268.221 231.093 268.119 231.509 268.119C231.925 268.119 232.334 268.221 232.701 268.417C233.728 269.085 234.868 269.559 236.066 269.818H236.907C238.157 270.063 239.443 270.063 240.693 269.818H241.955C243.162 269.617 244.393 269.617 245.6 269.818L248.965 271.499C250.278 272.047 251.64 272.469 253.032 272.76H256.958H257.939C258.302 272.632 258.698 272.632 259.061 272.76L261.164 273.741C264.08 273.873 266.941 274.588 269.577 275.842C269.577 275.842 269.577 275.842 269.577 275.001" fill="#888D8A" fill-opacity="0.1"/>
<path d="M80.1499 32.2349C80.6881 36.5608 80.6881 40.9366 80.1499 45.2625C79.2834 49.8919 79.2834 54.6416 80.1499 59.2709C80.7492 61.834 81.4981 64.36 82.3931 66.8355V72.4388L105.949 95.9731C105.949 95.9731 105.949 97.2337 107.071 97.9341L112.679 103.537C115.458 107.215 118.455 110.723 121.652 114.044V105.218C121.418 103.382 121.09 101.559 120.671 99.7552V98.3543C120.513 96.8175 120.513 95.2686 120.671 93.7318C121.533 90.0612 121.911 86.2933 121.793 82.5248C121.793 78.4624 121.793 74.4001 121.793 71.3183C121.793 68.2365 121.793 62.7732 122.774 57.3099C123.287 51.9055 123.287 46.4647 122.774 41.0602V38.8188C122.774 36.5775 122.774 33.2156 122.774 32.3751C122.567 28.5022 122.567 24.6208 122.774 20.7479V15.2849C122.774 12.9034 122.774 10.6619 122.774 8.5607V0.436035H121.933C120.199 1.12299 118.419 1.6847 116.605 2.11697H113.941H111.417H110.435H108.192C106.552 1.58207 104.785 1.58207 103.145 2.11697L101.742 3.09766H99.9196V2.39698H97.1154C96.4309 2.55503 95.8016 2.89377 95.2928 3.37767H94.4513H93.1895C91.9276 3.37767 93.1895 3.37786 91.9276 2.25719C90.8106 2.4024 89.6795 2.4024 88.5625 2.25719L87.1605 1.55652H86.319C85.0145 1.52609 83.7354 1.91957 82.6736 2.67742C82.6736 3.79809 82.6736 4.91876 82.6736 6.17951L81.4117 13.0435V14.5846V15.7051C81.1805 16.4242 80.8995 17.1262 80.5705 17.8063C82.3933 21.0282 80.5704 24.9508 81.5519 28.593" fill="#888D8A" fill-opacity="0.1"/>
<path d="M17.616 11.9236V12.764H18.4573L17.7562 15.1452C17.7562 15.1452 17.7562 15.1454 17.7562 14.445V15.1452L19.2985 16.1259C19.5707 16.222 19.8678 16.222 20.14 16.1259L23.2244 18.7875C23.2244 18.7875 24.3462 18.7875 24.6266 18.7875H25.4679C25.6543 19.1417 25.9381 19.435 26.2858 19.6336C26.6335 19.8321 27.0308 19.9273 27.4308 19.908C27.4308 19.908 27.4308 19.908 27.4308 20.7485C28.3393 21.3642 29.1847 22.0684 29.9548 22.8501C29.9548 22.8501 29.9547 23.6904 30.9361 24.3908C32.9057 26.6738 34.2573 29.4228 34.8621 32.3757C37.3859 32.3757 37.9468 35.0374 39.7696 36.018C41.5923 36.9986 44.677 38.8196 45.5183 40.7808C46.875 43.2322 49.0626 45.1198 51.6877 46.104H52.5289L51.8278 47.7849C52.6691 47.7849 51.8278 46.9442 52.6691 46.2438L56.7353 47.3647L58.9786 49.6061V48.0649H60.1003C61.6426 45.6835 63.6056 43.1622 61.222 39.5201C60.8309 38.942 60.3586 38.4228 59.8198 37.9789L58.9786 35.8777V29.714V23.6905C58.9786 23.6905 58.9786 22.5697 58.9786 22.1494C58.9786 21.7291 58.9786 19.348 58.9786 18.0873V13.4643C58.9786 13.4643 58.9786 12.624 58.9786 12.3438V10.8027C58.9786 10.8027 58.9786 9.40205 58.9786 8.84172C59.0477 8.37732 59.0477 7.90519 58.9786 7.4408L56.0342 6.03987C53.4405 5.54407 50.7762 5.54407 48.1824 6.03987L46.2194 6.74012H45.0977C45.0977 6.74012 44.2563 6.74031 43.6955 5.61964C42.9504 4.4283 41.9434 3.42237 40.7509 2.678H39.0685C38.3267 2.54412 37.5668 2.54412 36.825 2.678C35.615 2.5195 34.3896 2.5195 33.1796 2.678L31.9177 3.93871L29.6743 4.77917H28.833C28.4167 5.30636 27.8904 5.73653 27.2907 6.03987C25.9238 4.16232 24.3217 2.46772 22.5235 0.99707L21.8224 3.51847L20.8409 2.678V3.79849H19.0182H16.4943L10.325 4.91939L14.8118 8.98151L18.0367 11.9236" fill="#888D8A" fill-opacity="0.1"/>
<path d="M2.05347 38.5358C2.71606 39.1627 3.23466 39.9256 3.57356 40.7721C3.91245 41.6186 4.06355 42.5284 4.01643 43.4389C4.01643 44.5595 4.01643 45.9605 4.01643 47.5014C3.93742 48.012 3.93742 48.5315 4.01643 49.0421C3.67258 50.7056 3.67258 52.4219 4.01643 54.0853C4.01643 54.9258 4.01643 55.7661 4.01643 56.4665V58.7079C4.01643 58.7079 4.01643 58.7079 4.01643 59.5484V62.0702C4.01643 63.1909 4.01643 64.0314 4.01643 64.7318V65.4321V66.1323C4.60002 66.3736 5.25566 66.3736 5.83925 66.1323H8.92393C8.92393 66.1323 9.62492 66.1323 10.6064 66.1323H12.8498C13.9538 66.3549 15.0337 66.6834 16.0747 67.113C16.887 67.526 17.6413 68.0443 18.3181 68.6542C19.8604 66.8331 21.8233 68.6541 23.646 67.6735C25.4688 66.6929 28.273 66.2726 29.8154 67.6735C32.1087 68.6003 34.673 68.6003 36.9663 67.6735V69.0744C36.9663 68.374 36.9663 68.2337 36.9663 67.5332C38.2596 66.9211 39.482 66.1695 40.6118 65.2919H43.416L42.2942 64.1714H43.416C43.416 61.5098 42.5747 58.2877 38.7889 57.4472H37.1065L34.4424 56.1865L32.199 53.9451C32.1327 53.7163 32.1327 53.4737 32.199 53.2449L28.9741 50.0228C27.3513 47.4624 25.4206 45.1101 23.2254 43.0186C23.2254 43.0186 22.1038 43.0186 21.5429 43.0186V41.8981C21.5429 41.8981 20.1408 40.7772 20.0006 40.357C19.1371 38.4904 17.839 36.8573 16.2148 35.5942C14.6182 34.2546 13.1189 32.8035 11.7281 31.2516L8.92393 28.59L7.52172 27.1891L6.68049 26.3486C4.46137 28.2501 2.89253 30.7972 2.1936 33.6333C2.12606 34.1916 2.12606 34.7559 2.1936 35.3142C2.1936 36.715 2.1936 36.7151 2.1936 37.1353" fill="#888D8A" fill-opacity="0.1"/>
<path d="M262.007 44.5615C262.416 44.0739 262.791 43.5588 263.129 43.0203V42.0396C263.661 41.4357 264.045 40.7164 264.251 39.9385C264.318 37.3899 263.688 34.8714 262.428 32.6543C262.428 32.6543 261.307 32.6543 260.886 32.6543V31.9536L259.624 33.0745C258.222 33.0745 254.296 37.5572 251.912 38.818C250.106 40.2383 248.183 41.5034 246.164 42.6001C243.111 44.1555 240.432 46.3539 238.312 49.0438V50.4448C237.47 51.4253 235.507 52.6861 235.367 53.1064C234.335 54.9906 233.063 56.7328 231.581 58.2894C230.319 59.8303 229.058 61.2314 228.216 62.4922C227.375 63.7529 224.15 67.2549 222.187 69.3561H226.954C227.558 69.4506 228.173 69.4506 228.777 69.3561H229.618C230.44 69.6142 231.321 69.6142 232.142 69.3561H235.227C235.227 69.3561 235.227 69.3561 236.629 69.3561C237.275 69.2114 237.946 69.2114 238.592 69.3561C240.397 69.8157 242.075 70.6777 243.499 71.8775C245.743 70.3366 247.566 71.8775 249.809 71.8775C252.052 71.8775 254.716 70.4767 256.399 71.8775C258.645 72.7961 261.163 72.7961 263.41 71.8775L266.354 70.3368V69.6361C265.503 68.5244 264.458 67.5755 263.27 66.8347C262.947 65.9768 262.947 65.031 263.27 64.1731L264.812 62.4922H263.69C264.047 61.1539 264.131 59.7574 263.938 58.386C263.745 57.0146 263.28 55.6959 262.568 54.5073C262.176 53.8001 261.969 53.0046 261.969 52.1958C261.969 51.387 262.176 50.5914 262.568 49.8843C262.909 49.3025 263.284 48.7413 263.69 48.2034L262.989 49.0438" fill="#888D8A" fill-opacity="0.1"/>
<path d="M1.21313 103.954C1.26321 104.279 1.26321 104.609 1.21313 104.934C1.21313 107.036 1.21313 111.238 1.21313 110.397L5.13906 114.32L8.7845 117.122C12.0094 119.923 16.2159 125.246 17.4778 126.227C23.3667 131.41 28.975 136.873 34.1629 142.197L42.1551 150.181L51.5493 159.287L63.7477 171.054V125.947V121.744C63.8187 120.391 63.8187 119.035 63.7477 117.682C63.7477 116.701 63.7477 115.861 63.7477 114.88C64.2026 112.379 64.2026 109.817 63.7477 107.316C63.7477 105.915 63.7477 107.316 63.7477 107.316V106.195L69.6368 111.798C70.8124 113.319 72.0764 114.769 73.4223 116.141C76.7874 119.783 80.0125 123.425 82.1156 126.227L81.2742 132.531C81.2742 134.772 80.5733 136.733 80.1527 138.274C81.0618 145.427 81.3899 152.641 81.1341 159.847L81.8352 173.855C81.8352 176.097 81.8352 178.338 81.8352 180.299V190.105L85.6209 194.167L88.4251 197.109L94.0336 202.432C96.5574 204.674 99.0813 206.915 101.605 208.876H102.306H103.147L104.69 210.137L115.346 217.981L116.187 218.682L123.198 225.686V223.585L124.319 224.565C124.745 223.166 124.865 221.692 124.672 220.242C124.478 218.792 123.976 217.4 123.198 216.161V160.127C123.12 158.961 123.12 157.791 123.198 156.625V145.699L119.973 142.477L116.888 138.834L109.457 130.71L93.1923 113.899C91.2293 111.798 89.1263 111.378 87.1633 109.277L84.9198 106.055C82.9569 103.954 79.732 101.152 79.031 100.031C78.3299 98.9106 76.507 96.8092 74.9647 94.9881C73.4223 93.167 73.4224 93.1672 72.5811 92.1867L69.2159 88.6846H59.6816L54.2133 83.3613C54.2133 85.1824 54.2133 86.8635 54.2133 88.6846H52.9515C47.9038 88.6846 42.9964 88.6846 38.9303 88.6846C34.8641 88.6846 30.6576 88.6846 26.311 88.6846H19.5809H11.1681H8.50423L5.13906 90.3655H4.29782C4.39468 90.9217 4.39468 91.4903 4.29782 92.0464C4.36048 92.8858 4.36048 93.7285 4.29782 94.5678C4.29782 94.5678 4.29782 94.5679 4.29782 95.5485H3.45658C3.005 96.001 2.62655 96.5211 2.33486 97.0897C1.80042 98.0894 1.46688 99.1837 1.35327 100.311C1.20631 101.239 1.20631 102.185 1.35327 103.113L1.21313 103.954Z" fill="#888D8A" fill-opacity="0.1"/>
<path d="M169.888 120.627C167.925 122.588 167.364 124.69 165.401 126.651L162.036 129.032C160.073 130.994 157.128 134.075 156.007 134.916C154.023 136.261 152.148 137.76 150.398 139.398L147.314 142.06L143.528 145.702V161.251C143.528 166.014 143.528 170.637 143.528 174.419C143.528 182.684 143.528 191.37 142.546 200.895V208.179C142.546 210.981 142.546 214.063 142.546 217.285V237.177L148.575 231.153L153.202 225.69C155.306 223.449 157.97 221.067 160.213 218.966C162.456 216.865 164.7 214.903 165.401 214.063L168.766 210.421L171.57 207.339L177.319 201.455L189.377 189.408V181.984C189.377 180.023 189.377 178.061 189.377 176.1C189.377 167.415 189.377 158.59 189.377 150.045V125.951L192.602 122.448H193.443C194.305 121.408 195.057 120.281 195.687 119.086L197.51 117.125C199.413 115.494 201.025 113.552 202.277 111.382C203.679 110.401 202.277 111.382 203.258 111.382L208.306 105.918V107.88C208.196 109.886 208.196 111.897 208.306 113.903C208.306 117.685 208.306 121.468 207.605 124.55V128.892C207.605 130.573 207.605 132.114 207.605 133.515C207.605 134.916 207.605 136.316 206.904 137.577V139.258V141.22C207.616 145.853 207.897 150.543 207.745 155.228C207.745 160.271 207.745 166.014 207.745 170.357V173.299L219.663 160.411C222.728 156.895 226.056 153.616 229.618 150.605L233.404 147.243L236.489 144.161C238.592 142.2 240.415 140.239 242.237 138.418C244.06 136.597 247.565 132.394 249.809 129.453L250.51 128.752V127.911V127.071L257.941 116.985L267.055 107.88C265.513 106.339 266.214 104.377 267.055 102.556C267.379 101.904 267.473 101.161 267.32 100.448C267.167 99.736 266.777 99.0965 266.214 98.634C265.092 97.9336 266.214 92.1902 267.476 91.2096H216.018V83.085L208.026 91.3498H201.436L198.631 94.1513L194.705 97.6533C192.041 99.8947 189.377 102.416 186.573 104.938L169.888 120.627Z" fill="#888D8A" fill-opacity="0.1"/>
<path d="M204.522 27.893C205.053 30.3393 205.053 32.871 204.522 35.3174C203.508 37.9794 203.508 40.9202 204.522 43.5822H202.979C202.979 43.5822 203.82 43.5822 204.662 43.5822C205.232 44.8398 205.888 46.0569 206.625 47.2246V51.8471L207.746 50.7267V51.8471C210.551 51.8471 213.776 50.8665 214.617 46.5239C214.682 45.8718 214.682 45.2151 214.617 44.5629V42.4613L218.823 38.3992H219.945L223.17 35.1771C224.118 34.7186 225.012 34.1548 225.834 33.4962L228.919 30.8346L232.143 28.0327C232.845 27.3323 232.144 26.3521 232.845 25.7918H234.527C235.109 25.1113 235.768 24.5001 236.49 23.9706C238.982 22.7138 241.216 21.0033 243.08 18.9274C245.083 16.9061 247.189 14.989 249.39 13.1839C250.88 12.0758 252.286 10.8587 253.596 9.54204C254.858 8.42137 256.4 7.02028 258.644 5.33927L260.887 3.65834C260.887 3.65834 260.887 3.65837 260.887 2.81787C259.341 3.38525 257.745 3.80728 256.12 4.07857L252.054 5.61971C249.53 5.61971 246.585 5.61971 245.323 5.61971L238.733 6.74019C237.051 6.74019 235.228 7.58066 234.387 7.58066C233.383 7.77717 232.398 8.05831 231.442 8.42113C230.461 8.42113 228.919 8.42113 227.376 8.42113L225.553 7.30065C224.841 6.69469 224.092 6.13335 223.31 5.61971H222.048H219.244C217.401 5.92177 215.637 6.58831 214.056 7.58066L212.093 9.1218H211.252C210.27 9.1218 209.85 10.2421 210.13 10.9425C210.41 11.643 209.429 10.9426 208.868 10.1021H208.167V9.82205C208.012 10.4666 208.012 11.1389 208.167 11.7834C208.236 12.6693 208.236 13.5588 208.167 14.4446C208.231 15.1436 208.231 15.8472 208.167 16.5462V17.6667C208.228 17.9436 208.228 18.2303 208.167 18.5072C207.76 19.3798 207.292 20.2223 206.765 21.0286C208.448 22.8497 206.765 25.091 207.606 27.1923" fill="#888D8A" fill-opacity="0.1"/>
<path d="M142.127 71.8793C142.666 76.2521 142.666 80.6745 142.127 85.0472C141.181 89.9047 141.181 94.8988 142.127 99.7563C142.51 101.413 142.978 103.049 143.529 104.659L141.846 105.64C141.846 105.64 142.968 105.64 143.529 104.939L144.37 107.461V113.204L145.632 111.943V113.204C148.156 112.364 151.241 111.523 152.222 104.939L167.786 89.3898C168.285 89.0008 168.857 88.7151 169.468 88.5493L175.076 82.8058L176.759 81.6854L180.545 78.6035L184.751 74.6812V66.4163C184.751 64.8754 183.629 64.0349 183.629 62.494L184.471 60.5326C184.328 59.0886 184.328 57.6341 184.471 56.19C185.651 48.8738 186.167 41.4661 186.013 34.057C186.013 29.8545 186.013 25.5119 186.994 20.0487C187.128 18.6042 187.128 17.1505 186.994 15.7061C186.994 13.7449 186.994 11.6436 186.994 9.54238L185.312 6.32031L184.33 4.77959H181.947H181.246H179.844L177.881 3.65868C177.283 3.06195 176.482 2.71179 175.637 2.678C174.593 2.31504 173.457 2.31504 172.412 2.678C171.168 3.24275 169.992 3.94808 168.907 4.77959C168.677 4.72028 168.436 4.72028 168.206 4.77959L165.682 4.07892H164.561C162.625 3.0933 160.541 2.43104 158.391 2.11797C156.131 1.68472 153.791 2.08257 151.801 3.23845H150.82H148.857C147.477 3.09297 146.115 2.81146 144.791 2.39798C143.809 3.65874 142.407 2.39815 142.828 5.19983V20.1884V27.6129C142.828 28.5934 142.828 29.7142 143.669 29.8543C144.51 29.9943 143.669 30.9749 143.669 31.5352C143.411 32.1322 143.277 32.776 143.277 33.4265C143.277 34.077 143.411 34.7207 143.669 35.3177C143.669 36.5785 143.669 35.3175 142.968 36.4382C142.267 37.5589 142.968 40.2205 142.968 42.1817C142.732 43.2427 142.732 44.3427 142.968 45.4038C142.753 50.5659 141.76 55.6661 140.023 60.5326C141.846 63.7545 140.024 67.8169 141.005 71.4591" fill="#888D8A" fill-opacity="0.1"/>
<path d="M47.2026 182.682L45.5202 180.721L42.0148 176.658L37.9486 172.455L36.2661 171.615H35.565C35.3921 171.228 35.1191 170.894 34.774 170.648C34.429 170.402 34.0244 170.252 33.602 170.214C33.602 170.214 33.602 170.214 33.602 169.514C32.6965 168.842 31.8521 168.092 31.0783 167.272C31.0783 167.272 31.0781 166.572 30.2369 165.872L28.975 163.91C27.8137 162.118 27.0048 160.121 26.5914 158.027C24.2078 158.027 23.7871 155.505 21.9644 154.665C20.1416 153.824 17.4777 152.143 16.7766 150.322C15.5206 148.013 13.4827 146.225 11.0278 145.279H10.0465L6.82142 144.439L4.71832 142.337V143.738C3.03578 145.98 1.07272 148.641 3.31612 152.003C3.61655 152.566 4.04985 153.047 4.57819 153.404C4.57819 154.385 5.27906 155.225 5.6997 156.346V157.747C5.62125 158.21 5.62125 158.684 5.6997 159.148L4.99881 159.988C4.71497 161.327 4.71497 162.711 4.99881 164.051C4.79856 165.021 4.79856 166.022 4.99881 166.992V168.673C5.07813 169.278 5.07813 169.89 4.99881 170.494V172.315V174.276C4.99881 175.257 6.26068 174.276 5.84005 175.537L4.57819 176.938C4.57819 177.638 3.8771 178.479 3.45646 178.899C2.89781 179.838 2.56195 180.893 2.47488 181.981C2.34866 182.535 2.34866 183.109 2.47488 183.662H3.31612C5.32272 183.504 7.33875 183.504 9.34536 183.662C11.4485 184.363 14.1125 183.662 16.9167 184.923C20.3433 185.588 23.866 185.588 27.2925 184.923L28.5544 184.223C29.9088 184.15 31.2662 184.15 32.6206 184.223C34.7222 183.633 36.8883 183.304 39.0703 183.242H44.819L47.2026 182.682Z" fill="#888D8A" fill-opacity="0.1"/>
<path d="M266.354 145.703C266.497 145.105 266.497 144.481 266.354 143.882C266.422 143.277 266.422 142.666 266.354 142.061C266.354 141.361 265.373 142.061 265.092 141.361C265.134 140.895 265.134 140.426 265.092 139.96L263.55 141.361C262.072 141.969 260.736 142.875 259.624 144.022C257.801 145.423 256.119 146.964 254.717 147.805C253.315 148.645 250.931 150.886 248.547 152.147C247.198 152.776 245.966 153.628 244.902 154.669L241.397 158.311V159.572C240.942 160.059 240.423 160.483 239.854 160.832L238.452 161.953C236.941 164.18 235.15 166.204 233.124 167.977C231.301 169.798 229.479 171.619 228.357 173.019C225.132 176.802 221.206 180.724 218.542 183.806H222.468H221.486L224.711 182.965H225.973C225.973 182.965 227.516 182.965 229.338 182.965C231.161 182.965 229.338 182.966 229.338 183.666C230.597 183.537 231.865 183.537 233.124 183.666C233.124 183.666 233.124 183.666 234.666 183.666H236.91C238.809 184.1 240.584 184.962 242.098 186.187C243.365 185.435 244.834 185.093 246.304 185.207C247.609 185.347 248.925 185.347 250.23 185.207C252.473 185.207 255.137 183.666 256.96 184.366C258.136 184.863 259.399 185.119 260.676 185.119C261.952 185.119 263.216 184.863 264.391 184.366L265.793 183.666L266.635 182.545C266.85 181.861 266.85 181.128 266.635 180.444C266.383 179.696 265.95 179.022 265.373 178.483C265.373 177.783 265.373 177.082 264.251 176.242V173.3H262.569C262.764 172.054 263.093 170.833 263.55 169.658C265.001 166.626 265.858 163.345 266.074 159.992C266.021 159.573 266.021 159.15 266.074 158.731H265.373V157.33C265.008 156.52 264.726 155.675 264.532 154.809C264.532 153.548 264.532 152.287 264.532 151.166C264.847 149.827 265.269 148.516 265.793 147.244" fill="#888D8A" fill-opacity="0.1"/>
<path d="M125.722 259.732C124.758 259.169 123.719 258.745 122.637 258.471L93.1926 229.053C92.7374 228.449 92.3605 227.791 92.0708 227.092L85.0602 220.088C84.0787 218.687 82.8169 217.146 81.4148 215.465L75.8062 209.301L69.4967 202.718H67.2532C66.3737 202.544 65.4689 202.544 64.5894 202.718C63.8 202.846 62.9949 202.846 62.2056 202.718L59.6819 202.017C57.8624 202.173 56.033 202.173 54.2136 202.017C45.1366 200.983 36.008 200.469 26.8722 200.476H22.806H18.5998C15.0945 200.476 11.4488 200.476 7.24241 200.476H2.75573C2.75573 200.476 1.35358 200.476 1.634 200.476C1.83756 202.432 2.26081 204.359 2.89586 206.22L3.87745 209.582V210.562H4.57855L3.45683 212.244C2.88518 213.337 2.37038 214.459 1.91449 215.605C1.70531 216.858 1.70531 218.135 1.91449 219.388C1.78176 220.364 1.78176 221.353 1.91449 222.33C2.23911 223.328 2.71161 224.272 3.31648 225.131L4.85882 227.372C4.85882 227.372 4.85882 228.213 4.85882 228.353V229.474V230.594C4.03938 233.527 4.03938 236.627 4.85882 239.56V241.241C4.85882 241.241 4.85882 241.241 4.85882 241.941C4.31414 243.194 3.93697 244.513 3.7371 245.864V247.404C3.53953 248.751 3.53953 250.12 3.7371 251.467C3.7134 252.793 4.05288 254.101 4.71869 255.249C4.78678 255.572 4.78678 255.906 4.71869 256.23C4.77861 256.976 4.77861 257.725 4.71869 258.471V262.253H5.84041C8.17052 262.504 10.5209 262.504 12.851 262.253H16.0758H16.7769H19.5812C20.7871 262.465 22.0207 262.465 23.2266 262.253L26.1711 260.853L28.5547 259.452H29.6764C30.6451 260.08 31.7515 260.464 32.9013 260.572H34.3035H36.2664C36.9195 260.734 37.6013 260.743 38.2583 260.597C38.9152 260.452 39.5294 260.155 40.0522 259.732C41.1739 259.732 41.1739 259.732 41.3141 259.732C41.4543 259.732 41.3141 259.732 42.0152 259.732L44.8194 257.351C45.4451 256.933 46.1713 256.691 46.9225 256.65H47.7637L49.4464 257.631H50.7083C52.2857 257.902 53.898 257.902 55.4754 257.631H60.9437C60.9437 257.631 60.9438 257.631 61.6448 257.631L65.1501 259.311L67.674 260.572H71.8802L74.6847 259.732C75.1363 259.501 75.5597 259.219 75.9465 258.891H77.2084C77.2084 258.891 78.8909 258.891 80.7137 258.891H82.3962L85.0602 259.872C85.9434 260.002 86.8411 260.002 87.7243 259.872C88.5805 260.208 89.5322 260.208 90.3884 259.872L92.6318 258.751H94.1741H95.2957C95.6445 259.161 96.0742 259.495 96.5577 259.732C97.4315 260.185 98.3827 260.47 99.3619 260.572C100.197 260.719 101.051 260.719 101.886 260.572H103.007H103.989C105.532 261.259 107.232 261.518 108.91 261.321C110.588 261.123 112.182 260.478 113.523 259.452H114.785H118.711H122.076V258.611V255.389L124.46 253.708L125.722 252.868" fill="#888D8A" fill-opacity="0.1"/>
<path d="M268.457 271.497V269.816L267.616 266.174C267.616 265.474 267.616 264.773 267.616 264.073H266.775C267.379 263.264 267.851 262.366 268.177 261.411C268.598 259.567 268.598 257.652 268.177 255.808V254.407V253.287C268.008 252.475 267.774 251.679 267.476 250.905C267.44 250.532 267.44 250.157 267.476 249.785V249.084C267.344 248.626 267.344 248.141 267.476 247.683C267.4 247.22 267.4 246.746 267.476 246.283V244.741C268.07 242.444 268.07 240.034 267.476 237.737C267.168 236.533 266.645 235.395 265.934 234.375C265.934 234.375 265.934 233.254 265.934 231.994L267.616 229.192V228.492C267.634 228.165 267.634 227.838 267.616 227.511C267.699 225.832 267.258 224.167 266.354 222.749C265.572 221.428 264.577 220.245 263.41 219.246C262.809 218.599 262.475 217.748 262.475 216.865C262.475 215.982 262.809 215.131 263.41 214.483H265.793L264.111 212.802C265.084 211.392 265.665 209.748 265.793 208.04H259.484H258.222H257.381V208.88H230.881H228.637H218.682H216.859C213.214 208.88 209.428 208.88 204.521 208.18L196.248 216.024C194.846 217.145 194.846 218.826 193.584 220.087L191.341 221.348C190.145 222.72 188.831 223.986 187.415 225.13C180.211 230.759 173.373 236.842 166.944 243.341C162.878 246.703 159.232 250.765 154.465 254.547C153.082 255.477 151.77 256.507 150.539 257.629L149.557 258.61L148.155 259.871L145.211 262.812V278.081L150.819 275.7C151.326 275.576 151.855 275.576 152.362 275.7L154.044 274.999C154.551 274.875 155.08 274.875 155.587 274.999C156.418 275.495 157.315 275.873 158.251 276.12C159.764 276.545 161.365 276.545 162.878 276.12C164.369 275.737 165.824 275.221 167.224 274.579L168.907 273.739H170.169H171.15H172.132H173.394H174.235H174.936H175.917C176.571 274.195 177.277 274.572 178.021 274.86C178.988 275.097 179.998 275.097 180.965 274.86C181.702 275.038 182.471 275.038 183.208 274.86C183.909 274.41 184.526 273.84 185.031 273.178H185.872C188.299 274.225 190.972 274.565 193.584 274.159C195.427 273.663 197.3 273.289 199.193 273.039H201.436C202.646 273.197 203.871 273.197 205.081 273.039C206.326 272.997 207.556 272.76 208.727 272.338L210.41 271.638L211.812 270.937C212.478 270.462 213.181 270.04 213.915 269.676H214.616L217 271.217L219.944 272.478H220.785V273.178C221.887 273.476 223.048 273.476 224.15 273.178L226.113 272.338L227.656 271.217C228.38 270.627 228.996 269.916 229.478 269.116C230.74 269.116 229.478 269.116 230.74 269.116C231.107 268.92 231.516 268.817 231.932 268.817C232.348 268.817 232.757 268.92 233.124 269.116C234.151 269.783 235.292 270.258 236.489 270.517H237.33C238.58 270.762 239.866 270.762 241.116 270.517H242.378C243.585 270.316 244.817 270.316 246.023 270.517L249.389 272.198C250.701 272.745 252.063 273.167 253.455 273.459H257.381H258.362C258.725 273.331 259.121 273.331 259.484 273.459L261.587 274.439C264.503 274.572 267.364 275.286 270 276.541C270 276.541 270 276.541 270 275.7" fill="#888D8A" fill-opacity="0.1"/>
<path d="M80.5732 32.9331C81.1114 37.259 81.1114 41.6348 80.5732 45.9608C79.7067 50.5901 79.7067 55.3398 80.5732 59.9691C81.1725 62.5322 81.9214 65.0582 82.8165 67.5338V73.137L106.372 96.6714C106.372 96.6714 106.372 97.9319 107.494 98.6323L113.102 104.236C115.882 107.913 118.878 111.421 122.076 114.742V105.917C121.841 104.08 121.514 102.257 121.094 100.453V99.0526C120.936 97.5157 120.936 95.9669 121.094 94.43C121.957 90.7594 122.334 86.9915 122.216 83.2231C122.216 79.1606 122.216 75.0984 122.216 72.0165C122.216 68.9347 122.216 63.4714 123.198 58.0082C123.71 52.6037 123.71 47.1629 123.198 41.7584V39.517C123.198 37.2757 123.198 33.9138 123.198 33.0733C122.99 29.2004 122.99 25.319 123.198 21.4461V15.9831C123.198 13.6017 123.198 11.3602 123.198 9.25894V1.13428H122.356C120.623 1.82123 118.842 2.38294 117.028 2.81521H114.364H111.84H110.859H108.616C106.976 2.28032 105.208 2.28032 103.568 2.81521L102.166 3.7959H100.343V3.09523H97.5387C96.8543 3.25327 96.225 3.59201 95.7161 4.07591H94.8747H93.6128C92.3509 4.07591 93.6129 4.0761 92.351 2.95543C91.234 3.10064 90.1028 3.10064 88.9858 2.95543L87.5838 2.25476H86.7424C85.4378 2.22433 84.1587 2.61781 83.0969 3.37567C83.0969 4.49633 83.0969 5.617 83.0969 6.87776L81.8351 13.7417V15.2829V16.4033C81.6039 17.1224 81.3228 17.8245 80.9939 18.5045C82.8166 21.7264 80.9937 25.649 81.9752 29.2912" fill="#888D8A" fill-opacity="0.1"/>
<path d="M18.0391 12.6223V13.4628H18.8804L18.1793 15.844C18.1793 15.844 18.1793 15.8441 18.1793 15.1437V15.844L19.7216 16.8246C19.9938 16.9208 20.2909 16.9208 20.5631 16.8246L23.6475 19.4863C23.6475 19.4863 24.7693 19.4863 25.0497 19.4863H25.891C26.0774 19.8404 26.3612 20.1338 26.7089 20.3323C27.0566 20.5308 27.4539 20.6261 27.8539 20.6067C27.8539 20.6067 27.8539 20.6067 27.8539 21.4472C28.7624 22.063 29.6078 22.7671 30.3779 23.5488C30.3779 23.5488 30.3778 24.3891 31.3592 25.0895C33.3288 27.3726 34.6803 30.1216 35.2852 33.0744C37.809 33.0744 38.3699 35.7361 40.1927 36.7167C42.0154 37.6973 45.1001 39.5183 45.9414 41.4795C47.2981 43.931 49.4857 45.8186 52.1108 46.8027H52.952L52.2509 48.4837C53.0922 48.4837 52.2509 47.6429 53.0922 46.9425L57.1584 48.0634L59.4017 50.3048V48.7637H60.5234C62.0657 46.3823 64.0287 43.861 61.6451 40.2188C61.254 39.6407 60.7817 39.1215 60.2429 38.6776L59.4017 36.5765V30.4128V24.3893C59.4017 24.3893 59.4017 23.2684 59.4017 22.8481C59.4017 22.4279 59.4017 20.0468 59.4017 18.786V14.163C59.4017 14.163 59.4017 13.3227 59.4017 13.0425V11.5014C59.4017 11.5014 59.4017 10.1008 59.4017 9.54045C59.4708 9.07605 59.4708 8.60392 59.4017 8.13953L56.4573 6.7386C53.8636 6.2428 51.1992 6.2428 48.6055 6.7386L46.6425 7.43885H45.5208C45.5208 7.43885 44.6794 7.43904 44.1186 6.31837C43.3735 5.12703 42.3665 4.1211 41.174 3.37674H39.4916C38.7498 3.24285 37.9899 3.24285 37.2481 3.37674C36.0381 3.21824 34.8127 3.21824 33.6027 3.37674L32.3408 4.63744L30.0974 5.4779H29.2561C28.8398 6.00509 28.3135 6.43526 27.7138 6.7386C26.3469 4.86106 24.7448 3.16645 22.9466 1.6958L22.2455 4.2172L21.264 3.37674V4.49722H19.4413H16.9174L10.748 5.61812L15.2349 9.68024L18.4598 12.6223" fill="#888D8A" fill-opacity="0.1"/>
</svg>
