<svg width="166" height="35" viewBox="0 0 166 35" fill="none" xmlns="http://www.w3.org/2000/svg">
<path d="M15.7856 -3.05176e-05H11.5021V9.10792L15.7856 13.3954V-3.05176e-05Z" fill="url(#paint0_linear_1201_444)"/>
<path d="M8.12168 -3.05176e-05H2.39441L8.12168 5.72724V-3.05176e-05Z" fill="url(#paint1_linear_1201_444)"/>
<path d="M0 2.38235V8.12554H5.74318L0 2.38235Z" fill="url(#paint2_linear_1201_444)"/>
<path d="M8.12159 16.9073H11.5023V25.5579L15.7858 29.8454V18.1721L9.11193 11.4982H0V14.0556L8.12159 22.1772V16.9073Z" fill="url(#paint3_linear_1201_444)"/>
<path d="M11.8364 30.6727L11.8324 30.6687L7.55286 34.9482H11.8364H16.1159L11.8364 30.6687V30.6727Z" fill="url(#paint4_linear_1201_444)"/>
<path d="M0 18.8323V24.5795H5.74318L0 18.8323Z" fill="url(#paint5_linear_1201_444)"/>
<path d="M0 27.9483V34.9483H2.11193L9.11193 27.9483H0Z" fill="url(#paint6_linear_1201_444)"/>
<path d="M26.8265 -6.10352e-05V5.72721L32.5538 -6.10352e-05H26.8265Z" fill="url(#paint7_linear_1201_444)"/>
<path d="M23.45 -6.10352e-05H19.1625V13.3954L23.45 9.10789V-6.10352e-05Z" fill="url(#paint8_linear_1201_444)"/>
<path d="M29.205 8.12551H34.9481V2.38232L29.205 8.12551Z" fill="url(#paint9_linear_1201_444)"/>
<path d="M19.1625 18.1721V29.8454L23.45 25.5579V16.9073H26.8267V22.1772L34.9483 14.0556V11.4982H25.8363L19.1625 18.1721Z" fill="url(#paint10_linear_1201_444)"/>
<path d="M23.1158 30.6726V30.6687V30.6726L23.1118 30.6687L18.8323 34.9482H23.1158H27.3953L23.1158 30.6687V30.6726Z" fill="url(#paint11_linear_1201_444)"/>
<path d="M34.9481 24.5795V18.8323L29.205 24.5795H34.9481Z" fill="url(#paint12_linear_1201_444)"/>
<path d="M32.8402 34.9482H34.9481V27.9482H25.8362L32.8402 34.9482Z" fill="url(#paint13_linear_1201_444)"/>
<path d="M150.432 12.6517C149.47 11.9994 148.348 11.6574 147.187 11.6574H145.54C144.379 11.6574 143.257 12.0034 142.295 12.6517C140.684 13.7415 139.725 15.5432 139.725 17.4722C139.725 19.4011 140.688 21.2028 142.295 22.2926C143.257 22.9449 144.379 23.2869 145.54 23.2869H147.187C148.348 23.2869 149.47 22.9409 150.432 22.2926C152.043 21.2028 153.002 19.4011 153.002 17.4722C153.002 15.5432 152.039 13.7375 150.432 12.6517ZM149.947 17.4722C149.947 19.2062 148.71 20.6182 147.187 20.6182H145.54C144.017 20.6182 142.78 19.2062 142.78 17.4722C142.78 15.7381 144.017 14.3261 145.54 14.3261H147.187C148.71 14.3261 149.947 15.7381 149.947 17.4722Z" fill="#2A2A29"/>
<path d="M88.884 16.1398H80.9812V11.6574H77.9266V23.2909H80.9812V18.8085H88.884V23.2909H91.9425V11.6574H88.884V16.1398Z" fill="#2A2A29"/>
<path d="M108.87 11.6574L105.986 16.1398H104.578L104.574 11.6574H101.508V16.1398H100.108L97.2165 11.6574H93.5734L97.3637 17.4722L93.5734 23.2909H97.2165L100.104 18.8085H101.508L101.512 23.2909H104.578V18.8085H105.982L108.87 23.2909H112.513L108.723 17.4722L112.513 11.6574H108.87Z" fill="#2A2A29"/>
<path d="M165.319 11.6574H161.672L158.789 16.1398H157.369V11.6574H154.314V23.2909H157.369V18.8085H158.785L161.672 23.2909H165.319L161.525 17.4722L165.319 11.6574Z" fill="#2A2A29"/>
<path d="M114.263 23.2909H124.811V20.6142L117.318 20.6182V18.8085H123.057V16.1398H117.318V14.3261L124.811 14.3341V11.6574H114.263V23.2909Z" fill="#2A2A29"/>
<path d="M67.005 11.6574L68.0192 13.4352L62.3278 23.2909H65.4101L66.492 21.4136H72.5653L73.6351 23.2909H77.0795L70.3857 11.6574H67.0011H67.005ZM68.055 18.7131L69.5505 16.1199L71.03 18.7131H68.055Z" fill="#2A2A29"/>
<path d="M135.247 11.6574H126.923V23.2909H129.981V18.8085H135.251C137.216 18.8085 138.823 17.2057 138.827 15.2329C138.827 13.2602 137.224 11.6574 135.251 11.6574H135.247ZM129.977 16.1398V14.3301H134.881C135.37 14.342 135.7 14.7437 135.7 15.2369C135.7 15.7062 135.339 16.092 134.881 16.1358L129.977 16.1437V16.1398Z" fill="#2A2A29"/>
<path d="M59.7108 11.6613L53.904 16.7124L48.0972 11.6613H46.3193V23.2948H49.3739V16.609L53.904 20.5465L58.4341 16.609V23.2948H61.4887V11.6613H59.7108Z" fill="#2A2A29"/>
<defs>
<linearGradient id="paint0_linear_1201_444" x1="-5.31383" y1="37.5057" x2="17.4322" y2="0.536904" gradientUnits="userSpaceOnUse">
<stop stop-color="#B1E373"/>
<stop offset="1" stop-color="#67B444"/>
</linearGradient>
<linearGradient id="paint1_linear_1201_444" x1="-13.109" y1="32.7091" x2="9.641" y2="-4.25571" gradientUnits="userSpaceOnUse">
<stop stop-color="#B1E373"/>
<stop offset="1" stop-color="#67B444"/>
</linearGradient>
<linearGradient id="paint2_linear_1201_444" x1="-13.7733" y1="32.2994" x2="8.97671" y2="-4.66537" gradientUnits="userSpaceOnUse">
<stop stop-color="#B1E373"/>
<stop offset="1" stop-color="#67B444"/>
</linearGradient>
<linearGradient id="paint3_linear_1201_444" x1="-3.24943" y1="38.7744" x2="19.5006" y2="1.80959" gradientUnits="userSpaceOnUse">
<stop stop-color="#B1E373"/>
<stop offset="1" stop-color="#67B444"/>
</linearGradient>
<linearGradient id="paint4_linear_1201_444" x1="5.98581" y1="44.4579" x2="28.7318" y2="7.49313" gradientUnits="userSpaceOnUse">
<stop stop-color="#B1E373"/>
<stop offset="1" stop-color="#67B444"/>
</linearGradient>
<linearGradient id="paint5_linear_1201_444" x1="-6.42727" y1="36.8176" x2="16.3188" y2="-0.147209" gradientUnits="userSpaceOnUse">
<stop stop-color="#B1E373"/>
<stop offset="1" stop-color="#67B444"/>
</linearGradient>
<linearGradient id="paint6_linear_1201_444" x1="-2.42216" y1="39.2835" x2="20.3279" y2="2.31873" gradientUnits="userSpaceOnUse">
<stop stop-color="#B1E373"/>
<stop offset="1" stop-color="#67B444"/>
</linearGradient>
<linearGradient id="paint7_linear_1201_444" x1="42.8112" y1="33.4448" x2="27.1209" y2="-3.12222" gradientUnits="userSpaceOnUse">
<stop stop-color="#1488CC"/>
<stop offset="1" stop-color="#0C4DC1"/>
</linearGradient>
<linearGradient id="paint8_linear_1201_444" x1="34.3397" y1="37.0801" x2="18.6534" y2="0.509031" gradientUnits="userSpaceOnUse">
<stop stop-color="#1488CC"/>
<stop offset="1" stop-color="#0C4DC1"/>
</linearGradient>
<linearGradient id="paint9_linear_1201_444" x1="43.9606" y1="32.9516" x2="28.2743" y2="-3.61541" gradientUnits="userSpaceOnUse">
<stop stop-color="#1488CC"/>
<stop offset="1" stop-color="#0C4DC1"/>
</linearGradient>
<linearGradient id="paint10_linear_1201_444" x1="34.1329" y1="37.1675" x2="18.4466" y2="0.60047" gradientUnits="userSpaceOnUse">
<stop stop-color="#1488CC"/>
<stop offset="1" stop-color="#0C4DC1"/>
</linearGradient>
<linearGradient id="paint11_linear_1201_444" x1="25.6294" y1="40.8147" x2="9.94306" y2="4.24765" gradientUnits="userSpaceOnUse">
<stop stop-color="#1488CC"/>
<stop offset="1" stop-color="#0C4DC1"/>
</linearGradient>
<linearGradient id="paint12_linear_1201_444" x1="37.9987" y1="35.509" x2="22.3123" y2="-1.05801" gradientUnits="userSpaceOnUse">
<stop stop-color="#1488CC"/>
<stop offset="1" stop-color="#0C4DC1"/>
</linearGradient>
<linearGradient id="paint13_linear_1201_444" x1="34.3157" y1="37.088" x2="18.6294" y2="0.520964" gradientUnits="userSpaceOnUse">
<stop stop-color="#1488CC"/>
<stop offset="1" stop-color="#0C4DC1"/>
</linearGradient>
</defs>
</svg>
