<svg width="12" height="16" viewBox="0 0 12 16" fill="none" xmlns="http://www.w3.org/2000/svg">
<path fill-rule="evenodd" clip-rule="evenodd" d="M6 1.5C4.61883 1.5 3.5 2.61857 3.5 3.99804C3.5 5.37751 4.61883 6.49609 6 6.49609C7.38117 6.49609 8.5 5.37751 8.5 3.99804C8.5 2.61857 7.38117 1.5 6 1.5ZM2.5 3.99804C2.5 2.06567 4.06717 0.5 6 0.5C7.93283 0.5 9.5 2.06567 9.5 3.99804C9.5 5.93041 7.93283 7.49609 6 7.49609C4.06717 7.49609 2.5 5.93041 2.5 3.99804ZM4 10.4941C2.61918 10.4941 1.5 11.613 1.5 12.9936V14.4909H10.5V12.9936C10.5 11.613 9.38082 10.4941 8 10.4941H4ZM0.5 12.9936C0.5 11.0605 2.06711 9.49414 4 9.49414H8C9.93289 9.49414 11.5 11.0605 11.5 12.9936V15.4909H0.5V12.9936Z" fill="#393939"/>
</svg>
