<svg width="87" height="22" viewBox="0 0 87 22" fill="none" xmlns="http://www.w3.org/2000/svg">
<path d="M5.17022 7.5036C5.27743 7.50588 5.38283 7.4758 5.47265 7.41727C5.54973 7.35946 5.61355 7.28589 5.65987 7.20145C5.70205 7.11371 5.7358 7.02217 5.76068 6.92807C5.76603 6.85142 5.76603 6.77449 5.76068 6.69785C5.77329 6.61198 5.77329 6.52474 5.76068 6.43886C5.74735 6.33897 5.71818 6.24181 5.67428 6.15108C5.63198 6.05188 5.56199 5.96694 5.47265 5.90645C5.38908 5.83282 5.28164 5.79194 5.17022 5.79136H3.47082V3.84891H4.07569L5.18461 2.41006H2.30427V7.57552L5.17022 7.5036ZM6.61039 4.12229C6.89161 4.23664 7.14285 4.41386 7.34487 4.6403C7.51695 4.8464 7.65326 5.07982 7.74813 5.33092C7.8439 5.5608 7.90692 5.80297 7.93534 6.05035C7.95429 6.26576 7.95429 6.48243 7.93534 6.69785C7.93351 6.99794 7.89971 7.29698 7.83453 7.58993C7.77315 7.93026 7.64065 8.25384 7.44568 8.53957C7.22422 8.85672 6.92727 9.11383 6.58158 9.28776C6.13059 9.49604 5.63816 9.59934 5.14141 9.5899H0V0.0935364H6.81201L8.3962 1.7338L6.61039 4.12229Z" fill="#888D8A"/>
<path d="M14.949 2.41006V4.1079H11.2766V7.34531C11.2847 7.48878 11.3405 7.62548 11.435 7.73382C11.4905 7.79178 11.5577 7.83717 11.6323 7.86696C11.7068 7.89674 11.7868 7.91021 11.867 7.90648H14.9634V9.58991H11.8526C11.5711 9.59337 11.2918 9.53954 11.0317 9.43165C10.7613 9.32334 10.5125 9.16738 10.2972 8.97121C10.0805 8.76628 9.90455 8.52217 9.77877 8.25179C9.63633 7.97084 9.56231 7.66024 9.56275 7.34531V2.41006H14.949Z" fill="#888D8A"/>
<path d="M18.2758 2.39569H22.5963L22.0202 3.99281H18.2182V5.04317H21.5882L21.0121 6.64029H18.2182V7.99281H21.905V9.58993H16.6772H16.5044V2.39569H16.6772H18.2758Z" fill="#888D8A"/>
<path d="M28.8611 2.41006V4.1079H25.1743V7.34531C25.1824 7.48878 25.2382 7.62548 25.3327 7.73382C25.3882 7.79178 25.4554 7.83717 25.53 7.86696C25.6045 7.89674 25.6845 7.91021 25.7647 7.90648H28.8611V9.58991H25.7647C25.4832 9.59337 25.2039 9.53954 24.9438 9.43165C24.6734 9.32334 24.4246 9.16738 24.2093 8.97121C23.9971 8.7624 23.8218 8.51915 23.6909 8.25179C23.5484 7.97084 23.4744 7.66024 23.4749 7.34531V2.41006H28.8611Z" fill="#888D8A"/>
<path d="M32.1879 2.39569H36.5084L35.9324 3.99281H32.1303V5.04317H35.5147L34.9242 6.64029H32.1303V7.99281H35.8315V9.58993H30.5893H30.4165V2.39569H30.6037H32.1879Z" fill="#888D8A"/>
<path d="M42.4273 5.84893C42.5645 6.00018 42.672 6.17589 42.7441 6.36689C42.8122 6.54328 42.8605 6.72665 42.8882 6.91366C42.9017 7.07645 42.9017 7.24007 42.8882 7.40286C42.9136 7.62757 42.9136 7.85442 42.8882 8.07912C42.8415 8.33582 42.7435 8.5805 42.6001 8.79855C42.4276 9.03603 42.2004 9.22853 41.9377 9.35972C41.5837 9.53041 41.1925 9.60953 40.7999 9.5899H37.4731V8.03596H40.7999C40.882 8.03434 40.9619 8.0094 41.0304 7.96404C41.0857 7.91844 41.1342 7.86512 41.1744 7.80574C41.1805 7.73393 41.1805 7.66173 41.1744 7.58992C41.179 7.53246 41.179 7.47473 41.1744 7.41727C41.1803 7.35505 41.1803 7.29242 41.1744 7.23021C41.1888 7.15415 41.1888 7.07605 41.1744 6.99999C41.1346 6.93172 41.0862 6.86885 41.0304 6.81293C40.9647 6.76206 40.8829 6.73654 40.7999 6.741H38.4957L37.9052 5.30216H39.9214L40.7711 4.16545H37.4299V2.46762H41.9953L43.1906 3.70501L41.88 5.50357C42.092 5.59231 42.2797 5.73045 42.4273 5.90645" fill="#888D8A"/>
<path d="M49.1242 4.68349C49.1205 4.53201 49.0586 4.38775 48.9513 4.28061C48.8965 4.22188 48.8293 4.17596 48.7546 4.14612C48.6799 4.11627 48.5996 4.10321 48.5193 4.10791H46.7191C46.6428 4.10781 46.5674 4.12325 46.4973 4.15323C46.4272 4.18321 46.3639 4.22713 46.3114 4.28233C46.2588 4.33752 46.2181 4.40282 46.1916 4.47426C46.1651 4.5457 46.1535 4.62177 46.1574 4.69785V7.33097C46.1552 7.40318 46.1682 7.47505 46.1955 7.54195C46.2228 7.60886 46.2638 7.6693 46.3158 7.71944C46.3687 7.7816 46.4351 7.83081 46.51 7.86325C46.585 7.89568 46.6663 7.91047 46.7479 7.9065H48.5481C48.6213 7.90595 48.6936 7.89032 48.7605 7.86061C48.8274 7.8309 48.8875 7.78777 48.9369 7.73384C49.001 7.68255 49.0515 7.61643 49.0841 7.54121C49.1167 7.46598 49.1305 7.3839 49.1242 7.30216V4.68349ZM48.5193 2.41008C48.8018 2.41196 49.0809 2.47068 49.3402 2.58274C49.6106 2.69106 49.8594 2.84702 50.0747 3.04318C50.2958 3.24753 50.4766 3.49157 50.6075 3.7626C50.75 4.04816 50.8192 4.3646 50.8092 4.68349V7.30216C50.8126 7.58345 50.7587 7.86251 50.6507 8.12232C50.5371 8.39315 50.3762 8.64165 50.1755 8.85614C49.9761 9.07666 49.7367 9.25732 49.4698 9.38851C49.183 9.52807 48.867 9.59711 48.5481 9.58993H46.7479C46.4663 9.59339 46.187 9.53956 45.927 9.43167C45.6565 9.32336 45.4078 9.16739 45.1925 8.97123C44.9713 8.76688 44.7906 8.52284 44.6596 8.25181C44.5267 7.963 44.4579 7.64886 44.458 7.33097V4.69785C44.4619 4.41726 44.5155 4.13957 44.6164 3.87769C44.8483 3.32495 45.273 2.87508 45.8118 2.61154C46.0954 2.47762 46.4054 2.40877 46.7191 2.41008H48.5193Z" fill="#888D8A"/>
<path d="M57.2035 2.39569H58.8885V9.58993H57.2035V6.64029H54.1215V9.58993H52.4365V2.39569H54.1215V5.14389H57.2035V2.39569Z" fill="#888D8A"/>
<path d="M65.3116 2.39569H66.9966V9.58993H65.3116V6.64029H62.2297V9.58993H60.5447V2.39569H62.2297V5.14389H65.3116V2.39569Z" fill="#888D8A"/>
<path d="M77.7117 9.58989H76.0843V2.39564H77.7837L77.7117 9.58989ZM70.3669 5.27334V7.8777H72.7287C72.809 7.88241 72.8894 7.86934 72.9641 7.8395C73.0387 7.80965 73.1059 7.76373 73.1608 7.705C73.2681 7.59787 73.3299 7.45361 73.3336 7.30212V5.30215L70.3669 5.27334ZM70.3669 3.57551H75.0186V7.30212C75.0187 7.62002 74.95 7.9342 74.817 8.22301C74.686 8.49404 74.5053 8.73808 74.2841 8.94243C74.0711 9.14153 73.8218 9.29785 73.5497 9.40288C73.2896 9.51076 73.0103 9.56459 72.7287 9.56113H68.6675V2.36688H70.3237L70.3669 3.57551Z" fill="#888D8A"/>
<path d="M83.602 1.08633V2.17983L81.917 3.10071V1.08633H83.602ZM84.4661 2.42445H86.1655V9.6187H84.4661V6.03593L81.0529 7.90647V9.6187H79.3679V2.42445H81.0529V5.96401L84.4661 4.07912V2.42445Z" fill="#888D8A"/>
<path d="M6.63919 21.9065H4.69496L2.92355 18.9424H1.6994V21.9065H0V14.7266H1.6994V17.4604H2.95235L5.31423 14.7986L6.43756 15.7338L4.36372 18.0648L6.63919 21.9065Z" fill="#888D8A"/>
<path d="M14.1425 14.7266L11.291 21.9065H9.47636L10.4557 19.4317H9.37555H8.87149L7.01367 14.7266H8.82829L10.0236 17.7338H11.1326L12.3279 14.7266H14.1425Z" fill="#888D8A"/>
<path d="M19.5432 17.3597C19.5472 17.2142 19.5124 17.0701 19.4423 16.9424C19.38 16.8151 19.2858 16.706 19.1687 16.6259C19.0606 16.5207 18.9264 16.4462 18.7799 16.4101C18.6382 16.3523 18.4865 16.323 18.3334 16.3237H16.8068V18.9568H18.3334C18.4814 18.9787 18.6318 18.9787 18.7799 18.9568C18.9259 18.9049 19.0587 18.8214 19.1687 18.7122C19.2864 18.6267 19.3805 18.5129 19.4423 18.3813C19.5112 18.248 19.5458 18.0997 19.5432 17.9497V17.3597ZM18.3622 14.741C18.7347 14.7384 19.1033 14.817 19.4423 14.9712C19.7908 15.1099 20.1088 15.3151 20.3785 15.5755C20.6386 15.835 20.8528 16.1366 21.0121 16.4676C21.1665 16.8063 21.2451 17.1746 21.2426 17.5467V17.6906C21.2468 18.0583 21.1681 18.4223 21.0121 18.7554C20.8563 19.0842 20.6416 19.3816 20.3785 19.6331C20.104 19.8838 19.787 20.0836 19.4423 20.223C19.1003 20.3662 18.7331 20.4396 18.3622 20.4388H16.8068V21.8777H15.1218V14.6834H18.3622V14.741Z" fill="#888D8A"/>
<path d="M27.1182 17C27.1146 16.8486 27.0527 16.7043 26.9454 16.5972C26.8905 16.5384 26.8234 16.4925 26.7487 16.4627C26.674 16.4328 26.5937 16.4198 26.5134 16.4245H24.7132C24.5682 16.4265 24.4294 16.483 24.3243 16.5828C24.2658 16.6386 24.2191 16.7055 24.1869 16.7797C24.1548 16.8538 24.1378 16.9336 24.1371 17.0144V19.6475C24.1376 19.7207 24.1533 19.7929 24.183 19.8597C24.2127 19.9266 24.2559 19.9866 24.3099 20.036C24.3612 20.1 24.4274 20.1504 24.5027 20.183C24.578 20.2156 24.6601 20.2294 24.742 20.2231H26.5422C26.6871 20.221 26.8259 20.1645 26.931 20.0648C26.9924 20.0113 27.0411 19.9448 27.0735 19.8701C27.1059 19.7954 27.1212 19.7145 27.1182 19.6331V17ZM26.5134 14.7266C26.7958 14.7285 27.075 14.7872 27.3343 14.8993C27.6019 15.013 27.8498 15.1684 28.0688 15.3597C28.2899 15.5641 28.4707 15.8081 28.6016 16.0792C28.7424 16.3653 28.8116 16.6813 28.8032 17V19.6331C28.7994 19.9137 28.7457 20.1914 28.6448 20.4533C28.5312 20.7241 28.3703 20.9726 28.1696 21.1871C27.9696 21.4032 27.7301 21.5791 27.4639 21.7051C27.1781 21.8491 26.8622 21.923 26.5422 21.9209H24.742C24.4595 21.919 24.1803 21.8603 23.9211 21.7482C23.6479 21.6452 23.3982 21.4887 23.1866 21.2878C22.9698 21.0796 22.7897 20.8364 22.6537 20.5684C22.513 20.2822 22.4438 19.9662 22.4521 19.6475V17.0144C22.456 16.7338 22.5096 16.4562 22.6105 16.1943C22.8424 15.6416 23.2671 15.1916 23.8058 14.9281C24.0894 14.7942 24.3995 14.7253 24.7132 14.7266H26.5134Z" fill="#888D8A"/>
<path d="M34.8522 17.3597C34.8563 17.2142 34.8215 17.0701 34.7514 16.9424C34.6845 16.8182 34.5911 16.7101 34.4778 16.6259C34.3653 16.5267 34.2327 16.4531 34.0889 16.4101C33.9468 16.3537 33.7954 16.3244 33.6425 16.3237H32.1015V18.9568H33.6425C33.7906 18.9775 33.9408 18.9775 34.0889 18.9568C34.2308 18.8966 34.3621 18.814 34.4778 18.7122C34.5914 18.6225 34.6847 18.5097 34.7514 18.3813C34.8203 18.248 34.8549 18.0997 34.8522 17.9497V17.3597ZM33.6569 14.741C34.0341 14.7382 34.4074 14.8167 34.7514 14.9712C35.0933 15.1143 35.4058 15.3191 35.6731 15.5755C35.9379 15.831 36.1528 16.1335 36.3068 16.4676C36.4657 16.8053 36.5492 17.1736 36.5516 17.5467V17.6906C36.5509 18.0594 36.4672 18.4233 36.3068 18.7554C36.1562 19.0872 35.9408 19.3856 35.6731 19.6331C35.4014 19.8803 35.0898 20.0798 34.7514 20.223C34.4041 20.3655 34.0323 20.4388 33.6569 20.4388H32.1015V21.8777H30.4165V14.6834H33.6569V14.741Z" fill="#888D8A"/>
<path d="M43.3349 16.3094H41.4626V21.9065H39.7632V16.3094H38.0638H37.3149V14.7266H37.4878H38.035H39.7632H41.4626H43.9253L43.3349 16.3094Z" fill="#888D8A"/>
</svg>
