<svg width="270" height="278" viewBox="0 0 270 278" fill="none" xmlns="http://www.w3.org/2000/svg">
<path d="M0.840332 37.4011C1.50292 38.0279 2.02153 38.7909 2.36042 39.6373C2.69931 40.4838 2.85042 41.3936 2.80329 42.3041C2.80329 43.4248 2.80329 44.8257 2.80329 46.3666C2.72428 46.8772 2.72428 47.3967 2.80329 47.9073C2.45945 49.5708 2.45945 51.2871 2.80329 52.9506C2.80329 53.7911 2.80329 54.6313 2.80329 55.3318V57.5732C2.80329 57.5732 2.80329 57.5731 2.80329 58.4136V60.9354C2.80329 62.0561 2.80329 62.8967 2.80329 63.5971V64.2973V64.9976C3.38688 65.2388 4.04252 65.2388 4.62611 64.9976H7.71079C7.71079 64.9976 8.41179 64.9976 9.39327 64.9976H11.6367C12.7407 65.2201 13.8206 65.5486 14.8615 65.9783C15.6738 66.3912 16.4282 66.9095 17.105 67.5194C18.6473 65.6983 20.6101 67.5193 22.4329 66.5387C24.2556 65.5581 27.0599 65.1379 28.6022 66.5387C30.8956 67.4656 33.4598 67.4656 35.7532 66.5387V67.9396C35.7532 67.2392 35.7532 67.0989 35.7532 66.3985C37.0465 65.7864 38.2689 65.0347 39.3986 64.1571H42.2028L41.0811 63.0366H42.2028C42.2028 60.375 41.3615 57.1529 37.5758 56.3124H35.8933L33.2293 55.0517L30.9858 52.8104C30.9196 52.5816 30.9196 52.3389 30.9858 52.1101L27.761 48.888C26.1381 46.3276 24.2075 43.9754 22.0123 41.8839C22.0123 41.8839 20.8906 41.8839 20.3298 41.8839V40.7634C20.3298 40.7634 18.9277 39.6425 18.7874 39.2222C17.9239 37.3556 16.6258 35.7226 15.0017 34.4594C13.405 33.1199 11.9058 31.6687 10.515 30.1169L7.71079 27.4553L6.30859 26.0543L5.46735 25.2139C3.24824 27.1153 1.67939 29.6624 0.980467 32.4985C0.912921 33.0568 0.912921 33.6211 0.980467 34.1794C0.980467 35.5803 0.980467 35.5803 0.980467 36.0006" fill="white" fill-opacity="0.1"/>
<path d="M260.794 43.4267C261.203 42.9391 261.577 42.4241 261.916 41.8856V40.9049C262.448 40.3009 262.832 39.5816 263.038 38.8037C263.105 36.2551 262.475 33.7367 261.215 31.5195C261.215 31.5195 260.093 31.5195 259.673 31.5195V30.8188L258.41 31.9398C257.008 31.9398 253.083 36.4225 250.699 37.6832C248.893 39.1035 246.97 40.3686 244.95 41.4653C241.897 43.0208 239.218 45.2191 237.098 47.9091V49.31C236.257 50.2906 234.294 51.5514 234.154 51.9716C233.122 53.8558 231.849 55.598 230.368 57.1546C229.106 58.6956 227.844 60.0966 227.003 61.3574C226.162 62.6182 222.937 66.1201 220.974 68.2214H225.741C226.345 68.3159 226.96 68.3159 227.564 68.2214H228.405C229.226 68.4795 230.107 68.4795 230.929 68.2214H234.014C234.014 68.2214 234.013 68.2214 235.416 68.2214C236.062 68.0766 236.732 68.0766 237.379 68.2214C239.184 68.6809 240.862 69.5429 242.286 70.7428C244.529 69.2018 246.352 70.7428 248.596 70.7428C250.839 70.7428 253.503 69.3419 255.186 70.7428C257.432 71.6614 259.95 71.6614 262.196 70.7428L265.141 69.202V68.5014C264.29 67.3896 263.245 66.4407 262.056 65.7C261.733 64.8421 261.733 63.8962 262.056 63.0383L263.599 61.3574H262.477C262.833 60.0191 262.917 58.6227 262.725 57.2512C262.532 55.8798 262.066 54.5611 261.355 53.3725C260.962 52.6654 260.756 51.8698 260.756 51.061C260.756 50.2523 260.962 49.4567 261.355 48.7495C261.696 48.1678 262.07 47.6065 262.477 47.0686L261.776 47.9091" fill="white" fill-opacity="0.1"/>
<path d="M0 102.823C0.0500771 103.148 0.0500771 103.479 0 103.804C0 105.905 0 110.107 0 109.267L3.92592 113.189L7.57137 115.991C10.7962 118.793 15.0028 124.116 16.2647 125.097C22.1536 130.28 27.7619 135.743 32.9497 141.066L40.9419 149.051L50.3361 158.156L62.5345 169.923V124.816V120.614C62.6055 119.261 62.6055 117.905 62.5345 116.552C62.5345 115.571 62.5345 114.73 62.5345 113.75C62.9895 111.249 62.9895 108.686 62.5345 106.185C62.5345 104.784 62.5345 106.185 62.5345 106.185V105.065L68.4236 110.668C69.5993 112.188 70.8632 113.638 72.2092 115.01C75.5743 118.653 78.7993 122.295 80.9025 125.097L80.0611 131.4C80.0611 133.642 79.3602 135.603 78.9395 137.144C79.8487 144.297 80.1768 151.511 79.9209 158.716L80.622 172.725C80.622 174.966 80.622 177.208 80.622 179.169V188.975L84.4078 193.037L87.212 195.979L92.8204 201.302C95.3442 203.543 97.8682 205.785 100.392 207.746H101.093H101.934L103.477 209.006L114.133 216.851L114.974 217.552L121.985 224.556V222.455L123.106 223.435C123.532 222.035 123.652 220.561 123.458 219.111C123.265 217.661 122.762 216.27 121.985 215.03V158.997C121.906 157.831 121.906 156.661 121.985 155.495V144.568L118.76 141.346L115.675 137.704L108.244 129.579L91.9792 112.769C90.0162 110.668 87.9131 110.248 85.9502 108.147L83.7067 104.924C81.7437 102.823 78.5189 100.022 77.8178 98.9009C77.1168 97.7803 75.2939 95.6788 73.7515 93.8577C72.2092 92.0366 72.2092 92.0369 71.368 91.0563L68.0028 87.5542H58.4685L53.0002 82.231C53.0002 84.052 53.0002 85.7331 53.0002 87.5542H51.7383C46.6907 87.5542 41.7833 87.5542 37.7171 87.5542C33.651 87.5542 29.4445 87.5542 25.0979 87.5542H18.3678H9.95495H7.29109L3.92592 89.2351H3.08469C3.18155 89.7913 3.18155 90.3599 3.08469 90.9161C3.14735 91.7554 3.14735 92.5981 3.08469 93.4375C3.08469 93.4375 3.08469 93.4376 3.08469 94.4182H2.24345C1.79187 94.8706 1.41342 95.3907 1.12172 95.9593C0.587281 96.959 0.253749 98.0533 0.140135 99.181C-0.0068217 100.109 -0.0068217 101.055 0.140135 101.983L0 102.823Z" fill="white" fill-opacity="0.1"/>
<path d="M168.674 119.489C166.711 121.45 166.15 123.551 164.187 125.513L160.823 127.894C158.86 129.855 155.915 132.937 154.793 133.777C152.81 135.123 150.935 136.622 149.185 138.26L146.1 140.922L142.314 144.564V160.113C142.314 164.876 142.314 169.499 142.314 173.281C142.314 181.546 142.314 190.231 141.333 199.757V207.041C141.333 209.843 141.333 212.925 141.333 216.147V236.039L147.362 230.015L151.989 224.552C154.092 222.31 156.756 219.929 159 217.828C161.243 215.726 163.486 213.765 164.187 212.925L167.553 209.283L170.357 206.201L176.106 200.317L188.164 188.27V180.846C188.164 178.885 188.164 176.923 188.164 174.962C188.164 166.277 188.164 157.452 188.164 148.907V124.812L191.389 121.31H192.23C193.092 120.27 193.843 119.143 194.473 117.948L196.296 115.987C198.199 114.356 199.811 112.414 201.063 110.244C202.466 109.263 201.064 110.244 202.045 110.244L207.093 104.78V106.741C206.983 108.748 206.983 110.759 207.093 112.765C207.093 116.547 207.093 120.33 206.392 123.411V127.754C206.392 129.435 206.392 130.976 206.392 132.377C206.392 133.777 206.392 135.178 205.69 136.439V138.12V140.081C206.402 144.715 206.684 149.404 206.532 154.09C206.532 159.133 206.532 164.876 206.532 169.219V172.161L218.45 159.273C221.514 155.757 224.842 152.478 228.405 149.467L232.191 146.105L235.275 143.023C237.378 141.062 239.201 139.101 241.024 137.28C242.847 135.458 246.352 131.256 248.595 128.314L249.297 127.614V126.773V125.933L256.728 115.847L265.841 106.741C264.299 105.2 265 103.239 265.841 101.418C266.166 100.766 266.259 100.023 266.106 99.3102C265.954 98.5978 265.564 97.9583 265 97.4958C263.879 96.7954 265 91.052 266.262 90.0714H214.804V81.9468L206.812 90.2117H200.222L197.418 93.0131L193.492 96.5152C190.828 98.7565 188.164 101.278 185.36 103.8L168.674 119.489Z" fill="white" fill-opacity="0.1"/>
<path d="M203.308 26.758C203.839 29.2044 203.839 31.7361 203.308 34.1824C202.295 36.8444 202.295 39.7853 203.308 42.4473H201.766C201.766 42.4473 202.607 42.4473 203.448 42.4473C204.018 43.7049 204.674 44.9219 205.411 46.0896V50.7122L206.533 49.5917V50.7122C209.337 50.7122 212.562 49.7315 213.403 45.3889C213.468 44.7368 213.468 44.0801 213.403 43.428V41.3264L217.61 37.2643H218.731L221.956 34.0422C222.905 33.5836 223.798 33.0198 224.62 32.3613L227.705 29.6996L230.93 26.8978C231.631 26.1974 230.93 25.2172 231.631 24.6568H233.313C233.895 23.9763 234.554 23.3652 235.276 22.8357C237.768 21.5789 240.003 19.8684 241.866 17.7924C243.87 15.7711 245.976 13.8541 248.176 12.049C249.667 10.9409 251.073 9.72375 252.382 8.40709C253.644 7.28642 255.187 5.88533 257.43 4.20432L259.673 2.52339C259.673 2.52339 259.673 2.52342 259.673 1.68292C258.127 2.2503 256.531 2.67233 254.906 2.94362L250.84 4.48477C248.316 4.48477 245.372 4.48477 244.11 4.48477L237.52 5.60525C235.837 5.60525 234.015 6.44571 233.173 6.44571C232.17 6.64222 231.185 6.92336 230.229 7.28618C229.247 7.28618 227.705 7.28618 226.163 7.28618L224.34 6.1657C223.627 5.55974 222.878 4.9984 222.096 4.48477H220.835H218.03C216.188 4.78682 214.424 5.45336 212.842 6.44571L210.879 7.98686H210.038C209.057 7.98686 208.636 9.10716 208.916 9.80758C209.197 10.508 208.215 9.80762 207.655 8.96712H206.953V8.6871C206.799 9.33168 206.799 10.0039 206.953 10.6485C207.022 11.5343 207.022 12.4238 206.953 13.3097C207.017 14.0087 207.017 14.7123 206.953 15.4113V16.5317C207.014 16.8086 207.014 17.0953 206.953 17.3722C206.546 18.2449 206.078 19.0874 205.551 19.8936C207.234 21.7147 205.551 23.9561 206.393 26.0573" fill="white" fill-opacity="0.1"/>
<path d="M140.914 70.7407C141.454 75.1134 141.454 79.5358 140.914 83.9086C139.968 88.766 139.968 93.7602 140.914 98.6176C141.297 100.275 141.765 101.911 142.316 103.52L140.633 104.501C140.633 104.501 141.755 104.501 142.316 103.801L143.157 106.322V112.066L144.419 110.805V112.066C146.943 111.225 150.028 110.385 151.009 103.801L166.573 88.2511C167.072 87.8621 167.644 87.5764 168.255 87.4107L173.864 81.6672L175.546 80.5467L179.332 77.4648L183.538 73.5425V65.2776C183.538 63.7367 182.416 62.8962 182.416 61.3553L183.258 59.3939C183.115 57.9499 183.115 56.4954 183.258 55.0514C184.438 47.7351 184.954 40.3274 184.8 32.9183C184.8 28.7158 184.8 24.3732 185.782 18.91C185.916 17.4655 185.916 16.0119 185.782 14.5674C185.782 12.6063 185.782 10.505 185.782 8.40371L184.099 5.18164L183.118 3.64092H180.734H180.033H178.631L176.668 2.52001C176.07 1.92328 175.269 1.57311 174.424 1.53932C173.38 1.17637 172.244 1.17637 171.199 1.53932C169.955 2.10408 168.779 2.80941 167.694 3.64092C167.464 3.58161 167.223 3.58161 166.993 3.64092L164.469 2.94025H163.348C161.412 1.95463 159.328 1.29237 157.178 0.979298C154.918 0.54605 152.578 0.943901 150.589 2.09978H149.607H147.644C146.264 1.9543 144.902 1.67279 143.578 1.25931C142.596 2.52006 141.194 1.25948 141.615 4.06115V19.0498V26.4742C141.615 27.4548 141.615 28.5755 142.456 28.7156C143.297 28.8557 142.456 29.8362 142.456 30.3965C142.198 30.9935 142.064 31.6373 142.064 32.2878C142.064 32.9383 142.198 33.582 142.456 34.179C142.456 35.4398 142.456 34.1789 141.755 35.2995C141.054 36.4202 141.755 39.0818 141.755 41.043C141.519 42.104 141.519 43.2041 141.755 44.2651C141.54 49.4273 140.547 54.5274 138.811 59.3939C140.633 62.6159 138.811 66.6783 139.792 70.3204" fill="white" fill-opacity="0.1"/>
<path d="M45.9897 181.547L44.3073 179.586L40.802 175.523L36.7357 171.321L35.0532 170.48H34.3521C34.1792 170.093 33.9062 169.76 33.5611 169.513C33.2161 169.267 32.8115 169.117 32.3891 169.08C32.3891 169.08 32.3891 169.079 32.3891 168.379C31.4836 167.707 30.6392 166.957 29.8654 166.137C29.8654 166.137 29.8652 165.437 29.024 164.737L27.7621 162.776C26.6008 160.983 25.7919 158.987 25.3785 156.892C22.9949 156.892 22.5742 154.371 20.7515 153.53C18.9287 152.69 16.2648 151.009 15.5637 149.187C14.3077 146.878 12.2698 145.09 9.81494 144.145H8.83357L5.60853 143.304L3.50543 141.203V142.604C1.82289 144.845 -0.140172 147.506 2.10322 150.868C2.40366 151.431 2.83696 151.912 3.3653 152.269C3.3653 153.25 4.06617 154.09 4.48681 155.211V156.612C4.40836 157.076 4.40836 157.549 4.48681 158.013L3.78592 158.853C3.50208 160.193 3.50208 161.577 3.78592 162.916C3.58567 163.886 3.58567 164.887 3.78592 165.857V167.538C3.86524 168.143 3.86524 168.755 3.78592 169.36V171.181V173.142C3.78592 174.122 5.04779 173.142 4.62716 174.402L3.3653 175.803C3.3653 176.504 2.66421 177.344 2.24357 177.765C1.68492 178.703 1.34906 179.758 1.26199 180.847C1.13577 181.4 1.13577 181.974 1.26199 182.527H2.10322C4.10983 182.37 6.12586 182.37 8.13246 182.527C10.2357 183.228 12.8996 182.527 15.7038 183.788C19.1304 184.453 22.6531 184.453 26.0796 183.788L27.3415 183.088C28.6959 183.015 30.0533 183.015 31.4078 183.088C33.5093 182.498 35.6754 182.169 37.8574 182.107H43.6062L45.9897 181.547Z" fill="white" fill-opacity="0.1"/>
<path d="M265.142 144.564C265.285 143.966 265.285 143.342 265.142 142.743C265.209 142.138 265.209 141.527 265.142 140.922C265.142 140.222 264.16 140.922 263.879 140.222C263.921 139.756 263.921 139.287 263.879 138.821L262.337 140.222C260.859 140.83 259.523 141.736 258.411 142.883C256.588 144.284 254.906 145.825 253.504 146.665C252.102 147.506 249.718 149.747 247.335 151.008C245.986 151.637 244.753 152.489 243.689 153.529L240.184 157.172V158.432C239.729 158.92 239.21 159.344 238.641 159.693L237.239 160.814C235.728 163.04 233.937 165.065 231.911 166.838C230.088 168.659 228.266 170.479 227.144 171.88C223.919 175.663 219.993 179.585 217.329 182.667H221.255H220.273L223.498 181.826H224.76C224.76 181.826 226.303 181.826 228.126 181.826C229.948 181.826 228.126 181.826 228.126 182.527C229.384 182.398 230.652 182.398 231.911 182.527C231.911 182.527 231.911 182.527 233.453 182.527H235.697C237.596 182.961 239.371 183.823 240.885 185.048C242.152 184.296 243.621 183.953 245.091 184.068C246.396 184.208 247.712 184.208 249.017 184.068C251.26 184.068 253.925 182.527 255.747 183.227C256.923 183.724 258.186 183.98 259.463 183.98C260.739 183.98 262.003 183.724 263.179 183.227L264.581 182.527L265.422 181.406C265.637 180.722 265.637 179.989 265.422 179.305C265.17 178.557 264.737 177.883 264.16 177.344C264.16 176.643 264.16 175.943 263.038 175.102V172.161H261.356C261.551 170.915 261.88 169.694 262.337 168.518C263.788 165.487 264.645 162.206 264.861 158.853C264.808 158.434 264.808 158.011 264.861 157.592H264.16V156.191C263.795 155.381 263.513 154.536 263.319 153.67C263.319 152.409 263.319 151.148 263.319 150.027C263.634 148.688 264.056 147.377 264.581 146.105" fill="white" fill-opacity="0.1"/>
<path d="M124.509 258.592C123.545 258.03 122.506 257.606 121.424 257.332L91.9794 227.914C91.5243 227.31 91.1473 226.652 90.8577 225.953L83.8471 218.949C82.8656 217.548 81.6038 216.007 80.2017 214.326L74.593 208.162L68.2835 201.578H66.0401C65.1606 201.405 64.2557 201.405 63.3762 201.578C62.5869 201.706 61.7818 201.706 60.9924 201.578L58.4687 200.878C56.6493 201.033 54.8199 201.033 53.0004 200.878C43.9235 199.844 34.7949 199.329 25.6591 199.337H21.5928H17.3866C13.8813 199.337 10.2356 199.337 6.02927 199.337H1.54259C1.54259 199.337 0.140445 199.337 0.420869 199.337C0.624421 201.293 1.04767 203.219 1.68273 205.08L2.66432 208.443V209.423H3.36542L2.2437 211.104C1.67205 212.198 1.15725 213.32 0.701354 214.466C0.492173 215.718 0.492173 216.996 0.701354 218.248C0.568627 219.224 0.568627 220.214 0.701354 221.19C1.02598 222.189 1.49847 223.133 2.10335 223.992L3.64569 226.233C3.64569 226.233 3.64569 227.074 3.64569 227.214V228.334V229.455C2.82624 232.388 2.82624 235.488 3.64569 238.42V240.101C3.64569 240.101 3.64569 240.102 3.64569 240.802C3.10101 242.055 2.72384 243.373 2.52397 244.724V246.265C2.32639 247.612 2.32639 248.981 2.52397 250.328C2.50027 251.654 2.83974 252.962 3.50556 254.11C3.57364 254.433 3.57364 254.767 3.50556 255.09C3.56547 255.836 3.56547 256.586 3.50556 257.332V261.114H4.62728C6.95738 261.365 9.30778 261.365 11.6379 261.114H14.8627H15.5638H18.368C19.5739 261.326 20.8076 261.326 22.0135 261.114L24.958 259.713L27.3416 258.312H28.4633C29.4319 258.941 30.5384 259.325 31.6881 259.433H33.0903H35.0533C35.7064 259.595 36.3882 259.604 37.0451 259.458C37.7021 259.312 38.3163 259.016 38.8391 258.592C39.9608 258.592 39.9607 258.592 40.101 258.592C40.2412 258.592 40.101 258.592 40.8021 258.592L43.6063 256.211C44.232 255.794 44.9582 255.552 45.7094 255.511H46.5506L48.2333 256.491H49.4951C51.0726 256.763 52.6849 256.763 54.2623 256.491H59.7306C59.7306 256.491 59.7306 256.491 60.4317 256.491L63.937 258.172L66.4609 259.433H70.6671L73.4715 258.592C73.9231 258.362 74.3465 258.08 74.7334 257.752H75.9952C75.9952 257.752 77.6778 257.752 79.5005 257.752H81.183L83.8471 258.733C84.7303 258.863 85.6279 258.863 86.5112 258.733C87.3674 259.068 88.319 259.068 89.1752 258.733L91.4187 257.612H92.961H94.0825C94.4314 258.022 94.8611 258.356 95.3446 258.592C96.2183 259.046 97.1696 259.331 98.1488 259.433C98.9837 259.58 99.8376 259.58 100.673 259.433H101.794H102.776C104.319 260.12 106.019 260.379 107.697 260.181C109.375 259.984 110.969 259.339 112.31 258.312H113.572H117.498H120.863V257.472V254.25L123.247 252.569L124.509 251.729" fill="white" fill-opacity="0.1"/>
<path d="M267.245 270.363V268.682L266.403 265.039C266.403 264.339 266.403 263.639 266.403 262.938H265.562C266.166 262.13 266.639 261.231 266.964 260.277C267.385 258.432 267.385 256.517 266.964 254.673V253.272V252.152C266.795 251.34 266.561 250.544 266.263 249.77C266.227 249.398 266.227 249.023 266.263 248.65V247.949C266.131 247.492 266.131 247.006 266.263 246.549C266.187 246.085 266.187 245.612 266.263 245.148V243.607C266.857 241.31 266.857 238.899 266.263 236.602C265.955 235.398 265.433 234.26 264.721 233.241C264.721 233.241 264.721 232.12 264.721 230.859L266.403 228.058V227.357C266.421 227.03 266.421 226.703 266.403 226.377C266.486 224.697 266.045 223.033 265.141 221.614C264.359 220.293 263.364 219.11 262.197 218.112C261.596 217.464 261.262 216.613 261.262 215.73C261.262 214.847 261.596 213.996 262.197 213.349H264.581L262.898 211.668C263.871 210.257 264.452 208.613 264.581 206.905H258.271H257.009H256.168V207.745H229.668H227.424H217.469H215.647C212.001 207.745 208.215 207.745 203.308 207.045L195.035 214.89C193.633 216.01 193.633 217.691 192.371 218.952L190.128 220.213C188.932 221.585 187.618 222.851 186.202 223.995C178.998 229.625 172.16 235.707 165.731 242.206C161.665 245.568 158.019 249.63 153.252 253.413C151.869 254.342 150.557 255.372 149.326 256.494L148.345 257.475L146.942 258.736L143.998 261.678V276.947L149.606 274.565C150.113 274.441 150.642 274.441 151.149 274.565L152.831 273.865C153.338 273.74 153.867 273.74 154.374 273.865C155.205 274.361 156.102 274.738 157.038 274.986C158.551 275.41 160.152 275.41 161.665 274.986C163.157 274.602 164.611 274.086 166.011 273.444L167.694 272.604H168.956H169.937H170.919H172.181H173.022H173.723H174.704C175.358 273.06 176.064 273.437 176.808 273.725C177.775 273.962 178.785 273.962 179.752 273.725C180.489 273.903 181.258 273.903 181.995 273.725C182.696 273.275 183.313 272.706 183.818 272.044H184.66C187.086 273.09 189.76 273.43 192.371 273.024C194.214 272.528 196.088 272.154 197.98 271.904H200.223C201.433 272.062 202.659 272.062 203.869 271.904C205.113 271.862 206.343 271.625 207.514 271.203L209.197 270.503L210.599 269.803C211.265 269.327 211.969 268.905 212.702 268.541H213.403L215.787 270.083L218.731 271.343H219.572V272.044C220.674 272.341 221.835 272.341 222.937 272.044L224.9 271.203L226.443 270.083C227.167 269.492 227.783 268.781 228.266 267.981C229.527 267.981 228.266 267.981 229.527 267.981C229.894 267.785 230.303 267.683 230.719 267.683C231.135 267.683 231.544 267.785 231.911 267.981C232.938 268.649 234.079 269.123 235.276 269.382H236.117C237.367 269.627 238.653 269.627 239.903 269.382H241.165C242.372 269.181 243.604 269.181 244.811 269.382L248.176 271.063C249.488 271.611 250.85 272.033 252.242 272.324H256.168H257.149C257.512 272.196 257.908 272.196 258.271 272.324L260.374 273.305C263.291 273.437 266.151 274.152 268.787 275.406C268.787 275.406 268.787 275.406 268.787 274.565" fill="white" fill-opacity="0.1"/>
<path d="M79.3599 31.7988C79.898 36.1248 79.898 40.5005 79.3599 44.8265C78.4933 49.4558 78.4933 54.2055 79.3599 58.8349C79.9591 61.398 80.708 63.9239 81.6031 66.3995V72.0027L105.159 95.5371C105.159 95.5371 105.159 96.7976 106.28 97.4981L111.889 103.101C114.668 106.779 117.665 110.287 120.862 113.608V104.782C120.628 102.946 120.3 101.123 119.881 99.3192V97.9183C119.723 96.3814 119.723 94.8326 119.881 93.2957C120.743 89.6252 121.121 85.8573 121.003 82.0888C121.003 78.0264 121.003 73.9641 121.003 70.8823C121.003 67.8004 121.003 62.3372 121.984 56.8739C122.497 51.4694 122.497 46.0286 121.984 40.6242V38.3828C121.984 36.1414 121.984 32.7795 121.984 31.939C121.777 28.0662 121.777 24.1847 121.984 20.3119V14.8488C121.984 12.4674 121.984 10.2259 121.984 8.12466V0H121.143C119.409 0.686951 117.629 1.24866 115.815 1.68093H113.151H110.627H109.645H107.402C105.762 1.14604 103.995 1.14604 102.355 1.68093L100.952 2.66162H99.1296V1.96095H96.3254C95.6409 2.11899 95.0116 2.45773 94.5028 2.94164H93.6613H92.3994C91.1375 2.94164 92.3995 2.94182 91.1376 1.82116C90.0206 1.96636 88.8894 1.96636 87.7724 1.82116L86.3704 1.12048H85.529C84.2245 1.09005 82.9453 1.48353 81.8836 2.24139C81.8836 3.36206 81.8836 4.48273 81.8836 5.74348L80.6217 12.6074V14.1486V15.2691C80.3905 15.9882 80.1094 16.6902 79.7805 17.3702C81.6032 20.5922 79.7804 24.5148 80.7618 28.1569" fill="white" fill-opacity="0.1"/>
<path d="M16.8262 11.4876V12.3281H17.6675L16.9664 14.7093C16.9664 14.7093 16.9664 14.7094 16.9664 14.009V14.7093L18.5087 15.69C18.7809 15.7861 19.078 15.7861 19.3502 15.69L22.4346 18.3516C22.4346 18.3516 23.5564 18.3516 23.8368 18.3516H24.6781C24.8645 18.7057 25.1483 18.9991 25.496 19.1976C25.8437 19.3961 26.241 19.4914 26.641 19.4721C26.641 19.4721 26.641 19.472 26.641 20.3125C27.5495 20.9283 28.3949 21.6325 29.165 22.4141C29.165 22.4141 29.1649 23.2544 30.1464 23.9548C32.1159 26.2379 33.4675 28.9869 34.0723 31.9397C36.5961 31.9397 37.157 34.6014 38.9798 35.582C40.8025 36.5626 43.8873 38.3836 44.7285 40.3448C46.0852 42.7963 48.2728 44.6839 50.8979 45.6681H51.7391L51.038 47.349C51.8793 47.349 51.038 46.5083 51.8793 45.8078L55.9455 46.9288L58.1888 49.1701V47.629H59.3105C60.8528 45.2476 62.8158 42.7263 60.4322 39.0841C60.0411 38.506 59.5688 37.9869 59.03 37.543L58.1888 35.4418V29.2781V23.2546C58.1888 23.2546 58.1888 22.1337 58.1888 21.7135C58.1888 21.2932 58.1888 18.9121 58.1888 17.6513V13.0283C58.1888 13.0283 58.1888 12.188 58.1888 11.9079V10.3667C58.1888 10.3667 58.1888 8.96611 58.1888 8.40577C58.2579 7.94138 58.2579 7.46924 58.1888 7.00485L55.2444 5.60393C52.6507 5.10812 49.9864 5.10812 47.3926 5.60393L45.4296 6.30418H44.3079C44.3079 6.30418 43.4665 6.30437 42.9057 5.1837C42.1607 3.99236 41.1536 2.98643 39.9612 2.24206H38.2787C37.5369 2.10817 36.777 2.10817 36.0352 2.24206C34.8252 2.08356 33.5998 2.08356 32.3898 2.24206L31.1279 3.50276L28.8845 4.34323H28.0433C27.6269 4.87041 27.1006 5.30059 26.5009 5.60393C25.134 3.72638 23.5319 2.03178 21.7338 0.561127L21.0326 3.08253L20.0511 2.24206V3.36254H18.2285H15.7045L9.53516 4.48345L14.022 8.54557L17.2469 11.4876" fill="white" fill-opacity="0.1"/>
<path d="M1.26318 38.0998C1.92578 38.7266 2.44438 39.4896 2.78327 40.3361C3.12216 41.1825 3.27327 42.0924 3.22614 43.0028C3.22614 44.1235 3.22614 45.5244 3.22614 47.0654C3.14713 47.576 3.14713 48.0955 3.22614 48.6061C2.8823 50.2695 2.8823 51.9859 3.22614 53.6493C3.22614 54.4898 3.22614 55.3301 3.22614 56.0305V58.2719C3.22614 58.2719 3.22614 58.2718 3.22614 59.1123V61.6342C3.22614 62.7548 3.22614 63.5954 3.22614 64.2958V64.996V65.6963C3.80973 65.9376 4.46538 65.9376 5.04897 65.6963H8.13365C8.13365 65.6963 8.83464 65.6963 9.81612 65.6963H12.0596C13.1636 65.9189 14.2435 66.2474 15.2844 66.677C16.0967 67.09 16.851 67.6083 17.5278 68.2181C19.0702 66.397 21.033 68.218 22.8557 67.2374C24.6785 66.2569 27.4828 65.8366 29.0251 67.2374C31.3184 68.1643 33.8827 68.1643 36.176 67.2374V68.6384C36.176 67.9379 36.176 67.7976 36.176 67.0972C37.4694 66.4851 38.6917 65.7335 39.8215 64.8558H42.6257L41.5039 63.7353H42.6257C42.6257 61.0738 41.7844 57.8517 37.9986 57.0112H36.3162L33.6521 55.7505L31.4087 53.5091C31.3425 53.2803 31.3425 53.0376 31.4087 52.8088L28.1839 49.5868C26.561 47.0263 24.6303 44.6741 22.4351 42.5826C22.4351 42.5826 21.3135 42.5826 20.7526 42.5826V41.4621C20.7526 41.4621 19.3505 40.3412 19.2103 39.921C18.3468 38.0543 17.0487 36.4213 15.4245 35.1582C13.8279 33.8186 12.3286 32.3675 10.9378 30.8156L8.13365 28.154L6.73144 26.7531L5.8902 25.9126C3.67109 27.814 2.10225 30.3612 1.40332 33.1972C1.33577 33.7555 1.33577 34.3199 1.40332 34.8782C1.40332 36.279 1.40332 36.2791 1.40332 36.6993" fill="white" fill-opacity="0.1"/>
<path d="M261.217 44.1256C261.625 43.638 262 43.1229 262.339 42.5845V41.6038C262.871 40.9998 263.255 40.2805 263.46 39.5026C263.528 36.954 262.898 34.4356 261.638 32.2184C261.638 32.2184 260.516 32.2184 260.095 32.2184V31.5177L258.833 32.6387C257.431 32.6387 253.505 37.1214 251.122 38.3821C249.316 39.8024 247.392 41.0675 245.373 42.1642C242.32 43.7197 239.641 45.918 237.521 48.608V50.0089C236.68 50.9895 234.717 52.2503 234.577 52.6705C233.545 54.5547 232.272 56.2969 230.791 57.8535C229.529 59.3945 228.267 60.7955 227.426 62.0563C226.584 63.3171 223.359 66.819 221.396 68.9203H226.164C226.768 69.0148 227.383 69.0148 227.987 68.9203H228.828C229.649 69.1784 230.53 69.1784 231.352 68.9203H234.436C234.436 68.9203 234.436 68.9203 235.838 68.9203C236.485 68.7755 237.155 68.7755 237.801 68.9203C239.607 69.3798 241.285 70.2418 242.709 71.4417C244.952 69.9007 246.775 71.4417 249.018 71.4417C251.262 71.4417 253.926 70.0408 255.609 71.4417C257.855 72.3603 260.373 72.3603 262.619 71.4417L265.564 69.9009V69.2003C264.713 68.0885 263.668 67.1396 262.479 66.3989C262.156 65.541 262.156 64.5951 262.479 63.7372L264.021 62.0563H262.9C263.256 60.718 263.34 59.3216 263.148 57.9501C262.955 56.5787 262.489 55.26 261.778 54.0714C261.385 53.3643 261.179 52.5687 261.179 51.7599C261.179 50.9512 261.385 50.1556 261.778 49.4484C262.119 48.8667 262.493 48.3054 262.9 47.7675L262.199 48.608" fill="white" fill-opacity="0.1"/>
<path d="M0.422852 103.518C0.472929 103.843 0.472929 104.173 0.422852 104.498C0.422852 106.6 0.422852 110.802 0.422852 109.961L4.34878 113.884L7.99422 116.685C11.2191 119.487 15.4256 124.81 16.6875 125.791C22.5764 130.974 28.1847 136.437 33.3726 141.761L41.3648 149.745L50.759 158.851L62.9574 170.618V125.511V121.308C63.0284 119.955 63.0284 118.599 62.9574 117.246C62.9574 116.265 62.9574 115.425 62.9574 114.444C63.4123 111.943 63.4123 109.38 62.9574 106.879C62.9574 105.479 62.9574 106.879 62.9574 106.879V105.759L68.8465 111.362C70.0221 112.883 71.2861 114.333 72.6321 115.705C75.9971 119.347 79.2222 122.989 81.3254 125.791L80.4839 132.095C80.4839 134.336 79.783 136.297 79.3624 137.838C80.2715 144.991 80.5996 152.205 80.3438 159.411L81.0449 173.419C81.0449 175.661 81.0449 177.902 81.0449 179.863V189.669L84.8307 193.731L87.6349 196.673L93.2433 201.996C95.7671 204.238 98.291 206.479 100.815 208.44H101.516H102.357L103.9 209.701L114.556 217.545L115.397 218.246L122.407 225.25V223.149L123.529 224.129C123.955 222.73 124.075 221.256 123.881 219.806C123.688 218.356 123.185 216.964 122.407 215.725V159.691C122.329 158.525 122.329 157.355 122.407 156.189V145.263L119.183 142.041L116.098 138.398L108.667 130.274L92.402 113.463C90.4391 111.362 88.336 110.942 86.373 108.841L84.1296 105.619C82.1666 103.518 78.9417 100.716 78.2407 99.5953C77.5396 98.4746 75.7167 96.3731 74.1744 94.552C72.6321 92.731 72.6321 92.7312 71.7908 91.7506L68.4256 88.2485H58.8913L53.423 82.9253C53.423 84.7464 53.423 86.4275 53.423 88.2485H52.1612C47.1136 88.2485 42.2061 88.2485 38.14 88.2485C34.0738 88.2485 29.8673 88.2485 25.5207 88.2485H18.7906H10.3778H7.71395L4.34878 89.9295H3.50754C3.6044 90.4856 3.6044 91.0543 3.50754 91.6104C3.5702 92.4497 3.5702 93.2925 3.50754 94.1318C3.50754 94.1318 3.50754 94.1319 3.50754 95.1125H2.6663C2.21472 95.5649 1.83627 96.085 1.54457 96.6536C1.01013 97.6533 0.676601 98.7476 0.562987 99.8753C0.41603 100.803 0.41603 101.749 0.562987 102.677L0.422852 103.518Z" fill="white" fill-opacity="0.1"/>
<path d="M169.097 120.191C167.134 122.152 166.573 124.254 164.61 126.215L161.245 128.596C159.282 130.557 156.338 133.639 155.216 134.48C153.233 135.825 151.357 137.324 149.608 138.962L146.523 141.624L142.737 145.266V160.815C142.737 165.578 142.737 170.201 142.737 173.983C142.737 182.248 142.737 190.934 141.756 200.459V207.743C141.756 210.545 141.756 213.627 141.756 216.849V236.741L147.785 230.717L152.412 225.254C154.515 223.013 157.179 220.631 159.423 218.53C161.666 216.428 163.909 214.467 164.61 213.627L167.976 209.985L170.78 206.903L176.528 201.019L188.587 188.972V181.548C188.587 179.587 188.587 177.625 188.587 175.664C188.587 166.979 188.587 158.154 188.587 149.609V125.514L191.812 122.012H192.653C193.514 120.972 194.266 119.845 194.896 118.65L196.719 116.689C198.622 115.058 200.234 113.116 201.486 110.946C202.888 109.965 201.486 110.946 202.468 110.946L207.516 105.482V107.444C207.406 109.45 207.406 111.461 207.516 113.467C207.516 117.249 207.515 121.032 206.814 124.114V128.456C206.814 130.137 206.814 131.678 206.814 133.079C206.814 134.48 206.814 135.88 206.113 137.141V138.822V140.784C206.825 145.417 207.107 150.107 206.955 154.792C206.955 159.835 206.955 165.578 206.955 169.921V172.863L218.873 159.975C221.937 156.459 225.265 153.18 228.828 150.169L232.613 146.807L235.698 143.725C237.801 141.764 239.624 139.803 241.447 137.982C243.27 136.161 246.775 131.958 249.018 129.017L249.719 128.316V127.475V126.635L257.151 116.549L266.264 107.444C264.722 105.903 265.423 103.941 266.264 102.12C266.589 101.468 266.682 100.725 266.529 100.012C266.376 99.3 265.987 98.6605 265.423 98.198C264.301 97.4976 265.423 91.7542 266.685 90.7736H215.227V82.6489L207.235 90.9138H200.645L197.841 93.7152L193.915 97.2173C191.251 99.4586 188.587 101.98 185.783 104.502L169.097 120.191Z" fill="white" fill-opacity="0.1"/>
<path d="M203.732 27.4569C204.263 29.9033 204.263 32.435 203.732 34.8813C202.719 37.5433 202.719 40.4842 203.732 43.1462H202.189C202.189 43.1462 203.031 43.1462 203.872 43.1462C204.442 44.4038 205.098 45.6208 205.835 46.7885V51.4111L206.957 50.2906V51.4111C209.761 51.4111 212.986 50.4304 213.827 46.0878C213.892 45.4357 213.892 44.779 213.827 44.1269V42.0253L218.034 37.9632H219.155L222.38 34.7411C223.328 34.2826 224.222 33.7187 225.044 33.0602L228.129 30.3986L231.354 27.5967C232.055 26.8963 231.354 25.9161 232.055 25.3558H233.737C234.319 24.6753 234.978 24.0641 235.7 23.5346C238.192 22.2778 240.427 20.5673 242.29 18.4914C244.293 16.47 246.399 14.553 248.6 12.7479C250.09 11.6398 251.496 10.4227 252.806 9.106C254.068 7.98533 255.61 6.58424 257.854 4.90324L260.097 3.2223C260.097 3.2223 260.097 3.22234 260.097 2.38184C258.551 2.94921 256.955 3.37124 255.33 3.64254L251.264 5.18368C248.74 5.18368 245.796 5.18368 244.534 5.18368L237.944 6.30416C236.261 6.30416 234.438 7.14463 233.597 7.14463C232.594 7.34113 231.609 7.62227 230.653 7.98509C229.671 7.98509 228.129 7.98509 226.587 7.98509L224.764 6.86461C224.051 6.25865 223.302 5.69732 222.52 5.18368H221.258H218.454C216.611 5.48573 214.847 6.15228 213.266 7.14463L211.303 8.68577H210.462C209.48 8.68577 209.06 9.80608 209.34 10.5065C209.621 11.2069 208.639 10.5065 208.078 9.66603H207.377V9.38602C207.222 10.0306 207.222 10.7028 207.377 11.3474C207.446 12.2333 207.446 13.1227 207.377 14.0086C207.441 14.7076 207.441 15.4112 207.377 16.1102V17.2307C207.438 17.5075 207.438 17.7943 207.377 18.0711C206.97 18.9438 206.502 19.7863 205.975 20.5925C207.658 22.4136 205.975 24.655 206.816 26.7562" fill="white" fill-opacity="0.1"/>
<path d="M141.337 71.4433C141.876 75.816 141.876 80.2385 141.337 84.6112C140.391 89.4686 140.391 94.4628 141.337 99.3202C141.72 100.977 142.188 102.613 142.739 104.223L141.056 105.204C141.056 105.204 142.178 105.204 142.739 104.503L143.58 107.025V112.768L144.842 111.507V112.768C147.366 111.928 150.45 111.087 151.432 104.503L166.995 88.9538C167.495 88.5647 168.067 88.279 168.678 88.1133L174.286 82.3698L175.969 81.2493L179.755 78.1675L183.961 74.2451V65.9803C183.961 64.4393 182.839 63.5989 182.839 62.0579L183.681 60.0966C183.538 58.6525 183.538 57.198 183.681 55.754C184.861 48.4378 185.377 41.0301 185.223 33.621C185.223 29.4185 185.223 25.0759 186.204 19.6126C186.338 18.1682 186.338 16.7145 186.204 15.2701C186.204 13.3089 186.204 11.2076 186.204 9.10635L184.522 5.88427L183.54 4.34356H181.157H180.456H179.054L177.091 3.22265C176.493 2.62591 175.692 2.27575 174.847 2.24196C173.803 1.87901 172.667 1.87901 171.622 2.24196C170.378 2.80671 169.202 3.51205 168.117 4.34356C167.887 4.28425 167.646 4.28425 167.416 4.34356L164.892 3.64288H163.77C161.835 2.65726 159.751 1.99501 157.601 1.68193C155.341 1.24869 153.001 1.64654 151.011 2.80242H150.03H148.067C146.687 2.65693 145.325 2.37543 144.001 1.96195C143.019 3.2227 141.617 1.96212 142.038 4.76379V19.7524V27.1768C142.038 28.1574 142.038 29.2781 142.879 29.4182C143.72 29.5583 142.879 30.5388 142.879 31.0992C142.621 31.6962 142.487 32.3399 142.487 32.9904C142.487 33.6409 142.621 34.2847 142.879 34.8817C142.879 36.1424 142.879 34.8815 142.178 36.0022C141.477 37.1228 142.178 39.7845 142.178 41.7456C141.942 42.8067 141.942 43.9067 142.178 44.9677C141.963 50.1299 140.97 55.23 139.233 60.0966C141.056 63.3185 139.234 67.3809 140.215 71.0231" fill="white" fill-opacity="0.1"/>
<path d="M46.4126 182.245L44.7301 180.285L41.2248 176.222L37.1585 172.019L35.4761 171.179H34.7749C34.602 170.792 34.329 170.458 33.984 170.212C33.6389 169.966 33.2343 169.816 32.812 169.778C32.812 169.778 32.812 169.778 32.812 169.078C31.9065 168.406 31.0621 167.656 30.2883 166.836C30.2883 166.836 30.2881 166.136 29.4468 165.436L28.185 163.474C27.0237 161.682 26.2147 159.685 25.8014 157.591C23.4178 157.591 22.9971 155.069 21.1743 154.229C19.3516 153.388 16.6876 151.707 15.9866 149.886C14.7306 147.576 12.6927 145.789 10.2378 144.843H9.25642L6.03138 144.003L3.92828 141.901V143.302C2.24574 145.544 0.28268 148.205 2.52608 151.567C2.82651 152.13 3.25981 152.611 3.78815 152.968C3.78815 153.949 4.48902 154.789 4.90966 155.91V157.311C4.83122 157.774 4.83122 158.248 4.90966 158.712L4.20877 159.552C3.92493 160.891 3.92493 162.275 4.20877 163.615C4.00852 164.585 4.00852 165.586 4.20877 166.556V168.237C4.28809 168.842 4.28809 169.454 4.20877 170.058V171.879V173.84C4.20877 174.821 5.47065 173.84 5.05001 175.101L3.78815 176.502C3.78815 177.202 3.08706 178.043 2.66643 178.463C2.10778 179.402 1.77191 180.457 1.68484 181.545C1.55863 182.098 1.55863 182.673 1.68484 183.226H2.52608C4.53268 183.068 6.54871 183.068 8.55532 183.226C10.6585 183.927 13.3224 183.226 16.1267 184.487C19.5532 185.152 23.0759 185.152 26.5025 184.487L27.7643 183.787C29.1187 183.714 30.4762 183.714 31.8306 183.787C33.9322 183.197 36.0982 182.868 38.2803 182.806H44.029L46.4126 182.245Z" fill="white" fill-opacity="0.1"/>
<path d="M265.564 145.267C265.707 144.669 265.707 144.045 265.564 143.446C265.632 142.841 265.632 142.23 265.564 141.625C265.564 140.925 264.583 141.625 264.302 140.925C264.344 140.459 264.344 139.99 264.302 139.524L262.76 140.925C261.282 141.533 259.946 142.439 258.834 143.586C257.011 144.987 255.329 146.528 253.927 147.369C252.525 148.209 250.141 150.45 247.757 151.711C246.408 152.34 245.176 153.192 244.112 154.233L240.607 157.875V159.136C240.152 159.623 239.633 160.047 239.064 160.396L237.662 161.517C236.151 163.744 234.36 165.768 232.334 167.541C230.511 169.362 228.688 171.183 227.567 172.583C224.342 176.366 220.416 180.288 217.752 183.37H221.678H220.696L223.921 182.529H225.183C225.183 182.529 226.726 182.529 228.548 182.529C230.371 182.529 228.548 182.53 228.548 183.23C229.807 183.101 231.075 183.101 232.334 183.23C232.334 183.23 232.334 183.23 233.876 183.23H236.12C238.019 183.664 239.794 184.526 241.308 185.751C242.575 184.999 244.044 184.657 245.514 184.771C246.819 184.911 248.135 184.911 249.44 184.771C251.683 184.771 254.347 183.23 256.17 183.93C257.346 184.427 258.609 184.683 259.886 184.683C261.162 184.683 262.426 184.427 263.601 183.93L265.003 183.23L265.845 182.109C266.06 181.425 266.06 180.692 265.845 180.008C265.593 179.26 265.16 178.586 264.583 178.047C264.583 177.347 264.583 176.646 263.461 175.806V172.864H261.779C261.974 171.618 262.303 170.397 262.76 169.222C264.211 166.19 265.068 162.909 265.284 159.556C265.231 159.137 265.231 158.714 265.284 158.295H264.583V156.894C264.218 156.084 263.936 155.239 263.742 154.373C263.742 153.112 263.742 151.851 263.742 150.73C264.057 149.391 264.479 148.08 265.003 146.808" fill="white" fill-opacity="0.1"/>
<path d="M124.932 259.296C123.968 258.733 122.929 258.309 121.847 258.035L92.4023 228.617C91.9471 228.013 91.5702 227.355 91.2806 226.656L84.2699 219.652C83.2885 218.251 82.0266 216.71 80.6245 215.029L75.0159 208.865L68.7064 202.282H66.4629C65.5834 202.108 64.6786 202.108 63.7991 202.282C63.0097 202.41 62.2046 202.41 61.4153 202.282L58.8916 201.581C57.0721 201.737 55.2427 201.737 53.4233 201.581C44.3464 200.547 35.2177 200.033 26.082 200.04H22.0157H17.8095C14.3042 200.04 10.6585 200.04 6.45212 200.04H1.96544C1.96544 200.04 0.563297 200.04 0.843721 200.04C1.04727 201.996 1.47052 203.923 2.10558 205.784L3.08717 209.146V210.126H3.78827L2.66655 211.808C2.0949 212.901 1.5801 214.023 1.12421 215.169C0.915025 216.421 0.915025 217.699 1.12421 218.951C0.991478 219.928 0.991478 220.917 1.12421 221.894C1.44883 222.892 1.92132 223.836 2.5262 224.695L4.06854 226.936C4.06854 226.936 4.06854 227.777 4.06854 227.917V229.038V230.158C3.2491 233.091 3.2491 236.191 4.06854 239.124V240.805C4.06854 240.805 4.06854 240.805 4.06854 241.505C3.52386 242.758 3.14669 244.077 2.94682 245.428V246.968C2.74924 248.315 2.74924 249.684 2.94682 251.031C2.92312 252.357 3.26259 253.665 3.92841 254.813C3.99649 255.136 3.99649 255.47 3.92841 255.794C3.98833 256.539 3.98833 257.289 3.92841 258.035V261.817H5.05013C7.38024 262.068 9.73064 262.068 12.0607 261.817H15.2856H15.9867H18.7909C19.9968 262.029 21.2304 262.029 22.4363 261.817L25.3809 260.417L27.7644 259.016H28.8862C29.8548 259.644 30.9612 260.028 32.111 260.136H33.5132H35.4762C36.1292 260.298 36.8111 260.307 37.468 260.161C38.1249 260.015 38.7391 259.719 39.2619 259.296C40.3836 259.296 40.3836 259.296 40.5238 259.296C40.664 259.296 40.5238 259.296 41.2249 259.296L44.0291 256.914C44.6549 256.497 45.3811 256.255 46.1322 256.214H46.9734L48.6561 257.194H49.918C51.4954 257.466 53.1077 257.466 54.6852 257.194H60.1534C60.1534 257.194 60.1535 257.194 60.8545 257.194L64.3598 258.875L66.8838 260.136H71.09L73.8944 259.296C74.346 259.065 74.7694 258.783 75.1562 258.455H76.4181C76.4181 258.455 78.1006 258.455 79.9234 258.455H81.6059L84.2699 259.436C85.1532 259.566 86.0508 259.566 86.934 259.436C87.7902 259.772 88.7419 259.772 89.5981 259.436L91.8415 258.315H93.3839H94.5054C94.8542 258.725 95.2839 259.059 95.7674 259.296C96.6412 259.749 97.5924 260.034 98.5716 260.136C99.4065 260.283 100.26 260.283 101.095 260.136H102.217H103.199C104.742 260.823 106.442 261.082 108.12 260.885C109.798 260.687 111.392 260.042 112.733 259.016H113.995H117.921H121.286V258.175V254.953L123.67 253.272L124.932 252.432" fill="white" fill-opacity="0.1"/>
<path d="M267.667 271.061V269.38L266.826 265.738C266.826 265.038 266.826 264.337 266.826 263.637H265.985C266.588 262.828 267.061 261.93 267.387 260.975C267.808 259.131 267.808 257.216 267.387 255.372V253.971V252.851C267.218 252.039 266.984 251.243 266.686 250.469C266.649 250.096 266.649 249.721 266.686 249.349V248.648C266.554 248.19 266.554 247.705 266.686 247.247C266.61 246.784 266.61 246.31 266.686 245.846V244.305C267.28 242.008 267.28 239.598 266.686 237.301C266.378 236.097 265.855 234.959 265.144 233.939C265.144 233.939 265.144 232.818 265.144 231.558L266.826 228.756V228.056C266.844 227.729 266.844 227.402 266.826 227.075C266.909 225.396 266.468 223.731 265.564 222.313C264.781 220.992 263.787 219.809 262.62 218.81C262.019 218.163 261.685 217.312 261.685 216.429C261.685 215.546 262.019 214.695 262.62 214.047H265.003L263.321 212.366C264.294 210.956 264.875 209.312 265.003 207.604H258.694H257.432H256.591V208.444H230.091H227.847H217.892H216.069C212.424 208.444 208.638 208.444 203.731 207.744L195.458 215.588C194.056 216.709 194.056 218.39 192.794 219.651L190.551 220.912C189.355 222.284 188.041 223.55 186.625 224.694C179.421 230.323 172.583 236.406 166.154 242.905C162.087 246.267 158.442 250.329 153.675 254.111C152.292 255.041 150.98 256.071 149.749 257.193L148.767 258.174L147.365 259.435L144.421 262.376V277.645L150.029 275.264C150.536 275.139 151.065 275.139 151.572 275.264L153.254 274.563C153.761 274.439 154.29 274.439 154.796 274.563C155.628 275.059 156.525 275.437 157.461 275.684C158.974 276.109 160.575 276.109 162.088 275.684C163.579 275.301 165.034 274.785 166.434 274.143L168.117 273.303H169.379H170.36H171.342H172.603H173.445H174.146H175.127C175.781 273.759 176.487 274.136 177.231 274.424C178.198 274.661 179.208 274.661 180.175 274.424C180.912 274.602 181.681 274.602 182.418 274.424C183.119 273.974 183.736 273.404 184.241 272.742H185.082C187.509 273.789 190.182 274.129 192.794 273.723C194.637 273.227 196.51 272.853 198.403 272.603H200.646C201.856 272.761 203.081 272.761 204.291 272.603C205.536 272.561 206.766 272.324 207.937 271.902L209.62 271.202L211.022 270.501C211.688 270.026 212.391 269.604 213.125 269.24H213.826L216.21 270.781L219.154 272.042H219.995V272.742C221.097 273.04 222.258 273.04 223.36 272.742L225.323 271.902L226.866 270.781C227.59 270.191 228.206 269.48 228.688 268.68C229.95 268.68 228.688 268.68 229.95 268.68C230.317 268.484 230.726 268.381 231.142 268.381C231.558 268.381 231.967 268.484 232.334 268.68C233.361 269.347 234.502 269.822 235.699 270.081H236.54C237.79 270.326 239.076 270.326 240.326 270.081H241.588C242.795 269.88 244.027 269.88 245.233 270.081L248.599 271.762C249.911 272.309 251.273 272.731 252.665 273.023H256.591H257.572C257.935 272.895 258.331 272.895 258.694 273.023L260.797 274.003C263.713 274.136 266.574 274.85 269.21 276.105C269.21 276.105 269.21 276.105 269.21 275.264" fill="white" fill-opacity="0.1"/>
<path d="M79.7827 32.4971C80.3209 36.823 80.3209 41.1988 79.7827 45.5247C78.9162 50.1541 78.9162 54.9038 79.7827 59.5331C80.382 62.0962 81.1309 64.6222 82.0259 67.0977V72.701L105.582 96.2354C105.582 96.2354 105.582 97.4959 106.703 98.1963L112.312 103.8C115.091 107.477 118.088 110.985 121.285 114.306V105.48C121.051 103.644 120.723 101.821 120.304 100.017V98.6165C120.145 97.0797 120.145 95.5308 120.304 93.994C121.166 90.3234 121.543 86.5555 121.426 82.787C121.426 78.7246 121.426 74.6623 121.426 71.5805C121.426 68.4987 121.426 63.0354 122.407 57.5721C122.919 52.1677 122.919 46.7269 122.407 41.3224V39.081C122.407 36.8397 122.407 33.4778 122.407 32.6373C122.2 28.7644 122.2 24.883 122.407 21.0101V15.5471C122.407 13.1656 122.407 10.9242 122.407 8.8229V0.698242H121.566C119.832 1.38519 118.052 1.9469 116.238 2.37918H113.574H111.05H110.068H107.825C106.185 1.84428 104.417 1.84428 102.777 2.37918L101.375 3.35986H99.5524V2.65919H96.7482C96.0638 2.81723 95.4344 3.15597 94.9256 3.63988H94.0842H92.8223C91.5604 3.63988 92.8223 3.64007 91.5604 2.5194C90.4435 2.66461 89.3123 2.66461 88.1953 2.5194L86.7933 1.81872H85.9518C84.6473 1.7883 83.3682 2.18178 82.3064 2.93963C82.3064 4.0603 82.3064 5.18097 82.3064 6.44172L81.0446 13.3057V14.8468V15.9673C80.8134 16.6864 80.5323 17.3884 80.2033 18.0685C82.0261 21.2904 80.2032 25.213 81.1847 28.8552" fill="white" fill-opacity="0.1"/>
<path d="M17.2491 12.1863V13.0267H18.0903L17.3892 15.4079C17.3892 15.4079 17.3892 15.4081 17.3892 14.7077V15.4079L18.9316 16.3886C19.2037 16.4847 19.5009 16.4847 19.773 16.3886L22.8575 19.0502C22.8575 19.0502 23.9793 19.0502 24.2597 19.0502H25.1009C25.2874 19.4044 25.5711 19.6977 25.9189 19.8963C26.2666 20.0948 26.6639 20.19 27.0639 20.1707C27.0639 20.1707 27.0639 20.1707 27.0639 21.0112C27.9723 21.6269 28.8178 22.3311 29.5878 23.1128C29.5878 23.1128 29.5877 23.9531 30.5692 24.6535C32.5388 26.9365 33.8903 29.6855 34.4951 32.6384C37.0189 32.6384 37.5799 35.3001 39.4026 36.2807C41.2254 37.2612 44.3101 39.0823 45.1514 41.0434C46.5081 43.4949 48.6957 45.3825 51.3207 46.3667H52.162L51.4609 48.0476C52.3022 48.0476 51.4608 47.2069 52.3021 46.5065L56.3684 47.6274L58.6116 49.8688V48.3276H59.7333C61.2757 45.9462 63.2387 43.4249 60.8551 39.7827C60.464 39.2047 59.9917 38.6855 59.4529 38.2416L58.6116 36.1404V29.9767V23.9532C58.6116 23.9532 58.6116 22.8323 58.6116 22.4121C58.6116 21.9918 58.6116 19.6107 58.6116 18.35V13.727C58.6116 13.727 58.6116 12.8867 58.6116 12.6065V11.0654C58.6116 11.0654 58.6116 9.66475 58.6116 9.10441C58.6807 8.64002 58.6807 8.16788 58.6116 7.70349L55.6673 6.30257C53.0735 5.80676 50.4092 5.80676 47.8154 6.30257L45.8525 7.00282H44.7308C44.7308 7.00282 43.8894 7.003 43.3286 5.88234C42.5835 4.691 41.5764 3.68507 40.384 2.9407H38.7015C37.9597 2.80681 37.1999 2.80681 36.4581 2.9407C35.2481 2.7822 34.0226 2.7822 32.8126 2.9407L31.5508 4.2014L29.3073 5.04187H28.4661C28.0498 5.56905 27.5234 5.99923 26.9238 6.30257C25.5568 4.42502 23.9548 2.73042 22.1566 1.25977L21.4555 3.78117L20.4739 2.9407V4.06118H18.6513H16.1274L9.95801 5.18209L14.4449 9.2442L17.6697 12.1863" fill="white" fill-opacity="0.1"/>
</svg>
