<svg width="29" height="29" viewBox="0 0 29 29" fill="none" xmlns="http://www.w3.org/2000/svg">
<path d="M12.4468 16.8679C15.5169 19.962 18.7684 21.7013 19.6991 20.7492" stroke="#1AA456" stroke-miterlimit="10"/>
<path d="M12.4469 16.8679C9.38282 13.7677 7.6604 10.4845 8.6032 9.54468" stroke="#1AA456" stroke-miterlimit="10"/>
<path d="M1.14541 26.6872C1.0233 26.9097 0.976225 27.1663 1.01131 27.4183C1.04639 27.6702 1.16171 27.9037 1.33986 28.0836C1.51801 28.2635 1.74931 28.38 1.99879 28.4154C2.24828 28.4508 2.50242 28.4033 2.72279 28.28C2.72279 28.28 18.273 22.1773 19.2883 21.1826L19.7114 20.7493C20.6602 19.7972 18.9378 16.514 15.8676 13.426C12.7975 10.3381 9.54601 8.58659 8.6153 9.54472L8.1862 9.9719C7.15879 10.985 1.14541 26.6872 1.14541 26.6872Z" stroke="#1AA456" stroke-miterlimit="10"/>
<path d="M13.438 17.6978V23.8004" stroke="#1AA456" stroke-miterlimit="10"/>
<path d="M10.4163 14.6465V25.0211" stroke="#1AA456" stroke-miterlimit="10"/>
<path d="M7.39453 11.3633V26.2416" stroke="#1AA456" stroke-miterlimit="10"/>
<path d="M4.37256 18.479V27.4622" stroke="#1AA456" stroke-miterlimit="10"/>
<path d="M15.8556 4.27197C16.8569 4.27197 17.6686 3.45229 17.6686 2.44116C17.6686 1.43003 16.8569 0.610352 15.8556 0.610352C14.8542 0.610352 14.0425 1.43003 14.0425 2.44116C14.0425 3.45229 14.8542 4.27197 15.8556 4.27197Z" stroke="#1AA456" stroke-linejoin="round"/>
<path d="M15.8555 17.6978C18.2004 14.7625 21.8991 12.2054 24.9209 14.0362C27.4713 15.5985 26.4801 18.0274 24.8725 18.3081C23.2649 18.5888 22.3523 17.0876 22.5034 16.4773" stroke="#1AA456" stroke-linejoin="round"/>
<path d="M27.0361 5.70596L26.4257 7.8358L27.8278 9.59338L25.4708 9.75205L24.2862 11.4913L23.3858 9.52015L21.3672 8.70849L23.0896 7.41472L23.1621 5.03467L24.951 6.38947L27.0361 5.70596Z" stroke="#1AA456" stroke-linejoin="round"/>
<path d="M11.2865 12.3215C12.882 9.27012 13.8913 4.4795 11.0206 3.66174C9.2075 3.15521 7.99878 4.11944 7.99878 5.49255C7.99878 6.86565 9.66077 7.47592 10.4162 6.71308" stroke="#1AA456" stroke-linejoin="round"/>
<path d="M19.3064 0.732422C19.699 1.44203 19.9494 2.22281 20.0431 3.03014C20.1369 3.83747 20.0722 4.65554 19.8527 5.43762C19.6333 6.2197 19.2634 6.95045 18.7642 7.58814C18.265 8.22584 17.6463 8.75797 16.9434 9.15414" stroke="#1AA456" stroke-linejoin="round"/>
</svg>
