<svg width="46" height="32" viewBox="0 0 46 32" fill="none" xmlns="http://www.w3.org/2000/svg">
    <path
        d="M43.1162 9.67094C43.7904 9.61172 43.9817 10.9556 43.4715 11.6025C42.8565 12.3769 40.0229 13.0785 37.6313 13.7072C34.6565 14.4862 34.7248 15.7435 37.818 16.7047C45.2527 19.0144 48.2548 23.7248 38.6608 28.7359M38.2782 8.23594C38.0357 8.26605 37.7901 8.21543 37.5792 8.09191C37.3684 7.96839 37.2042 7.77885 37.1119 7.55261M37.8909 3.58928C38.0476 3.50547 38.2236 3.46461 38.4012 3.47083C39.0708 3.47083 38.7246 3.80339 39.8863 3.80339C40.1597 3.80459 40.4216 3.91408 40.6145 4.10788C40.8075 4.30168 40.9158 4.56402 40.9158 4.8375C40.9158 5.1655 41.3987 5.36139 41.3395 5.93539C41.2803 6.50939 41.1163 6.22239 41.1163 6.94217C41.1163 7.1019 41.0848 7.26006 41.0237 7.40764C40.9626 7.55521 40.873 7.68929 40.76 7.80224C40.6471 7.91519 40.513 8.00478 40.3654 8.06591C40.2178 8.12704 40.0597 8.1585 39.8999 8.1585M38.9752 9.93516V7.2155M34.1782 9.91694V6.53216M37.4946 12.1218C35.7365 12.2183 33.9899 12.4652 32.2739 12.8598C29.6454 13.4885 28.5019 15.2834 31.3036 17.5247M26.4428 17.6887V9.70283M26.4428 8.06739V7.32483M33.6224 7.86694C32.5245 7.80772 31.1943 7.22005 31.1943 5.95817C31.1943 4.76461 30.971 4.55506 30.971 4.04028C30.9713 3.85963 31.0124 3.68138 31.0913 3.51887C31.1702 3.35636 31.2848 3.21379 31.4266 3.10183C32.0735 2.60983 31.6635 1.14294 33.2488 1.00172C33.4528 0.991472 33.6565 1.02707 33.8449 1.10591C34.0333 1.18475 34.2017 1.30481 34.3376 1.45728C34.3935 1.51957 34.4667 1.56372 34.5479 1.58401C34.6291 1.60431 34.7145 1.59984 34.7932 1.57117C35.0156 1.47994 35.2572 1.44534 35.4963 1.47044C35.7354 1.49555 35.9646 1.57959 36.1632 1.71503C36.3618 1.85047 36.5238 2.03307 36.6345 2.24648C36.7452 2.45989 36.8013 2.69744 36.7976 2.93783C36.7874 3.05643 36.8112 3.17547 36.866 3.28112C36.9208 3.38676 37.0045 3.47467 37.1074 3.53461C37.238 3.62787 37.3445 3.75087 37.4182 3.89346C37.4919 4.03605 37.5306 4.19412 37.531 4.35461C37.531 5.10628 37.0755 4.69628 37.0755 5.92172C37.0749 6.18498 37.014 6.4446 36.8977 6.68075C36.7813 6.91689 36.6125 7.1233 36.4041 7.2842C36.1958 7.44509 35.9534 7.5562 35.6955 7.60904C35.4376 7.66188 35.171 7.65504 34.9162 7.58905C34.6902 7.72528 34.4393 7.8151 34.1782 7.85328L33.6224 7.86694ZM24.4202 8.0355H28.2286L29.2536 8.87372L28.2286 9.70283H24.4202V8.0355Z"
        stroke="#68B545" stroke-miterlimit="22.93" />
    <path
        d="M13.2089 17.5977L10.266 17.0692M14.9263 19.1967C14.5067 19.4106 14.1343 19.7068 13.8314 20.0676C13.5286 20.4283 13.3014 20.8464 13.1633 21.2968M16.4616 16.1171C16.4616 16.1171 17.9877 15.1058 18.0469 14.4953M16.9262 9.48421C16.944 9.92475 17.0565 10.3563 17.2562 10.7494C17.4559 11.1425 17.738 11.4878 18.0833 11.762M19.8053 18.7138L15.0174 19.2604M16.0516 24.8273L20.1288 19.0691M15.7873 9.36577C15.7873 10.4728 16.0333 11.4932 17.2816 11.7848C17.6315 11.9064 18.0146 11.8903 18.353 11.7397C18.6915 11.5891 18.9599 11.3153 19.1038 10.9739C19.2494 10.6212 19.3533 10.2528 19.4136 9.87599M15.6142 9.29743L19.7142 9.85321C19.8614 9.52463 19.9302 9.16634 19.9151 8.80663C19.9001 8.44691 19.8017 8.0956 19.6277 7.78043C19.4143 7.4473 19.1163 7.17684 18.7641 6.99673C18.4119 6.81663 18.0182 6.73335 17.6232 6.75543C16.7349 6.72354 15.2999 7.2611 15.1222 8.1221C15.1218 8.34376 15.1659 8.56323 15.252 8.76749C15.3381 8.97175 15.4644 9.15661 15.6233 9.3111L15.6142 9.29743ZM13.4503 26.604L6.24801 25.7749V25.6382L11.0131 20.2718L13.4503 26.604ZM23.3723 25.7566L20.9579 20.1123L20.5023 19.0964L23.3723 25.7566ZM9.66467 21.8298C10.2239 22.3246 10.6728 22.9316 10.982 23.6113C11.2913 24.291 11.454 25.0282 11.4596 25.7749C11.4585 26.9291 11.0757 28.0505 10.3707 28.9645C9.66576 29.8784 8.67826 30.5334 7.56212 30.8274C6.44599 31.1215 5.26393 31.0381 4.20018 30.5901C3.13642 30.1422 2.25073 29.3549 1.68115 28.351C1.11156 27.3471 0.890084 26.183 1.05123 25.0401C1.21237 23.8972 1.74708 22.8397 2.57203 22.0324C3.39697 21.2251 4.4658 20.7134 5.61193 20.5771C6.75807 20.4407 7.91712 20.6874 8.90845 21.2785L9.66467 21.8298ZM22.156 20.6772C22.5487 20.585 22.9508 20.5392 23.3541 20.5405C24.6463 20.5447 25.891 21.0283 26.847 21.8977C27.803 22.7671 28.4022 23.9605 28.5286 25.2465C28.655 26.5325 28.2995 27.8197 27.531 28.8585C26.7626 29.8974 25.6358 30.6141 24.3692 30.8697C23.1025 31.1253 21.786 30.9016 20.6748 30.2419C19.5637 29.5823 18.7369 28.5337 18.3547 27.2993C17.9725 26.0649 18.0622 24.7326 18.6062 23.5605C19.1503 22.3884 20.11 21.46 21.2996 20.9551L22.156 20.6772ZM13.0996 17.9484L15.9194 19.9483C16.1885 20.0731 16.4022 20.2925 16.5198 20.5647C16.6374 20.8369 16.6508 21.1429 16.5572 21.4243L15.5914 27.6472C15.4958 28.2576 13.5642 27.8431 13.6827 27.1916L13.997 21.8662L10.02 19.47C9.01778 18.9507 9.14078 17.6159 9.50522 16.7367C10.2164 15.1869 11.2454 13.804 12.5256 12.6777C13.8011 11.6117 15.8876 11.5023 16.9946 12.8963L19.0218 16.1991L22.0831 17.8892C22.7209 18.3448 21.7916 19.7752 21.049 19.3607L17.8191 17.5384L15.6051 15.206L13.2362 17.3972L13.1314 17.912L13.0996 17.9484Z"
        stroke="#68B545" stroke-linejoin="round" />
</svg>