<svg width="46" height="33" viewBox="0 0 46 33" fill="none" xmlns="http://www.w3.org/2000/svg">
    <path
        d="M45.3538 32L43.5818 31.6906L42.3989 30.1282L37.637 29.9635L36.514 27.343L33.8885 27.2133L32.2064 28.541L29.0618 29.115L28.4628 30.5625M24.4797 29.9585L27.17 29.3646L27.8988 27.7224L29.8953 27.3181M4.77352 29.8038L4.05974 29.8687M3.96491 27.6825L3.1513 27.7473M7.42895 31.1166L6.71019 31.1764M2.77695 29.9286L2.06317 29.9935M2.06317 27.4978L1.34441 27.5577M3.07643 24.8673L2.35767 24.9272M4.46405 31.8054L3.65045 31.8702M1.8136 31.5408L1 31.6057M10.1842 31.8852L17.0724 30.7123L21.345 27.1334L28.8971 25.4513L33.2596 21.3384L34.9816 21.1936L38.3908 24.7874L40.7267 30.0684L10.1842 31.8852Z"
        stroke="#68B545" stroke-miterlimit="22.93" />
    <path
        d="M15.9943 4.29769L16.1839 3.09476C16.3237 3.05483 17.4418 2.75035 17.4767 2.7204C17.5117 2.69045 17.5117 2.59562 17.312 2.4908L15.3154 1.4426L15.2655 1.3278C14.7507 1.08201 14.1818 0.971374 13.6125 1.0063C13.0431 1.04124 12.492 1.22059 12.0111 1.52745C11.8514 1.63726 11.8514 1.64724 11.8065 1.83193C11.7066 2.23623 11.5769 3.14467 11.5269 3.51903C11.497 3.75862 11.5769 4.38754 11.8314 4.51732C13.1077 4.95991 14.3353 5.53191 15.4951 6.22438C15.5719 6.25439 15.6557 6.2614 15.7363 6.24456C15.817 6.22772 15.891 6.18775 15.9493 6.12954L16.3487 5.58548C16.4275 5.3544 16.4464 5.10709 16.4036 4.86671L15.9943 4.29769ZM15.9943 4.29769L14.6266 3.63383C14.5873 3.61289 14.5561 3.57941 14.538 3.53871C14.5199 3.49801 14.516 3.45243 14.5268 3.40922L14.6765 2.86516C14.6812 2.84004 14.6914 2.81628 14.7065 2.79568C14.7216 2.77507 14.7412 2.75815 14.7637 2.74615C14.7863 2.73416 14.8112 2.7274 14.8368 2.7264C14.8623 2.7254 14.8877 2.73018 14.9111 2.74037L16.1789 3.09476M18.9492 10.4721L15.4153 13.3471M16.0542 22.6412L10.1842 24.6976L10.0994 24.6377L11.0816 15.9547L11.5908 16.0197L16.0542 22.6412ZM16.0542 22.6412C16.2588 23.4847 18.5099 23.1154 18.3203 22.142L16.8628 14.5351C16.8235 14.2105 16.6657 13.9118 16.4198 13.6962C16.1739 13.4807 15.857 13.3635 15.5301 13.3671L11.3023 12.7532H11.2923L11.1576 12.1891L12.3206 9.31906L12.7049 9.16433L15.9344 10.1277L19.079 10.517C21.0655 10.7616 20.8609 8.91476 20.0124 8.76501L16.3187 8.11613L13.5235 6.48394C12.8784 6.05172 12.1278 5.80325 11.3522 5.76517C10.9401 5.81001 10.5337 5.89698 10.1393 6.02473C8.12279 6.6786 7.12949 11.0511 7.2443 13.1675C7.31418 14.4053 7.82829 15.5434 9.15102 15.7081L14.427 16.3819L16.0542 22.6412ZM20.202 10.3373L26.5911 16.327M21.0556 11.1359L17.891 19.9109M10.5586 23.0155C10.987 23.1375 11.3549 23.4142 11.5908 23.792C11.8267 24.1698 11.9139 24.6218 11.8355 25.0603C11.757 25.4987 11.5185 25.8924 11.1662 26.165C10.8139 26.4376 10.373 26.5696 9.92884 26.5354C9.48473 26.5012 9.06913 26.3033 8.76266 25.9801C8.4562 25.6569 8.28071 25.2313 8.27024 24.786C8.25978 24.3407 8.41508 23.9074 8.70602 23.5701C8.99696 23.2328 9.40281 23.0156 9.84483 22.9606L10.5586 23.0155ZM25.9472 14.7947C26.3562 14.6277 26.813 14.6205 27.2271 14.7744C27.6412 14.9284 27.9824 15.2323 28.183 15.626C28.3835 16.0196 28.4289 16.4742 28.3101 16.8998C28.1913 17.3253 27.917 17.6907 27.5415 17.9235C27.166 18.1563 26.7168 18.2395 26.2828 18.1567C25.8488 18.0739 25.4618 17.8311 25.1984 17.4764C24.9351 17.1217 24.8145 16.681 24.8608 16.2416C24.907 15.8022 25.1166 15.3962 25.448 15.1041L25.9472 14.7947ZM7.71848 20.0906C8.64161 19.6289 9.68076 19.451 10.7049 19.5792C11.729 19.7074 12.6922 20.1359 13.4731 20.8108C14.254 21.4857 14.8176 22.3767 15.0927 23.3715C15.3679 24.3662 15.3423 25.4202 15.0193 26.4005C14.6962 27.3807 14.0902 28.2434 13.2775 28.8796C12.4648 29.5159 11.482 29.8973 10.4528 29.9757C9.42369 30.0541 8.39438 29.826 7.49471 29.3202C6.59503 28.8143 5.86528 28.0535 5.39747 27.1335C5.08819 26.52 4.90288 25.8516 4.85216 25.1665C4.80143 24.4814 4.88628 23.793 5.10186 23.1408C5.31743 22.4885 5.6595 21.8851 6.10848 21.3651C6.55747 20.8452 7.10457 20.4188 7.71848 20.1105V20.0906ZM24.28 11.7599C25.2019 11.2915 26.2419 11.1071 27.2686 11.23C28.2953 11.3529 29.2624 11.7776 30.0476 12.4504C30.8329 13.1232 31.4008 14.0138 31.6797 15.0095C31.9586 16.0052 31.9358 17.0612 31.6143 18.044C31.2928 19.0267 30.6869 19.892 29.8735 20.5303C29.06 21.1687 28.0754 21.5513 27.0444 21.6299C26.0134 21.7084 24.9822 21.4794 24.0814 20.9717C23.1806 20.464 22.4507 19.7005 21.984 18.7778C21.3591 17.5425 21.2499 16.1097 21.6804 14.7939C22.1109 13.4782 23.0458 12.387 24.28 11.7599Z"
        stroke="#68B545" stroke-miterlimit="22.93" />
</svg>