<svg width="32" height="41" viewBox="0 0 32 41" fill="none" xmlns="http://www.w3.org/2000/svg">
    <path
        d="M20.0479 34.2157L22.594 34.6878L26.7062 39.3854C27.007 39.7292 27.4235 39.9453 27.8732 39.991C28.3229 40.0367 28.7731 39.9087 29.1346 39.6323C29.3329 39.4806 29.4985 39.289 29.6209 39.0692C29.7433 38.8495 29.82 38.6063 29.8461 38.355C29.8723 38.1037 29.8473 37.8496 29.7728 37.6086C29.6983 37.3676 29.5759 37.1448 29.4132 36.9541L25.1487 31.9581C24.8304 31.5854 24.4175 31.3094 23.9553 31.1605L23.1232 30.8923"
        stroke="#68B545" stroke-width="0.945455" stroke-linecap="round" stroke-linejoin="round" />
    <path
        d="M16.5448 33.461C16.1602 33.3368 15.8001 33.1448 15.481 32.8935L9.09327 27.8953C8.34534 27.3218 7.76035 26.1623 7.67065 25.2874"
        stroke="#68B545" stroke-width="0.945455" stroke-linecap="round" stroke-linejoin="round" />
    <path
        d="M18.3706 28.1381L20.4363 25.9072C20.7541 25.564 21.1373 25.2906 21.5624 25.1038C21.9874 24.917 22.4454 24.8206 22.9082 24.8206H29.2169C29.6961 24.8206 30.1558 25.0147 30.4946 25.3604C30.8335 25.706 31.0239 26.1748 31.0239 26.6636V26.6636C31.0239 27.1524 30.8335 27.6212 30.4946 27.9668C30.1558 28.3125 29.6961 28.5067 29.2169 28.5067H23.4291L20.4978 32.3526C20.2174 32.7213 19.8682 33.0297 19.4703 33.26C19.0725 33.4904 18.6338 33.6382 18.1797 33.6948"
        stroke="#68B545" stroke-width="0.945455" stroke-linecap="round" stroke-linejoin="round" />
    <path d="M13.5088 24.5867L15.1435 25.7543" stroke="#68B545" stroke-width="0.945455" stroke-linecap="round"
        stroke-linejoin="round" />
    <path
        d="M13.53 24.5869L16.0708 23.216C16.8052 22.8195 17.3639 22.1607 17.6358 21.3706L19.0286 17.3203C19.1503 16.9666 19.1415 16.5808 19.0036 16.233C18.8658 15.8852 18.6082 15.5984 18.2774 15.4247V15.4247C18.0819 15.3219 17.8669 15.2619 17.6465 15.2485C17.4262 15.2351 17.2055 15.2686 16.999 15.347C16.7926 15.4253 16.605 15.5466 16.4488 15.7028C16.2925 15.8591 16.1711 16.0468 16.0925 16.2535L14.4219 20.6498L10.9528 22.0942C10.4381 22.3086 9.9608 22.6039 9.53906 22.9691"
        stroke="#68B545" stroke-width="0.945455" stroke-linecap="round" stroke-linejoin="round" />
    <path
        d="M5.10181 17.3474C5.56182 17.3474 6.01734 17.438 6.44234 17.6141C6.86734 17.7901 7.2535 18.0481 7.57878 18.3734C7.90406 18.6987 8.16209 19.0849 8.33813 19.5099C8.51417 19.9349 8.60478 20.3904 8.60478 20.8504C8.60478 21.3104 8.51417 21.7659 8.33813 22.1909C8.16209 22.6159 7.90406 23.0021 7.57878 23.3274C7.2535 23.6526 6.86734 23.9107 6.44234 24.0867C6.01734 24.2628 5.56182 24.3534 5.10181 24.3534"
        stroke="#68B545" stroke-width="0.945455" stroke-linecap="round" stroke-linejoin="round" />
    <path
        d="M4.86812 16.4133C3.75326 16.4133 2.68407 16.8685 1.89575 17.6787C1.10743 18.4889 0.664551 19.5878 0.664551 20.7337C0.664551 21.8795 1.10743 22.9784 1.89575 23.7886C2.68407 24.5988 3.75326 25.054 4.86812 25.054V16.4133Z"
        stroke="#68B545" stroke-width="0.945455" stroke-linecap="round" stroke-linejoin="round" />
    <path
        d="M2.7664 18.7483C2.47078 18.9892 2.23551 19.279 2.07492 19.6002C1.91433 19.9214 1.83177 20.2672 1.83228 20.6165"
        stroke="#68B545" stroke-width="0.945455" stroke-linecap="round" stroke-linejoin="round" />
    <path
        d="M3.46704 16.8803V15.9915C3.46701 15.8935 3.4851 15.7965 3.52028 15.706C3.55546 15.6155 3.60703 15.5333 3.67206 15.464C3.73709 15.3947 3.8143 15.3398 3.89927 15.3023C3.98424 15.2648 4.07531 15.2456 4.16727 15.2456V15.2456C4.2593 15.2455 4.35044 15.2647 4.4355 15.3021C4.52055 15.3395 4.59784 15.3944 4.66295 15.4637C4.72806 15.533 4.7797 15.6153 4.81492 15.7058C4.85015 15.7964 4.86826 15.8935 4.86823 15.9915V16.6107"
        stroke="#68B545" stroke-width="0.945455" stroke-linecap="round" stroke-linejoin="round" />
    <path d="M6.26953 24.1196L7.90425 25.2873" stroke="#68B545" stroke-width="0.945455" stroke-linecap="round"
        stroke-linejoin="round" />
    <path d="M9.53875 22.9522L8.37109 22.0181" stroke="#68B545" stroke-width="0.945455" stroke-linecap="round"
        stroke-linejoin="round" />
    <path d="M7.9043 25.2872L9.53902 22.9519" stroke="#68B545" stroke-width="0.945455" stroke-linecap="round"
        stroke-linejoin="round" />
    <path d="M28.4551 28.0899V25.054" stroke="#68B545" stroke-width="0.945455" stroke-linecap="round"
        stroke-linejoin="round" />
    <path d="M25.886 38.5987L28.6884 36.2634" stroke="#68B545" stroke-width="0.945455" stroke-linecap="round"
        stroke-linejoin="round" />
    <path d="M11.6406 29.7243L16.5176 24.5603L16.5448 22.9519" stroke="#68B545" stroke-width="0.945455"
        stroke-linecap="round" stroke-linejoin="round" />
    <path d="M18.1797 15.2457V12.4434" stroke="#68B545" stroke-width="0.945455" stroke-linecap="round"
        stroke-linejoin="round" />
    <path
        d="M18.1796 19.916V34.1142C18.1796 34.2124 18.1603 34.3096 18.1226 34.4003C18.085 34.4911 18.0299 34.5735 17.9603 34.643C17.8908 34.7124 17.8082 34.7675 17.7174 34.8051C17.6265 34.8427 17.5291 34.862 17.4307 34.862V34.862C17.3323 34.8621 17.2349 34.8427 17.144 34.8052C17.0531 34.7676 16.9705 34.7125 16.9009 34.6431C16.8314 34.5736 16.7762 34.4912 16.7386 34.4004C16.7009 34.3096 16.6816 34.2124 16.6816 34.1142V26.694L12.8083 30.6983"
        stroke="#68B545" stroke-width="0.945455" stroke-linecap="round" stroke-linejoin="round" />
    <path d="M16.7783 12.4434V15.4793" stroke="#68B545" stroke-width="0.945455" stroke-linecap="round"
        stroke-linejoin="round" />
    <path d="M27.7544 11.9763L4.63477 2.63501" stroke="#68B545" stroke-width="0.945455" stroke-linecap="round"
        stroke-linejoin="round" />
    <path d="M27.7544 10.1077L4.63477 1" stroke="#68B545" stroke-width="0.945455" stroke-linecap="round"
        stroke-linejoin="round" />
    <path
        d="M21.2154 9.4441C21.027 10.3553 20.5054 11.1644 19.7516 11.7149C18.9978 12.2653 18.0655 12.5179 17.1353 12.4237C16.205 12.3295 15.343 11.8952 14.7162 11.2049C14.0894 10.5146 13.7424 9.61744 13.7424 8.6872V6.60474"
        stroke="#68B545" stroke-width="0.945455" stroke-linecap="round" stroke-linejoin="round" />
    <path
        d="M19.5808 8.83119C19.5393 9.38287 19.2893 9.89679 18.8833 10.2651C18.4773 10.6335 17.9468 10.8276 17.4031 10.8069C16.8594 10.7861 16.3447 10.5521 15.967 10.1538C15.5893 9.75554 15.3779 9.22401 15.3772 8.67072V7.30542"
        stroke="#68B545" stroke-width="0.945455" stroke-linecap="round" stroke-linejoin="round" />
    <path
        d="M14.5599 4.73659C15.3983 4.73659 16.0779 4.05698 16.0779 3.21864C16.0779 2.38029 15.3983 1.70068 14.5599 1.70068C13.7216 1.70068 13.042 2.38029 13.042 3.21864C13.042 4.05698 13.7216 4.73659 14.5599 4.73659Z"
        stroke="#68B545" stroke-width="0.945455" stroke-linecap="round" stroke-linejoin="round" />
    <path
        d="M21.259 6.94781C22.0336 6.62698 22.4014 5.73902 22.0806 4.96449C21.7597 4.18996 20.8718 3.82216 20.0972 4.14298C19.3227 4.4638 18.9549 5.35176 19.2757 6.12629C19.5965 6.90082 20.4845 7.26863 21.259 6.94781Z"
        stroke="#68B545" stroke-width="0.945455" stroke-linecap="round" stroke-linejoin="round" />
    <path d="M16.0776 17.1138L18.88 18.0479" stroke="#68B545" stroke-width="0.945455" stroke-linecap="round"
        stroke-linejoin="round" />
</svg>