<svg id="Layer_1" data-name="Layer 1" xmlns="http://www.w3.org/2000/svg" viewBox="0 0 32 32"><defs><style>.cls-1{fill:#1aa456;}</style></defs><path class="cls-1" d="M1,31.5a.52.52,0,0,1-.29-.09A.52.52,0,0,1,.5,31V16.36h1V30.3L10,27.39a.45.45,0,0,1,.28,0l11.25,2.9,9.41-3.53V8.5l-9.23,3a.55.55,0,0,1-.31,0L16.8,10l.32-.95,4.4,1.47,9.72-3.19a.52.52,0,0,1,.45.07.51.51,0,0,1,.21.41V27.1a.5.5,0,0,1-.32.47l-9.88,3.7a.55.55,0,0,1-.31,0L10.14,28.38l-9,3.09A.45.45,0,0,1,1,31.5Z"/><rect class="cls-1" x="21.02" y="11.04" width="1" height="19.76"/><rect class="cls-1" x="9.62" y="23.2" width="1" height="4.56"/><path class="cls-1" d="M7.84,20.66a.5.5,0,0,1-.48-.35,14.2,14.2,0,0,0-3.6-5.67C2.09,12.78.5,11,.5,8A7.34,7.34,0,0,1,13,2.81,7.28,7.28,0,0,1,15.18,8c0,3-1.59,4.78-3.26,6.64a14.2,14.2,0,0,0-3.6,5.67A.5.5,0,0,1,7.84,20.66Zm0-19A6.35,6.35,0,0,0,1.5,8c0,2.64,1.39,4.19,3,6a17.31,17.31,0,0,1,3.33,4.74A17.31,17.31,0,0,1,11.17,14c1.62-1.78,3-3.33,3-6A6.35,6.35,0,0,0,7.84,1.66Z"/><path class="cls-1" d="M7.84,10.78a2.47,2.47,0,0,1-.54,0A2.81,2.81,0,0,1,5.87,10a2.78,2.78,0,0,1-.76-1.42,2.85,2.85,0,0,1,.16-1.61,2.79,2.79,0,0,1,1-1.25A2.83,2.83,0,0,1,9.81,6a2.78,2.78,0,0,1,.34,3.51,2.72,2.72,0,0,1-1.25,1A2.78,2.78,0,0,1,7.84,10.78Zm0-4.56a1.85,1.85,0,0,0-1,.3,1.81,1.81,0,0,0-.65.8,1.74,1.74,0,0,0-.11,1,1.77,1.77,0,0,0,.49.91,1.78,1.78,0,0,0,1.94.39A1.78,1.78,0,0,0,9.32,9a1.72,1.72,0,0,0,.3-1A1.78,1.78,0,0,0,7.84,6.22Z"/></svg>